<svg width="79" height="45" viewBox="0 0 79 45" fill="none" xmlns="http://www.w3.org/2000/svg">
<path d="M1.60331 40.8153L1.09988 42.4785H0L1.87143 36.6077H3.2285L5.12183 42.4785H3.97817L3.44738 40.8153H1.59236H1.60331ZM3.27228 40.0057L2.81263 38.5573C2.69772 38.1993 2.60469 37.7973 2.51714 37.4613H2.50072C2.41317 37.8028 2.32561 38.2103 2.22165 38.5573L1.77294 40.0057H3.27228Z" fill="white"/>
<path d="M5.96436 36.2939H7.03687V42.4787H5.96436V36.2939Z" fill="white"/>
<path d="M8.9031 38.2324L9.34634 40.16C9.43937 40.6116 9.53786 41.0742 9.61447 41.5369H9.63088C9.71844 41.0742 9.85524 40.6061 9.97563 40.171L10.5228 38.2379H11.3874L11.9127 40.1215C12.0441 40.6171 12.1535 41.0797 12.252 41.5424H12.2684C12.3395 41.0797 12.4326 40.6171 12.5475 40.1215L13.0126 38.2379H14.0578L12.7335 42.4841H11.7486L11.2451 40.7603C11.1138 40.3142 11.0208 39.9122 10.9223 39.4H10.9059C10.8183 39.9232 10.7089 40.3418 10.583 40.7603L10.0468 42.4841H9.05085L7.80322 38.2379H8.89216L8.9031 38.2324Z" fill="white"/>
<path d="M17.1879 42.4792L17.1168 42.0111H17.0894C16.8322 42.3415 16.389 42.5784 15.8418 42.5784C14.9936 42.5784 14.5176 41.9615 14.5176 41.3172C14.5176 40.2432 15.4588 39.7035 17.0183 39.7145V39.6429C17.0183 39.362 16.9034 38.8994 16.1592 38.8994C15.415 38.8994 15.311 39.0316 15.0265 39.2133L14.8185 38.5139C15.1304 38.3211 15.6776 38.1394 16.3398 38.1394C17.6914 38.1394 18.0799 39.0041 18.0799 39.9238V41.4548C18.0799 41.8404 18.0963 42.2149 18.1401 42.4737H17.177L17.1879 42.4792ZM17.0511 40.4029C16.296 40.3864 15.5791 40.5516 15.5791 41.196C15.5791 41.8404 15.8473 41.8073 16.1865 41.8073C16.5258 41.8073 16.9198 41.5264 17.0183 41.2235C17.0457 41.1464 17.0511 41.0583 17.0511 40.9867V40.4029Z" fill="white"/>
<path d="M19.9512 38.2326L20.7118 40.5071C20.7994 40.7715 20.8869 41.0909 20.9471 41.3332H20.9745C21.0456 41.0909 21.1222 40.777 21.1988 40.4961L21.8555 38.2326H22.9991L21.943 41.1239C21.363 42.7101 20.9745 43.415 20.471 43.8501C20.0552 44.2246 19.6229 44.3623 19.3547 44.4008L19.114 43.4921C19.2945 43.448 19.5189 43.3544 19.7378 43.1947C19.9348 43.0625 20.1701 42.8092 20.3178 42.5228C20.3616 42.4457 20.3889 42.3851 20.3889 42.3301C20.3889 42.275 20.378 42.2254 20.3288 42.1208L18.7856 38.2271H19.9567L19.9512 38.2326Z" fill="white"/>
<path d="M23.6284 41.4934C23.8691 41.6421 24.3288 41.7963 24.7118 41.7963C25.0949 41.7963 25.3849 41.6035 25.3849 41.3282C25.3849 41.0528 25.2098 40.8931 24.6899 40.7113C23.8691 40.425 23.5189 39.9734 23.5299 39.4722C23.5299 38.7232 24.1427 38.1394 25.1222 38.1394C26.1017 38.1394 25.9977 38.2606 26.2385 38.3927L26.0306 39.1528C25.85 39.0481 25.5107 38.9104 25.1386 38.9104C24.7665 38.9104 24.5476 39.0922 24.5476 39.3565C24.5476 39.6209 24.7446 39.7586 25.2864 39.9513C26.047 40.2322 26.4027 40.6232 26.4136 41.2511C26.4136 42.0166 25.8172 42.5784 24.7009 42.5784C23.5846 42.5784 23.7323 42.4572 23.4204 42.281L23.6284 41.5044V41.4934Z" fill="white"/>
<path d="M29.1769 39.6044C29.1769 39.0316 29.1659 38.6185 29.144 38.2385H30.0688L30.1016 39.0481H30.1345C30.3424 38.4478 30.8349 38.1394 31.2836 38.1394C31.7323 38.1394 31.4478 38.1504 31.5353 38.1669V39.1803C31.4478 39.1638 31.3547 39.1473 31.2234 39.1473C30.7145 39.1473 30.3643 39.4777 30.2713 39.9568C30.2549 40.0505 30.2385 40.1661 30.2385 40.2873V42.4847H29.1714V39.6099L29.1769 39.6044Z" fill="white"/>
<path d="M33.0838 40.6557C33.1112 41.4212 33.7076 41.7516 34.3807 41.7516C35.0538 41.7516 35.2289 41.6801 35.5517 41.5589L35.7049 42.2969C35.3438 42.4456 34.8403 42.5612 34.2329 42.5612C32.8649 42.5612 32.0605 41.7186 32.0605 40.4189C32.0605 39.1191 32.7719 38.1333 34.1235 38.1333C35.4751 38.1333 35.9402 39.2678 35.9402 40.1986C35.9402 41.1293 35.9238 40.5565 35.9074 40.6502H33.0838V40.6557ZM34.9334 39.9067C34.9443 39.5157 34.7692 38.8713 34.0578 38.8713C33.3465 38.8713 33.1221 39.4716 33.0783 39.9067H34.9334Z" fill="white"/>
<path d="M36.8652 36.2939H37.9378V42.4787H36.8652V36.2939Z" fill="white"/>
<path d="M40.296 37.0484C40.296 37.3733 40.0607 37.6211 39.6886 37.6211C39.3165 37.6211 39.0977 37.3678 39.0977 37.0484C39.0977 36.729 39.3384 36.4646 39.6941 36.4646C40.0498 36.4646 40.2851 36.7179 40.2906 37.0484H40.296ZM39.1578 42.4787V38.2325H40.2304V42.4787H39.1578Z" fill="white"/>
<path d="M43.8203 42.4792L43.7491 42.0111H43.7218C43.4646 42.3415 43.0213 42.5784 42.4741 42.5784C41.626 42.5784 41.1499 41.9615 41.1499 41.3172C41.1499 40.2432 42.0911 39.7035 43.6506 39.7145V39.6429C43.6506 39.362 43.5357 38.8994 42.7915 38.8994C42.0473 38.8994 41.9434 39.0316 41.6588 39.2133L41.4509 38.5139C41.7628 38.3211 42.31 38.1394 42.9721 38.1394C44.3237 38.1394 44.7122 39.0041 44.7122 39.9238V41.4548C44.7122 41.8404 44.7286 42.2149 44.7724 42.4737H43.8093L43.8203 42.4792ZM43.678 40.4029C42.9228 40.3864 42.206 40.5516 42.206 41.196C42.206 41.8404 42.4741 41.8073 42.8134 41.8073C43.1527 41.8073 43.5467 41.5264 43.6452 41.2235C43.6725 41.1464 43.678 41.0583 43.678 40.9867V40.4029Z" fill="white"/>
<path d="M45.8775 42.4789C45.894 42.1925 45.9104 41.7188 45.9104 41.2838V36.2886H46.9774V38.8165H46.9938C47.2565 38.4089 47.7107 38.1391 48.3454 38.1391C49.3742 38.1391 50.1129 39.0037 50.102 40.2924C50.102 41.818 49.1389 42.578 48.1867 42.578C47.2346 42.578 47.158 42.3687 46.8516 41.8455H46.8351L46.7804 42.4789H45.8721H45.8775ZM46.9774 40.7275C46.9774 40.8156 46.9884 40.9038 47.0048 40.9809C47.1197 41.4104 47.4918 41.7299 47.9514 41.7299C48.619 41.7299 49.024 41.1901 49.024 40.3365C49.024 39.4829 48.6683 38.9762 47.9569 38.9762C47.2455 38.9762 47.1361 39.2901 47.0157 39.7582C46.9993 39.8353 46.9829 39.9345 46.9829 40.0391V40.7275H46.9774Z" fill="white"/>
<path d="M51.0488 36.2939H52.1214V42.4787H51.0488V36.2939Z" fill="white"/>
<path d="M54.091 40.6557C54.1184 41.4212 54.7149 41.7516 55.3879 41.7516C56.061 41.7516 56.2361 41.6801 56.5589 41.5589L56.7176 42.2969C56.3565 42.4456 55.853 42.5612 55.2457 42.5612C53.8776 42.5612 53.0732 41.7186 53.0732 40.4189C53.0732 39.1191 53.7846 38.1333 55.1362 38.1333C56.4878 38.1333 56.9529 39.2678 56.9529 40.1986C56.9529 41.1293 56.9365 40.5565 56.9201 40.6502H54.0965L54.091 40.6557ZM55.9461 39.9067C55.957 39.5157 55.7819 38.8713 55.0705 38.8713C54.3592 38.8713 54.1348 39.4716 54.091 39.9067H55.9461Z" fill="white"/>
<path d="M59.7877 42.4789C59.8041 42.1925 59.8205 41.7188 59.8205 41.2838V36.2886H60.8876V38.8165H60.904C61.1667 38.4089 61.6208 38.1391 62.2556 38.1391C63.2843 38.1391 64.0231 39.0037 64.0121 40.2924C64.0121 41.818 63.049 42.578 62.0969 42.578C61.1448 42.578 61.0681 42.3687 60.7617 41.8455H60.7453L60.6906 42.4789H59.7822H59.7877ZM60.8876 40.7275C60.8876 40.8156 60.8985 40.9038 60.9149 40.9809C61.0298 41.4104 61.4019 41.7299 61.8561 41.7299C62.5237 41.7299 62.9286 41.1901 62.9286 40.3365C62.9286 39.4829 62.573 38.9762 61.8616 38.9762C61.1502 38.9762 61.0408 39.2901 60.9204 39.7582C60.904 39.8353 60.8876 39.9345 60.8876 40.0391V40.7275Z" fill="white"/>
<path d="M67.3334 42.4792L67.2623 42.0111H67.2349C66.9723 42.3415 66.5345 42.5784 65.9873 42.5784C65.1392 42.5784 64.6631 41.9615 64.6631 41.3172C64.6631 40.2432 65.6043 39.7035 67.1638 39.7145V39.6429C67.1638 39.362 67.0489 38.8994 66.3047 38.8994C65.5605 38.8994 65.4565 39.0316 65.172 39.2133L64.964 38.5139C65.276 38.3211 65.8232 38.1394 66.4853 38.1394C67.8369 38.1394 68.2254 39.0041 68.2254 39.9238V41.4548C68.2254 41.8404 68.2418 42.2149 68.2856 42.4737H67.3225L67.3334 42.4792ZM67.1912 40.4029C66.436 40.3864 65.7192 40.5516 65.7192 41.196C65.7192 41.8404 65.9873 41.8073 66.3266 41.8073C66.6659 41.8073 67.0598 41.5264 67.1583 41.2235C67.1857 41.1464 67.1912 41.0583 67.1912 40.9867V40.4029Z" fill="white"/>
<path d="M69.4239 39.4996C69.4239 39.0094 69.413 38.6019 69.3911 38.2384H70.3268L70.3761 38.8773H70.4034C70.584 38.5468 71.0437 38.1448 71.7441 38.1448C72.4445 38.1448 73.2434 38.6239 73.2434 39.9677V42.4846H72.1764V40.0889C72.1764 39.4776 71.952 39.0149 71.372 39.0149C70.792 39.0149 70.6552 39.3178 70.5402 39.6428C70.5074 39.7364 70.4965 39.8686 70.4965 39.9897V42.4846H69.4239V39.5051V39.4996Z" fill="white"/>
<path d="M75.5143 40.1H75.5307C75.6347 39.9348 75.7551 39.753 75.87 39.6043L76.8933 38.2385H78.1737L76.6142 39.9733L78.3981 42.4847H77.0903L75.8755 40.6122L75.5143 41.0418V42.4902H74.4473V36.3054H75.5143V40.111V40.1Z" fill="white"/>
<path d="M16 30.3457C13.8659 30.3457 11.8303 29.9712 9.8823 29.2222C7.93425 28.4732 6.23792 27.4268 4.78236 26.083C3.3268 24.7392 2.16673 23.1365 1.30762 21.2805C0.443037 19.4245 0.0107422 17.3703 0.0107422 15.1233C0.0107422 12.8763 0.415676 10.9927 1.23101 9.16979C2.04087 7.34685 3.15169 5.76623 4.55253 4.41692C5.95885 3.07312 7.60593 2.0157 9.49926 1.25017C11.3926 0.484649 13.4227 0.0660886 15.5896 0H17.8879C18.3968 1.10698 19.535 3.5798 20.2573 5.16041H16.0438C14.5882 5.16041 13.2421 5.40825 12.0109 5.90391C10.7742 6.39958 9.70172 7.08249 8.78789 7.95266C7.87406 8.82282 7.15722 9.87473 6.63191 11.1029C6.10659 12.331 5.84394 13.6803 5.84394 15.1508C5.84394 16.6213 6.12848 18.1303 6.70852 19.375C7.28308 20.6196 8.05464 21.6826 9.01772 22.5527C9.9808 23.4229 11.108 24.0893 12.394 24.5519C13.6799 25.0145 15.0315 25.2403 16.4542 25.2403H29.4941C29.8333 25.9838 31.3382 29.2607 31.8471 30.3512H16V30.3457Z" fill="white"/>
<path d="M42.0851 0C44.0167 0 45.6802 0.479144 47.0865 1.43192C48.4929 2.3847 49.5325 3.58531 50.2056 5.03375C50.8841 6.48219 51.1632 8.04628 51.0428 9.73154C50.9224 11.4168 50.2877 12.9754 49.1386 14.4073C50.523 15.1563 51.5517 16.1366 52.2084 17.3427C52.8705 18.5544 53.2152 19.8045 53.2481 21.0988C53.2809 22.2223 53.1058 23.3403 52.7173 24.4473C52.3287 25.5543 51.7432 26.5401 50.9662 27.4102C50.1892 28.2804 49.2316 28.9853 48.0989 29.5306C46.9662 30.0758 45.6857 30.3457 44.2684 30.3457H37.7786C36.9195 28.5117 36.0659 26.6392 35.349 25.0861H44.2684C45.4504 25.0861 46.3423 24.7281 46.9333 24.0067C47.5243 23.2852 47.8198 22.4977 47.8198 21.6385C47.8198 20.7794 47.5243 19.9918 46.9333 19.2703C46.3423 18.5489 45.4504 18.1909 44.2684 18.1909H32.1807C31.5076 16.7259 30.3585 14.2421 29.8058 13.0305C30.0411 13.0305 42.9989 13.0305 42.9989 13.0305C43.3382 13.0305 43.5899 13.047 43.7595 13.08C44.5694 12.5018 45.1385 11.7693 45.4613 10.8826C45.7842 9.9959 45.8772 9.13675 45.7404 8.30513C45.6036 7.46801 45.2315 6.75756 44.6241 6.15725C44.0167 5.56246 43.1686 5.26506 42.0851 5.26506H26.2326C25.658 4.00387 24.7223 1.97164 23.814 0.00550772H42.0851V0Z" fill="white"/>
<path d="M75.7055 12.6672L73.2704 17.9268H62.9119V25.0809H78.3923C78.343 25.191 75.9681 30.3404 75.9681 30.3404H57.6313V12.6672H75.7H75.7055Z" fill="white"/>
<path d="M75.968 5.26506H57.6367V0H78.3922L75.968 5.26506Z" fill="white"/>
</svg>
