<svg width="883" height="883" viewBox="0 0 883 883" fill="none" xmlns="http://www.w3.org/2000/svg">
<path d="M416.3 4.9C429.9 -0.8 452.2 -0.8 465.8 4.9L482.7 11.9C496.3 17.6 519.5 21.2 534.2 20.1L552.4 18.6C567.1 17.4 588.3 24.3 599.5 33.9L613.4 45.8C624.6 55.4 645.5 66 659.9 69.5L677.7 73.7C692 77.1 710.1 90.2 717.8 102.8L727.3 118.4C735 131 751.6 147.6 764.2 155.3L779.8 164.8C792.4 172.5 805.5 190.5 808.9 204.9L813.2 222.7C816.6 237 827.3 257.9 836.9 269.1L848.8 283C858.4 294.2 865.3 315.4 864.1 330.1L862.7 348.3C861.5 363 865.2 386.2 870.8 399.8L877.8 416.7C883.5 430.3 883.5 452.6 877.8 466.2L870.8 483.1C865.2 496.7 861.5 519.9 862.7 534.6L864.1 552.8C865.3 567.5 858.4 588.7 848.8 599.9L836.9 613.8C827.3 625 816.7 645.9 813.2 660.2L808.9 678C805.5 692.3 792.4 710.4 779.8 718L764.2 727.5C751.6 735.2 735 751.8 727.3 764.4L717.8 780C710.1 792.6 692.1 805.7 677.7 809.1L659.9 813.4C645.5 816.8 624.6 827.5 613.4 837.1L599.5 849C588.3 858.6 567.1 865.5 552.4 864.3L534.2 862.8C519.5 861.6 496.4 865.3 482.7 871L465.8 878C452.2 883.7 429.9 883.7 416.3 878L399.4 871C385.8 865.3 362.6 861.7 347.9 862.8L329.7 864.3C315 865.5 293.8 858.6 282.6 849L268.7 837.1C257.5 827.5 236.6 816.9 222.3 813.4L204.5 809.1C190.2 805.7 172.1 792.6 164.4 780L154.9 764.4C147.2 751.8 130.6 735.2 118.1 727.5L102.5 718C89.9 710.3 76.8 692.3 73.4 678L69.1 660.2C65.7 645.9 55 625 45.4 613.8L33.5 599.9C23.9 588.7 17 567.5 18.2 552.8L19.6 534.6C20.8 519.9 17.1 496.7 11.5 483.1L4.50002 466.2C-1.09998 452.6 -1.09998 430.3 4.50002 416.7L11.5 399.8C17.1 386.2 20.8 363 19.6 348.3L18.2 330.1C17 315.4 23.9 294.2 33.5 283L45.4 269.1C55 257.9 65.6 237 69.1 222.7L73.4 204.9C76.8 190.6 89.9 172.5 102.5 164.8L118.1 155.3C130.7 147.6 147.2 131 154.9 118.4L164.4 102.8C172.1 90.2 190.1 77.1 204.5 73.7L222.3 69.5C236.7 66.1 257.5 55.4 268.7 45.8L282.6 33.9C293.8 24.3 315 17.4 329.7 18.6L347.9 20.1C362.6 21.3 385.8 17.6 399.4 11.9L416.3 4.9Z" fill="#282525"/>
<path d="M845.8 441.4C845.8 664.9 664.6 846.1 441.1 846.1C217.6 846.1 36.4 664.9 36.4 441.4C36.4 217.9 217.6 36.6001 441.1 36.6001C664.6 36.6001 845.8 217.8 845.8 441.4Z" fill="#DE9B26"/>
<path d="M845.8 441.4C845.8 664.9 664.6 846.1 441.1 846.1C217.6 846.1 36.4 664.9 36.4 441.4C36.4 217.9 217.6 36.6001 441.1 36.6001C664.6 36.6001 845.8 217.8 845.8 441.4Z" fill="#DE9B26"/>
<path d="M408.4 87.6C408.2 87.6 408 87.6 407.8 87.6C407.7 87.6 407.5 87.6 407.4 87.6C403.8 88 401.1 91.2 401.5 94.8C401.8 98.2 404.7 100.8 408.1 100.8C411.5 100.8 408.5 100.8 408.7 100.8H409C412.6 100.4 415.3 97.2 415 93.6C414.7 90.2 411.8 87.6 408.4 87.6ZM376 92.1C375.6 92.1 375.2 92.1 374.8 92.2C374.7 92.2 374.6 92.2 374.5 92.2C370.9 92.9 368.6 96.3 369.3 99.9C369.9 103.1 372.7 105.3 375.8 105.3C378.9 105.3 376.6 105.3 377 105.2H377.3C380.9 104.5 383.2 101 382.6 97.4C382 94.2 379.2 92 376.1 92L376 92.1ZM344.2 99.7C343.6 99.7 343 99.7 342.4 100C342.4 100 342.2 100 342.1 100C338.6 101 336.6 104.7 337.6 108.2C338.4 111.1 341.1 113 343.9 113C346.7 113 345.1 113 345.7 112.7H346C349.5 111.6 351.5 107.9 350.5 104.4C349.7 101.5 347 99.6 344.2 99.6V99.7ZM313.3 110.2C312.5 110.2 311.7 110.3 310.9 110.7C310.8 110.7 310.7 110.7 310.6 110.8C307.2 112.1 305.6 116 306.9 119.4C307.9 122 310.4 123.6 313 123.6C315.6 123.6 314.6 123.5 315.4 123.1H315.7C319.1 121.6 320.8 117.8 319.4 114.4C318.4 111.8 315.9 110.2 313.3 110.2ZM283.4 123.6C282.4 123.6 281.4 123.8 280.4 124.3C280.4 124.3 280.2 124.3 280.1 124.4C276.9 126.1 275.6 130 277.2 133.3C278.4 135.6 280.7 136.9 283.1 136.9C285.5 136.9 285.1 136.7 286.1 136.2L286.4 136C289.6 134.4 290.9 130.4 289.3 127.1C288.1 124.8 285.8 123.5 283.4 123.5V123.6ZM255 139.7C253.8 139.7 252.6 140 251.5 140.7C251.5 140.7 251.4 140.7 251.3 140.7C251.3 140.7 251.3 140.7 251.2 140.7C248.1 142.7 247.2 146.7 249.2 149.8C250.5 151.8 252.6 152.9 254.8 152.9C257 152.9 257.2 152.6 258.3 151.9L258.6 151.7C261.7 149.8 262.6 145.7 260.7 142.6C259.4 140.6 257.3 139.5 255.1 139.5L255 139.7ZM228.2 158.5C226.8 158.5 225.4 158.9 224.2 159.9C224.2 159.9 224.1 159.9 224 160C221.1 162.2 220.6 166.4 222.8 169.2C224.1 170.9 226.1 171.8 228 171.8C229.9 171.8 230.8 171.4 232 170.4L232.3 170.2C235.2 168 235.7 163.8 233.5 161C232.2 159.3 230.3 158.4 228.3 158.4L228.2 158.5ZM203.3 179.6C201.7 179.6 200.1 180.2 198.8 181.4C198.8 181.4 198.8 181.4 198.7 181.5C196 184 195.9 188.2 198.4 190.8C199.7 192.2 201.5 192.9 203.2 192.9C204.9 192.9 206.4 192.3 207.7 191.1L208 190.9C210.7 188.4 210.8 184.2 208.3 181.6C207 180.2 205.2 179.5 203.5 179.5L203.3 179.6ZM180.4 203C178.6 203 176.8 203.7 175.5 205.2C175.5 205.2 175.3 205.4 175.2 205.5C172.8 208.2 173 212.4 175.8 214.8C177.1 215.9 178.6 216.5 180.2 216.5C181.8 216.5 183.8 215.8 185.1 214.3L185.3 214C187.7 211.3 187.5 207.1 184.8 204.7C183.5 203.6 182 203 180.4 203ZM159.9 228.4C157.9 228.4 155.9 229.3 154.6 231.1C154.6 231.1 154.5 231.2 154.4 231.3C152.3 234.2 152.9 238.3 155.8 240.5C157 241.4 158.3 241.8 159.7 241.8C161.7 241.8 163.7 240.9 165 239.1L165.2 238.8C167.4 235.9 166.7 231.7 163.8 229.6C162.6 228.7 161.3 228.3 159.9 228.3V228.4ZM141.8 255.7C139.6 255.7 137.4 256.8 136.1 258.9C136.1 258.9 136.1 258.9 136.1 259C136.1 259 136.1 259 136.1 259.1C134.2 262.2 135.3 266.3 138.4 268.1C139.5 268.7 140.6 269 141.8 269C144 269 146.2 267.9 147.5 265.8L147.7 265.5C149.6 262.4 148.6 258.3 145.4 256.5C144.3 255.9 143.2 255.6 142 255.6L141.8 255.7ZM126.3 284.5C123.8 284.5 121.5 285.9 120.4 288.2C120.4 288.2 120.4 288.4 120.3 288.5C118.7 291.8 120.1 295.7 123.4 297.3C124.3 297.7 125.3 297.9 126.2 297.9C128.7 297.9 131 296.5 132.2 294.1L132.4 293.8C134 290.5 132.6 286.6 129.3 285C128.4 284.6 127.4 284.4 126.5 284.4L126.3 284.5ZM113.6 314.6C110.9 314.6 108.4 316.2 107.4 318.9C107.4 318.9 107.4 318.9 107.4 319V319.2C106.1 322.6 107.9 326.4 111.3 327.7C112 328 112.8 328.1 113.6 328.1C116.3 328.1 118.8 326.4 119.8 323.8V323.5C121.2 320.1 119.4 316.3 116 315C115.2 314.7 114.5 314.6 113.7 314.6H113.6ZM103.8 345.8C100.9 345.8 98.2 347.8 97.4 350.7C97.4 350.7 97.4 350.9 97.4 351C97.4 351 97.4 351 97.4 351.1C96.5 354.6 98.6 358.2 102.1 359.1C102.7 359.2 103.2 359.3 103.8 359.3C106.7 359.3 109.4 357.3 110.2 354.4V354.1C111.2 350.6 109.1 347 105.6 346C105 345.9 104.5 345.8 103.9 345.8H103.8ZM96.9 377.7C93.7 377.7 90.9 380 90.4 383.2C90.4 383.3 90.4 383.4 90.4 383.5C89.8 387.1 92.2 390.5 95.8 391.1C96.2 391.1 96.5 391.1 96.9 391.1C100.1 391.1 102.9 388.8 103.4 385.6V385.3C104 381.7 101.6 378.3 98 377.7C97.6 377.7 97.3 377.7 96.9 377.7ZM93.1 410.2C89.7 410.2 86.8 412.8 86.5 416.3C86.5 416.3 86.5 416.5 86.5 416.6C86.5 416.6 86.5 416.6 86.5 416.7C86.2 420.3 89 423.5 92.6 423.7C92.8 423.7 92.9 423.7 93.1 423.7C96.5 423.7 99.4 421 99.7 417.6V417.3C100 413.7 97.2 410.5 93.6 410.3C93.4 410.3 93.3 410.3 93.1 410.3V410.2ZM92.4 442.9C92.4 442.9 92.3 442.9 92.2 442.9C88.6 442.9 85.7 446 85.8 449.6C85.8 449.7 85.8 449.8 85.8 450C85.8 453.6 88.8 456.4 92.4 456.4C96 456.4 92.5 456.4 92.6 456.4C96.2 456.4 99.1 453.3 99 449.7V449.4C99 445.8 96 443 92.4 443V442.9ZM94.6 475.5C94.3 475.5 94.1 475.5 93.8 475.5C90.2 475.9 87.6 479.2 88 482.8C88 482.8 88 483 88 483.1C88.4 486.5 91.2 488.9 94.5 488.9C97.8 488.9 95 488.9 95.3 488.9C98.9 488.5 101.5 485.2 101.1 481.6V481.3C100.7 477.9 97.8 475.5 94.5 475.5H94.6ZM99.9 507.8C99.4 507.8 99 507.8 98.5 507.9C94.9 508.7 92.7 512.1 93.4 515.7C93.4 515.8 93.4 516 93.4 516.1C94.1 519.2 96.8 521.3 99.8 521.3C102.8 521.3 100.7 521.3 101.2 521.2C104.8 520.4 107 516.9 106.3 513.4V513.1C105.6 510 102.8 507.9 99.8 507.9L99.9 507.8ZM108.2 539.4C107.5 539.4 106.9 539.4 106.2 539.7C102.7 540.8 100.8 544.5 101.9 547.9C101.9 547.9 101.9 548 101.9 548.1C101.9 548.1 101.9 548.2 101.9 548.3C102.8 551.1 105.4 552.9 108.2 552.9C111 552.9 109.5 552.9 110.2 552.6C113.7 551.5 115.6 547.8 114.5 544.3V544C113.5 541.2 110.9 539.4 108.1 539.4H108.2ZM119.5 570.1C118.6 570.1 117.8 570.3 116.9 570.6C113.5 572 112 575.9 113.4 579.2C113.4 579.3 113.4 579.4 113.5 579.5C114.6 582 117 583.5 119.6 583.5C122.2 583.5 121.3 583.3 122.2 583C125.6 581.6 127.1 577.7 125.7 574.4V574.1C124.5 571.6 122.1 570.1 119.5 570.1ZM133.6 599.6C132.5 599.6 131.5 599.9 130.5 600.4C127.3 602.1 126.1 606.1 127.8 609.3C127.8 609.3 127.8 609.4 127.9 609.5C127.9 609.5 127.9 609.5 127.9 609.6C129.1 611.8 131.4 613.1 133.7 613.1C136 613.1 135.8 612.8 136.8 612.3C140 610.6 141.2 606.6 139.5 603.4L139.3 603.1C138.1 600.9 135.8 599.6 133.5 599.6H133.6ZM150.4 627.6C149.1 627.6 147.9 628 146.8 628.7C143.8 630.7 142.9 634.8 144.9 637.8C144.9 637.8 144.9 637.8 144.9 637.9C144.9 637.9 144.9 637.9 144.9 638C146.2 639.9 148.3 640.9 150.4 640.9C152.5 640.9 152.9 640.5 154 639.8C157 637.8 157.9 633.7 155.8 630.7L155.6 630.4C154.3 628.5 152.2 627.5 150.1 627.5L150.4 627.6ZM169.7 654C168.2 654 166.8 654.5 165.6 655.5C162.8 657.8 162.3 661.9 164.6 664.7C164.6 664.8 164.8 664.9 164.9 665C166.2 666.6 168.1 667.4 170 667.4C171.9 667.4 172.9 666.9 174.1 665.9C176.9 663.6 177.4 659.5 175.1 656.6L174.9 656.3C173.6 654.7 171.7 653.9 169.8 653.9L169.7 654ZM191.5 678.4C189.8 678.4 188.2 679 186.9 680.3C184.3 682.8 184.2 687 186.8 689.6C186.8 689.6 186.9 689.7 187 689.8C188.3 691.1 190 691.8 191.7 691.8C193.4 691.8 195 691.2 196.3 689.9C198.9 687.4 198.9 683.2 196.4 680.6L196.2 680.4C194.9 679.1 193.2 678.4 191.5 678.4ZM215.4 700.7C213.5 700.7 211.7 701.5 210.4 703C208 705.8 208.4 709.9 211.2 712.3C211.2 712.3 211.2 712.3 211.3 712.4C212.5 713.5 214.1 714 215.6 714C217.1 714 219.3 713.2 220.6 711.7C223 708.9 222.6 704.8 219.8 702.4L219.5 702.2C218.3 701.1 216.7 700.6 215.2 700.6L215.4 700.7ZM241.3 720.7C239.2 720.7 237.2 721.7 235.9 723.5C233.8 726.5 234.5 730.6 237.5 732.7C237.5 732.7 237.5 732.7 237.6 732.7C237.6 732.7 237.6 732.7 237.7 732.7C238.8 733.5 240.2 733.9 241.5 733.9C243.6 733.9 245.6 732.9 246.9 731.1C249 728.1 248.3 724 245.3 721.9L245 721.7C243.8 720.9 242.5 720.5 241.2 720.5L241.3 720.7ZM268.9 738.2C266.6 738.2 264.4 739.4 263.2 741.5C261.4 744.7 262.5 748.7 265.7 750.5C265.7 750.5 265.9 750.5 266 750.6C267 751.2 268.1 751.5 269.2 751.5C271.5 751.5 273.7 750.3 274.9 748.2C276.7 745 275.6 741 272.4 739.2L272.1 739C271.1 738.4 270 738.1 268.8 738.1L268.9 738.2ZM298 753C295.5 753 293.1 754.4 292 756.9C290.5 760.2 292 764.1 295.3 765.6C295.4 765.6 295.5 765.7 295.7 765.8C296.6 766.2 297.5 766.4 298.4 766.4C300.9 766.4 303.3 765 304.4 762.5C305.9 759.2 304.4 755.3 301.1 753.8H300.8C299.9 753.3 299 753.1 298.1 753.1L298 753ZM328.4 765C325.7 765 323.1 766.7 322.2 769.5C321 772.9 322.9 776.7 326.3 777.9C326.4 777.9 326.5 777.9 326.6 778C327.3 778.2 328 778.4 328.7 778.4C331.4 778.4 334 776.7 334.9 773.9C336.1 770.5 334.2 766.7 330.8 765.5H330.5C329.8 765.1 329.1 765 328.4 765ZM359.8 774.1C356.8 774.1 354.1 776.1 353.4 779.2C352.6 782.7 354.7 786.3 358.3 787.1C358.4 787.1 358.6 787.1 358.7 787.1C359.2 787.2 359.7 787.3 360.2 787.3C363.2 787.3 365.9 785.3 366.6 782.2C367.4 778.7 365.3 775.1 361.7 774.3H361.4C360.9 774.1 360.4 774 359.9 774L359.8 774.1ZM392 780.2C388.8 780.2 385.9 782.6 385.5 785.9C385 789.5 387.5 792.8 391.1 793.3C391.2 793.3 391.3 793.3 391.5 793.3C391.8 793.3 392.1 793.3 392.4 793.3C395.6 793.3 398.5 790.9 398.9 787.6C399.4 784 396.9 780.7 393.3 780.2H393C392.7 780.2 392.4 780.1 392.1 780.1L392 780.2ZM424.5 783.2C421 783.2 418.1 786 417.9 789.5C417.7 793.1 420.5 796.2 424.2 796.4C424.2 796.4 424.3 796.4 424.4 796.4C424.4 796.4 424.5 796.4 424.6 796.4C424.6 796.4 424.8 796.4 424.9 796.4C428.4 796.4 431.3 793.6 431.5 790.1C431.7 786.5 428.9 783.4 425.2 783.2H424.9C424.8 783.2 424.7 783.2 424.6 783.2H424.5ZM457.6 783.2C457.5 783.2 457.4 783.2 457.3 783.2H457C453.4 783.4 450.5 786.5 450.7 790.1C450.9 793.6 453.8 796.4 457.3 796.4C460.8 796.4 457.5 796.4 457.6 796.4C457.7 796.4 457.8 796.4 458 796.4C461.6 796.2 464.4 793.1 464.3 789.5C464.1 786 461.2 783.2 457.7 783.2H457.6ZM490.2 780.2C489.9 780.2 489.6 780.2 489.3 780.2H489C485.4 780.8 482.9 784.1 483.4 787.7C483.9 791 486.7 793.4 489.9 793.4C493.1 793.4 490.5 793.4 490.8 793.4C490.8 793.4 490.8 793.4 490.9 793.4C490.9 793.4 490.9 793.4 491 793.4C494.6 792.9 497.1 789.6 496.6 786C496.1 782.7 493.3 780.3 490.1 780.3L490.2 780.2ZM522.3 774.1C521.8 774.1 521.3 774.1 520.8 774.3H520.5C517 775.2 514.8 778.8 515.6 782.3C516.3 785.3 519 787.4 522 787.4C525 787.4 523 787.4 523.5 787.2H523.7C523.7 787.2 523.7 787.2 523.8 787.2C527.3 786.4 529.5 782.8 528.7 779.3C528 776.3 525.3 774.2 522.3 774.2V774.1ZM553.7 765C553 765 552.3 765.1 551.6 765.4H551.3C547.9 766.7 546 770.4 547.2 773.9C548.1 776.6 550.7 778.4 553.4 778.4C556.1 778.4 554.8 778.3 555.5 778C555.5 778 555.5 778 555.6 778H555.8C559.2 776.8 561.1 773.1 559.9 769.6C559 766.9 556.4 765.1 553.7 765.1V765ZM584.1 753C583.2 753 582.3 753.2 581.4 753.6H581.1C577.8 755.2 576.3 759.1 577.8 762.5C578.9 764.9 581.3 766.4 583.8 766.4C586.3 766.4 585.6 766.2 586.5 765.8C586.5 765.8 586.7 765.8 586.8 765.7C590.1 764.2 591.6 760.3 590.1 757C589 754.6 586.6 753.1 584.1 753.1V753ZM613.2 738.2C612.1 738.2 611 738.5 609.9 739.1L609.6 739.3C606.4 741.1 605.3 745.1 607.1 748.3C608.3 750.4 610.5 751.6 612.8 751.6C615.1 751.6 615 751.3 616 750.8C616 750.8 616.2 750.8 616.2 750.7C616.2 750.7 616.2 750.7 616.3 750.7C619.5 748.9 620.6 744.9 618.8 741.7C617.6 739.6 615.4 738.4 613.1 738.4L613.2 738.2ZM640.8 720.7C639.5 720.7 638.2 721.1 637 721.9L636.7 722.1C633.7 724.2 633 728.3 635.1 731.3C636.4 733.1 638.4 734.1 640.5 734.1C642.6 734.1 643.1 733.7 644.3 732.9C644.4 732.9 644.5 732.8 644.6 732.7C647.6 730.6 648.3 726.5 646.2 723.5C644.9 721.7 642.9 720.7 640.8 720.7ZM666.7 700.7C665.2 700.7 663.7 701.2 662.4 702.3L662.1 702.5C659.3 704.9 659 709 661.3 711.8C662.6 713.3 664.5 714.1 666.3 714.1C668.1 714.1 669.3 713.6 670.6 712.5C670.6 712.5 670.7 712.4 670.8 712.3C670.8 712.3 670.8 712.3 670.9 712.3C673.7 709.9 674 705.8 671.6 703C670.3 701.5 668.4 700.7 666.6 700.7H666.7ZM690.6 678.4C688.9 678.4 687.2 679.1 685.9 680.4L685.7 680.6C683.2 683.2 683.2 687.4 685.8 689.9C687.1 691.2 688.7 691.8 690.4 691.8C692.1 691.8 693.8 691.1 695.1 689.8C695.1 689.8 695.2 689.7 695.3 689.6C697.8 687 697.8 682.8 695.2 680.3C693.9 679 692.3 678.4 690.6 678.4ZM712.4 654C710.5 654 708.6 654.8 707.3 656.4L707.1 656.7C704.8 659.5 705.2 663.7 708.1 666C709.3 667 710.8 667.5 712.2 667.5C713.6 667.5 716 666.7 717.3 665.1C717.3 665.1 717.4 664.9 717.5 664.9C719.8 662.1 719.4 657.9 716.5 655.6C715.3 654.6 713.8 654.1 712.4 654.1V654ZM731.7 627.6C729.6 627.6 727.5 628.6 726.2 630.5L726 630.8C724 633.8 724.8 637.9 727.8 639.9C728.9 640.6 730.2 641 731.4 641C733.5 641 735.6 640 736.9 638.1C736.9 638 736.9 638 736.9 638C738.9 635 738.1 630.9 735.1 628.9C734 628.2 732.7 627.8 731.5 627.8L731.7 627.6ZM748.5 599.6C746.1 599.6 743.9 600.9 742.7 603.1L742.5 603.4C740.8 606.6 742 610.6 745.2 612.3C746.2 612.8 747.3 613.1 748.3 613.1C750.6 613.1 752.9 611.8 754.1 609.6C754.1 609.6 754.1 609.6 754.1 609.5C754.1 609.5 754.1 609.4 754.2 609.3C755.9 606.1 754.7 602.1 751.5 600.4C750.5 599.9 749.4 599.6 748.4 599.6H748.5ZM762.6 570.1C760 570.1 757.6 571.6 756.5 574.1V574.4C754.9 577.8 756.5 581.6 759.9 583C760.7 583.4 761.6 583.5 762.5 583.5C765.1 583.5 767.5 582 768.6 579.5C768.6 579.5 768.6 579.3 768.7 579.2C770.1 575.8 768.5 572 765.2 570.6C764.4 570.2 763.5 570.1 762.6 570.1ZM773.9 539.4C771.1 539.4 768.5 541.2 767.6 544V544.3C766.4 547.8 768.3 551.5 771.8 552.6C772.5 552.8 773.1 552.9 773.8 552.9C776.6 552.9 779.2 551.1 780.1 548.3C780.1 548.3 780.1 548.1 780.1 548C781.2 544.5 779.2 540.9 775.8 539.8C775.1 539.6 774.5 539.5 773.8 539.5L773.9 539.4ZM782.2 507.8C779.2 507.8 776.4 509.9 775.8 513V513.3C775 516.9 777.2 520.4 780.8 521.1C781.3 521.1 781.7 521.2 782.2 521.2C785.2 521.2 788 519.1 788.6 516C788.6 515.9 788.6 515.7 788.6 515.6C789.3 512 787.1 508.6 783.5 507.8C783 507.8 782.6 507.7 782.1 507.7L782.2 507.8ZM787.5 475.5C784.2 475.5 781.3 478 781 481.3V481.6C780.5 485.2 783.1 488.5 786.7 488.9C787 488.9 787.2 488.9 787.5 488.9C790.8 488.9 793.6 486.4 794 483.1C794 483.1 794 483 794 482.9C794 482.9 794 482.8 794 482.7C794.4 479.1 791.8 475.8 788.2 475.4C787.9 475.4 787.7 475.4 787.4 475.4L787.5 475.5ZM789.7 442.9C786.1 442.9 783.2 445.8 783.1 449.3V449.6C783.1 453.2 785.9 456.3 789.5 456.3C789.5 456.3 789.6 456.3 789.7 456.3C793.3 456.3 796.2 453.5 796.3 449.9C796.3 449.9 796.3 449.7 796.3 449.6C796.3 446 793.5 442.9 789.9 442.9C789.9 442.9 789.8 442.9 789.7 442.9ZM789 410.2C788.8 410.2 788.7 410.2 788.5 410.2C784.9 410.5 782.1 413.6 782.4 417.2V417.5C782.7 421 785.6 423.6 789 423.6C792.4 423.6 789.3 423.6 789.5 423.6C793.1 423.4 795.9 420.2 795.6 416.6C795.6 416.6 795.6 416.6 795.6 416.5C795.6 416.5 795.6 416.3 795.6 416.2C795.3 412.7 792.5 410.1 789 410.1V410.2ZM785.2 377.7C784.8 377.7 784.5 377.7 784.1 377.7C780.5 378.3 778.1 381.7 778.7 385.3V385.6C779.3 388.8 782.1 391.1 785.3 391.1C788.5 391.1 786 391.1 786.4 391.1C790 390.5 792.4 387.1 791.8 383.6C791.8 383.5 791.8 383.4 791.8 383.3C791.3 380.1 788.5 377.8 785.3 377.8L785.2 377.7ZM778.4 345.8C777.8 345.8 777.3 345.8 776.7 346C773.2 346.9 771.1 350.5 772 354.1V354.4C772.9 357.4 775.5 359.3 778.5 359.3C781.5 359.3 779.6 359.3 780.2 359.1C783.7 358.2 785.8 354.6 784.9 351.1C784.9 351 784.9 350.8 784.8 350.7C784 347.8 781.4 345.8 778.4 345.8ZM768.5 314.6C767.7 314.6 767 314.7 766.2 315C762.8 316.3 761 320 762.3 323.5V323.8C763.4 326.5 765.9 328.1 768.6 328.1C771.3 328.1 770.1 328 770.9 327.7C774.3 326.4 776.1 322.7 774.8 319.3C774.8 319.3 774.8 319.3 774.8 319.2C774.8 319.2 774.8 319.1 774.8 319C773.8 316.3 771.3 314.7 768.6 314.7L768.5 314.6ZM755.8 284.4C754.8 284.4 753.9 284.6 753 285C749.7 286.6 748.3 290.5 749.9 293.8L750.1 294.1C751.2 296.5 753.6 297.9 756.1 297.9C758.6 297.9 758 297.7 758.9 297.3C762.2 295.7 763.6 291.8 762 288.5C762 288.5 762 288.3 761.9 288.2C760.8 285.8 758.4 284.5 756 284.5L755.8 284.4ZM740.4 255.7C739.2 255.7 738.1 256 737 256.6C733.9 258.5 732.9 262.5 734.7 265.6L734.9 265.9C736.1 268 738.3 269.1 740.6 269.1C742.9 269.1 742.9 268.8 744 268.2C747.1 266.3 748.1 262.3 746.3 259.2C746.3 259.1 746.2 259 746.1 258.9C744.9 256.8 742.7 255.7 740.4 255.7ZM722.2 228.4C720.8 228.4 719.5 228.8 718.3 229.7C715.4 231.9 714.7 236 716.9 238.9L717.1 239.2C718.4 241 720.4 241.9 722.4 241.9C724.4 241.9 725.1 241.5 726.3 240.6C729.2 238.4 729.9 234.3 727.7 231.4C727.7 231.4 727.6 231.2 727.5 231.2C726.2 229.4 724.2 228.5 722.2 228.5V228.4ZM701.7 203C700.1 203 698.6 203.6 697.3 204.7C694.6 207.1 694.3 211.3 696.8 214L697 214.3C698.3 215.8 700.1 216.5 701.9 216.5C703.7 216.5 705 216 706.3 214.8C709 212.4 709.3 208.2 706.8 205.5C706.8 205.5 706.6 205.3 706.6 205.2C705.3 203.7 703.5 203 701.7 203ZM678.8 179.6C677 179.6 675.3 180.3 674 181.7C671.5 184.4 671.7 188.5 674.3 191L674.6 191.2C675.9 192.4 677.5 193 679.1 193C680.7 193 682.6 192.3 683.9 190.9C686.4 188.2 686.2 184.1 683.6 181.6C683.6 181.6 683.6 181.6 683.5 181.6C683.5 181.6 683.5 181.6 683.4 181.5C682.1 180.3 680.5 179.7 678.9 179.7L678.8 179.6ZM653.9 158.5C651.9 158.5 650 159.4 648.7 161.1C646.5 164 647 168.1 649.9 170.3L650.2 170.5C651.4 171.4 652.8 171.9 654.2 171.9C655.6 171.9 658.1 171 659.4 169.3C661.6 166.4 661.1 162.3 658.2 160.1C658.2 160.1 658.1 160 658 159.9C656.8 159 655.4 158.5 654 158.5H653.9ZM627.1 139.7C624.9 139.7 622.8 140.8 621.5 142.8C619.6 145.9 620.5 150 623.5 151.9L623.8 152.1C624.9 152.8 626.1 153.1 627.3 153.1C629.5 153.1 631.6 152 632.9 150C634.8 146.9 633.9 142.9 630.9 140.9C630.9 140.9 630.7 140.8 630.6 140.7C629.5 140 628.3 139.7 627.1 139.7ZM598.7 123.6C596.3 123.6 594 124.9 592.8 127.2C591.2 130.4 592.4 134.4 595.7 136.1L596 136.3C597 136.8 598 137 599 137C601.4 137 603.7 135.7 604.9 133.4C606.6 130.2 605.3 126.2 602 124.5C602 124.5 601.9 124.5 601.8 124.4C601.8 124.4 601.8 124.4 601.7 124.4C600.8 123.9 599.7 123.7 598.7 123.7V123.6ZM568.8 110.2C566.2 110.2 563.7 111.8 562.7 114.4C561.4 117.8 563 121.6 566.4 123H566.7C567.5 123.4 568.3 123.6 569.1 123.6C571.7 123.6 574.2 122 575.2 119.4C576.5 116 574.9 112.2 571.5 110.9C571.4 110.9 571.3 110.9 571.2 110.8C570.4 110.5 569.6 110.3 568.8 110.3V110.2ZM537.9 99.7C535 99.7 532.4 101.6 531.6 104.5C530.6 108 532.6 111.7 536.1 112.7H536.4C537 113 537.6 113.1 538.2 113.1C541.1 113.1 543.7 111.2 544.5 108.3C545.5 104.8 543.5 101.1 540 100.1C539.9 100.1 539.8 100.1 539.7 100.1C539.1 99.9 538.5 99.8 537.9 99.8V99.7ZM506.1 92.1C503 92.1 500.2 94.3 499.6 97.5C498.9 101.1 501.3 104.5 504.9 105.2H505.2C505.6 105.3 506 105.4 506.4 105.4C509.5 105.4 512.3 103.2 512.9 100C513.6 96.4 511.2 93 507.7 92.3C507.7 92.3 507.6 92.3 507.5 92.3H507.3C506.9 92.2 506.5 92.1 506.1 92.1ZM473.7 87.5C470.3 87.5 467.5 90.1 467.1 93.5C466.8 97.1 469.4 100.3 473.1 100.7H473.4C473.6 100.7 473.8 100.7 474 100.7C477.4 100.7 480.2 98.1 480.6 94.7C480.9 91.1 478.3 87.9 474.7 87.5C474.7 87.5 474.7 87.5 474.6 87.5H474.5C474.3 87.5 474.1 87.5 473.9 87.5H473.7ZM441.1 86C441 86 440.9 86 440.7 86C437.1 86 434.1 89 434.1 92.6C434.1 96.2 437.1 99.2 440.7 99.2H441.4C445 99.2 448 96.3 448 92.6C448 89 445.1 86 441.4 86C441.3 86 441.1 86 441 86H441.1Z" fill="#92278F"/>
<path d="M436.3 719.1C589.67 719.1 714 594.77 714 441.4C714 288.031 589.67 163.7 436.3 163.7C282.931 163.7 158.6 288.031 158.6 441.4C158.6 594.77 282.931 719.1 436.3 719.1Z" fill="#CC8029"/>
<path d="M441.1 156.6C283.8 156.6 156.3 284.1 156.3 441.4C156.3 598.7 283.8 726.2 441.1 726.2C598.4 726.2 725.9 598.7 725.9 441.4C725.9 284.1 598.4 156.6 441.1 156.6ZM435.8 716.8C283.7 716.8 160.5 593.5 160.5 441.5C160.5 289.5 283.8 166.1 435.8 166.1C587.8 166.1 711.1 289.4 711.1 441.5C711.1 593.6 587.8 716.8 435.8 716.8Z" fill="#282525"/>
<path d="M384.1 571.6C467.1 571.6 509.3 516.2 509.3 462.1C509.3 408 478 370.6 415.5 359.8C505.7 340.5 496.1 237.1 384.2 237.1H321.6V238.3C332.4 238.3 339.7 253.9 339.7 264.8V391.2C259.1 410.4 253.1 571.7 384.2 571.7L384.1 571.6ZM356.4 393.5C403.3 393.5 400.9 469.3 368.4 469.3C335.9 469.3 351.6 466.9 350.3 456.1C350.3 456.1 328.6 503.1 370.8 505.4C426 508.4 433.4 417.6 382.8 393.5V363.4C382.8 363.4 385.5 362.3 390 362.2C497.1 374.2 480.2 565.6 384 565.6C287.8 565.6 268.5 393.5 356.3 393.5H356.4ZM382.9 356.2V243.1H384.1C449.1 243.1 449.1 356.2 385.3 356.2H382.9Z" fill="#282525"/>
<path d="M385.7 717.4C469.9 717.4 530.1 657.2 530.1 592.6C530.1 528 510.8 539.1 489.2 539.1C467.6 539.1 443.5 559.2 445.9 594.8C450.7 588.1 457.9 585.9 465.2 585.9C479.6 585.9 496.5 599.3 496.5 617.1C496.5 668.4 448.4 706.3 385.8 706.3C202.9 706.3 205.4 195.8 385.8 195.8C566.2 195.8 482.1 247.1 489.3 302.8H491.7L496.5 184.6H494.1C494.1 200.2 486.9 213.6 477.2 213.6C462.8 213.6 438.7 184.6 385.7 184.6C234.1 184.6 159.5 318.4 159.5 452.1C159.5 585.8 234.1 717.4 385.7 717.4Z" fill="#282525"/>
<path d="M670.6 548C661.1 549.9 656.5 559.599 662.6 568.299L663.9 569.099C666.2 564.199 672.9 559.6 677.2 558.7C701.5 553.8 702 583.299 665 590.799C632.9 597.299 588.1 570.4 547.2 564.4L546.9 408.2H597.7C606.9 408.2 619.9 419.699 621.8 435.099V377.599H621.4C618.5 389.999 606.1 399.9 597.7 400.4H546.9V260.5H630.1C644.3 260.5 652.1 273.099 654.3 286.099H654.5V254.5H491.2C500.8 258.3 506.6 268 508.5 281.4V540.799C506.6 554.299 500.8 563.8 491.2 567.7H531.4C572.1 570.7 640.9 627.6 673.4 621C721.9 611.1 707.6 540.4 670.6 548Z" fill="#282525"/>
<path d="M371.1 562.6C454.1 562.6 496.3 507.2 496.3 453.1C496.3 399 465 361.6 402.4 350.8C492.6 331.5 483 228.1 371.1 228.1H308.5V229.3C319.3 229.3 326.6 244.9 326.6 255.8V382.2C246 401.4 240 562.7 371.1 562.7V562.6ZM343.4 384.5C390.3 384.5 387.9 460.3 355.5 460.3C323.1 460.3 338.6 457.9 337.4 447.1C337.4 447.1 315.7 494.1 357.9 496.4C413.1 499.4 420.5 408.6 369.9 384.5V354.4C369.9 354.4 372.6 353.3 377.1 353.2C484.2 365.2 467.3 556.6 371.1 556.6C274.9 556.6 255.6 384.5 343.4 384.5ZM369.9 347.2V234.1H371.1C436.1 234.1 436.1 347.2 372.3 347.2H369.9Z" fill="#F6BF59"/>
<path d="M371.1 566.2C301 566.2 270.8 521.9 265.9 480.5C259.6 426.6 290.1 388.8 323 379.3V255.7C323 246.7 316.8 232.9 308.6 232.9H305V224.4H371.2C432.8 224.4 463.6 255 466.8 285.3C469.3 309.4 454.8 337.4 417.5 350.3C474.4 366.1 500.1 411.9 500.1 453C500.1 494.1 455.9 566.1 371.3 566.1L371.1 566.2ZM393.4 352.9C438.6 366.7 456.5 414.4 454 459.3C451.5 503 428.9 547.2 389.4 557.8C443.2 551.2 492.6 515.5 492.6 453.1C492.6 390.7 447 362.2 401.8 354.4L393.4 352.9ZM343.4 388.1C301.1 388.1 278.2 428.9 278.2 467.3C278.2 505.7 286 510.8 300 526C316.4 543.6 341 552.9 371 552.9C417.2 552.9 444 505.6 446.7 458.9C449.3 412.3 428.7 362.6 376.7 356.8C375.5 356.8 374.4 357 373.5 357.2V382.3C403.4 397.9 412.2 434.7 405.3 462C399 486.7 380.7 501.3 357.7 500.1C345.4 499.4 336.8 495.1 332.1 487.3C322.5 471.3 333.6 446.7 334.1 445.6L339.6 433.8L341 446.7C341.6 451.6 343.7 456.7 355.5 456.7C367.3 456.7 367.5 451.9 370.1 447.8C373.7 442.1 375.8 434.2 375.8 425.9C375.8 407.1 365.8 388.1 343.5 388.1H343.4ZM337.6 457.3C335.4 464.9 333.7 475.9 338.3 483.6C341.7 489.2 348.3 492.3 358.1 492.9C377.7 494 392.8 481.8 398.3 460.3C404.8 434.8 395.4 400.7 368.4 387.9L366.3 386.9V352.1L368.6 351.2C368.6 351.2 368.9 351.1 369.2 351H366.3V231.9H321.2C327 238.1 330.3 248 330.3 255.9V382.4C334.7 381.5 339.1 381 343.5 381C356.1 381 366.5 386.1 373.7 395.6C379.7 403.7 383 414.4 383 426C383 444.9 373.6 464.1 355.5 464.1C337.4 464.1 340.8 461.2 337.7 457.4L337.6 457.3ZM381.1 350.1C382.4 350.3 383.7 350.5 385 350.8L401.7 347.2C445.1 337.9 462 309.8 459.5 286.1C456.9 261.4 433 236.4 385.5 232.3C411.6 239.4 423.7 266 423.7 291C423.7 316 419.2 321 411 331.8C403.4 341.8 393.2 348.1 381.1 350.1ZM373.5 237.8V343.6C386.5 343.3 397.4 337.7 405.1 327.5C412.3 317.9 416.3 305 416.3 291.1C416.3 266.1 402.9 239.2 373.4 237.8H373.5Z" fill="#282525"/>
<path d="M372.8 708.4C457 708.4 517.2 648.2 517.2 583.6C517.2 519 497.9 530.1 476.3 530.1C454.7 530.1 430.6 550.2 433 585.8C437.8 579.1 445 576.9 452.3 576.9C466.7 576.9 483.6 590.3 483.6 608.1C483.6 659.4 435.5 697.3 372.9 697.3C190 697.3 192.5 186.8 372.9 186.8C553.3 186.8 469.2 238.1 476.4 293.8H478.8L483.6 175.6H481.2C481.2 191.2 474 204.6 464.4 204.6C450 204.6 425.9 175.6 372.9 175.6C221.3 175.6 146.7 309.4 146.7 443.1C146.7 576.8 221.3 708.4 372.9 708.4H372.8Z" fill="#F6BF59"/>
<path d="M372.8 711.7C301.6 711.7 242 682.4 200.2 627.1C163.5 578.4 143.3 513.1 143.3 443.1C143.3 373.1 163.5 306.1 200.2 257.2C241.8 201.6 301.5 172.3 372.8 172.3C444.1 172.3 431.6 185.2 446.9 193.8C454.3 198 460.2 201.3 464.3 201.3C471.6 201.3 477.8 189.5 477.8 175.6V172.3H487L481.9 297.1H473.4L473 294.2C466 239.7 418.2 190.1 372.8 190.1C285.5 190.1 239.9 317.5 239.9 443.3C239.9 569.1 308.8 694 372.8 694C436.8 694 480.2 657.1 480.2 608.1C480.2 559.1 465.2 580.2 452.2 580.2C439.2 580.2 439.2 582.7 435.6 587.7L430.3 595.1L429.7 586C428.5 568.4 433.6 552.6 444 541.4C452.7 532.1 464.5 526.7 476.3 526.7C498.3 526.7 520.5 544.3 520.5 583.5C520.5 654.2 454.2 711.6 372.8 711.6V711.7ZM372.8 178.9C219.6 178.9 149.9 315.9 149.9 443.1C149.9 623.1 265.5 705.1 372.8 705.1C480.1 705.1 513.9 642 513.9 583.6C513.9 525.2 495 533.4 476.3 533.4C457.6 533.4 456.3 538 448.8 546C441.1 554.2 436.8 565.4 436.2 578.2C440.6 575.2 446 573.7 452.3 573.7C468.6 573.7 486.9 588.5 486.9 608.2C486.9 660.9 437.9 700.7 372.9 700.7C277 700.7 233.4 567.3 233.4 443.4C233.4 319.5 245.6 312.8 267.9 265.7C293.3 212 329.6 183.6 372.9 183.6C416.2 183.6 462.2 225.3 476.2 276.4L479.4 197.4C475.7 204 470.4 208.1 464.3 208.1C458.2 208.1 452.3 204.6 443.7 199.8C428.1 191.1 406.8 179.1 372.9 179.1L372.8 178.9Z" fill="#282525"/>
<path d="M657.6 539C648.1 540.9 643.5 550.6 649.7 559.3L651 560.1C653.3 555.2 660 550.6 664.3 549.7C688.6 544.8 689.1 574.3 652.1 581.8C620 588.3 575.2 561.4 534.3 555.4L534 399.2H584.8C594 399.2 607 410.7 608.9 426.1V368.6H608.5C605.5 381 593.2 390.9 584.8 391.4H534V251.5H617.2C631.4 251.5 639.2 264.1 641.4 277.1H641.6V245.5H478.3C487.9 249.3 493.7 259 495.6 272.4V531.8C493.7 545.3 487.9 554.8 478.3 558.7H518.5C559.2 561.7 628 618.6 660.5 612C709 602.1 694.7 531.4 657.7 539H657.6Z" fill="#F6BF59"/>
<path d="M654.7 615.9C636.6 615.9 611.9 602.9 585.9 589.3C561.6 576.6 536.5 563.4 518.2 562.1H461.2L477 555.8C487.3 551.6 491 540.3 492.2 531.5V272.5C490.9 264.2 487.3 252.8 477 248.7L461 242.3H644.8V280.5H638.7L638 277.8C636.1 266.8 629.6 255 617 255H537.1V388.3H584.6C590.8 387.9 602.3 379.6 605.1 368L605.7 365.5H611.6L612 368.8V426.3L605.4 426.7C603.6 412.4 591.6 402.7 584.5 402.7H537L537.2 552.8C553 555.5 569.3 561 585.1 566.3C609.6 574.6 632.8 582.5 651.1 578.8C671.2 574.7 678.8 563.8 677.6 557.8C676.7 553.6 671.6 551.7 664.6 553.2C661.2 553.9 655.4 558 653.7 561.8L652.1 565.3L646.8 561.5C643.3 556.6 642.5 550.9 644.5 545.9C646.5 540.9 651.1 537.2 656.8 536.1C667.2 534 676.9 537.3 684.2 545.5C693.9 556.4 697.2 574.4 692.3 589.1C687.6 603.1 676.5 612.5 661 615.7C659 616.1 656.9 616.3 654.7 616.3V615.9ZM535.6 559.1C552.1 564.2 570.8 574 588.9 583.5C615.8 597.6 643.6 612.1 659.7 608.9C672.8 606.2 682.2 598.3 686.1 586.7C689.3 577.3 688.5 566.4 684.5 557.6C685.6 567.8 675.2 580.6 652.7 585.2C632.6 589.3 608.6 581.1 583.3 572.5C567.5 567.1 551.2 561.6 535.6 559.1ZM488.8 555.5H518.4C522.4 555.8 526.6 556.6 530.9 557.7L530.6 396H584.7C591.6 396 599.8 401.3 605.5 409.3V381.9C599.8 389.3 591.5 394.4 584.9 394.8H530.6V248.9H488.8C493.9 254.3 497.3 262.1 498.7 272V531.9C497.3 542.2 493.9 550.1 488.7 555.5H488.8ZM663.1 541.8C661.6 541.8 660 542 658.3 542.3C654.7 543 652 545.1 650.8 548.1C650 550.1 650 552.4 650.8 554.6C654.4 550.6 659.7 547.4 663.5 546.6C669.5 545.4 674.2 546 677.6 547.8C674.3 544.7 669.5 541.8 663 541.8H663.1ZM622.5 248.9C629.4 250.4 634.6 254.6 638.3 260.1V248.9H622.5Z" fill="#282525"/>
</svg>
