<svg width="1158" height="672" viewBox="0 0 1158 672" fill="none" xmlns="http://www.w3.org/2000/svg">
<g style="mix-blend-mode:darken" opacity="0.2">
<path d="M666.017 663.446L680.022 664.801C691.317 665.705 707.582 660.735 716.166 653.506L727.009 644.47C736.045 636.789 752.31 628.657 764.057 626.398L778.063 623.236C788.906 620.525 802.911 611.037 808.785 601.549L816.465 589.351C822.791 579.411 835.893 566.761 845.832 560.436L858.031 553.207C867.519 547.334 877.91 533.78 880.621 522.936L884.235 508.931C886.946 497.636 895.53 481.371 903.211 472.787L912.698 461.944C920.379 453.36 925.8 437.547 924.897 426.252L923.993 412.246C923.09 400.499 926.252 382.427 930.77 371.584L936.192 358.482C940.71 348.091 940.71 330.922 936.644 320.531L931.222 307.429C926.704 296.586 924.445 278.514 925.349 266.767L926.704 252.761C927.608 241.466 922.638 225.202 915.409 216.618L906.373 205.774C898.693 196.738 890.56 180.474 888.301 169.179L885.139 155.173C882.428 144.33 872.94 130.324 863.452 124.451L851.254 116.77C841.314 110.445 828.664 97.3429 822.791 87.4034L815.562 75.2048C809.688 65.7171 796.135 55.3257 785.291 52.615L771.286 49.0006C759.991 46.2898 743.726 37.7056 735.142 30.0251L724.299 20.5373C715.715 13.3085 699.902 7.88697 688.607 8.33876L674.601 9.24235C662.854 10.1459 644.782 6.98336 633.939 2.46538L620.837 -2.95618C610.446 -7.47416 593.277 -7.47416 582.886 -2.95618L569.784 2.46538C558.941 6.98336 540.869 9.69416 529.122 8.33876L515.116 6.98336C503.821 6.07976 487.557 11.0495 478.972 18.2783L468.129 27.3143C459.093 34.543 442.829 43.1272 431.534 45.3862L417.528 48.5488C406.685 51.2596 392.679 60.7473 386.806 70.235L379.125 82.4336C372.8 92.3732 359.698 105.023 349.758 110.897L337.56 118.126C328.072 123.999 317.681 137.553 314.97 148.396L311.356 162.402C308.645 173.697 300.061 189.962 292.38 198.546L282.892 209.389C275.664 217.973 269.79 233.786 270.694 245.081L271.597 259.087C272.501 270.833 269.338 288.905 264.82 299.748L259.399 312.85C254.881 323.242 254.881 340.41 258.947 350.801L264.369 363.904C268.887 374.747 271.146 392.819 270.242 404.565L268.887 418.571C267.983 429.866 272.953 446.131 280.181 454.715L289.217 465.558C296.446 474.594 305.03 490.859 307.289 502.154L310.452 516.159C313.163 527.003 322.65 541.008 332.138 546.882L344.337 554.562C354.276 560.887 366.927 573.99 372.8 583.929L380.029 596.128C385.902 605.615 399.456 616.007 410.299 618.718L424.305 622.332C435.6 625.043 451.865 633.627 460.449 641.307L471.292 650.795C479.876 658.024 495.689 663.897 506.984 662.994L520.99 662.09C532.736 661.187 550.808 664.349 561.651 668.867L574.754 674.289C585.145 678.807 602.313 678.807 612.705 674.289L625.807 668.867C634.843 665.253 649.3 662.542 660.595 662.542C662.402 662.542 664.661 662.542 666.469 662.542L666.017 663.446ZM573.85 676.096L560.748 670.674C550.357 666.156 532.736 662.994 520.99 663.897L506.984 664.801C495.237 665.705 478.521 659.831 469.937 652.151L459.093 642.663C450.509 634.982 434.696 626.85 423.401 624.139L409.396 620.525C398.101 617.814 384.095 606.971 377.77 597.031L370.541 584.833C364.668 574.893 352.017 562.243 342.53 555.918L330.331 548.237C320.392 541.912 310 527.454 307.741 516.159L304.579 502.154C301.868 490.859 294.187 475.046 286.958 466.01L277.923 455.167C270.242 446.131 265.272 429.414 266.176 417.668L267.531 403.662C268.435 392.367 266.176 374.747 261.658 363.904L256.236 350.801C251.718 339.958 252.17 322.338 256.688 311.495L262.11 298.393C266.628 288.002 269.79 269.93 268.887 258.635L267.983 244.629C267.079 232.882 272.953 216.166 280.633 207.582L290.121 196.738C297.802 188.154 305.934 172.341 308.645 161.046L312.259 147.041C314.97 135.746 325.813 121.74 335.753 115.415L347.951 108.186C357.891 102.313 370.541 89.6624 376.866 80.1746L384.547 67.9761C390.872 58.0365 405.329 47.6452 416.624 45.3862L430.63 42.2236C441.925 39.5128 457.738 31.8322 466.774 24.6035L477.617 15.5675C486.653 7.88696 503.37 2.91719 515.116 3.82079L529.122 5.17619C540.417 6.07979 558.489 3.36899 568.88 -0.69719L581.982 -6.11875C592.826 -10.6367 610.446 -10.1849 621.289 -5.66696L634.391 -0.245399C644.782 4.27258 662.402 7.43516 674.149 6.53157L688.155 5.62799C699.902 4.72439 716.618 10.5977 725.202 18.2783L736.045 27.7661C744.63 35.4466 760.442 43.579 771.737 46.2898L785.743 49.9041C797.038 52.6149 811.044 63.4581 817.369 73.3976L824.598 85.5962C830.471 95.5357 843.121 108.186 852.609 114.511L864.808 122.192C874.747 128.517 885.139 142.975 887.398 154.269L890.56 168.275C893.271 179.57 900.952 195.383 908.18 204.419L917.216 215.262C924.897 224.298 929.867 241.015 928.963 252.761L927.608 266.767C926.704 278.062 928.963 296.134 933.481 306.525L938.903 319.627C943.421 330.471 942.969 348.091 938.451 358.934L933.029 372.036C928.511 382.427 925.349 400.047 926.252 411.794L927.156 425.8C928.059 437.547 922.186 454.263 914.505 462.847L905.018 473.69C897.337 482.275 889.205 498.088 886.494 509.382L882.88 523.388C880.169 534.683 869.326 548.689 859.386 555.014L847.188 562.243C837.248 568.116 824.598 580.767 818.273 590.254L810.592 602.453C804.267 612.392 789.809 622.784 778.514 625.043L764.509 628.205C753.214 630.916 737.401 638.597 728.365 645.825L717.522 654.861C708.486 662.542 691.769 667.512 680.022 666.608L666.017 665.253C654.722 664.349 636.65 667.06 626.259 671.126L613.156 676.548C607.735 678.807 600.958 679.71 594.181 679.71C586.952 679.71 579.272 678.355 573.85 676.096Z" fill="#A6A6A6"/>
<path d="M671.439 690.102L686.8 691.457C698.998 692.361 716.167 686.939 725.654 679.258L737.401 669.319C746.889 661.187 764.961 652.151 777.159 649.44L792.069 645.825C803.815 643.115 818.725 632.723 825.05 622.332L833.182 609.23C839.959 598.387 853.965 584.381 864.808 578.056L877.91 570.375C888.302 564.05 899.145 549.592 902.307 537.846L905.922 522.936C909.084 510.738 918.12 493.118 926.704 483.63L936.644 471.883C944.776 462.847 950.65 445.227 949.746 433.48L948.842 418.119C947.939 405.469 951.553 386.042 956.523 374.295L962.396 360.289C967.366 348.994 967.366 330.922 962.848 319.627L956.975 305.17C952.457 293.423 949.294 273.544 950.65 261.345L952.005 245.984C952.909 233.786 947.487 216.618 939.807 207.13L929.867 195.383C921.735 185.895 913.151 167.823 909.988 155.625L906.374 140.716C903.663 128.969 893.271 114.059 882.88 107.282L869.778 99.1501C858.935 92.3732 844.929 78.3674 838.604 67.5243L830.923 54.4221C824.598 44.0308 810.141 33.1877 798.394 30.0251L783.484 26.4107C771.286 23.2481 753.666 14.2122 744.178 5.628L732.431 -4.31157C723.395 -12.4439 705.775 -18.3173 694.029 -17.4137L678.667 -16.5101C666.017 -15.6065 646.59 -19.2209 634.843 -24.1906L620.837 -30.064C609.542 -35.0338 591.47 -35.0338 580.176 -30.5158L565.718 -24.6425C553.971 -20.1245 534.092 -16.9619 521.894 -18.3173L506.533 -19.6727C494.334 -20.5763 477.166 -15.1547 467.678 -7.47414L455.931 2.46539C446.443 10.5978 428.371 19.1819 416.173 22.3445L401.264 25.9589C389.517 28.6697 374.608 39.061 368.282 49.4524L360.15 62.5545C353.373 73.3977 339.367 87.4034 328.524 93.7285L315.422 101.409C305.031 107.734 294.188 122.192 291.025 133.939L287.411 148.848C284.248 161.046 275.212 178.667 266.628 188.154L256.688 199.901C248.556 208.937 242.683 226.557 243.586 238.304L244.49 253.665C245.393 266.315 241.779 285.743 236.809 297.489L230.936 311.495C225.966 322.79 225.966 340.862 230.484 352.157L236.357 366.614C240.875 378.361 244.038 398.24 242.683 410.439L241.327 425.8C240.424 437.998 245.845 455.167 253.526 464.654L263.465 476.401C271.598 485.889 280.182 503.961 283.344 516.159L286.959 531.069C289.67 542.815 300.061 557.725 310.452 564.502L323.554 572.634C334.398 579.411 347.951 593.417 354.728 604.26L362.409 617.362C368.734 627.753 383.192 638.597 394.938 641.759L409.848 645.374C422.046 648.536 439.666 657.572 449.154 666.156L460.901 676.096C469.937 684.228 487.557 690.102 499.304 689.198L514.665 688.294C527.315 687.391 546.742 691.005 558.489 695.975L572.495 701.848C583.79 706.818 601.862 706.818 613.157 702.3L627.614 696.427C637.554 692.361 653.367 689.65 665.565 689.65C667.824 689.65 669.631 689.65 671.89 689.65L671.439 690.102ZM571.591 704.107L557.586 698.234C546.291 693.264 527.315 690.102 515.117 691.005L499.756 691.909C487.105 692.812 469.033 686.487 459.094 678.355L447.347 668.415C438.311 660.283 421.143 651.247 408.944 648.084L394.035 644.47C381.836 641.307 366.475 630.012 359.698 619.169L352.018 606.067C345.692 595.676 332.139 581.67 321.747 574.893L308.645 566.761C297.802 559.984 286.959 544.171 283.796 531.972L280.182 517.063C277.471 505.316 268.887 487.696 261.206 478.208L251.267 466.462C243.134 456.522 237.261 438.45 238.616 425.8L239.972 410.439C240.875 398.24 238.165 378.813 233.647 367.518L227.773 353.06C222.804 341.314 223.255 321.886 228.225 310.591L234.098 296.586C239.068 285.291 242.231 266.315 241.327 254.117L240.424 238.756C239.52 226.105 245.845 208.033 253.978 198.546L263.917 186.799C272.049 177.763 281.085 160.143 284.248 148.396L287.862 133.487C291.025 121.288 302.32 105.927 313.163 99.1501L326.265 91.4696C336.657 85.1444 350.662 71.5904 357.439 61.1991L365.572 48.097C372.349 37.2538 388.161 26.4107 400.36 23.2481L415.269 19.6337C427.468 16.9229 444.636 8.33879 454.124 0.65823L465.871 -9.28134C475.81 -17.4137 493.882 -23.2871 506.533 -21.9317L521.894 -20.5763C534.092 -19.6727 553.519 -22.3835 564.814 -26.9015L579.272 -32.7748C591.019 -37.7446 610.446 -37.2928 621.741 -32.323L635.747 -26.4496C647.042 -21.4799 666.017 -18.3173 678.216 -19.2209L693.577 -20.1245C706.227 -21.0281 724.299 -14.7029 734.239 -6.57056L745.985 3.36901C755.021 11.5014 772.19 20.5373 784.388 23.2481L799.297 26.8625C811.496 30.0251 826.857 41.32 833.634 52.1631L841.315 65.2653C847.64 75.6566 861.194 89.6624 871.585 96.4393L884.687 104.572C895.53 111.349 906.374 127.162 909.536 139.36L913.151 154.269C915.861 166.468 924.445 183.636 932.126 193.124L942.065 204.871C950.198 214.81 956.071 232.882 954.716 245.533L953.36 260.894C952.457 273.092 955.168 292.52 959.686 303.814L965.559 318.272C970.529 330.019 970.077 349.446 965.107 360.741L959.234 374.747C954.264 386.042 951.101 405.017 952.005 417.668L952.909 433.029C953.812 445.679 947.487 463.751 939.355 473.239L929.415 484.985C921.283 494.021 912.247 511.641 909.084 523.388L905.47 538.298C902.307 550.496 891.012 565.857 880.169 572.634L867.067 580.315C856.676 586.64 842.67 600.194 835.893 610.585L827.761 623.687C820.984 634.53 805.171 645.374 792.972 648.536L778.063 652.151C765.864 654.861 748.696 663.445 739.208 671.578L727.462 681.517C717.522 689.65 699.45 695.523 686.8 694.168L671.439 692.812C659.24 691.909 639.813 694.62 628.518 699.138L614.06 705.011C608.187 707.27 600.958 708.625 593.729 708.625C585.597 708.625 577.465 707.27 571.591 704.559V704.107Z" fill="#999999"/>
<path d="M677.312 716.306L693.577 717.661C706.679 719.017 725.203 713.143 735.142 704.559L747.793 694.168C758.184 685.584 777.611 676.096 790.713 672.933L806.978 669.319C819.628 666.608 835.441 654.861 842.67 644.018L851.254 630.013C858.483 618.718 873.844 603.356 885.591 596.579L899.597 587.995C910.892 581.218 922.638 565.405 925.801 553.207L929.867 536.942C933.03 523.84 942.969 504.865 952.005 494.473L962.848 481.823C971.433 471.883 977.758 453.36 976.854 440.709L975.951 423.993C975.047 410.439 978.661 389.204 984.083 376.554L990.408 361.193C995.378 349.446 995.83 329.567 990.86 317.368L984.535 302.007C979.565 289.357 976.402 268.123 977.758 254.569L979.113 238.304C980.468 225.202 974.595 206.678 966.011 196.738L955.62 184.088C947.035 173.697 937.548 154.269 934.385 141.167L930.771 124.903C928.06 112.252 916.313 96.4394 905.47 89.2106L891.464 80.6264C880.169 73.3977 864.808 58.0366 858.031 46.2898L849.447 31.8323C842.67 20.5373 826.857 8.79062 814.659 5.62804L798.846 1.56185C785.744 -1.60073 766.768 -11.9921 756.377 -20.5762L743.727 -31.4194C733.787 -40.0036 715.263 -46.3287 702.613 -45.4251L685.896 -44.5215C672.342 -43.6179 651.108 -47.2323 638.458 -52.6539L623.096 -58.9791C611.35 -63.9488 591.471 -64.4006 579.724 -59.4308L564.363 -53.1057C551.712 -48.1359 530.478 -44.9733 516.924 -46.3287L500.659 -47.6841C487.557 -49.0395 469.033 -43.1661 459.094 -34.582L446.444 -24.1906C436.052 -15.6064 416.625 -6.11871 403.523 -2.95613L387.258 0.658272C374.608 3.36906 358.795 14.664 351.566 25.9589L342.982 39.9647C335.753 51.2596 320.392 66.6207 308.645 73.3977L294.188 81.9819C282.893 88.7588 271.146 104.572 267.983 116.77L263.917 133.035C260.755 146.137 250.815 165.113 241.779 175.504L230.936 188.154C222.352 198.094 216.027 216.618 216.93 229.268L217.834 245.984C218.737 259.538 215.123 280.773 209.701 293.423L203.376 308.784C198.407 320.531 197.955 340.41 202.925 352.609L209.25 367.97C214.219 380.62 217.382 401.855 216.027 415.409L214.671 431.673C213.316 444.324 219.189 463.299 227.773 473.239L238.165 485.889C246.749 496.28 256.237 515.708 259.399 528.81L263.014 545.075C265.724 557.725 277.471 573.99 288.314 580.767L302.32 589.351C313.615 596.579 328.976 611.941 335.753 623.687L344.337 637.693C351.114 648.988 366.927 660.735 379.126 663.897L395.39 667.964C408.492 671.126 427.468 681.066 437.859 690.102L450.51 700.945C460.449 709.529 478.973 715.854 491.623 714.95L508.34 714.047C521.894 713.143 543.128 716.758 555.779 722.179L571.14 728.504C582.887 733.474 602.766 733.926 614.512 728.956L629.873 722.631C640.717 718.113 657.433 715.402 670.535 715.402C672.794 715.402 675.053 715.402 677.312 715.402V716.306ZM569.784 731.667L554.423 725.342C542.225 719.92 521.894 716.758 508.792 717.661L492.075 718.565C478.521 719.469 458.642 712.691 448.251 703.656L435.6 692.812C425.661 684.228 407.137 674.289 394.487 671.126L378.222 667.06C364.668 663.897 348.403 651.247 341.175 639.5L332.59 625.495C325.814 614.2 311.356 599.29 300.061 592.061L286.055 583.477C274.309 576.249 262.562 559.532 259.399 545.978L255.785 529.713C253.074 517.063 243.586 498.088 235.002 488.148L224.611 475.498C216.027 465.106 209.701 445.227 211.057 431.673L212.412 415.409C213.768 402.306 210.605 381.524 205.635 369.325L199.31 353.964C194.34 341.314 194.34 320.531 199.762 307.881L206.087 292.52C211.057 280.321 214.671 259.99 213.768 246.888L212.864 230.172C211.96 216.618 218.737 196.738 227.773 186.347L238.617 173.697C247.201 163.757 257.14 145.234 260.303 132.583L264.369 116.318C267.532 103.216 280.182 86.4998 291.929 79.271L306.386 70.6869C317.681 63.9099 332.59 49.4524 339.367 38.1575L347.952 24.1517C355.18 12.405 372.349 0.658249 385.451 -2.50434L401.716 -6.1187C414.818 -8.82948 433.341 -18.3173 443.281 -26.9014L455.931 -37.2927C466.323 -46.3287 486.202 -52.2021 499.756 -50.8467L516.02 -49.4913C529.122 -48.1359 549.905 -51.2985 562.104 -56.2683L577.465 -62.5934C590.115 -67.5632 610.898 -67.5632 623.548 -62.1416L638.909 -55.8164C651.108 -50.8467 671.439 -47.2323 684.541 -48.1359L701.257 -49.0395C714.811 -49.9431 734.691 -43.1661 745.082 -34.1302L757.732 -23.287C767.672 -14.7029 786.195 -4.76331 798.846 -1.60072L814.659 2.46543C828.213 5.62801 844.477 18.2784 851.706 30.0251L860.29 44.4826C867.067 55.7776 881.525 70.6869 892.82 77.9157L906.825 86.4998C918.572 93.7286 930.319 110.445 933.482 123.999L937.096 140.264C939.807 152.914 949.294 171.89 957.879 181.829L968.27 194.479C977.306 204.871 983.179 224.75 981.824 238.304L980.469 254.569C979.113 267.671 982.276 288.453 987.246 300.652L993.571 316.013C998.54 328.663 998.54 349.446 993.119 362.096L986.794 377.458C981.372 389.656 978.209 409.987 979.113 423.089L980.017 439.806C980.92 453.36 974.143 473.239 965.107 483.63L954.264 496.28C945.68 506.22 935.741 524.744 932.578 537.394L928.512 553.659C925.349 567.213 912.699 583.477 900.952 590.706L886.946 599.29C875.651 606.067 860.742 620.525 853.513 631.82L844.929 645.825C837.7 657.572 820.984 669.319 807.43 672.482L791.165 676.096C778.515 678.807 759.539 688.294 749.6 696.879L736.95 707.27C726.558 716.306 706.679 722.179 693.125 720.824L676.86 719.468C663.758 718.113 642.976 721.276 630.777 726.245L615.416 732.571C609.091 734.83 601.41 736.185 593.278 736.185C584.694 736.185 575.658 734.83 569.333 732.119L569.784 731.667Z" fill="#8C8C8C"/>
<path d="M682.734 742.51L700.354 744.317C713.908 745.673 734.239 739.347 744.63 730.311L758.184 719.016C769.479 709.529 789.81 699.589 804.268 696.427L821.436 692.36C834.99 689.198 852.158 676.999 859.387 665.704L868.875 650.795C876.555 638.596 893.272 622.332 905.47 615.103L920.831 606.067C932.578 598.838 945.229 582.122 948.391 569.02L952.909 551.851C956.523 537.846 967.367 517.515 976.854 506.22L988.601 493.118C997.637 482.726 1004.41 462.847 1003.51 449.293L1002.15 431.673C1001.25 417.216 1004.87 394.626 1010.74 381.072L1017.52 364.807C1022.94 352.157 1023.39 330.922 1017.97 318.272L1011.19 302.007C1005.77 288.453 1002.61 265.863 1003.96 251.406L1005.77 233.786C1007.12 220.232 1000.8 199.901 991.764 189.51L980.469 175.956C970.981 164.661 961.041 144.33 957.879 129.872L953.813 112.704C950.65 99.15 938.451 81.9817 927.157 74.7529L912.247 65.2652C900.049 57.5846 883.784 40.8681 876.555 28.6696L867.519 13.3085C860.29 1.56173 843.574 -11.0886 830.472 -14.2512L813.304 -18.7692C799.298 -22.3835 778.515 -33.2267 767.672 -42.7145L754.57 -54.4612C744.178 -63.4971 724.299 -70.2741 710.745 -69.3705L693.125 -68.0151C678.668 -67.1115 656.078 -70.7259 642.524 -76.5993L626.259 -83.3763C613.609 -88.7978 592.826 -89.2496 579.724 -83.828L563.459 -77.0511C549.905 -71.6295 527.316 -68.4669 512.406 -69.8223L494.786 -71.6295C481.232 -72.9849 460.901 -66.6597 450.51 -57.6238L436.956 -46.3288C425.661 -36.8411 405.33 -26.9015 390.873 -23.7389L373.704 -19.6727C360.15 -16.5102 342.982 -4.31165 335.753 6.9833L326.266 21.8926C318.585 34.0912 301.869 50.3559 289.67 57.5847L274.309 66.6206C262.562 73.8494 249.912 90.5659 246.749 103.668L242.231 120.836C238.617 134.842 227.774 155.173 218.286 166.468L206.539 179.57C197.503 189.961 190.726 209.841 191.63 223.394L192.985 241.015C193.889 255.472 190.274 278.062 184.401 291.616L177.624 307.881C172.203 320.531 171.751 341.765 177.172 354.416L183.949 370.68C189.371 384.234 192.533 407.276 191.178 421.734L189.371 439.354C188.015 452.908 194.341 473.239 203.377 483.63L214.672 497.184C224.159 508.479 234.099 528.81 237.261 543.267L241.328 560.435C244.49 573.989 256.689 591.158 267.984 598.387L282.893 607.874C295.092 615.555 311.356 632.271 318.585 644.47L327.621 659.831C334.85 671.578 351.566 684.228 364.668 687.391L381.837 691.909C395.842 695.523 416.173 706.366 427.468 715.854L440.57 727.601C450.962 736.637 470.841 743.414 484.395 742.51L502.015 741.155C516.472 740.251 539.514 743.865 552.616 749.739L568.881 756.516C581.531 761.937 602.766 762.389 615.416 756.968L631.681 750.191C642.976 745.673 661.499 742.51 675.505 742.51C678.216 742.51 680.475 742.51 682.734 742.51ZM567.526 759.678L551.261 752.901C538.159 747.48 516.472 743.414 502.467 744.769L484.847 746.124C469.937 747.028 449.155 740.251 437.86 730.311L424.757 718.565C414.366 709.529 394.487 699.137 380.933 695.523L363.765 691.005C349.307 687.391 331.687 674.289 324.007 661.638L314.971 646.277C307.742 634.078 292.381 618.266 280.182 611.037L265.273 601.549C252.623 593.869 239.972 575.797 236.81 561.339L232.743 544.171C229.581 530.617 219.641 510.738 210.605 499.895L199.31 486.341C189.823 475.046 183.046 453.811 184.401 439.354L186.208 421.734C187.564 407.728 184.401 385.59 178.98 372.488L172.203 356.223C166.781 342.669 166.781 320.531 172.654 306.977L179.431 290.712C184.853 277.61 188.919 255.924 187.564 241.918L186.208 224.298C185.305 209.389 192.082 188.606 202.021 177.311L213.768 164.209C222.804 153.818 233.195 133.938 236.81 120.385L241.328 103.216C244.942 88.7587 258.044 71.1386 270.694 63.458L286.056 54.422C298.254 47.1933 314.067 31.8322 321.296 19.6336L330.784 4.72431C338.464 -7.92603 356.536 -20.5763 370.994 -23.7389L388.162 -27.8051C401.716 -30.9677 422.047 -40.9073 432.438 -49.9432L445.992 -61.2382C457.287 -70.7259 478.521 -77.5029 492.979 -76.1475L510.599 -74.3403C524.605 -72.9849 546.743 -76.1475 559.393 -81.5691L575.658 -88.346C589.212 -93.7676 611.35 -93.7676 624.904 -87.8942L641.169 -81.1173C654.271 -75.6957 675.957 -72.0813 689.963 -72.9849L707.583 -74.3403C722.04 -75.2439 743.275 -68.0151 754.57 -58.5274L767.672 -46.7806C778.063 -37.7447 797.942 -27.3533 811.496 -23.7389L828.665 -19.2209C843.122 -15.6066 860.742 -2.50443 868.423 10.1459L877.459 25.507C884.688 37.7056 900.049 53.5185 912.247 60.7472L927.157 70.235C939.807 77.9155 952.457 95.9874 955.62 110.445L959.686 127.613C962.849 141.167 972.788 161.046 981.824 171.889L993.119 185.443C1002.61 196.738 1009.38 217.973 1008.03 232.43L1006.22 250.051C1004.87 264.056 1008.03 286.194 1013.45 299.296L1020.23 315.561C1025.65 329.115 1025.65 351.253 1019.78 364.807L1013 381.072C1007.58 394.174 1003.51 415.86 1004.87 429.866L1006.22 447.486C1007.12 462.395 1000.35 483.178 990.408 494.473L978.661 507.575C969.174 517.966 959.234 537.846 955.62 551.4L951.102 568.568C947.487 583.025 934.385 600.646 921.735 608.326L906.374 617.362C894.175 624.591 878.362 639.952 871.134 652.15L861.646 667.06C853.965 679.71 835.893 692.36 821.436 695.523L804.268 699.589C790.714 702.752 770.383 712.691 759.991 721.727L746.437 733.022C735.143 742.51 713.908 749.287 699.451 747.932L681.83 746.124C667.825 744.769 645.687 747.932 633.036 753.353L616.772 760.13C609.995 762.841 601.862 764.196 593.278 764.196C583.79 764.196 574.754 762.841 567.526 759.678Z" fill="#808080"/>
<path d="M688.607 769.166L707.583 770.973C722.04 772.329 743.275 765.552 754.57 756.064L769.027 743.865C780.774 733.926 802.912 723.083 818.273 719.468L836.797 715.402C850.803 712.24 869.326 699.137 877.007 686.939L886.946 671.126C895.079 658.024 912.699 640.856 926.253 632.723L942.518 623.235C955.168 615.555 968.27 597.935 971.884 583.477L976.402 565.405C980.017 550.496 991.763 528.358 1001.7 517.063L1013.9 503.057C1023.39 492.214 1030.62 470.98 1029.71 456.07L1028.36 437.095C1027.46 421.734 1031.52 397.337 1037.4 382.879L1044.62 365.711C1050.5 352.157 1050.5 330.019 1045.08 316.465L1037.85 298.845C1031.97 284.387 1028.36 259.99 1029.71 244.629L1031.52 225.653C1032.88 211.196 1026.1 189.961 1017.06 178.666L1004.87 164.209C994.926 152.462 984.083 130.324 980.469 114.963L976.402 96.4393C973.24 82.4335 960.138 63.9098 947.939 56.2293L932.126 46.2897C919.024 38.1574 901.856 20.5372 893.723 6.98331L884.236 -9.28139C876.555 -21.9317 858.935 -35.0339 844.477 -38.6482L826.406 -43.1662C811.496 -46.7806 789.358 -58.5273 778.063 -68.4669L764.057 -80.6654C753.214 -90.1532 731.98 -97.3819 717.522 -96.4783L698.547 -95.123C683.186 -94.2194 658.789 -98.2855 644.331 -104.159L627.163 -111.388C613.609 -117.261 591.471 -117.261 577.917 -111.839L560.297 -104.611C545.839 -98.7373 521.442 -95.1229 506.081 -96.4783L487.105 -98.2855C472.648 -99.6409 451.413 -92.864 440.119 -83.3762L425.661 -71.1777C413.914 -61.2381 391.776 -50.395 376.415 -46.7806L357.891 -42.7144C343.886 -39.5518 325.362 -26.4497 317.681 -14.2512L307.742 1.56176C299.609 14.6639 281.989 31.8322 268.435 39.9646L252.171 49.4523C239.52 57.1329 226.418 74.753 222.804 89.2105L218.286 107.282C214.671 122.192 202.925 144.33 192.985 155.625L180.335 169.631C170.847 180.474 163.618 201.708 164.522 216.618L165.877 235.593C166.781 250.954 162.715 275.351 156.841 289.809L149.613 306.977C143.739 320.531 143.739 342.669 149.161 356.223L156.39 373.843C162.263 388.301 165.877 412.698 164.07 428.059L162.263 447.034C160.907 461.492 167.684 482.726 176.72 494.021L188.919 508.479C198.858 520.226 209.702 542.364 213.316 557.725L217.382 576.248C220.545 590.706 233.647 608.778 245.845 616.458L261.658 626.398C274.76 634.53 291.929 652.15 300.061 665.704L309.549 681.969C316.778 694.619 334.85 707.722 349.307 711.336L367.379 715.854C382.288 719.468 404.426 731.215 415.721 741.155L429.727 753.353C440.57 762.841 461.805 770.07 476.262 769.166L495.238 767.811C510.599 766.907 534.996 770.973 549.454 776.847L566.622 784.075C580.176 789.949 602.314 789.949 615.868 784.527L633.488 777.298C645.686 772.329 665.114 769.166 680.023 769.166C682.734 769.166 685.445 769.166 687.704 769.166H688.607ZM565.718 787.238L548.55 780.009C534.996 774.136 511.503 770.07 496.593 770.973L477.618 772.329C461.805 773.232 439.667 766.003 427.468 755.612L413.462 743.414C402.167 733.474 381.385 722.631 366.927 719.016L348.855 714.499C333.494 710.432 314.519 696.427 306.386 682.873L296.899 666.608C289.218 653.958 272.502 636.789 260.303 629.109L244.49 619.169C231.388 610.585 217.382 591.61 213.768 576.248L209.702 557.725C206.539 543.267 195.696 522.033 186.208 510.286L174.01 495.828C164.07 483.63 156.841 461.04 158.197 445.679L160.004 426.703C161.359 411.794 157.745 388.301 152.323 374.747L145.095 357.127C139.221 342.669 139.673 318.724 145.546 304.266L152.775 287.098C158.648 273.544 162.715 250.051 161.811 235.141L160.456 216.166C159.552 200.353 166.781 178.215 177.172 166.016L189.823 152.01C199.762 140.715 210.605 119.933 214.22 105.475L218.738 87.4033C222.804 72.0422 236.809 53.0667 250.363 44.9343L266.628 35.4466C279.278 27.766 296.447 11.5013 304.127 -1.60081L314.067 -17.4137C322.651 -30.9677 341.627 -44.5216 356.988 -48.136L375.511 -52.2022C389.969 -55.3648 411.203 -66.2079 422.95 -75.6956L437.408 -87.8942C449.606 -97.8338 472.196 -105.063 488.009 -103.707L506.985 -101.9C521.894 -100.545 545.387 -104.159 558.941 -109.58L576.561 -116.809C591.019 -122.683 614.964 -122.231 629.422 -116.357L646.59 -109.129C660.144 -103.255 683.637 -99.1891 698.547 -100.093L717.522 -101.448C733.335 -102.352 755.925 -95.1229 767.672 -84.7316L781.678 -72.5331C792.972 -62.5935 813.755 -51.7504 828.213 -48.136L846.285 -43.618C861.646 -39.5518 880.621 -25.5461 888.754 -11.9922L898.241 4.27254C905.922 16.9229 922.187 34.0912 934.837 41.7718L950.65 51.7113C964.204 60.2955 977.758 79.271 981.372 94.6321L985.438 113.156C988.601 127.613 998.992 148.848 1008.93 160.595L1021.13 175.052C1031.07 187.251 1038.3 209.841 1036.94 225.202L1035.14 244.177C1033.78 259.086 1037.4 282.58 1042.82 296.134L1050.05 313.754C1055.92 328.212 1055.47 352.157 1049.59 366.614L1042.36 383.783C1036.49 397.337 1032.43 420.83 1033.33 435.739L1034.68 454.715C1035.59 470.528 1028.36 492.666 1017.97 504.864L1005.77 518.87C995.83 530.165 984.987 550.948 981.372 565.405L976.854 583.477C972.788 598.838 958.782 617.814 945.228 625.946L928.964 635.434C916.313 643.115 899.145 659.831 891.464 672.481L881.525 688.294C872.941 701.848 853.965 715.402 838.604 719.016L820.08 723.083C805.623 726.245 784.388 737.088 772.642 746.576L758.184 758.775C745.986 768.714 723.396 775.943 707.583 774.588L688.607 772.781C673.698 771.425 650.204 775.039 636.651 780.461L619.03 787.69C611.802 790.401 602.766 791.756 593.73 791.756C583.79 791.756 573.851 789.949 566.17 786.786L565.718 787.238Z" fill="#737373"/>
<path d="M694.029 795.37L713.908 797.178C729.269 798.533 751.859 791.304 763.606 781.816L778.967 769.166C791.617 758.775 815.111 747.028 831.376 743.414L850.803 738.896C865.712 735.281 885.139 721.727 893.272 708.625L904.115 691.909C912.699 677.903 931.675 659.831 945.68 651.247L962.849 640.856C975.951 633.175 990.408 613.748 994.023 598.838L998.992 579.411C1003.06 563.598 1015.26 540.105 1026.1 527.906L1039.2 512.997C1049.59 501.25 1056.82 478.66 1055.92 463.299L1054.56 443.42C1053.66 427.155 1057.73 401.403 1064.5 386.042L1072.18 367.518C1078.06 353.512 1078.51 329.567 1072.64 315.109L1065.41 296.586C1059.08 281.225 1055.47 255.472 1056.82 238.756L1058.63 218.876C1059.99 203.515 1052.76 180.925 1043.27 169.179L1030.62 153.818C1020.23 141.167 1008.48 117.674 1004.87 101.409L1000.35 81.9818C996.734 67.0724 983.18 47.6451 970.077 39.5128L952.909 28.6696C938.903 20.0855 920.832 1.10999 912.247 -12.8957L901.856 -30.0641C894.175 -43.1662 874.748 -57.6237 859.839 -61.2381L840.411 -66.2079C824.147 -70.2741 801.105 -82.4726 788.907 -93.3158L773.997 -106.418C762.25 -116.357 740.112 -124.038 724.751 -123.134L704.872 -121.779C688.607 -120.875 662.403 -124.942 647.494 -131.719L628.97 -139.399C614.964 -145.272 591.019 -145.724 577.013 -139.851L558.49 -132.17C543.129 -125.845 517.376 -122.231 500.66 -123.586L480.781 -125.393C465.419 -126.749 442.83 -119.52 431.083 -110.032L415.722 -97.3819C403.071 -86.9906 379.578 -75.2438 363.313 -71.6294L343.886 -67.1115C328.977 -63.4971 309.549 -49.9432 301.417 -36.841L290.574 -19.6727C281.99 -5.66698 263.014 12.4049 249.008 20.9891L231.84 31.3804C218.738 39.061 204.28 58.4883 200.666 73.3976L195.696 92.8249C191.63 108.638 179.431 132.131 168.588 144.33L155.486 159.239C145.547 170.986 137.866 193.576 138.77 208.937L140.125 228.816C141.029 245.081 136.962 270.833 130.186 286.194L122.053 304.718C116.18 318.724 115.728 342.669 121.601 357.127L129.282 375.65C135.607 391.011 139.221 416.764 137.866 433.48L136.059 453.359C134.704 468.721 141.932 491.31 151.42 503.057L164.07 518.418C174.462 531.069 186.208 554.562 189.823 570.827L194.341 590.254C197.955 605.164 211.509 624.591 224.611 632.723L241.78 643.566C255.785 652.151 273.857 671.126 282.441 685.132L292.833 702.3C300.513 715.402 319.941 729.86 334.85 733.474L354.277 738.444C370.09 742.51 393.584 754.709 405.782 765.552L420.691 778.654C432.438 789.045 454.576 796.274 469.937 795.37L489.816 794.015C506.533 793.111 532.285 797.178 547.195 803.955L565.718 811.635C579.724 817.508 603.669 817.96 618.127 812.087L636.651 804.858C649.753 799.436 670.084 796.274 686.349 796.274C689.059 796.274 691.77 796.274 694.481 796.274L694.029 795.37ZM563.459 815.249L544.936 807.569C530.478 801.244 505.629 797.177 489.816 798.081L469.937 799.437C453.221 800.792 429.276 792.66 416.625 781.365L401.716 768.263C389.969 757.871 367.831 746.124 352.47 742.51L333.043 737.54C316.778 733.474 296.447 718.565 287.863 704.107L277.472 686.939C269.339 673.385 251.719 655.313 238.617 647.181L221.449 636.338C207.443 627.302 192.534 606.971 188.919 590.706L184.401 571.279C180.787 555.918 169.944 533.328 159.552 521.129L146.902 505.768C136.059 492.666 128.83 468.721 130.186 452.004L131.993 432.125C133.348 416.312 129.734 391.463 123.86 377.006L116.18 358.482C109.855 343.121 110.306 317.82 116.632 302.459L124.764 283.935C131.089 269.478 135.155 244.629 134.252 228.816L132.896 208.937C131.541 192.22 139.673 168.275 150.968 155.625L164.07 140.715C174.462 128.969 186.208 106.831 189.823 91.4695L194.793 72.0422C198.859 55.7775 213.768 35.4466 228.226 26.8624L245.394 16.4711C258.948 8.33875 277.02 -9.28139 285.152 -22.3835L295.995 -39.5518C305.031 -53.5575 325.362 -68.4669 341.627 -72.0813L361.054 -76.5993C376.415 -80.2136 399.005 -91.0568 411.204 -101.448L426.565 -114.098C439.215 -124.942 463.612 -132.17 480.329 -130.815L500.208 -129.008C516.021 -127.652 540.87 -131.267 555.327 -137.14L573.851 -144.821C589.212 -151.146 614.513 -150.694 629.874 -144.369L648.397 -136.688C662.855 -130.363 687.704 -126.297 703.517 -127.201L723.396 -128.556C740.112 -129.46 764.058 -121.779 776.708 -110.484L791.617 -97.3819C803.364 -86.9906 825.502 -75.2438 840.863 -71.6294L860.291 -66.6597C876.555 -62.5935 896.886 -47.6842 905.47 -33.2266L915.862 -16.0583C923.994 -2.50441 941.614 15.5675 954.716 23.6999L971.885 34.543C985.89 43.579 1000.8 63.9099 1004.41 80.1746L1008.93 99.6019C1012.55 114.963 1023.39 137.553 1033.78 149.751L1046.43 165.113C1057.27 177.763 1064.5 202.16 1063.15 218.876L1061.34 238.756C1059.99 254.568 1063.6 279.417 1069.47 293.875L1076.7 312.399C1083.03 327.76 1082.58 353.06 1076.25 368.422L1068.57 386.945C1062.24 401.403 1058.18 426.252 1059.08 442.065L1060.44 461.944C1061.79 478.66 1053.66 502.605 1042.37 515.256L1029.26 530.165C1018.87 541.912 1007.12 564.05 1003.51 579.411L998.541 598.838C994.475 615.103 979.565 635.434 965.108 644.018L947.939 654.409C934.385 662.542 916.314 680.162 908.181 693.264L897.338 709.981C888.302 723.986 867.971 738.896 851.706 742.51L832.279 747.028C816.918 750.642 794.328 761.486 782.13 771.877L766.768 784.527C753.666 795.37 729.721 802.599 713.005 801.244L693.125 799.437C677.313 798.081 652.464 801.695 638.006 807.569L619.482 814.798C611.802 817.96 602.314 819.316 592.826 819.316C582.435 819.316 571.592 817.508 563.459 814.346V815.249Z" fill="#666666"/>
<path d="M699.45 821.575L720.684 823.382C736.949 824.737 760.894 817.508 773.093 807.117L789.358 793.563C802.912 782.268 827.761 770.07 844.477 766.004L865.26 761.486C881.073 757.871 901.404 743.414 909.988 729.408L921.283 711.336C930.77 696.427 950.198 677 965.559 668.415L983.631 657.572C997.636 649.44 1012.55 629.109 1016.61 613.296L1021.58 592.965C1025.65 575.797 1038.75 551.4 1050.05 538.298L1064.05 522.485C1074.89 510.286 1083.03 486.341 1081.67 470.076L1080.32 448.842C1078.96 431.221 1083.93 404.114 1090.71 387.849L1098.84 368.422C1105.16 353.512 1105.62 328.212 1099.29 313.302L1091.61 293.875C1085.29 277.61 1081.22 250.502 1082.57 232.882L1084.38 211.648C1085.74 195.383 1078.51 171.438 1068.12 159.239L1054.56 142.975C1043.27 129.421 1031.07 104.572 1027.46 87.8553L1022.94 67.0726C1019.32 51.2596 1004.87 30.9287 991.311 22.3446L973.239 11.0496C958.33 1.56189 938.903 -17.8654 930.319 -33.2265L919.475 -51.2984C911.343 -65.3042 891.012 -80.2135 875.199 -84.2797L854.868 -89.2494C837.7 -93.7674 813.303 -106.418 800.201 -117.713L784.388 -131.718C772.189 -142.562 748.696 -150.242 732.431 -149.339L711.197 -147.983C693.577 -146.628 666.469 -151.598 650.204 -158.375L630.777 -166.507C615.867 -172.832 591.019 -173.284 575.657 -166.959L556.23 -159.278C539.965 -152.953 512.406 -148.887 495.237 -150.242L474.003 -152.049C457.738 -153.405 433.793 -146.176 421.594 -135.785L405.33 -122.231C391.776 -110.936 366.927 -98.7372 350.21 -94.671L329.428 -90.1531C313.615 -86.5387 293.284 -72.0812 284.7 -58.5272L273.405 -40.4553C263.917 -25.546 244.49 -6.11868 229.128 2.46547L211.057 13.3086C197.051 21.441 182.142 41.7719 178.075 57.5848L173.106 77.9157C169.039 95.084 155.937 119.481 144.642 132.583L130.637 148.396C119.793 160.595 111.661 184.54 113.016 200.805L114.372 222.039C115.727 239.659 110.757 266.767 103.981 283.032L95.3964 302.459C89.0712 317.369 88.6194 342.669 94.9446 357.579L102.625 377.006C108.95 393.271 113.016 420.83 111.661 437.998L109.854 459.233C108.498 475.498 115.727 499.443 126.119 511.641L139.673 527.906C150.967 541.46 163.166 566.309 166.78 583.026L171.298 603.808C174.913 619.621 189.37 639.952 202.924 648.988L220.996 660.283C235.905 669.771 254.881 689.198 263.917 704.559L274.76 722.631C282.892 736.637 303.223 751.546 319.036 755.612L339.367 760.582C356.535 764.648 380.933 777.75 394.035 789.045L409.848 803.051C422.046 813.894 445.991 822.026 461.804 820.671L483.039 819.316C500.659 817.96 527.767 822.93 544.032 829.707L563.459 837.839C578.368 844.165 603.669 844.616 618.578 838.291L638.005 830.611C651.559 825.189 673.698 821.575 690.414 821.123C693.577 821.123 696.287 821.123 698.998 821.123L699.45 821.575ZM561.652 843.261L542.224 835.129C526.863 828.352 500.659 823.834 483.942 825.189L462.708 826.545C445.088 827.9 419.787 819.316 406.233 807.569L390.42 793.563C377.77 782.72 354.276 770.07 338.012 766.004L317.681 761.034C300.513 756.516 278.826 740.703 269.79 725.342L258.947 707.27C250.363 692.812 231.839 673.837 217.834 665.253L199.762 653.958C184.852 644.47 169.491 622.784 165.425 605.615L160.907 584.833C157.293 568.568 145.546 544.623 134.703 531.972L121.149 515.708C109.854 502.154 101.722 476.401 103.529 458.781L105.336 437.547C106.691 420.83 103.077 394.626 96.7517 379.265L89.0712 359.838C82.2942 343.573 82.746 316.465 89.9748 300.2L98.5589 280.773C105.336 265.412 109.402 239.207 108.498 222.491L107.143 201.257C105.788 183.636 114.372 158.336 126.119 144.782L140.124 128.969C150.967 116.319 163.618 92.825 167.684 76.5603L172.654 56.2294C177.172 39.0611 192.985 17.3748 208.346 8.33885L226.418 -2.50429C240.875 -11.0885 259.851 -29.6122 268.435 -43.6179L279.73 -61.6898C289.218 -76.5991 310.904 -91.9602 328.524 -96.0264L349.307 -100.544C365.571 -104.159 389.517 -115.906 402.167 -126.749L418.432 -140.303C431.986 -151.598 457.738 -159.73 475.358 -157.923L496.593 -156.116C513.309 -154.76 539.514 -158.374 554.875 -164.7L574.302 -172.38C591.019 -179.157 617.675 -178.705 633.939 -171.477L653.367 -163.344C668.728 -156.567 694.932 -152.501 711.648 -153.405L732.883 -154.76C750.503 -156.116 775.804 -147.531 789.358 -135.785L805.171 -121.779C817.821 -110.936 841.315 -98.2854 857.579 -94.2192L877.91 -89.2494C895.078 -84.7315 916.765 -68.9185 925.801 -53.5574L936.644 -35.4855C945.228 -21.028 963.752 -2.05249 977.757 6.53166L995.829 17.8266C1010.74 27.3144 1026.1 49.0007 1030.17 66.169L1034.68 86.9517C1038.3 103.216 1050.05 127.162 1060.89 139.812L1074.44 156.077C1085.74 169.631 1093.87 195.383 1092.06 213.003L1090.26 234.238C1088.9 250.954 1092.51 277.158 1098.84 292.52L1106.52 311.947C1113.3 328.212 1112.84 355.32 1105.62 371.584L1097.48 391.012C1090.71 406.373 1086.64 432.577 1087.54 449.293L1088.9 470.528C1090.26 488.148 1081.67 513.449 1069.92 527.003L1055.92 542.816C1045.08 555.466 1032.42 578.959 1028.36 595.224L1023.39 615.555C1018.87 632.723 1003.06 654.41 987.697 663.446L969.625 674.289C955.168 682.873 936.192 701.397 927.608 715.402L916.313 733.474C906.825 748.383 885.139 763.745 867.519 767.811L846.736 772.329C830.471 775.943 806.526 787.69 793.876 798.533L777.611 812.087C764.057 823.382 738.305 831.514 720.684 829.707L699.45 827.9C682.733 826.544 656.529 830.159 641.168 836.484L621.741 844.165C614.06 847.327 603.669 849.134 593.277 849.134C581.983 849.134 570.688 847.327 562.103 843.713L561.652 843.261Z" fill="#595959"/>
<path d="M705.323 847.779L727.461 850.038C744.63 851.845 769.478 843.713 782.581 832.87L799.749 818.412C813.755 806.665 839.959 793.563 858.031 789.497L879.717 784.527C896.434 780.913 918.12 765.552 927.156 751.094L938.903 732.119C948.842 716.306 969.625 695.975 985.438 686.487L1004.41 675.192C1018.87 666.608 1034.68 645.374 1039.2 628.657L1044.62 606.971C1049.14 588.899 1062.7 563.146 1074.89 549.141L1089.8 532.424C1101.1 519.774 1109.68 494.473 1108.33 477.305L1106.97 455.167C1105.62 436.643 1110.59 407.728 1117.81 391.011L1126.4 370.68C1133.18 354.867 1133.63 328.663 1127.3 312.85L1119.17 292.068C1112.39 274.899 1107.88 245.984 1109.68 227.461L1111.49 205.323C1112.84 188.154 1105.16 162.854 1094.32 149.751L1079.86 132.583C1068.12 118.577 1055.01 92.373 1050.95 74.3011L1045.98 52.6149C1042.36 35.8984 1027 14.2121 1012.55 5.17612L993.57 -6.57065C977.757 -16.5102 957.426 -37.2929 947.939 -53.1058L936.644 -72.0813C928.06 -86.5389 906.825 -102.352 890.108 -106.87L868.422 -112.291C850.35 -116.809 824.598 -130.363 810.592 -142.562L793.876 -157.471C781.225 -168.766 755.925 -177.35 739.208 -175.995L717.07 -174.639C698.546 -173.284 669.631 -178.254 652.915 -185.483L632.584 -194.519C616.771 -201.295 590.567 -201.747 574.754 -195.422L553.971 -187.29C536.803 -180.513 507.888 -175.995 489.364 -177.802L467.226 -180.061C450.509 -181.868 425.209 -173.736 412.106 -162.893L394.938 -148.435C380.932 -136.688 354.728 -123.586 336.656 -119.52L314.97 -114.55C298.253 -110.936 276.567 -95.5748 267.531 -81.1173L255.784 -62.1418C245.845 -46.3288 225.062 -25.9979 209.249 -16.5102L189.822 -5.21524C175.364 3.36891 159.552 24.6034 155.034 41.3199L149.612 63.0062C145.094 81.0781 131.54 106.831 119.342 120.836L104.432 137.553C93.1373 150.203 84.5531 175.504 85.9085 192.672L87.2639 214.81C88.6193 233.334 83.6495 261.797 76.4208 278.965L67.3848 299.296C60.6078 315.109 60.1561 341.314 66.4812 357.127L74.6136 377.909C81.3906 395.078 85.4567 423.993 84.1013 442.516L82.2942 464.654C80.9388 481.823 88.6193 507.123 99.4625 520.226L113.92 537.394C125.667 551.4 138.769 577.604 142.835 595.676L147.805 617.362C151.419 634.079 166.78 655.765 181.238 664.801L200.213 676.547C216.026 686.487 236.357 707.27 245.845 723.083L257.14 742.058C265.724 756.516 286.959 772.329 303.675 776.847L325.361 782.268C343.433 786.786 369.186 800.34 383.191 812.539L399.908 827.448C412.558 838.743 437.859 847.327 454.575 845.972L476.714 844.616C495.237 843.261 524.152 848.231 540.869 855.459L561.2 864.044C577.013 870.821 603.217 871.272 619.03 864.947L639.813 856.815C654.27 850.941 677.312 846.875 695.384 846.875C698.546 846.875 701.709 846.875 704.42 846.875L705.323 847.779ZM559.393 870.821L539.062 862.236C522.797 855.459 495.689 850.49 478.069 851.845L455.931 853.2C437.407 854.556 410.299 845.52 396.294 832.87L379.577 817.96C366.475 806.214 341.626 793.563 324.458 789.045L302.771 783.624C284.7 779.106 262.11 761.937 252.17 746.124L240.875 727.149C231.839 711.788 212.412 691.909 197.503 682.873L178.527 671.126C162.714 661.186 146.449 638.145 142.383 619.621L137.413 597.935C133.347 580.766 121.149 555.918 109.854 542.364L95.3963 525.195C83.1977 510.738 75.0654 483.63 76.8726 465.106L78.6798 442.968C80.4869 425.348 76.4208 397.788 69.6438 381.524L61.5114 360.741C54.7345 343.121 54.7345 315.109 62.415 297.941L71.451 277.61C78.228 261.345 83.1977 233.786 81.8423 216.166L80.487 194.028C79.1316 175.504 88.1675 148.396 100.818 134.39L115.727 117.674C127.474 104.572 140.124 79.7227 144.642 62.5544L150.064 40.8681C154.582 22.7962 171.298 0.206329 187.563 -9.73323L206.99 -21.0282C221.9 -30.0641 242.231 -49.4914 251.267 -64.4008L263.013 -83.3763C272.953 -99.1892 295.994 -115.454 314.518 -119.52L336.204 -124.49C353.373 -128.556 378.222 -140.755 391.776 -152.05L408.944 -166.507C423.401 -178.706 450.509 -186.838 469.033 -185.483L491.171 -183.224C508.791 -181.416 536.351 -185.483 552.616 -192.26L573.398 -200.392C591.018 -207.169 619.03 -207.169 636.198 -199.488L656.529 -190.452C672.794 -183.675 699.902 -178.706 717.522 -180.061L739.66 -181.416C758.184 -182.772 785.291 -173.736 799.297 -161.085L816.014 -146.176C829.116 -134.429 853.965 -121.779 871.133 -117.261L892.819 -111.84C910.891 -107.322 933.481 -90.605 943.421 -74.3403L954.716 -55.3648C963.752 -40.4555 983.179 -20.1246 998.088 -11.0886L1017.06 0.658142C1032.88 10.5977 1049.14 33.6393 1053.21 52.1631L1058.18 73.8494C1062.24 91.0177 1074.44 115.867 1085.74 129.42L1100.19 146.589C1112.39 161.046 1120.53 187.702 1118.72 206.678L1116.91 228.816C1115.1 246.436 1119.17 273.996 1125.95 290.26L1134.08 311.043C1140.86 328.663 1140.86 356.675 1133.18 373.843L1124.59 394.174C1117.81 410.439 1112.84 437.998 1114.2 455.618L1115.56 477.757C1116.91 496.28 1107.88 523.388 1095.22 537.394L1080.32 554.11C1068.57 567.213 1055.92 592.061 1051.4 609.23L1045.98 630.916C1041.46 648.988 1024.29 671.578 1008.48 681.517L989.504 692.812C974.143 701.848 954.264 721.276 945.228 736.185L933.481 755.16C923.542 770.973 900.5 787.238 881.976 791.756L860.29 796.726C843.122 800.792 818.273 812.99 804.719 824.285L787.55 838.743C773.093 850.941 745.985 859.074 727.461 857.718L705.323 855.459C687.703 853.652 660.143 857.718 643.879 864.495L623.096 872.628C614.964 875.79 604.12 877.598 592.826 877.598C581.079 877.598 568.88 875.79 559.844 871.724L559.393 870.821Z" fill="#4D4D4D"/>
<path d="M710.745 874.435L734.239 876.694C751.859 878.501 778.515 869.917 792.521 858.622L810.593 843.713C825.502 831.062 853.061 817.508 872.037 813.442L895.079 808.472C912.699 804.406 935.289 788.593 944.776 773.232L957.427 753.353C967.818 737.088 989.956 715.402 1006.67 705.463L1027 693.264C1042.36 684.228 1059.08 661.638 1063.15 644.47L1069.02 621.88C1073.99 602.904 1088 575.797 1100.65 561.339L1116.01 543.719C1127.75 530.165 1136.79 503.961 1135.44 485.889L1134.08 462.395C1132.72 442.968 1138.15 412.698 1145.83 394.626L1154.86 372.939C1162.09 356.675 1162.09 328.663 1155.77 311.947L1147.18 290.26C1139.95 272.189 1135.44 241.918 1137.24 222.491L1139.5 198.997C1141.31 181.377 1132.72 154.721 1121.43 140.715L1106.52 122.643C1093.87 107.734 1080.32 80.1745 1076.25 61.199L1071.28 38.1573C1067.21 20.5372 1051.4 -2.05267 1036.04 -11.5404L1016.16 -24.1907C999.896 -34.5821 978.209 -56.7202 968.27 -73.4367L956.071 -93.7676C947.035 -109.129 924.445 -125.845 907.277 -129.911L884.687 -135.785C865.712 -140.755 838.604 -154.76 824.146 -167.411L806.526 -182.772C792.972 -194.518 766.768 -203.554 748.696 -202.199L725.203 -200.392C705.775 -199.036 675.505 -204.458 657.433 -212.139L635.747 -221.626C619.482 -228.855 591.471 -228.855 574.754 -222.53L553.068 -213.946C534.996 -206.717 504.725 -202.199 485.298 -204.006L461.805 -206.265C444.184 -208.072 417.528 -199.488 403.975 -188.193L385.903 -173.284C370.993 -160.634 343.434 -147.08 324.458 -143.014L301.416 -137.592C283.796 -133.526 261.206 -117.713 251.719 -102.352L239.068 -82.4726C228.677 -66.2079 206.539 -44.5217 189.822 -34.5821L169.491 -22.3836C154.13 -13.3476 137.414 9.24228 133.348 26.4106L127.474 49.0005C122.505 67.976 108.499 95.0838 95.3967 109.541L80.0356 127.161C68.2888 140.715 59.2528 166.92 60.6082 184.992L61.9636 208.485C63.319 227.912 57.8975 258.183 50.6687 276.255L41.1809 297.941C33.9522 314.206 33.9522 342.217 40.2773 358.934L48.8615 380.62C56.0903 398.692 60.6082 428.962 58.8011 448.39L56.5421 471.883C54.7349 489.503 63.319 516.159 74.614 530.165L89.5233 548.237C102.174 563.146 115.728 590.706 119.794 609.681L124.764 632.723C128.83 650.343 144.643 672.933 160.004 682.421L179.883 695.071C196.148 705.462 217.834 727.601 227.773 744.317L239.972 764.648C249.008 780.009 271.598 796.726 288.766 800.792L311.356 806.665C330.331 811.635 357.439 825.641 371.897 838.743L389.517 854.104C403.071 865.851 429.275 874.887 446.895 873.531L470.389 871.724C489.816 870.369 520.087 875.79 538.158 883.471L559.845 892.507C576.109 899.736 604.121 899.735 620.837 893.41L642.524 884.826C657.885 878.501 682.282 874.435 700.806 874.435C703.968 874.435 707.131 874.435 710.293 874.435H710.745ZM557.586 898.832L535.899 889.796C518.731 882.567 490.268 877.597 471.744 878.953L448.251 880.76C428.372 882.115 400.36 872.628 385.451 859.526L367.831 844.164C353.825 831.966 328.073 818.412 310.001 813.894L287.411 808.021C268.435 803.051 244.49 785.431 234.099 768.262L221.9 747.932C212.412 732.119 192.081 710.884 176.268 701.396L156.389 688.746C139.673 678.355 122.505 653.958 117.987 634.53L113.017 611.489C108.951 593.417 95.8485 567.212 84.1017 553.207L69.1924 535.135C56.5421 519.774 47.5061 491.762 49.3133 471.883L51.5723 448.39C53.3795 429.866 48.8615 400.951 42.0845 383.783L33.5004 362.096C26.2716 343.573 26.2716 314.206 34.404 295.682L43.8917 273.996C51.1205 256.827 56.0903 227.912 54.7349 209.84L53.3795 186.347C52.0241 166.468 61.5118 138.456 74.614 123.547L89.9751 105.927C102.174 91.9212 115.728 66.1688 120.246 48.0969L126.119 25.507C131.089 6.53151 148.709 -17.4138 165.877 -27.8051L186.208 -40.0037C202.021 -49.4914 223.255 -69.8223 232.743 -85.6353L245.394 -105.514C255.785 -122.231 280.182 -139.399 299.609 -143.917L322.651 -149.339C340.723 -153.405 366.927 -166.507 380.933 -178.254L399.005 -193.163C414.366 -205.813 442.377 -214.849 462.256 -213.042L485.75 -210.783C504.274 -208.976 533.189 -213.494 550.357 -220.271L572.043 -228.855C590.567 -236.084 620.386 -236.084 638.458 -227.951L660.144 -218.464C677.312 -211.235 705.775 -206.265 724.299 -207.621L747.793 -209.428C767.22 -210.783 795.683 -201.295 810.593 -188.193L828.213 -172.832C842.218 -160.634 867.971 -147.08 886.043 -142.562L908.633 -136.688C927.608 -131.719 951.553 -114.098 961.945 -96.9302L974.143 -76.5993C983.631 -60.7864 1003.96 -39.5519 1019.77 -30.0641L1039.65 -17.4138C1056.37 -7.02243 1073.54 17.3746 1078.06 36.8019L1083.03 59.8436C1087.09 77.9155 1100.19 104.12 1111.94 118.126L1126.85 136.197C1139.5 151.559 1148.54 179.57 1146.73 199.449L1144.47 222.943C1142.66 241.466 1147.18 270.381 1153.96 287.55L1162.54 309.236C1169.77 327.76 1169.77 357.127 1161.64 375.65L1152.6 397.336C1145.37 414.505 1140.4 443.42 1141.76 461.492L1143.12 484.985C1144.47 504.864 1134.98 532.876 1121.88 547.785L1106.52 565.405C1094.32 579.411 1080.77 605.163 1076.25 623.235L1070.38 645.825C1065.41 664.801 1047.79 688.746 1030.62 699.137L1010.29 711.336C994.474 720.824 973.24 741.155 963.752 756.967L951.102 776.847C940.71 793.563 916.313 810.731 896.886 815.249L873.844 820.219C855.772 824.285 829.568 837.387 815.562 849.134L797.49 864.043C782.129 876.694 753.666 885.73 734.239 883.922L710.745 881.664C692.221 879.856 663.306 884.374 646.138 891.151L624.452 899.735C615.868 903.35 604.121 905.157 592.826 905.157C580.176 905.157 567.525 903.35 558.038 898.832H557.586Z" fill="#404040"/>
<path d="M716.167 900.639L740.564 902.898C759.088 904.706 787.099 896.121 801.557 883.923L820.532 868.11C836.345 855.008 865.26 840.55 885.139 836.032L909.084 830.611C927.156 826.545 951.102 809.376 961.041 793.563L974.143 772.781C984.986 755.612 1008.03 733.023 1025.65 722.631L1046.88 709.981C1063.15 700.493 1080.32 677 1084.83 658.928L1090.71 634.982C1095.68 615.103 1110.59 586.64 1124.14 571.279L1140.4 552.755C1152.6 538.749 1162.09 511.19 1160.74 492.214L1158.93 467.817C1157.57 447.486 1162.99 415.409 1171.13 396.885L1180.61 374.295C1187.84 357.127 1188.3 327.76 1181.52 310.592L1172.48 287.55C1164.8 268.574 1160.28 236.497 1162.09 216.166L1164.35 191.769C1166.16 173.245 1157.57 145.234 1145.37 130.776L1129.56 111.801C1116.46 95.9876 1102 67.0726 1097.48 47.1935L1092.06 23.2482C1088 5.17627 1070.83 -18.769 1055.02 -28.7086L1034.23 -41.8107C1017.06 -52.6539 994.474 -75.6956 984.083 -93.3157L971.432 -114.55C961.945 -130.815 938.451 -147.983 920.379 -152.501L896.434 -158.375C876.555 -163.344 848.092 -178.254 832.731 -191.808L814.207 -208.072C800.201 -220.271 772.641 -229.759 753.666 -228.403L729.269 -226.596C708.938 -225.241 676.86 -230.662 658.337 -238.795L635.747 -248.734C618.578 -255.963 589.663 -256.415 572.043 -249.638L549.002 -240.602C530.026 -232.921 497.948 -228.403 477.618 -230.21L453.22 -232.469C434.697 -234.277 406.685 -225.692 392.228 -213.494L373.252 -197.681C357.439 -184.579 328.524 -170.121 308.645 -165.603L284.7 -160.182C266.628 -156.116 242.683 -139.399 232.743 -123.586L219.641 -102.803C208.798 -85.6351 185.756 -63.0452 168.136 -52.6539L146.902 -40.0035C130.637 -30.5158 113.469 -7.02229 108.951 11.0496L103.077 34.9949C98.1075 54.874 83.1981 83.3373 69.6442 98.6984L53.3795 117.222C41.181 131.228 31.6932 158.788 33.0486 177.763L34.8558 202.16C36.2112 222.491 30.7896 254.117 22.6572 273.092L12.7177 295.682C5.48893 312.851 5.03713 342.217 11.8141 359.386L20.8501 382.427C28.5306 401.403 33.0486 433.481 31.2414 453.811L28.9824 478.209C27.1752 496.732 35.7594 524.744 47.9579 539.201L63.7708 558.177C76.873 573.99 91.3305 602.905 95.8485 622.784L101.27 646.729C105.336 664.801 122.053 688.746 137.866 698.686L158.648 711.788C175.817 722.631 198.407 745.673 208.798 763.293L221.448 784.527C230.936 800.792 254.429 817.961 272.501 822.479L296.447 828.352C316.326 833.322 344.789 848.231 360.15 861.785L378.674 878.05C392.68 890.248 420.239 899.736 439.215 898.38L463.612 896.573C483.943 895.218 516.02 900.639 534.544 908.772L557.134 918.26C574.302 925.488 603.669 925.94 620.837 919.163L643.879 910.127C660.144 903.802 685.445 899.284 705.324 899.284C725.203 899.284 712.101 899.284 715.263 899.284L716.167 900.639ZM555.327 926.392L532.737 916.904C515.117 909.224 484.846 904.254 465.419 905.609L441.022 907.416C420.239 908.772 390.872 898.832 375.059 885.278L356.536 869.014C342.078 856.363 314.97 841.906 295.995 837.388L272.05 831.514C251.719 826.545 226.87 807.569 216.027 789.949L203.376 768.714C193.437 751.998 172.202 729.86 155.486 719.92L134.703 706.818C117.083 695.975 99.0111 670.223 94.4931 649.892L89.0715 625.946C84.5535 606.971 70.9996 579.411 58.8011 564.502L42.9882 545.526C29.886 529.713 20.3983 499.895 22.2054 479.112L24.4644 454.715C26.2716 435.288 21.7537 405.017 14.5249 386.945L5.48894 363.904C-2.19162 344.476 -1.73984 313.302 6.39252 294.327L16.3321 271.737C24.0126 253.665 28.9824 223.395 27.627 204.419L25.8198 180.022C24.4644 159.239 34.404 129.872 47.9579 114.06L64.2226 95.5358C76.873 81.0783 91.3305 53.9704 95.8485 34.9949L101.722 11.0496C106.692 -9.28128 125.667 -34.1302 143.287 -44.9733L164.522 -57.6236C181.238 -67.5632 202.925 -88.7977 213.316 -105.514L226.418 -126.297C237.261 -143.917 263.014 -161.989 283.345 -166.507L307.29 -171.928C326.265 -176.446 353.825 -190 368.734 -202.199L387.71 -218.012C403.523 -231.566 433.341 -240.602 454.124 -238.795L478.521 -236.536C497.948 -234.728 528.219 -239.246 546.291 -246.475L569.332 -255.511C588.76 -263.192 619.934 -262.74 638.909 -254.607L661.499 -244.668C679.119 -236.987 709.39 -232.018 728.817 -233.373L753.214 -235.18C773.997 -236.536 803.815 -226.596 819.177 -213.042L837.7 -196.777C852.158 -184.127 879.266 -169.669 898.241 -165.152L922.187 -159.278C942.517 -154.308 967.366 -135.785 978.209 -117.713L990.86 -96.4782C1000.8 -79.7617 1022.03 -58.0754 1038.75 -47.6841L1059.53 -34.582C1077.15 -23.7388 1095.23 2.01367 1099.74 22.3446L1105.16 46.2899C1109.23 65.2654 1123.24 92.825 1135.44 107.734L1151.25 126.71C1164.35 142.523 1173.84 172.341 1172.03 193.124L1169.77 217.521C1167.96 236.949 1172.48 267.219 1179.71 285.291L1188.75 308.333C1196.43 327.76 1195.98 358.934 1187.84 377.909L1178.36 400.499C1170.68 418.119 1165.71 448.39 1167.06 467.817L1168.87 492.214C1170.22 512.997 1160.28 542.364 1146.73 558.177L1130.47 576.7C1117.81 591.158 1103.36 618.266 1098.84 637.241L1092.97 661.187C1088 681.518 1069.02 706.366 1051.4 717.21L1030.17 729.86C1013.45 739.799 991.763 761.034 981.372 777.75L968.27 798.533C957.427 816.153 931.674 834.225 911.343 838.743L887.398 844.165C868.423 848.683 840.863 862.237 825.954 874.435L806.978 890.248C791.165 903.802 761.347 912.838 740.564 911.031L716.167 908.772C696.739 906.964 666.469 911.483 648.397 918.711L625.355 927.747C616.32 931.362 604.121 933.169 591.922 933.169C578.82 933.169 565.718 930.91 555.779 926.844L555.327 926.392Z" fill="#333333"/>
</g>
</svg>
