<svg width="266" height="266" viewBox="0 0 266 266" fill="none" xmlns="http://www.w3.org/2000/svg">
<path d="M148.1 205.5L151.2 205.8C153.7 206 157.3 204.9 159.2 203.3L161.6 201.3C163.6 199.6 167.2 197.8 169.8 197.3L172.9 196.6C175.3 196 178.4 193.9 179.7 191.8L181.4 189.1C182.8 186.9 185.7 184.1 187.9 182.7L190.6 181.1C192.7 179.8 195 176.8 195.6 174.4L196.4 171.3C197 168.8 198.9 165.2 200.6 163.3L202.7 160.9C204.4 159 205.6 155.5 205.4 153L205.2 149.9C205 147.3 205.7 143.3 206.7 140.9L207.9 138C208.9 135.7 208.9 131.9 208 129.6L206.8 126.7C205.8 124.3 205.3 120.3 205.5 117.7L205.8 114.6C206 112.1 204.9 108.5 203.3 106.6L201.3 104.2C199.6 102.2 197.8 98.6 197.3 96.1L196.6 93C196 90.6 193.9 87.5 191.8 86.2L189.1 84.5C186.9 83.1 184.1 80.2 182.8 78L181.2 75.3C179.9 73.2 176.9 70.9 174.5 70.3L171.4 69.5C168.9 68.9 165.3 67 163.4 65.3L161 63.2C159.1 61.6 155.6 60.4 153.1 60.5L150 60.7C147.4 60.9 143.4 60.2 141 59.2L138.1 58C135.8 57 132 57 129.7 58L126.8 59.2C124.4 60.2 120.4 60.8 117.8 60.5L114.7 60.2C112.2 60 108.6 61.1 106.7 62.7L104.3 64.7C102.3 66.3 98.7 68.2 96.2 68.7L93.1 69.4C90.7 70 87.6 72.1 86.3 74.2L84.6 76.9C83.2 79.1 80.3 81.9 78.1 83.2L75.4 84.8C73.3 86.1 71 89.1 70.4 91.5L69.6 94.6C69 97.1 67.1 100.7 65.4 102.6L63.3 105C61.7 106.9 60.4 110.4 60.6 112.9L60.8 116C61 118.6 60.3 122.6 59.3 125L58.1 127.9C57.1 130.2 57.1 134 58 136.3L59.2 139.2C60.2 141.6 60.7 145.6 60.5 148.2L60.2 151.3C60 153.8 61.1 157.4 62.7 159.3L64.7 161.7C66.3 163.7 68.2 167.3 68.7 169.8L69.4 172.9C70 175.3 72.1 178.4 74.2 179.7L76.9 181.4C79.1 182.8 81.9 185.7 83.2 187.9L84.8 190.6C86.1 192.7 89.1 195 91.5 195.6L94.6 196.4C97.1 197 100.7 198.9 102.6 200.6L105 202.7C106.9 204.3 110.4 205.6 112.9 205.4L116 205.2C118.6 205 122.6 205.7 125 206.7L127.9 207.9C130.2 208.9 134 208.9 136.3 207.9L139.2 206.7C141.2 205.9 144.4 205.3 146.9 205.3C147.3 205.3 147.8 205.3 148.2 205.3L148.1 205.5ZM127.7 208.3L124.8 207.1C122.5 206.1 118.6 205.4 116 205.6L112.9 205.8C110.3 206 106.6 204.7 104.7 203L102.3 200.9C100.4 199.2 96.9 197.4 94.4 196.8L91.3 196C88.8 195.4 85.7 193 84.3 190.8L82.7 188.1C81.4 185.9 78.6 183.1 76.5 181.7L73.8 180C71.6 178.6 69.3 175.4 68.8 172.9L68.1 169.8C67.5 167.3 65.8 163.8 64.2 161.8L62.2 159.4C60.5 157.4 59.4 153.7 59.6 151.1L59.9 148C60.1 145.5 59.6 141.6 58.6 139.2L57.4 136.3C56.4 133.9 56.5 130 57.5 127.6L58.7 124.7C59.7 122.4 60.4 118.4 60.2 115.9L60 112.8C59.8 110.2 61.1 106.5 62.8 104.6L64.9 102.2C66.6 100.3 68.4 96.8 69 94.3L69.8 91.2C70.4 88.7 72.8 85.6 75 84.2L77.7 82.6C79.9 81.3 82.7 78.5 84.1 76.4L85.8 73.7C87.2 71.5 90.4 69.2 92.9 68.7L96 68C98.5 67.4 102 65.7 104 64.1L106.4 62.1C108.4 60.4 112.1 59.3 114.7 59.5L117.8 59.8C120.3 60 124.3 59.4 126.6 58.5L129.5 57.3C131.9 56.3 135.8 56.4 138.2 57.4L141.1 58.6C143.4 59.6 147.3 60.3 149.9 60.1L153 59.9C155.6 59.7 159.3 61 161.2 62.7L163.6 64.8C165.5 66.5 169 68.3 171.5 68.9L174.6 69.7C177.1 70.3 180.2 72.7 181.6 74.9L183.2 77.6C184.5 79.8 187.3 82.6 189.4 84L192.1 85.7C194.3 87.1 196.6 90.3 197.1 92.8L197.8 95.9C198.4 98.4 200.1 101.9 201.7 103.9L203.7 106.3C205.4 108.3 206.5 112 206.3 114.6L206 117.7C205.8 120.2 206.3 124.2 207.3 126.5L208.5 129.4C209.5 131.8 209.4 135.7 208.4 138.1L207.2 141C206.2 143.3 205.5 147.2 205.7 149.8L205.9 152.9C206.1 155.5 204.8 159.2 203.1 161.1L201 163.5C199.3 165.4 197.5 168.9 196.9 171.4L196.1 174.5C195.5 177 193.1 180.1 190.9 181.5L188.2 183.1C186 184.4 183.2 187.2 181.8 189.3L180.1 192C178.7 194.2 175.5 196.5 173 197L169.9 197.7C167.4 198.3 163.9 200 161.9 201.6L159.5 203.6C157.5 205.3 153.8 206.4 151.2 206.2L148.1 205.9C145.6 205.7 141.6 206.3 139.3 207.2L136.4 208.4C135.2 208.9 133.7 209.1 132.2 209.1C130.6 209.1 128.9 208.8 127.7 208.3Z" fill="#F99D27"/>
<path d="M149.3 211.3L152.7 211.6C155.4 211.8 159.2 210.6 161.3 208.9L163.9 206.7C166 204.9 170 202.9 172.7 202.3L176 201.5C178.6 200.9 181.9 198.6 183.3 196.3L185.1 193.4C186.6 191 189.7 187.9 192.1 186.5L195 184.8C197.3 183.4 199.7 180.2 200.4 177.6L201.2 174.3C201.9 171.6 203.9 167.7 205.8 165.6L208 163C209.8 161 211.1 157.1 210.9 154.5L210.7 151.1C210.5 148.3 211.3 144 212.4 141.4L213.7 138.3C214.8 135.8 214.8 131.8 213.8 129.3L212.5 126.1C211.5 123.5 210.8 119.1 211.1 116.4L211.4 113C211.6 110.3 210.4 106.5 208.7 104.4L206.5 101.8C204.7 99.6999 202.8 95.6999 202.1 92.9999L201.3 89.6999C200.7 87.0999 198.4 83.7999 196.1 82.2999L193.2 80.4999C190.8 78.9999 187.7 75.8999 186.3 73.4999L184.6 70.5999C183.2 68.2999 180 65.8999 177.4 65.1999L174.1 64.3999C171.4 63.6999 167.5 61.6999 165.4 59.7999L162.8 57.5999C160.8 55.7999 156.9 54.4999 154.3 54.6999L150.9 54.8999C148.1 55.0999 143.8 54.2999 141.2 53.1999L138.1 51.8999C135.6 50.7999 131.6 50.7999 129.1 51.7999L125.9 53.0999C123.3 54.0999 118.9 54.7999 116.2 54.4999L112.8 54.1999C110.1 53.9999 106.3 55.1999 104.2 56.8999L101.6 59.0999C99.5 60.8999 95.5 62.7999 92.8 63.4999L89.5 64.2999C86.9 64.8999 83.6 67.1999 82.2 69.4999L80.4 72.3999C78.9 74.7999 75.8 77.8999 73.4 79.2999L70.5 80.9999C68.2 82.3999 65.8 85.5999 65.1 88.1999L64.3 91.4999C63.6 94.1999 61.6 98.0999 59.7 100.2L57.5 102.8C55.7 104.8 54.4 108.7 54.6 111.3L54.8 114.7C55 117.5 54.2 121.8 53.1 124.4L51.8 127.5C50.7 130 50.7 134 51.7 136.5L53 139.7C54 142.3 54.7 146.7 54.4 149.4L54.1 152.8C53.9 155.5 55.1 159.3 56.8 161.4L59 164C60.8 166.1 62.7 170.1 63.4 172.8L64.2 176.1C64.8 178.7 67.1 182 69.4 183.5L72.3 185.3C74.7 186.8 77.7 189.9 79.2 192.3L80.9 195.2C82.3 197.5 85.5 199.9 88.1 200.6L91.4 201.4C94.1 202.1 98 204.1 100.1 206L102.7 208.2C104.7 210 108.6 211.3 111.2 211.1L114.6 210.9C117.4 210.7 121.7 211.5 124.3 212.6L127.4 213.9C129.9 215 133.9 215 136.4 214L139.6 212.7C141.8 211.8 145.3 211.2 148 211.2C148.5 211.2 148.9 211.2 149.4 211.2L149.3 211.3ZM127.2 214.4L124.1 213.1C121.6 212 117.4 211.3 114.7 211.5L111.3 211.7C108.5 211.9 104.5 210.5 102.3 208.7L99.7 206.5C97.7 204.7 93.9 202.7 91.2 202L87.9 201.2C85.2 200.5 81.8 198 80.3 195.6L78.6 192.7C77.2 190.4 74.2 187.3 71.9 185.8L69 184C66.6 182.5 64.2 179 63.5 176.3L62.7 173C62.1 170.4 60.2 166.5 58.5 164.4L56.3 161.8C54.5 159.6 53.2 155.6 53.5 152.8L53.8 149.4C54 146.7 53.4 142.4 52.4 139.9L51.1 136.7C50 134.1 50.1 129.8 51.2 127.3L52.5 124.2C53.6 121.7 54.3 117.5 54.1 114.8L53.9 111.4C53.7 108.6 55.1 104.6 56.9 102.5L59.1 99.8999C60.9 97.8999 62.9 93.9999 63.6 91.3999L64.4 88.0999C65.1 85.3999 67.6 81.9999 70 80.4999L72.9 78.7999C75.2 77.3999 78.3 74.3999 79.8 72.0999L81.6 69.1999C83.1 66.7999 86.6 64.3999 89.3 63.6999L92.6 62.8999C95.3 62.2999 99.1 60.3999 101.2 58.6999L103.8 56.4999C106 54.6999 110 53.3999 112.8 53.6999L116.2 53.9999C118.9 54.1999 123.2 53.5999 125.7 52.5999L128.9 51.2999C131.5 50.1999 135.8 50.2999 138.3 51.3999L141.4 52.6999C143.9 53.7999 148.1 54.4999 150.8 54.2999L154.2 54.0999C157 53.8999 161 55.2999 163.2 57.0999L165.8 59.2999C167.8 61.0999 171.6 63.0999 174.3 63.6999L177.6 64.4999C180.3 65.1999 183.7 67.6999 185.2 70.0999L186.9 72.9999C188.3 75.2999 191.3 78.3999 193.6 79.8999L196.5 81.6999C198.9 83.1999 201.3 86.6999 202 89.3999L202.8 92.6999C203.4 95.3999 205.3 99.1999 207 101.3L209.2 103.9C211 106.1 212.3 110.1 212 112.9L211.7 116.3C211.5 119 212.1 123.3 213.1 125.8L214.4 129C215.5 131.6 215.4 135.9 214.3 138.4L213 141.5C211.9 144 211.2 148.2 211.4 151L211.6 154.4C211.8 157.2 210.4 161.2 208.6 163.3L206.4 165.9C204.6 167.9 202.6 171.8 201.9 174.4L201.1 177.7C200.4 180.4 197.9 183.8 195.5 185.3L192.6 187C190.3 188.4 187.2 191.4 185.7 193.7L183.9 196.6C182.4 199 178.9 201.4 176.2 202.1L172.9 202.9C170.2 203.5 166.4 205.4 164.3 207.2L161.7 209.4C159.5 211.2 155.5 212.5 152.7 212.2L149.3 211.9C146.6 211.7 142.3 212.3 139.8 213.3L136.6 214.6C135.3 215.1 133.7 215.4 132.1 215.4C130.3 215.4 128.5 215.1 127.2 214.5V214.4Z" fill="#F79433"/>
<path d="M150.6 217.2L154.2 217.5C157.1 217.8 161.2 216.5 163.4 214.6L166.2 212.3C168.5 210.4 172.8 208.3 175.7 207.6L179.3 206.8C182.1 206.2 185.6 203.6 187.2 201.2L189.1 198.1C190.7 195.6 194.1 192.2 196.7 190.7L199.8 188.8C202.3 187.3 204.9 183.8 205.6 181.1L206.5 177.5C207.2 174.6 209.4 170.4 211.4 168.1L213.8 165.3C215.7 163.1 217.1 159 216.9 156.2L216.7 152.5C216.5 149.5 217.3 144.8 218.5 142L219.9 138.6C221 136 221.1 131.6 220 128.9L218.6 125.5C217.5 122.7 216.8 118 217.1 115L217.4 111.4C217.7 108.5 216.4 104.4 214.5 102.2L212.2 99.4C210.3 97.1 208.2 92.8 207.5 89.9L206.7 86.3C206.1 83.5 203.5 80 201.1 78.4L198 76.5C195.5 74.9 192.1 71.5 190.6 68.9L188.7 65.7C187.2 63.2 183.7 60.6 181 59.9L177.5 59C174.6 58.3 170.4 56 168.1 54.1L165.3 51.7C163.1 49.8 159 48.4 156.2 48.6L152.5 48.8C149.5 49 144.8 48.2 142 47L138.6 45.6C136 44.5 131.6 44.4 129 45.5L125.6 46.9C122.8 48 118.1 48.7 115.1 48.4L111.5 48.1C108.6 47.8 104.5 49.1 102.3 51L99.5 53.3C97.2 55.2 92.9 57.3 90 58L86.4 58.8C83.6 59.4 80.1 61.9 78.5 64.4L76.6 67.5C75 70 71.6 73.4 69 74.9L65.8 76.8C63.3 78.3 60.7 81.8 60 84.5L59.1 88.1C58.4 91 56.2 95.2 54.2 97.5L51.8 100.3C49.9 102.5 48.5 106.6 48.7 109.4L48.9 113.1C49.1 116.1 48.3 120.8 47.1 123.6L45.7 127C44.6 129.6 44.5 134 45.6 136.7L47 140.1C48.1 142.9 48.8 147.6 48.5 150.6L48.2 154.2C47.9 157 49.2 161.2 51.1 163.4L53.4 166.2C55.3 168.5 57.4 172.8 58.1 175.7L58.9 179.3C59.5 182.1 62.1 185.7 64.5 187.2L67.6 189.1C70.1 190.7 73.5 194.1 75 196.7L76.9 199.8C78.4 202.3 81.9 204.9 84.6 205.6L88.2 206.5C91.1 207.2 95.3 209.4 97.6 211.4L100.4 213.8C102.6 215.7 106.7 217.1 109.5 216.9L113.2 216.7C116.2 216.5 120.9 217.3 123.7 218.5L127.1 219.9C129.7 221 134.1 221.1 136.7 220L140.1 218.6C142.5 217.6 146.2 217 149.1 217C149.6 217 150.1 217 150.6 217V217.2ZM126.8 220.6L123.4 219.2C120.7 218 116.2 217.3 113.3 217.5L109.6 217.7C106.6 217.9 102.2 216.4 99.9 214.4L97.1 212C94.9 210.1 90.8 207.9 88 207.2L84.4 206.3C81.4 205.6 77.8 202.8 76.2 200.2L74.3 197.1C72.8 194.6 69.6 191.3 67.1 189.7L64 187.8C61.4 186.2 58.8 182.5 58.1 179.5L57.3 175.9C56.7 173.1 54.6 168.9 52.7 166.7L50.4 163.9C48.5 161.6 47.1 157.2 47.4 154.2L47.7 150.6C48 147.7 47.3 143.1 46.2 140.4L44.8 137C43.7 134.2 43.7 129.6 44.9 126.8L46.3 123.4C47.4 120.7 48.2 116.2 48 113.3L47.8 109.6C47.6 106.6 49.1 102.2 51.1 99.9L53.5 97.1C55.4 94.9 57.6 90.8 58.3 88L59.2 84.4C59.9 81.5 62.7 77.8 65.3 76.2L68.5 74.3C71 72.8 74.3 69.6 75.8 67.1L77.7 64C79.3 61.4 83.1 58.8 86 58.1L89.6 57.3C92.5 56.7 96.6 54.6 98.8 52.7L101.6 50.4C103.9 48.4 108.3 47.1 111.3 47.4L114.9 47.7C117.8 48 122.4 47.3 125.1 46.2L128.5 44.8C131.3 43.7 135.9 43.7 138.7 44.9L142.1 46.3C144.8 47.4 149.3 48.2 152.2 48L155.9 47.8C158.9 47.6 163.3 49.1 165.6 51.1L168.4 53.5C170.6 55.4 174.7 57.6 177.5 58.3L181 59.2C184 59.9 187.6 62.7 189.2 65.3L191.1 68.5C192.6 71 195.8 74.3 198.3 75.9L201.4 77.8C204 79.4 206.6 83.1 207.3 86.1L208.1 89.7C208.7 92.5 210.8 96.7 212.7 98.9L215 101.7C217 104 218.3 108.4 218 111.4L217.7 115C217.4 117.9 218.1 122.5 219.2 125.2L220.6 128.6C221.7 131.4 221.7 136 220.5 138.8L219.1 142.2C217.9 144.9 217.2 149.4 217.4 152.3L217.6 156C217.8 159 216.3 163.4 214.3 165.7L211.9 168.5C210 170.7 207.8 174.8 207.1 177.6L206.2 181.2C205.5 184.2 202.7 187.8 200.1 189.4L197 191.3C194.5 192.8 191.2 196 189.6 198.5L187.7 201.6C186.1 204.2 182.4 206.8 179.4 207.5L175.8 208.3C173 208.9 168.8 211 166.6 212.9L163.8 215.2C161.5 217.2 157.1 218.5 154.1 218.2L150.5 217.9C147.6 217.6 143 218.3 140.3 219.4L136.9 220.8C135.5 221.3 133.8 221.6 132 221.6C130.1 221.6 128.1 221.3 126.7 220.7L126.8 220.6Z" fill="#E18738"/>
<path d="M151.8 223L155.7 223.4C158.7 223.7 163.2 222.3 165.5 220.3L168.5 217.8C171 215.7 175.5 213.5 178.7 212.8L182.5 211.9C185.5 211.2 189.3 208.5 190.9 206L193 202.7C194.7 200 198.4 196.4 201.1 194.8L204.5 192.8C207.1 191.2 209.9 187.5 210.6 184.6L211.6 180.8C212.4 177.7 214.8 173.2 216.9 170.7L219.5 167.8C221.5 165.5 223 161.1 222.8 158.1L222.5 154.2C222.3 151 223.1 146 224.4 143L225.9 139.4C227.1 136.6 227.2 131.9 226 129.1L224.5 125.5C223.3 122.5 222.6 117.5 222.9 114.3L223.3 110.4C223.6 107.4 222.2 102.9 220.2 100.6L217.7 97.6C215.6 95.1 213.4 90.6 212.7 87.4L211.8 83.6C211.1 80.6 208.4 76.8 205.9 75.2L202.6 73.1C199.9 71.4 196.3 67.7 194.7 65L192.7 61.6C191.1 59 187.4 56.2 184.5 55.5L180.7 54.5C177.6 53.7 173 51.3 170.6 49.2L167.7 46.6C165.4 44.6 161 43.1 158 43.3L154.1 43.6C150.9 43.8 145.9 43 142.9 41.7L139.3 40.2C136.5 39 131.9 38.9 129 40.1L125.4 41.6C122.4 42.8 117.4 43.5 114.1 43.2L110.2 42.8C107.2 42.5 102.7 43.9 100.4 45.9L97.4 48.4C94.9 50.5 90.4 52.7 87.2 53.4L83.4 54.3C80.4 55 76.6 57.7 75 60.2L72.9 63.5C71.2 66.2 67.5 69.8 64.8 71.4L61.4 73.4C58.8 75 56 78.7 55.3 81.6L54.3 85.4C53.5 88.5 51.1 93 49 95.5L46.4 98.4C44.4 100.7 42.9 105.1 43.1 108.1L43.4 112C43.6 115.2 42.8 120.2 41.5 123.2L40 126.8C38.8 129.6 38.7 134.3 39.9 137.1L41.4 140.7C42.6 143.7 43.3 148.8 43 152L42.6 155.9C42.3 158.9 43.7 163.4 45.7 165.7L48.2 168.7C50.3 171.2 52.5 175.7 53.2 178.9L54.1 182.7C54.8 185.7 57.5 189.5 60 191.1L63.3 193.2C66 194.9 69.6 198.6 71.2 201.3L73.2 204.7C74.8 207.3 78.5 210.1 81.4 210.8L85.2 211.8C88.3 212.6 92.8 215 95.3 217.1L98.2 219.7C100.5 221.7 104.9 223.2 107.9 223L111.8 222.7C115 222.5 120.1 223.3 123 224.6L126.6 226.1C129.4 227.3 134.1 227.4 136.9 226.2L140.5 224.7C143 223.7 147.1 223 150.2 223C150.8 223 151.3 223 151.8 223ZM126.3 226.8L122.7 225.3C119.8 224.1 115 223.2 111.9 223.5L108 223.8C104.7 224 100.1 222.5 97.6 220.3L94.7 217.7C92.4 215.7 88 213.4 85 212.6L81.2 211.6C78 210.8 74.1 207.9 72.4 205.1L70.4 201.7C68.8 199 65.4 195.5 62.7 193.9L59.4 191.8C56.6 190.1 53.8 186.1 53.1 182.9L52.2 179.1C51.5 176.1 49.3 171.7 47.3 169.3L44.8 166.3C42.7 163.8 41.2 159.1 41.5 155.9L41.9 152C42.2 148.9 41.5 144 40.3 141.1L38.8 137.5C37.6 134.5 37.6 129.6 38.9 126.6L40.4 123C41.6 120.1 42.5 115.3 42.2 112.2L41.9 108.3C41.7 105 43.2 100.4 45.4 97.9L48 95C50 92.7 52.3 88.3 53.1 85.3L54.1 81.5C54.9 78.3 57.8 74.4 60.6 72.7L64 70.7C66.7 69.1 70.2 65.7 71.8 63L73.9 59.7C75.6 56.9 79.6 54.1 82.8 53.4L86.6 52.5C89.6 51.8 94.1 49.6 96.4 47.6L99.4 45.1C101.9 43 106.6 41.5 109.8 41.8L113.7 42.2C116.8 42.5 121.7 41.8 124.5 40.6L128.1 39.1C131.1 37.9 136 37.9 139 39.2L142.6 40.7C145.5 41.9 150.3 42.7 153.4 42.5L157.3 42.2C160.5 42 165.2 43.6 167.7 45.7L170.6 48.3C172.9 50.3 177.3 52.6 180.3 53.4L184.1 54.4C187.3 55.2 191.2 58.1 192.9 60.9L194.9 64.3C196.5 67 199.9 70.5 202.6 72.1L205.9 74.2C208.7 75.9 211.5 79.9 212.2 83.1L213.1 86.9C213.8 89.9 216 94.3 218 96.7L220.5 99.7C222.6 102.2 224.1 106.9 223.8 110.1L223.4 114C223.1 117.1 223.8 122 225 124.9L226.5 128.5C227.7 131.5 227.7 136.4 226.4 139.4L224.9 143C223.7 145.9 222.8 150.7 223.1 153.8L223.4 157.7C223.6 161 222.1 165.6 219.9 168.1L217.3 171C215.2 173.3 213 177.7 212.2 180.7L211.2 184.5C210.4 187.7 207.5 191.6 204.7 193.3L201.3 195.3C198.6 196.9 195.1 200.3 193.5 203L191.4 206.3C189.7 209.1 185.7 211.9 182.5 212.6L178.7 213.5C175.7 214.2 171.2 216.4 168.9 218.4L165.9 220.9C163.4 223 158.7 224.5 155.5 224.2L151.6 223.8C148.5 223.5 143.6 224.2 140.8 225.4L137.2 226.9C135.7 227.5 133.9 227.8 132 227.8C129.9 227.8 127.9 227.5 126.3 226.8Z" fill="#DF7647"/>
<path d="M153.1 228.8L157.3 229.2C160.5 229.5 165.2 228 167.7 225.9L170.9 223.2C173.5 221 178.4 218.6 181.8 217.8L185.9 216.9C189 216.2 193.1 213.3 194.8 210.6L197 207.1C198.8 204.2 202.7 200.4 205.7 198.6L209.3 196.5C212.1 194.8 215 190.9 215.8 187.7L216.8 183.7C217.6 180.4 220.2 175.5 222.4 173L225.1 169.9C227.2 167.5 228.8 162.8 228.6 159.5L228.3 155.3C228.1 151.9 229 146.5 230.3 143.3L231.9 139.5C233.2 136.5 233.2 131.6 232 128.6L230.4 124.7C229.1 121.5 228.3 116.1 228.6 112.7L229 108.5C229.3 105.3 227.8 100.6 225.8 98.1L223.1 94.9C220.9 92.3 218.5 87.4 217.7 84L216.8 79.9C216.1 76.8 213.2 72.7 210.5 71L207 68.8C204.1 67 200.3 63.1 198.5 60.1L196.4 56.5C194.7 53.7 190.8 50.8 187.6 50L183.6 49C180.3 48.2 175.4 45.6 172.9 43.4L169.8 40.7C167.4 38.6 162.7 37 159.5 37.2L155.3 37.5C151.9 37.7 146.5 36.8 143.3 35.5L139.5 33.9C136.5 32.6 131.6 32.6 128.6 33.8L124.7 35.4C121.5 36.7 116.1 37.5 112.7 37.2L108.5 36.8C105.3 36.5 100.6 38 98.1 40.1L94.9 42.8C92.3 45 87.4 47.4 84 48.2L79.9 49.1C76.8 49.8 72.7 52.7 71 55.4L68.8 58.9C67 61.8 63.1 65.6 60.1 67.4L56.5 69.5C53.7 71.2 50.8 75.1 50 78.3L49 82.3C48.2 85.6 45.6 90.5 43.4 93L40.6 96.1C38.5 98.5 36.9 103.2 37.1 106.5L37.4 110.7C37.6 114.1 36.7 119.5 35.4 122.7L33.8 126.5C32.5 129.5 32.5 134.4 33.7 137.4L35.3 141.3C36.6 144.5 37.4 149.9 37 153.3L36.6 157.5C36.3 160.7 37.8 165.4 39.8 167.9L42.5 171.1C44.7 173.7 47.1 178.6 47.9 182L48.8 186.1C49.5 189.3 52.4 193.3 55.1 195L58.6 197.2C61.5 199 65.3 202.9 67.1 205.9L69.2 209.5C70.8 212.3 74.8 215.2 78 216L82 217C85.3 217.8 90.2 220.4 92.7 222.6L95.8 225.3C98.2 227.4 102.9 229 106.1 228.8L110.3 228.5C113.7 228.3 119.1 229.2 122.3 230.5L126.1 232.1C129.1 233.4 134 233.4 137 232.2L140.9 230.6C143.6 229.5 147.9 228.8 151.2 228.8C151.8 228.8 152.4 228.8 152.9 228.8H153.1ZM125.9 232.9L122.1 231.3C119.1 230 113.9 229.1 110.6 229.3L106.4 229.6C102.9 229.8 98 228.2 95.3 225.9L92.2 223.2C89.7 221 85.1 218.6 81.9 217.8L77.9 216.8C74.5 215.9 70.3 212.8 68.5 209.8L66.4 206.2C64.7 203.4 61 199.6 58.3 197.9L54.8 195.7C51.9 193.8 48.8 189.6 48 186.2L47.1 182.1C46.4 178.9 44 174.2 41.9 171.6L39.2 168.4C37 165.7 35.4 160.7 35.7 157.3L36.1 153.1C36.4 149.8 35.6 144.6 34.4 141.6L32.8 137.7C31.5 134.5 31.6 129.2 32.9 126L34.5 122.2C35.8 119.2 36.7 114 36.5 110.7L36.2 106.5C36 103 37.6 98.1 39.9 95.4L42.7 92.3C44.9 89.8 47.3 85.2 48.1 82L49.1 78C50 74.6 53.1 70.4 56.1 68.6L59.7 66.5C62.5 64.8 66.3 61.2 68 58.3L70.2 54.8C72.1 51.8 76.3 48.8 79.7 48L83.8 47.1C87 46.4 91.7 44 94.3 41.9L97.5 39.2C100.2 37 105.2 35.4 108.7 35.7L112.9 36.1C116.2 36.4 121.4 35.6 124.4 34.4L128.3 32.8C131.5 31.5 136.8 31.6 140 32.9L143.8 34.5C146.8 35.8 152 36.7 155.3 36.5L159.5 36.2C163 36 168 37.6 170.6 39.9L173.7 42.6C176.2 44.8 180.8 47.2 184 48L188 49C191.4 49.9 195.6 53 197.4 56L199.5 59.6C201.2 62.4 204.8 66.2 207.6 67.9L211.1 70.1C214.1 72 217.1 76.2 217.9 79.6L218.8 83.7C219.5 86.9 221.8 91.6 224 94.2L226.7 97.4C228.9 100.1 230.5 105.1 230.2 108.5L229.8 112.7C229.5 116 230.3 121.2 231.5 124.2L233.1 128.1C234.4 131.3 234.3 136.6 233 139.8L231.4 143.6C230.1 146.6 229.2 151.8 229.4 155.1L229.7 159.3C229.9 162.8 228.3 167.7 226 170.4L223.3 173.5C221.1 176 218.7 180.6 217.9 183.8L216.9 187.8C216 191.2 212.9 195.4 209.9 197.2L206.3 199.3C203.5 201 199.7 204.7 198 207.5L195.8 211C193.9 214 189.7 217 186.3 217.8L182.2 218.7C179 219.4 174.3 221.8 171.7 223.9L168.5 226.6C165.8 228.8 160.8 230.4 157.3 230.1L153.1 229.7C149.8 229.4 144.6 230.2 141.6 231.4L137.7 233C136.1 233.6 134.1 233.9 132.1 233.9C129.9 233.9 127.7 233.5 126 232.8L125.9 232.9Z" fill="#D56C4E"/>
<path d="M154.3 234.6L158.7 235C162.1 235.3 167.1 233.7 169.7 231.6L173.1 228.8C175.9 226.5 181.1 223.9 184.7 223.1L189 222.1C192.3 221.3 196.6 218.3 198.4 215.4L200.8 211.7C202.7 208.6 206.9 204.6 210 202.7L213.8 200.4C216.7 198.7 219.9 194.4 220.7 191.1L221.8 186.8C222.7 183.3 225.4 178.1 227.8 175.4L230.7 172.1C233 169.5 234.6 164.5 234.4 161.1L234.1 156.7C233.9 153.1 234.8 147.4 236.3 144L238 139.9C239.3 136.8 239.4 131.5 238.1 128.3L236.5 124.2C235.1 120.8 234.3 115.1 234.6 111.4L235 107C235.3 103.6 233.7 98.6 231.6 96L228.8 92.6C226.5 89.8 223.9 84.6 223.1 81L222.1 76.7C221.3 73.4 218.3 69.1 215.4 67.3L211.6 64.9C208.5 63 204.5 58.8 202.6 55.7L200.3 51.9C198.6 49 194.3 45.8 191 45L186.7 43.9C183.1 43 178 40.3 175.3 37.9L172 35C169.4 32.8 164.5 31.1 161.1 31.3L156.7 31.6C153.1 31.8 147.3 30.9 144 29.4L139.9 27.7C136.8 26.4 131.5 26.3 128.4 27.6L124.3 29.3C120.9 30.7 115.2 31.5 111.5 31.2L107.1 30.8C103.7 30.5 98.7 32.1 96.1 34.2L92.7 37C89.9 39.3 84.7 41.9 81.1 42.7L76.8 43.7C73.5 44.5 69.2 47.5 67.4 50.4L65 54.2C63.1 57.3 58.9 61.3 55.8 63.2L52 65.5C49.1 67.2 45.9 71.5 45.1 74.8L44 79.1C43.1 82.6 40.4 87.8 38 90.5L35.1 93.8C32.9 96.4 31.2 101.4 31.4 104.8L31.7 109.2C31.9 112.8 31 118.5 29.5 121.9L27.7 126C26.4 129.1 26.3 134.4 27.6 137.6L29.3 141.7C30.7 145.1 31.5 150.8 31.2 154.5L30.8 158.9C30.5 162.3 32.1 167.3 34.2 169.9L37 173.3C39.3 176.1 41.9 181.3 42.7 184.9L43.7 189.2C44.5 192.5 47.5 196.8 50.4 198.6L54.2 201C57.3 202.9 61.3 207.1 63.2 210.2L65.5 214C67.2 216.9 71.5 220.1 74.8 220.9L79.1 222C82.6 222.9 87.8 225.6 90.5 228L93.8 230.9C96.4 233.2 101.3 234.8 104.7 234.6L109.1 234.3C112.8 234.1 118.5 235 121.8 236.5L125.9 238.2C129 239.5 134.3 239.6 137.5 238.3L141.6 236.7C144.5 235.5 149 234.8 152.6 234.8C153.2 234.8 153.8 234.8 154.4 234.8L154.3 234.6ZM125.4 239.1L121.3 237.4C118.1 236 112.6 235.1 109.1 235.3L104.7 235.6C101 235.9 95.7 234.1 92.9 231.6L89.6 228.7C87 226.4 82.1 223.8 78.7 223L74.4 221.9C70.8 221 66.3 217.7 64.4 214.5L62.1 210.7C60.3 207.7 56.4 203.7 53.5 201.9L49.7 199.5C46.6 197.5 43.3 193 42.5 189.4L41.5 185.1C40.7 181.7 38.3 176.7 36 174L33.2 170.6C30.8 167.7 29.2 162.4 29.5 158.7L29.9 154.3C30.2 150.8 29.4 145.3 28.1 142.1L26.4 138C25 134.6 25.1 129 26.5 125.6L28.3 121.5C29.7 118.3 30.6 112.8 30.4 109.3L30.1 104.9C29.8 101.2 31.6 95.9 34.1 93.1L37 89.8C39.3 87.2 41.9 82.3 42.7 78.9L43.8 74.6C44.7 71 48 66.5 51.2 64.6L55 62.3C58 60.5 62 56.6 63.8 53.7L66.2 49.9C68.2 46.8 72.7 43.5 76.3 42.7L80.6 41.7C84 40.9 89 38.5 91.7 36.2L95.1 33.4C97.9 31 103.3 29.4 107 29.7L111.4 30.1C114.9 30.4 120.4 29.6 123.6 28.3L127.7 26.6C131.1 25.2 136.7 25.3 140.1 26.7L144.2 28.4C147.4 29.8 152.9 30.7 156.4 30.5L160.8 30.2C164.5 30 169.8 31.7 172.6 34.2L175.9 37.1C178.5 39.4 183.4 42 186.8 42.8L191.1 43.9C194.7 44.8 199.2 48.1 201.1 51.3L203.4 55.1C205.2 58.1 209.1 62.1 212 63.9L215.8 66.3C218.9 68.3 222.2 72.8 223 76.4L224 80.7C224.8 84.1 227.2 89.1 229.5 91.8L232.3 95.2C234.7 98 236.3 103.4 236 107.1L235.6 111.5C235.3 115 236.1 120.5 237.4 123.7L239 127.8C240.4 131.2 240.3 136.8 238.9 140.2L237.2 144.3C235.8 147.5 234.9 153 235.1 156.5L235.4 160.9C235.7 164.6 233.9 169.9 231.4 172.7L228.5 176C226.2 178.6 223.6 183.5 222.8 186.9L221.7 191.2C220.8 194.8 217.5 199.3 214.3 201.2L210.5 203.5C207.5 205.3 203.5 209.2 201.7 212.1L199.3 215.8C197.3 218.9 192.8 222.2 189.2 223L184.9 224C181.5 224.8 176.5 227.2 173.8 229.5L170.4 232.3C167.5 234.7 162.2 236.3 158.5 236L154.1 235.6C150.6 235.3 145.1 236.1 141.9 237.4L137.8 239C136.1 239.7 134 240 131.9 240C129.8 240 127.2 239.6 125.4 238.9V239.1Z" fill="#CB625A"/>
<path d="M155.5 240.5L160.2 240.9C163.8 241.2 169.1 239.6 171.8 237.3L175.4 234.3C178.4 231.8 183.9 229.1 187.6 228.2L192.2 227.2C195.7 226.4 200.2 223.2 202.1 220.1L204.6 216.1C206.7 212.8 211 208.5 214.4 206.6L218.4 204.2C221.5 202.4 224.8 197.9 225.7 194.4L226.8 189.9C227.7 186.1 230.6 180.7 233.1 177.8L236.2 174.3C238.6 171.6 240.4 166.3 240.1 162.7L239.8 158C239.5 154.1 240.6 148.1 242.1 144.5L243.9 140.2C245.3 136.9 245.4 131.3 244 128L242.3 123.7C240.9 120.1 240 114.1 240.3 110.2L240.7 105.5C241 101.9 239.4 96.5999 237.1 93.8999L234.1 90.2999C231.6 87.2999 228.9 81.7999 228.1 78.0999L227.1 73.4999C226.3 69.9999 223.1 65.4999 220.1 63.5999L216.1 61.0999C212.8 58.9999 208.5 54.6999 206.6 51.2999L204.2 47.2999C202.4 44.1999 197.9 40.8999 194.4 39.9999L189.9 38.8999C186.1 37.8999 180.7 35.0999 177.8 32.5999L174.3 29.4999C171.6 27.0999 166.4 25.3999 162.8 25.5999L158.1 25.8999C154.2 26.1999 148.2 25.0999 144.6 23.5999L140.3 21.7999C137 20.3999 131.5 20.2999 128.1 21.6999L123.8 23.3999C120.2 24.7999 114.1 25.6999 110.3 25.3999L105.6 24.9999C102 24.6999 96.7 26.2999 94 28.5999L90.4 31.5999C87.4 34.0999 81.9 36.7999 78.2 37.6999L73.6 38.6999C70.1 39.4999 65.6 42.6999 63.7 45.6999L61.2 49.6999C59.1 52.9999 54.8 57.2999 51.4 59.1999L47.4 61.5999C44.3 63.3999 41 67.8999 40.1 71.3999L39 75.8999C38.1 79.6999 35.2 85.0999 32.7 87.9999L29.6 91.4999C27.2 94.1999 25.4 99.4999 25.7 103.1L26 107.8C26.3 111.7 25.2 117.7 23.7 121.3L21.8 125.6C20.4 128.9 20.3 134.5 21.7 137.8L23.4 142.1C24.8 145.7 25.7 151.8 25.4 155.6L25 160.3C24.7 163.9 26.3 169.2 28.6 171.9L31.6 175.5C34.1 178.5 36.8 184 37.6 187.7L38.6 192.3C39.4 195.8 42.6 200.3 45.6 202.3L49.6 204.8C52.9 206.9 57.1 211.2 59.1 214.6L61.5 218.6C63.3 221.7 67.8 225 71.3 225.9L75.8 227C79.6 227.9 85 230.8 87.9 233.3L91.4 236.4C94.1 238.8 99.4 240.6 102.9 240.3L107.6 240C111.5 239.7 117.5 240.8 121.1 242.3L125.4 244.1C128.7 245.5 134.3 245.6 137.6 244.2L141.9 242.5C144.9 241.3 149.8 240.5 153.5 240.4C154.2 240.4 154.8 240.4 155.4 240.4L155.5 240.5ZM125 245.2L120.7 243.4C117.3 241.9 111.5 240.9 107.8 241.2L103.1 241.5C99.2 241.8 93.6 239.9 90.6 237.3L87.1 234.2C84.3 231.8 79.1 229 75.5 228.1L71 227C67.2 226 62.4 222.5 60.4 219.1L58 215.1C56.1 211.9 52 207.7 48.9 205.8L44.9 203.3C41.6 201.2 38.2 196.4 37.3 192.6L36.3 188C35.5 184.4 32.9 179.1 30.5 176.3L27.5 172.7C25 169.7 23.2 164 23.6 160.1L24 155.4C24.3 151.7 23.5 145.9 22.1 142.5L20.4 138.2C18.9 134.6 19 128.6 20.6 125L22.5 120.7C24 117.3 24.9 111.5 24.7 107.8L24.4 103.1C24.1 99.1999 26 93.5999 28.6 90.5999L31.7 87.0999C34.1 84.2999 36.9 79.0999 37.8 75.4999L38.9 70.9999C39.9 67.1999 43.4 62.3999 46.8 60.3999L50.8 57.9999C54 56.0999 58.2 51.9999 60.1 48.8999L62.6 44.8999C64.7 41.5999 69.5 38.1999 73.4 37.2999L78 36.2999C81.6 35.4999 86.9 32.8999 89.7 30.4999L93.3 27.4999C96.3 24.9999 102 23.1999 105.9 23.5999L110.6 23.9999C114.3 24.2999 120.1 23.4999 123.5 22.0999L127.8 20.3999C131.5 18.8999 137.4 18.9999 141 20.5999L145.3 22.3999C148.7 23.8999 154.5 24.7999 158.2 24.5999L162.9 24.2999C166.8 23.9999 172.4 25.8999 175.4 28.4999L178.9 31.5999C181.7 33.9999 186.9 36.7999 190.5 37.6999L195 38.7999C198.8 39.7999 203.6 43.2999 205.6 46.6999L208 50.6999C209.9 53.8999 214 58.0999 217.1 59.9999L221.1 62.4999C224.4 64.5999 227.8 69.3999 228.7 73.1999L229.7 77.7999C230.5 81.3999 233.1 86.6999 235.5 89.4999L238.5 93.0999C241 96.0999 242.8 101.8 242.4 105.7L242 110.4C241.7 114.1 242.5 119.9 243.9 123.3L245.6 127.6C247.1 131.2 247 137.2 245.4 140.8L243.6 145.1C242.1 148.5 241.2 154.3 241.4 158L241.7 162.7C242 166.6 240.1 172.2 237.5 175.2L234.4 178.7C232 181.5 229.2 186.7 228.3 190.3L227.2 194.8C226.2 198.6 222.7 203.4 219.3 205.4L215.3 207.8C212.1 209.7 207.9 213.8 206 216.9L203.5 220.9C201.4 224.2 196.6 227.6 192.7 228.5L188.1 229.5C184.5 230.3 179.2 232.9 176.4 235.3L172.8 238.3C169.8 240.8 164.1 242.6 160.2 242.2L155.5 241.8C151.8 241.5 146 242.3 142.6 243.7L138.3 245.4C136.6 246.1 134.3 246.5 132 246.5C129.5 246.5 127 246.1 125.1 245.3L125 245.2Z" fill="#BF5363"/>
<path d="M156.8 246.3L161.7 246.8C165.5 247.2 171 245.4 173.9 243L177.7 239.8C180.8 237.2 186.6 234.3 190.6 233.4L195.4 232.3C199.1 231.5 203.9 228.1 205.9 224.9L208.5 220.7C210.7 217.2 215.3 212.7 218.8 210.6L223 208.1C226.2 206.2 229.7 201.5 230.7 197.8L231.9 193C232.9 189 235.9 183.3 238.6 180.2L241.9 176.5C244.4 173.7 246.3 168.1 246 164.3L245.7 159.4C245.4 155.3 246.5 148.9 248.1 145.2L250 140.7C251.5 137.2 251.6 131.4 250.2 127.9L248.4 123.3C246.9 119.5 245.9 113.1 246.3 109L246.7 104.1C247 100.3 245.3 94.6999 242.9 91.7999L239.7 87.9999C237.1 84.8999 234.2 79.0999 233.3 75.0999L232.2 70.2999C231.4 66.5999 228 61.7999 224.8 59.7999L220.6 57.1999C217.1 54.9999 212.6 50.3999 210.5 46.8999L208 42.6999C206.1 39.4999 201.4 35.9999 197.7 34.9999L192.9 33.7999C188.9 32.7999 183.2 29.7999 180.1 27.0999L176.4 23.7999C173.6 21.2999 168 19.3999 164.3 19.6999L159.4 19.9999C155.3 20.2999 148.9 19.1999 145.2 17.5999L140.7 15.5999C137.2 14.0999 131.4 13.9999 127.9 15.3999L123.3 17.1999C119.5 18.6999 113.1 19.6999 109 19.2999L104.1 18.7999C100.4 18.3999 94.8 20.1999 91.9 22.5999L88.1 25.7999C85 28.3999 79.2 31.2999 75.2 32.1999L70.4 33.2999C66.7 34.0999 61.9 37.4999 59.9 40.6999L57.3 44.8999C55.1 48.3999 50.5 52.8999 47 54.9999L42.7 57.4999C39.5 59.3999 36 64.0999 35 67.7999L33.8 72.5999C32.8 76.5999 29.8 82.2999 27.1 85.3999L23.8 89.0999C21.3 91.8999 19.4 97.4999 19.7 101.3L20 106.2C20.3 110.3 19.2 116.6 17.6 120.4L15.6 124.9C14.1 128.4 14 134.2 15.4 137.7L17.2 142.3C18.7 146.1 19.6 152.5 19.3 156.6L18.9 161.5C18.6 165.3 20.3 170.9 22.7 173.8L25.9 177.6C28.5 180.7 31.4 186.5 32.3 190.5L33.4 195.3C34.2 199 37.6 203.8 40.8 205.8L45 208.4C48.5 210.6 53 215.2 55.1 218.7L57.6 222.9C59.5 226.1 64.2 229.6 67.9 230.6L72.7 231.8C76.7 232.8 82.4 235.8 85.5 238.5L89.2 241.8C92 244.3 97.6 246.2 101.3 245.9L106.2 245.6C110.3 245.3 116.7 246.4 120.4 248L124.9 249.9C128.4 251.4 134.2 251.5 137.7 250.1L142.3 248.3C145.5 247 150.6 246.1 154.6 246.1C155.3 246.1 156 246.1 156.6 246.1L156.8 246.3ZM124.5 251.4L120 249.5C116.4 248 110.4 246.9 106.5 247.2L101.6 247.5C97.5 247.8 91.5 245.8 88.4 243L84.7 239.7C81.8 237.1 76.3 234.3 72.5 233.3L67.7 232.1C63.7 231.1 58.7 227.3 56.5 223.8L54 219.6C52 216.2 47.7 211.8 44.4 209.8L40.2 207.2C36.7 205 33.1 199.9 32.2 195.8L31.1 191C30.2 187.2 27.5 181.7 25 178.7L21.8 174.9C19.1 171.7 17.3 165.7 17.7 161.6L18.1 156.7C18.5 152.8 17.6 146.7 16.1 143.1L14.3 138.5C12.8 134.6 12.8 128.4 14.5 124.6L16.5 120.1C18 116.5 19.1 110.4 18.8 106.5L18.5 101.6C18.2 97.4999 20.2 91.4999 23 88.3999L26.3 84.6999C28.9 81.7999 31.7 76.2999 32.7 72.4999L33.9 67.6999C34.9 63.6999 38.6 58.6999 42.2 56.4999L46.5 53.9999C49.8 51.9999 54.3 47.6999 56.3 44.3999L58.9 40.1999C61.1 36.6999 66.2 33.0999 70.3 32.1999L75.1 31.0999C78.9 30.1999 84.4 27.4999 87.4 24.9999L91.2 21.7999C94.4 19.0999 100.4 17.2999 104.5 17.5999L109.4 18.0999C113.3 18.4999 119.4 17.5999 123 16.0999L127.6 14.2999C131.5 12.7999 137.7 12.7999 141.5 14.4999L146 16.4999C149.6 17.9999 155.6 19.0999 159.5 18.7999L164.4 18.4999C168.5 18.1999 174.5 20.1999 177.6 22.9999L181.3 26.2999C184.2 28.8999 189.7 31.6999 193.5 32.6999L198.3 33.8999C202.3 34.8999 207.3 38.5999 209.5 42.1999L212 46.3999C214 49.6999 218.3 54.1999 221.6 56.1999L225.8 58.7999C229.3 60.9999 232.9 66.0999 233.8 70.1999L234.9 74.9999C235.8 78.7999 238.5 84.2999 241 87.2999L244.2 91.0999C246.9 94.2999 248.7 100.2 248.3 104.4L247.9 109.3C247.5 113.2 248.4 119.3 249.9 122.9L251.7 127.5C253.2 131.4 253.2 137.6 251.5 141.4L249.6 145.9C248.1 149.5 247 155.6 247.3 159.5L247.6 164.4C247.9 168.5 245.9 174.5 243.1 177.6L239.8 181.3C237.2 184.2 234.4 189.7 233.4 193.5L232.2 198.3C231.2 202.3 227.4 207.3 223.9 209.5L219.7 212C216.3 214 211.9 218.3 209.9 221.6L207.3 225.8C205.1 229.3 200 232.9 195.9 233.9L191.1 235C187.3 235.9 181.8 238.6 178.8 241.1L175 244.3C171.8 247 165.8 248.8 161.7 248.5L156.8 248C152.9 247.6 146.8 248.5 143.2 250L138.6 251.8C136.8 252.5 134.4 252.9 131.9 252.9C129.3 252.9 126.6 252.5 124.6 251.6L124.5 251.4Z" fill="#AE3D68"/>
<path d="M158 252.1L163.2 252.6C167.1 253 173 251.1 176.1 248.6L180.1 245.3C183.4 242.5 189.5 239.5 193.7 238.6L198.8 237.5C202.7 236.6 207.7 233.1 209.8 229.7L212.6 225.3C214.9 221.7 219.8 216.9 223.5 214.7L228 212C231.4 210 235.1 205 236 201.2L237.3 196.2C238.4 192 241.5 186 244.3 182.8L247.7 178.9C250.3 175.9 252.3 170.1 252 166.1L251.7 160.9C251.4 156.6 252.6 149.9 254.3 145.9L256.3 141.1C257.9 137.5 257.9 131.3 256.5 127.6L254.6 122.8C253 118.8 252 112.1 252.4 107.8L252.9 102.6C253.3 98.7 251.4 92.8 248.9 89.7L245.6 85.7C242.8 82.4 239.8 76.3 238.9 72.1L237.8 67C236.9 63.1 233.4 58.1 230 56L225.6 53.2C222 50.9 217.2 46 215 42.3L212.3 37.8C210.3 34.4 205.3 30.7 201.5 29.8L196.5 28.5C192.3 27.4 186.3 24.3 183.1 21.5L179.2 18.1C176.2 15.5 170.4 13.5 166.4 13.8L161.2 14.2C156.9 14.5 150.2 13.3 146.2 11.6L141.4 9.49998C137.8 7.89998 131.6 7.89998 127.9 9.29998L123.1 11.2C119.1 12.8 112.4 13.8 108.1 13.4L102.9 12.9C99 12.5 93.1 14.4 90.1 16.9L86.1 20.2C82.8 23 76.7 26 72.5 26.9L67.4 28.1C63.5 29 58.5 32.5 56.4 35.9L53.6 40.3C51.3 43.9 46.4 48.7 42.7 50.9L38.2 53.6C34.8 55.6 31.1 60.6 30.2 64.4L28.9 69.4C27.8 73.6 24.7 79.6 21.8 82.8L18.4 86.7C15.8 89.7 13.8 95.5 14.1 99.5L14.4 104.7C14.7 109 13.5 115.7 11.9 119.7L9.8 124.5C8.2 128.1 8.2 134.3 9.6 138L11.5 142.8C13.1 146.8 14.1 153.5 13.7 157.8L13.2 163C12.8 166.9 14.7 172.8 17.2 175.9L20.5 179.9C23.3 183.2 26.3 189.3 27.2 193.5L28.3 198.6C29.2 202.5 32.7 207.5 36.1 209.6L40.5 212.4C44.1 214.7 48.9 219.6 51.1 223.3L53.8 227.8C55.8 231.2 60.8 234.9 64.6 235.8L69.6 237.1C73.8 238.2 79.8 241.3 83 244.2L86.9 247.6C89.9 250.2 95.7 252.2 99.6 251.9L104.8 251.5C109.1 251.2 115.8 252.4 119.8 254.1L124.6 256.1C128.2 257.7 134.4 257.7 138.1 256.3L142.9 254.4C146.3 253 151.7 252.1 155.8 252.1C156.5 252.1 157.2 252.1 157.9 252.1H158ZM124.1 257.5L119.3 255.5C115.5 253.9 109.2 252.8 105.1 253.1L99.9 253.5C95.5 253.8 89.3 251.7 86 248.8L82.1 245.4C79 242.7 73.3 239.7 69.3 238.7L64.3 237.4C60.1 236.3 54.8 232.4 52.5 228.6L49.8 224.1C47.7 220.6 43.2 215.9 39.7 213.8L35.3 211C31.6 208.7 27.8 203.3 26.8 199L25.7 193.9C24.8 189.9 21.9 184.1 19.3 181L16 177C13.2 173.6 11.2 167.4 11.6 163L12.1 157.8C12.5 153.7 11.5 147.3 10 143.5L8.1 138.7C6.5 134.6 6.5 128.1 8.3 124L10.4 119.2C12 115.4 13.1 109 12.8 105L12.5 99.8C12.2 95.4 14.3 89.2 17.2 85.9L20.6 82C23.3 78.9 26.3 73.2 27.3 69.2L28.6 64.2C29.7 60 33.6 54.7 37.4 52.4L41.9 49.7C45.4 47.6 50.1 43.1 52.2 39.6L55 35.2C57.3 31.5 62.7 27.7 67 26.7L72.1 25.5C76.1 24.6 81.9 21.7 85 19.1L89 15.8C92.4 13 98.6 11 103 11.4L108.2 11.9C112.3 12.3 118.7 11.3 122.5 9.79998L127.3 7.89998C131.4 6.29998 138 6.29998 142 8.09998L146.8 10.2C150.6 11.8 156.9 12.9 161 12.6L166.2 12.2C170.5 11.9 176.8 14 180.1 16.9L184 20.3C187.1 23 192.8 26 196.8 27L201.8 28.3C206 29.4 211.3 33.3 213.6 37.1L216.3 41.6C218.4 45.1 222.9 49.8 226.4 51.9L230.8 54.7C234.5 57 238.3 62.4 239.3 66.7L240.4 71.8C241.3 75.8 244.2 81.6 246.8 84.7L250.1 88.7C252.9 92.1 254.9 98.3 254.5 102.7L254 107.9C253.6 112 254.6 118.4 256.1 122.2L258 127C259.6 131.1 259.6 137.6 257.8 141.7L255.8 146.5C254.2 150.3 253.1 156.7 253.4 160.7L253.7 165.9C254 170.3 251.9 176.5 249 179.8L245.6 183.7C242.9 186.8 239.9 192.5 238.9 196.5L237.6 201.5C236.5 205.7 232.6 211 228.8 213.3L224.3 216C220.8 218.1 216.1 222.6 214 226.1L211.2 230.5C208.9 234.2 203.5 238 199.2 239L194.1 240.1C190.1 241 184.3 243.9 181.2 246.5L177.2 249.8C173.8 252.6 167.5 254.6 163.2 254.2L158 253.7C153.9 253.3 147.5 254.3 143.7 255.8L138.9 257.7C137 258.5 134.4 258.9 131.9 258.9C129.1 258.9 126.3 258.5 124.2 257.5H124.1Z" fill="#AE3374"/>
<path d="M159.2 258L164.6 258.5C168.7 258.9 174.9 257 178.1 254.3L182.3 250.8C185.8 247.9 192.2 244.7 196.6 243.7L201.9 242.5C205.9 241.6 211.2 237.8 213.4 234.3L216.3 229.7C218.7 225.9 223.8 220.9 227.7 218.6L232.4 215.8C236 213.7 239.8 208.5 240.8 204.5L242.1 199.2C243.2 194.8 246.5 188.5 249.5 185.1L253.1 181C255.8 177.9 257.9 171.8 257.6 167.6L257.2 162.2C256.9 157.7 258.1 150.6 259.9 146.5L262 141.5C263.6 137.7 263.7 131.2 262.2 127.4L260.2 122.3C258.5 118.1 257.5 111 257.9 106.5L258.4 101.1C258.8 96.9999 256.9 90.7999 254.2 87.5999L250.7 83.3999C247.8 79.8999 244.6 73.4999 243.6 69.0999L242.4 63.7999C241.5 59.7999 237.7 54.4999 234.2 52.2999L229.6 49.3999C225.8 46.9999 220.8 41.8999 218.5 37.9999L215.7 33.2999C213.6 29.6999 208.4 25.8999 204.4 24.8999L199.1 23.5999C194.7 22.4999 188.4 19.1999 185 16.1999L180.9 12.5999C177.8 9.89992 171.7 7.79992 167.5 8.09992L162.1 8.49992C157.6 8.79992 150.5 7.59992 146.4 5.79992L141.4 3.59992C137.6 1.99992 131.2 1.89992 127.3 3.39992L122.2 5.39992C118 7.09992 110.9 8.09992 106.4 7.69992L101 7.19992C96.9 6.79992 90.7 8.69992 87.5 11.3999L83.3 14.8999C79.8 17.7999 73.4 20.9999 69 21.9999L63.7 23.1999C59.7 24.0999 54.4 27.7999 52.2 31.2999L49.3 35.8999C46.9 39.6999 41.8 44.6999 37.9 46.9999L33.2 49.7999C29.6 51.8999 25.8 57.0999 24.8 61.0999L23.5 66.3999C22.4 70.7999 19.1 77.0999 16.1 80.4999L12.5 84.5999C9.8 87.6999 7.7 93.7999 8 97.9999L8.4 103.4C8.7 107.9 7.5 114.9 5.7 119.1L3.5 124.1C1.9 127.9 1.8 134.4 3.3 138.2L5.3 143.3C7 147.5 8 154.6 7.6 159.1L7.1 164.5C6.7 168.6 8.6 174.8 11.3 178L14.8 182.2C17.7 185.7 20.9 192.1 21.9 196.5L23.1 201.8C24 205.8 27.7 211.1 31.2 213.3L35.8 216.2C39.6 218.6 44.6 223.7 46.9 227.6L49.7 232.3C51.8 235.9 57 239.7 61 240.7L66.3 242C70.7 243.1 77 246.4 80.4 249.4L84.5 253C87.6 255.7 93.7 257.8 97.9 257.5L103.3 257.1C107.8 256.8 114.9 258 119 259.8L124 261.9C127.8 263.5 134.3 263.6 138.1 262.1L143.2 260.1C146.8 258.7 152.4 257.7 156.8 257.7C157.6 257.7 158.3 257.7 159 257.7L159.2 258ZM123.6 263.7L118.6 261.6C114.7 259.9 108 258.8 103.7 259.1L98.3 259.5C93.7 259.8 87.2 257.6 83.7 254.6L79.6 251C76.4 248.2 70.4 245 66.2 244L60.9 242.7C56.4 241.6 50.9 237.4 48.5 233.5L45.7 228.8C43.5 225.1 38.8 220.2 35.1 218L30.5 215.1C26.6 212.7 22.6 207 21.6 202.5L20.4 197.2C19.4 193 16.4 186.9 13.7 183.6L10.2 179.4C7.3 175.9 5.2 169.3 5.6 164.7L6.1 159.3C6.5 155 5.5 148.3 3.9 144.3L1.9 139.2C0.2 134.9 0.299997 128 2.1 123.8L4.3 118.8C6 114.8 7.1 108.1 6.8 103.9L6.4 98.4999C6.1 93.8999 8.3 87.3999 11.3 83.8999L14.9 79.7999C17.7 76.5999 20.9 70.5999 21.9 66.3999L23.2 61.0999C24.3 56.5999 28.5 51.0999 32.4 48.6999L37.1 45.8999C40.8 43.6999 45.6 38.9999 47.9 35.2999L50.8 30.6999C53.2 26.7999 58.9 22.7999 63.4 21.7999L68.7 20.5999C72.9 19.5999 79 16.5999 82.3 13.8999L86.5 10.3999C90 7.39992 96.6 5.39992 101.2 5.79992L106.6 6.29992C110.9 6.69992 117.6 5.69992 121.6 4.09992L126.7 2.09992C131 0.399919 137.9 0.49992 142.1 2.29992L147.1 4.49992C151 6.19992 157.7 7.29992 162 6.99992L167.4 6.59992C172 6.29992 178.6 8.49992 182 11.4999L186.1 15.0999C189.3 17.8999 195.3 21.0999 199.5 22.0999L204.8 23.3999C209.3 24.4999 214.8 28.5999 217.2 32.5999L220 37.2999C222.2 40.9999 226.9 45.7999 230.6 48.0999L235.2 50.9999C239.1 53.3999 243.1 59.0999 244.1 63.5999L245.3 68.8999C246.2 73.0999 249.3 79.1999 252 82.4999L255.5 86.6999C258.4 90.1999 260.5 96.7999 260.1 101.4L259.6 106.8C259.2 111.1 260.2 117.8 261.8 121.8L263.8 126.9C265.5 131.2 265.4 138.1 263.6 142.3L261.5 147.3C259.8 151.2 258.7 157.9 259 162.2L259.4 167.6C259.7 172.2 257.5 178.7 254.5 182.2L250.9 186.3C248.1 189.5 244.9 195.5 243.9 199.7L242.6 205C241.5 209.5 237.3 215 233.4 217.4L228.7 220.2C225 222.4 220.2 227.1 217.9 230.8L215 235.4C212.6 239.3 206.9 243.3 202.4 244.3L197.1 245.5C192.9 246.5 186.8 249.5 183.5 252.2L179.3 255.7C175.8 258.7 169.2 260.7 164.6 260.3L159.2 259.8C154.9 259.4 148.2 260.4 144.2 262L139.1 264C137.1 264.8 134.4 265.2 131.7 265.2C129 265.2 125.9 264.7 123.7 263.8L123.6 263.7Z" fill="#892890"/>
</svg>
