<svg width="266" height="266" viewBox="0 0 266 266" fill="none" xmlns="http://www.w3.org/2000/svg">
<path d="M148.4 205.5L151.5 205.8C154 206 157.6 204.9 159.5 203.3L161.9 201.3C163.9 199.6 167.5 197.8 170.1 197.3L173.2 196.6C175.6 196 178.7 193.9 180 191.8L181.7 189.1C183.1 186.9 186 184.1 188.2 182.7L190.9 181.1C193 179.8 195.3 176.8 195.9 174.4L196.7 171.3C197.3 168.8 199.2 165.2 200.9 163.3L203 160.9C204.7 159 205.9 155.5 205.7 153L205.5 149.9C205.3 147.3 206 143.3 207 140.9L208.2 138C209.2 135.7 209.2 131.9 208.3 129.6L207.1 126.7C206.1 124.3 205.6 120.3 205.8 117.7L206.1 114.6C206.3 112.1 205.2 108.5 203.6 106.6L201.6 104.2C199.9 102.2 198.1 98.6 197.6 96.1L196.9 93C196.3 90.6 194.2 87.5 192.1 86.2L189.4 84.5C187.2 83.1 184.4 80.2 183.1 78L181.5 75.3C180.2 73.2 177.2 70.9 174.8 70.3L171.7 69.5C169.2 68.9 165.6 67 163.7 65.3L161.3 63.2C159.4 61.6 155.9 60.4 153.4 60.5L150.3 60.7C147.7 60.9 143.7 60.2 141.3 59.2L138.4 58C136.1 57 132.3 57 130 58L127.1 59.2C124.7 60.2 120.7 60.8 118.1 60.5L115 60.2C112.5 60 108.9 61.1 107 62.7L104.6 64.7C102.6 66.3 99 68.2 96.5 68.7L93.4 69.4C91 70 87.9 72.1 86.6 74.2L84.9 76.9C83.5 79.1 80.6 81.9 78.4 83.2L75.7 84.8C73.6 86.1 71.3 89.1 70.7 91.5L69.9 94.6C69.3 97.1 67.4 100.7 65.7 102.6L63.6 105C62 106.9 60.7 110.4 60.9 112.9L61.1 116C61.3 118.6 60.6 122.6 59.6 125L58.4 127.9C57.4 130.2 57.4 134 58.3 136.3L59.5 139.2C60.5 141.6 61 145.6 60.8 148.2L60.5 151.3C60.3 153.8 61.4 157.4 63 159.3L65 161.7C66.6 163.7 68.5 167.3 69 169.8L69.7 172.9C70.3 175.3 72.4 178.4 74.5 179.7L77.2 181.4C79.4 182.8 82.2 185.7 83.5 187.9L85.1 190.6C86.4 192.7 89.4 195 91.8 195.6L94.9 196.4C97.4 197 101 198.9 102.9 200.6L105.3 202.7C107.2 204.3 110.7 205.6 113.2 205.4L116.3 205.2C118.9 205 122.9 205.7 125.3 206.7L128.2 207.9C130.5 208.9 134.3 208.9 136.6 207.9L139.5 206.7C141.5 205.9 144.7 205.3 147.2 205.3C147.6 205.3 148.1 205.3 148.5 205.3L148.4 205.5ZM128 208.3L125.1 207.1C122.8 206.1 118.9 205.4 116.3 205.6L113.2 205.8C110.6 206 106.9 204.7 105 203L102.6 200.9C100.7 199.2 97.2 197.4 94.7 196.8L91.6 196C89.1 195.4 86 193 84.6 190.8L83 188.1C81.7 185.9 78.9 183.1 76.8 181.7L74.1 180C71.9 178.6 69.6 175.4 69.1 172.9L68.4 169.8C67.8 167.3 66.1 163.8 64.5 161.8L62.5 159.4C60.8 157.4 59.7 153.7 59.9 151.1L60.2 148C60.4 145.5 59.9 141.6 58.9 139.2L57.7 136.3C56.7 133.9 56.8 130 57.8 127.6L59 124.7C60 122.4 60.7 118.4 60.5 115.9L60.3 112.8C60.1 110.2 61.4 106.5 63.1 104.6L65.2 102.2C66.9 100.3 68.7 96.8 69.3 94.3L70.1 91.2C70.7 88.7 73.1 85.6 75.3 84.2L78 82.6C80.2 81.3 83 78.5 84.4 76.4L86.1 73.7C87.5 71.5 90.7 69.2 93.2 68.7L96.3 68C98.8 67.4 102.3 65.7 104.3 64.1L106.7 62.1C108.7 60.4 112.4 59.3 115 59.5L118.1 59.8C120.6 60 124.6 59.4 126.9 58.5L129.8 57.3C132.2 56.3 136.1 56.4 138.5 57.4L141.4 58.6C143.7 59.6 147.6 60.3 150.2 60.1L153.3 59.9C155.9 59.7 159.6 61 161.5 62.7L163.9 64.8C165.8 66.5 169.3 68.3 171.8 68.9L174.9 69.7C177.4 70.3 180.5 72.7 181.9 74.9L183.5 77.6C184.8 79.8 187.6 82.6 189.7 84L192.4 85.7C194.6 87.1 196.9 90.3 197.4 92.8L198.1 95.9C198.7 98.4 200.4 101.9 202 103.9L204 106.3C205.7 108.3 206.8 112 206.6 114.6L206.3 117.7C206.1 120.2 206.6 124.2 207.6 126.5L208.8 129.4C209.8 131.8 209.7 135.7 208.7 138.1L207.5 141C206.5 143.3 205.8 147.2 206 149.8L206.2 152.9C206.4 155.5 205.1 159.2 203.4 161.1L201.3 163.5C199.6 165.4 197.8 168.9 197.2 171.4L196.4 174.5C195.8 177 193.4 180.1 191.2 181.5L188.5 183.1C186.3 184.4 183.5 187.2 182.1 189.3L180.4 192C179 194.2 175.8 196.5 173.3 197L170.2 197.7C167.7 198.3 164.2 200 162.2 201.6L159.8 203.6C157.8 205.3 154.1 206.4 151.5 206.2L148.4 205.9C145.9 205.7 141.9 206.3 139.6 207.2L136.7 208.4C135.5 208.9 134 209.1 132.5 209.1C130.9 209.1 129.2 208.8 128 208.3Z" fill="#A6A6A6"/>
<path d="M149.6 211.4L153 211.7C155.7 211.9 159.5 210.7 161.6 209L164.2 206.8C166.3 205 170.3 203 173 202.4L176.3 201.6C178.9 201 182.2 198.7 183.6 196.4L185.4 193.5C186.9 191.1 190 188 192.4 186.6L195.3 184.9C197.6 183.5 200 180.3 200.7 177.7L201.5 174.4C202.2 171.7 204.2 167.8 206.1 165.7L208.3 163.1C210.1 161.1 211.4 157.2 211.2 154.6L211 151.2C210.8 148.4 211.6 144.1 212.7 141.5L214 138.4C215.1 135.9 215.1 131.9 214.1 129.4L212.8 126.2C211.8 123.6 211.1 119.2 211.4 116.5L211.7 113.1C211.9 110.4 210.7 106.6 209 104.5L206.8 101.9C205 99.8 203.1 95.8 202.4 93.1L201.6 89.8C201 87.2 198.7 83.9 196.4 82.4L193.5 80.6C191.1 79.1 188 76 186.6 73.6L184.9 70.7C183.5 68.4 180.3 66 177.7 65.3L174.4 64.5C171.7 63.8 167.8 61.8 165.7 59.9L163.1 57.7C161.1 55.9 157.2 54.6 154.6 54.8L151.2 55C148.4 55.2 144.1 54.4 141.5 53.3L138.4 52C135.9 50.9 131.9 50.9 129.4 51.9L126.2 53.2C123.6 54.2 119.2 54.9 116.5 54.6L113.1 54.3C110.4 54.1 106.6 55.3 104.5 57L101.9 59.2C99.8 61 95.8 62.9 93.1 63.6L89.8 64.4C87.2 65 83.9 67.3 82.5 69.6L80.7 72.5C79.2 74.9 76.1 78 73.7 79.4L70.8 81.1C68.5 82.5 66.1 85.7 65.4 88.3L64.6 91.6C63.9 94.3 61.9 98.2 60 100.3L57.8 102.9C56 104.9 54.7 108.8 54.9 111.4L55.1 114.8C55.3 117.6 54.5 121.9 53.4 124.5L52.1 127.6C51 130.1 51 134.1 52 136.6L53.3 139.8C54.3 142.4 55 146.8 54.7 149.5L54.4 152.9C54.2 155.6 55.4 159.4 57.1 161.5L59.3 164.1C61.1 166.2 63 170.2 63.7 172.9L64.5 176.2C65.1 178.8 67.4 182.1 69.7 183.6L72.6 185.4C75 186.9 78 190 79.5 192.4L81.2 195.3C82.6 197.6 85.8 200 88.4 200.7L91.7 201.5C94.4 202.2 98.3 204.2 100.4 206.1L103 208.3C105 210.1 108.9 211.4 111.5 211.2L114.9 211C117.7 210.8 122 211.6 124.6 212.7L127.7 214C130.2 215.1 134.2 215.1 136.7 214.1L139.9 212.8C142.1 211.9 145.6 211.3 148.3 211.3C148.8 211.3 149.2 211.3 149.7 211.3L149.6 211.4ZM127.5 214.5L124.4 213.2C121.9 212.1 117.7 211.4 115 211.6L111.6 211.8C108.8 212 104.8 210.6 102.6 208.8L100 206.6C98 204.8 94.2 202.8 91.5 202.1L88.2 201.3C85.5 200.6 82.1 198.1 80.6 195.7L78.9 192.8C77.5 190.5 74.5 187.4 72.2 185.9L69.3 184.1C66.9 182.6 64.5 179.1 63.8 176.4L63 173.1C62.4 170.5 60.5 166.6 58.8 164.5L56.6 161.9C54.8 159.7 53.5 155.7 53.8 152.9L54.1 149.5C54.3 146.8 53.7 142.5 52.7 140L51.4 136.8C50.3 134.2 50.4 129.9 51.5 127.4L52.8 124.3C53.9 121.8 54.6 117.6 54.4 114.9L54.2 111.5C54 108.7 55.4 104.7 57.2 102.6L59.4 100C61.2 98 63.2 94.1 63.9 91.5L64.7 88.2C65.4 85.5 67.9 82.1 70.3 80.6L73.2 78.9C75.5 77.5 78.6 74.5 80.1 72.2L81.9 69.3C83.4 66.9 86.9 64.5 89.6 63.8L92.9 63C95.6 62.4 99.4 60.5 101.5 58.8L104.1 56.6C106.3 54.8 110.3 53.5 113.1 53.8L116.5 54.1C119.2 54.3 123.5 53.7 126 52.7L129.2 51.4C131.8 50.3 136.1 50.4 138.6 51.5L141.7 52.8C144.2 53.9 148.4 54.6 151.1 54.4L154.5 54.2C157.3 54 161.3 55.4 163.5 57.2L166.1 59.4C168.1 61.2 171.9 63.2 174.6 63.8L177.9 64.6C180.6 65.3 184 67.8 185.5 70.2L187.2 73.1C188.6 75.4 191.6 78.5 193.9 80L196.8 81.8C199.2 83.3 201.6 86.8 202.3 89.5L203.1 92.8C203.7 95.5 205.6 99.3 207.3 101.4L209.5 104C211.3 106.2 212.6 110.2 212.3 113L212 116.4C211.8 119.1 212.4 123.4 213.4 125.9L214.7 129.1C215.8 131.7 215.7 136 214.6 138.5L213.3 141.6C212.2 144.1 211.5 148.3 211.7 151.1L211.9 154.5C212.1 157.3 210.7 161.3 208.9 163.4L206.7 166C204.9 168 202.9 171.9 202.2 174.5L201.4 177.8C200.7 180.5 198.2 183.9 195.8 185.4L192.9 187.1C190.6 188.5 187.5 191.5 186 193.8L184.2 196.7C182.7 199.1 179.2 201.5 176.5 202.2L173.2 203C170.5 203.6 166.7 205.5 164.6 207.3L162 209.5C159.8 211.3 155.8 212.6 153 212.3L149.6 212C146.9 211.8 142.6 212.4 140.1 213.4L136.9 214.7C135.6 215.2 134 215.5 132.4 215.5C130.6 215.5 128.8 215.2 127.5 214.6V214.5Z" fill="#999999"/>
<path d="M150.9 217.2L154.5 217.5C157.4 217.8 161.5 216.5 163.7 214.6L166.5 212.3C168.8 210.4 173.1 208.3 176 207.6L179.6 206.8C182.4 206.2 185.9 203.6 187.5 201.2L189.4 198.1C191 195.6 194.4 192.2 197 190.7L200.1 188.8C202.6 187.3 205.2 183.8 205.9 181.1L206.8 177.5C207.5 174.6 209.7 170.4 211.7 168.1L214.1 165.3C216 163.1 217.4 159 217.2 156.2L217 152.5C216.8 149.5 217.6 144.8 218.8 142L220.2 138.6C221.3 136 221.4 131.6 220.3 128.9L218.9 125.5C217.8 122.7 217.1 118 217.4 115L217.7 111.4C218 108.5 216.7 104.4 214.8 102.2L212.5 99.4C210.6 97.1 208.5 92.8 207.8 89.9L207 86.3C206.4 83.5 203.8 80 201.4 78.4L198.3 76.5C195.8 74.9 192.4 71.5 190.9 68.9L189 65.7C187.5 63.2 184 60.6 181.3 59.9L177.8 59C174.9 58.3 170.7 56 168.4 54.1L165.6 51.7C163.4 49.8 159.3 48.4 156.5 48.6L152.8 48.8C149.8 49 145.1 48.2 142.3 47L138.9 45.6C136.3 44.5 131.9 44.4 129.3 45.5L125.9 46.9C123.1 48 118.4 48.7 115.4 48.4L111.8 48.1C108.9 47.8 104.8 49.1 102.6 51L99.8 53.3C97.5 55.2 93.2 57.3 90.3 58L86.7 58.8C83.9 59.4 80.4 61.9 78.8 64.4L76.9 67.5C75.3 70 71.9 73.4 69.3 74.9L66.1 76.8C63.6 78.3 61 81.8 60.3 84.5L59.4 88.1C58.7 91 56.5 95.2 54.5 97.5L52.1 100.3C50.2 102.5 48.8 106.6 49 109.4L49.2 113.1C49.4 116.1 48.6 120.8 47.4 123.6L46 127C44.9 129.6 44.8 134 45.9 136.7L47.3 140.1C48.4 142.9 49.1 147.6 48.8 150.6L48.5 154.2C48.2 157 49.5 161.2 51.4 163.4L53.7 166.2C55.6 168.5 57.7 172.8 58.4 175.7L59.2 179.3C59.8 182.1 62.4 185.7 64.8 187.2L67.9 189.1C70.4 190.7 73.8 194.1 75.3 196.7L77.2 199.8C78.7 202.3 82.2 204.9 84.9 205.6L88.5 206.5C91.4 207.2 95.6 209.4 97.9 211.4L100.7 213.8C102.9 215.7 107 217.1 109.8 216.9L113.5 216.7C116.5 216.5 121.2 217.3 124 218.5L127.4 219.9C130 221 134.4 221.1 137 220L140.4 218.6C142.8 217.6 146.5 217 149.4 217C149.9 217 150.4 217 150.9 217V217.2ZM127.1 220.6L123.7 219.2C121 218 116.5 217.3 113.6 217.5L109.9 217.7C106.9 217.9 102.5 216.4 100.2 214.4L97.4 212C95.2 210.1 91.1 207.9 88.3 207.2L84.7 206.3C81.7 205.6 78.1 202.8 76.5 200.2L74.6 197.1C73.1 194.6 69.9 191.3 67.4 189.7L64.3 187.8C61.7 186.2 59.1 182.5 58.4 179.5L57.6 175.9C57 173.1 54.9 168.9 53 166.7L50.7 163.9C48.8 161.6 47.4 157.2 47.7 154.2L48 150.6C48.3 147.7 47.6 143.1 46.5 140.4L45.1 137C44 134.2 44 129.6 45.2 126.8L46.6 123.4C47.7 120.7 48.5 116.2 48.3 113.3L48.1 109.6C47.9 106.6 49.4 102.2 51.4 99.9L53.8 97.1C55.7 94.9 57.9 90.8 58.6 88L59.5 84.4C60.2 81.5 63 77.8 65.6 76.2L68.8 74.3C71.3 72.8 74.6 69.6 76.1 67.1L78 64C79.6 61.4 83.4 58.8 86.3 58.1L89.9 57.3C92.8 56.7 96.9 54.6 99.1 52.7L101.9 50.4C104.2 48.4 108.6 47.1 111.6 47.4L115.2 47.7C118.1 48 122.7 47.3 125.4 46.2L128.8 44.8C131.6 43.7 136.2 43.7 139 44.9L142.4 46.3C145.1 47.4 149.6 48.2 152.5 48L156.2 47.8C159.2 47.6 163.6 49.1 165.9 51.1L168.7 53.5C170.9 55.4 175 57.6 177.8 58.3L181.3 59.2C184.3 59.9 187.9 62.7 189.5 65.3L191.4 68.5C192.9 71 196.1 74.3 198.6 75.9L201.7 77.8C204.3 79.4 206.9 83.1 207.6 86.1L208.4 89.7C209 92.5 211.1 96.7 213 98.9L215.3 101.7C217.3 104 218.6 108.4 218.3 111.4L218 115C217.7 117.9 218.4 122.5 219.5 125.2L220.9 128.6C222 131.4 222 136 220.8 138.8L219.4 142.2C218.2 144.9 217.5 149.4 217.7 152.3L217.9 156C218.1 159 216.6 163.4 214.6 165.7L212.2 168.5C210.3 170.7 208.1 174.8 207.4 177.6L206.5 181.2C205.8 184.2 203 187.8 200.4 189.4L197.3 191.3C194.8 192.8 191.5 196 189.9 198.5L188 201.6C186.4 204.2 182.7 206.8 179.7 207.5L176.1 208.3C173.3 208.9 169.1 211 166.9 212.9L164.1 215.2C161.8 217.2 157.4 218.5 154.4 218.2L150.8 217.9C147.9 217.6 143.3 218.3 140.6 219.4L137.2 220.8C135.8 221.3 134.1 221.6 132.3 221.6C130.4 221.6 128.4 221.3 127 220.7L127.1 220.6Z" fill="#8C8C8C"/>
<path d="M152.1 223L156 223.4C159 223.7 163.5 222.3 165.8 220.3L168.8 217.8C171.3 215.7 175.8 213.5 179 212.8L182.8 211.9C185.8 211.2 189.6 208.5 191.2 206L193.3 202.7C195 200 198.7 196.4 201.4 194.8L204.8 192.8C207.4 191.2 210.2 187.5 210.9 184.6L211.9 180.8C212.7 177.7 215.1 173.2 217.2 170.7L219.8 167.8C221.8 165.5 223.3 161.1 223.1 158.1L222.8 154.2C222.6 151 223.4 146 224.7 143L226.2 139.4C227.4 136.6 227.5 131.9 226.3 129.1L224.8 125.5C223.6 122.5 222.9 117.5 223.2 114.3L223.6 110.4C223.9 107.4 222.5 102.9 220.5 100.6L218 97.6C215.9 95.1 213.7 90.6 213 87.4L212.1 83.6C211.4 80.6 208.7 76.8 206.2 75.2L202.9 73.1C200.2 71.4 196.6 67.7 195 65L193 61.6C191.4 59 187.7 56.2 184.8 55.5L181 54.5C177.9 53.7 173.3 51.3 170.9 49.2L168 46.6C165.7 44.6 161.3 43.1 158.3 43.3L154.4 43.6C151.2 43.8 146.2 43 143.2 41.7L139.6 40.2C136.8 39 132.2 38.9 129.3 40.1L125.7 41.6C122.7 42.8 117.7 43.5 114.4 43.2L110.5 42.8C107.5 42.5 103 43.9 100.7 45.9L97.7 48.4C95.2 50.5 90.7 52.7 87.5 53.4L83.7 54.3C80.7 55 76.9 57.7 75.3 60.2L73.2 63.5C71.5 66.2 67.8 69.8 65.1 71.4L61.7 73.4C59.1 75 56.3 78.7 55.6 81.6L54.6 85.4C53.8 88.5 51.4 93 49.3 95.5L46.7 98.4C44.7 100.7 43.2 105.1 43.4 108.1L43.7 112C43.9 115.2 43.1 120.2 41.8 123.2L40.3 126.8C39.1 129.6 39 134.3 40.2 137.1L41.7 140.7C42.9 143.7 43.6 148.8 43.3 152L42.9 155.9C42.6 158.9 44 163.4 46 165.7L48.5 168.7C50.6 171.2 52.8 175.7 53.5 178.9L54.4 182.7C55.1 185.7 57.8 189.5 60.3 191.1L63.6 193.2C66.3 194.9 69.9 198.6 71.5 201.3L73.5 204.7C75.1 207.3 78.8 210.1 81.7 210.8L85.5 211.8C88.6 212.6 93.1 215 95.6 217.1L98.5 219.7C100.8 221.7 105.2 223.2 108.2 223L112.1 222.7C115.3 222.5 120.4 223.3 123.3 224.6L126.9 226.1C129.7 227.3 134.4 227.4 137.2 226.2L140.8 224.7C143.3 223.7 147.4 223 150.5 223C151.1 223 151.6 223 152.1 223ZM126.6 226.8L123 225.3C120.1 224.1 115.3 223.2 112.2 223.5L108.3 223.8C105 224 100.4 222.5 97.9 220.3L95 217.7C92.7 215.7 88.3 213.4 85.3 212.6L81.5 211.6C78.3 210.8 74.4 207.9 72.7 205.1L70.7 201.7C69.1 199 65.7 195.5 63 193.9L59.7 191.8C56.9 190.1 54.1 186.1 53.4 182.9L52.5 179.1C51.8 176.1 49.6 171.7 47.6 169.3L45.1 166.3C43 163.8 41.5 159.1 41.8 155.9L42.2 152C42.5 148.9 41.8 144 40.6 141.1L39.1 137.5C37.9 134.5 37.9 129.6 39.2 126.6L40.7 123C41.9 120.1 42.8 115.3 42.5 112.2L42.2 108.3C42 105 43.5 100.4 45.7 97.9L48.3 95C50.3 92.7 52.6 88.3 53.4 85.3L54.4 81.5C55.2 78.3 58.1 74.4 60.9 72.7L64.3 70.7C67 69.1 70.5 65.7 72.1 63L74.2 59.7C75.9 56.9 79.9 54.1 83.1 53.4L86.9 52.5C89.9 51.8 94.4 49.6 96.7 47.6L99.7 45.1C102.2 43 106.9 41.5 110.1 41.8L114 42.2C117.1 42.5 122 41.8 124.8 40.6L128.4 39.1C131.4 37.9 136.3 37.9 139.3 39.2L142.9 40.7C145.8 41.9 150.6 42.7 153.7 42.5L157.6 42.2C160.8 42 165.5 43.6 168 45.7L170.9 48.3C173.2 50.3 177.6 52.6 180.6 53.4L184.4 54.4C187.6 55.2 191.5 58.1 193.2 60.9L195.2 64.3C196.8 67 200.2 70.5 202.9 72.1L206.2 74.2C209 75.9 211.8 79.9 212.5 83.1L213.4 86.9C214.1 89.9 216.3 94.3 218.3 96.7L220.8 99.7C222.9 102.2 224.4 106.9 224.1 110.1L223.7 114C223.4 117.1 224.1 122 225.3 124.9L226.8 128.5C228 131.5 228 136.4 226.7 139.4L225.2 143C224 145.9 223.1 150.7 223.4 153.8L223.7 157.7C223.9 161 222.4 165.6 220.2 168.1L217.6 171C215.5 173.3 213.3 177.7 212.5 180.7L211.5 184.5C210.7 187.7 207.8 191.6 205 193.3L201.6 195.3C198.9 196.9 195.4 200.3 193.8 203L191.7 206.3C190 209.1 186 211.9 182.8 212.6L179 213.5C176 214.2 171.5 216.4 169.2 218.4L166.2 220.9C163.7 223 159 224.5 155.8 224.2L151.9 223.8C148.8 223.5 143.9 224.2 141.1 225.4L137.5 226.9C136 227.5 134.2 227.8 132.3 227.8C130.2 227.8 128.2 227.5 126.6 226.8Z" fill="#808080"/>
<path d="M153.4 228.9L157.6 229.3C160.8 229.6 165.5 228.1 168 226L171.2 223.3C173.8 221.1 178.7 218.7 182.1 217.9L186.2 217C189.3 216.3 193.4 213.4 195.1 210.7L197.3 207.2C199.1 204.3 203 200.5 206 198.7L209.6 196.6C212.4 194.9 215.3 191 216.1 187.8L217.1 183.8C217.9 180.5 220.5 175.6 222.7 173.1L225.4 170C227.5 167.6 229.1 162.9 228.9 159.6L228.6 155.4C228.4 152 229.3 146.6 230.6 143.4L232.2 139.6C233.5 136.6 233.5 131.7 232.3 128.7L230.7 124.8C229.4 121.6 228.6 116.2 228.9 112.8L229.3 108.6C229.6 105.4 228.1 100.7 226.1 98.2L223.4 95C221.2 92.4 218.8 87.5 218 84.1L217.1 80C216.4 76.9 213.5 72.8 210.8 71.1L207.3 68.9C204.4 67.1 200.6 63.2 198.8 60.2L196.7 56.6C195 53.8 191.1 50.9 187.9 50.1L183.9 49.1C180.6 48.3 175.7 45.7 173.2 43.5L170.1 40.8C167.7 38.7 163 37.1 159.8 37.3L155.6 37.6C152.2 37.8 146.8 36.9 143.6 35.6L139.8 34C136.8 32.7 131.9 32.7 128.9 33.9L125 35.5C121.8 36.8 116.4 37.6 113 37.3L108.8 36.9C105.6 36.6 100.9 38.1 98.4 40.2L95.2 42.9C92.6 45.1 87.7 47.5 84.3 48.3L80.2 49.2C77.1 49.9 73 52.8 71.3 55.5L69.1 59C67.3 61.9 63.4 65.7 60.4 67.5L56.8 69.6C54 71.3 51.1 75.2 50.3 78.4L49.3 82.4C48.5 85.7 45.9 90.6 43.7 93.1L40.9 96.2C38.8 98.6 37.2 103.3 37.4 106.6L37.7 110.8C37.9 114.2 37 119.6 35.7 122.8L34.1 126.6C32.8 129.6 32.8 134.5 34 137.5L35.6 141.4C36.9 144.6 37.7 150 37.3 153.4L36.9 157.6C36.6 160.8 38.1 165.5 40.1 168L42.8 171.2C45 173.8 47.4 178.7 48.2 182.1L49.1 186.2C49.8 189.4 52.7 193.4 55.4 195.1L58.9 197.3C61.8 199.1 65.6 203 67.4 206L69.5 209.6C71.1 212.4 75.1 215.3 78.3 216.1L82.3 217.1C85.6 217.9 90.5 220.5 93 222.7L96.1 225.4C98.5 227.5 103.2 229.1 106.4 228.9L110.6 228.6C114 228.4 119.4 229.3 122.6 230.6L126.4 232.2C129.4 233.5 134.3 233.5 137.3 232.3L141.2 230.7C143.9 229.6 148.2 228.9 151.5 228.9C152.1 228.9 152.7 228.9 153.2 228.9H153.4ZM126.2 232.9L122.4 231.3C119.4 230 114.2 229.1 110.9 229.3L106.7 229.6C103.2 229.8 98.3 228.2 95.6 225.9L92.5 223.2C90 221 85.4 218.6 82.2 217.8L78.2 216.8C74.8 215.9 70.6 212.8 68.8 209.8L66.7 206.2C65 203.4 61.3 199.6 58.6 197.9L55.1 195.7C52.2 193.8 49.1 189.6 48.3 186.2L47.4 182.1C46.7 178.9 44.3 174.2 42.2 171.6L39.5 168.4C37.3 165.7 35.7 160.7 36 157.3L36.4 153.1C36.7 149.8 35.9 144.6 34.7 141.6L33.1 137.7C31.8 134.5 31.9 129.2 33.2 126L34.8 122.2C36.1 119.2 37 114 36.8 110.7L36.5 106.5C36.3 103 37.9 98.1 40.2 95.4L43 92.3C45.2 89.8 47.6 85.2 48.4 82L49.4 78C50.3 74.6 53.4 70.4 56.4 68.6L60 66.5C62.8 64.8 66.6 61.2 68.3 58.3L70.5 54.8C72.4 51.8 76.6 48.8 80 48L84.1 47.1C87.3 46.4 92 44 94.6 41.9L97.8 39.2C100.5 37 105.5 35.4 109 35.7L113.2 36.1C116.5 36.4 121.7 35.6 124.7 34.4L128.6 32.8C131.8 31.5 137.1 31.6 140.3 32.9L144.1 34.5C147.1 35.8 152.3 36.7 155.6 36.5L159.8 36.2C163.3 36 168.3 37.6 170.9 39.9L174 42.6C176.5 44.8 181.1 47.2 184.3 48L188.3 49C191.7 49.9 195.9 53 197.7 56L199.8 59.6C201.5 62.4 205.1 66.2 207.9 67.9L211.4 70.1C214.4 72 217.4 76.2 218.2 79.6L219.1 83.7C219.8 86.9 222.1 91.6 224.3 94.2L227 97.4C229.2 100.1 230.8 105.1 230.5 108.5L230.1 112.7C229.8 116 230.6 121.2 231.8 124.2L233.4 128.1C234.7 131.3 234.6 136.6 233.3 139.8L231.7 143.6C230.4 146.6 229.5 151.8 229.7 155.1L230 159.3C230.2 162.8 228.6 167.7 226.3 170.4L223.6 173.5C221.4 176 219 180.6 218.2 183.8L217.2 187.8C216.3 191.2 213.2 195.4 210.2 197.2L206.6 199.3C203.8 201 200 204.7 198.3 207.5L196.1 211C194.2 214 190 217 186.6 217.8L182.5 218.7C179.3 219.4 174.6 221.8 172 223.9L168.8 226.6C166.1 228.8 161.1 230.4 157.6 230.1L153.4 229.7C150.1 229.4 144.9 230.2 141.9 231.4L138 233C136.4 233.6 134.4 233.9 132.4 233.9C130.2 233.9 128 233.5 126.3 232.8L126.2 232.9Z" fill="#737373"/>
<path d="M154.6 234.7L159 235.1C162.4 235.4 167.4 233.8 170 231.7L173.4 228.9C176.2 226.6 181.4 224 185 223.2L189.3 222.2C192.6 221.4 196.9 218.4 198.7 215.5L201.1 211.8C203 208.7 207.2 204.7 210.3 202.8L214.1 200.5C217 198.8 220.2 194.5 221 191.2L222.1 186.9C223 183.4 225.7 178.2 228.1 175.5L231 172.2C233.3 169.6 234.9 164.6 234.7 161.2L234.4 156.8C234.2 153.2 235.1 147.5 236.6 144.1L238.3 140C239.6 136.9 239.7 131.6 238.4 128.4L236.8 124.3C235.4 120.9 234.6 115.2 234.9 111.5L235.3 107.1C235.6 103.7 234 98.7 231.9 96.1L229.1 92.7C226.8 89.9 224.2 84.7 223.4 81.1L222.4 76.8C221.6 73.5 218.6 69.2 215.7 67.4L211.9 65C208.8 63.1 204.8 58.9 202.9 55.8L200.6 52C198.9 49.1 194.6 45.9 191.3 45.1L187 44C183.4 43.1 178.3 40.4 175.6 38L172.3 35.1C169.7 32.9 164.8 31.2 161.4 31.4L157 31.7C153.4 31.9 147.6 31 144.3 29.5L140.2 27.8C137.1 26.5 131.8 26.4 128.7 27.7L124.6 29.4C121.2 30.8 115.5 31.6 111.8 31.3L107.4 30.9C104 30.6 99.0001 32.2 96.4001 34.3L93.0001 37.1C90.2001 39.4 85.0001 42 81.4001 42.8L77.1001 43.8C73.8001 44.6 69.5001 47.6 67.7001 50.5L65.3001 54.3C63.4001 57.4 59.2001 61.4 56.1001 63.3L52.3001 65.6C49.4001 67.3 46.2001 71.6 45.4001 74.9L44.3001 79.2C43.4001 82.7 40.7001 87.9 38.3001 90.6L35.4001 93.9C33.2001 96.5 31.5001 101.5 31.7001 104.9L32.0001 109.3C32.2001 112.9 31.3001 118.6 29.8001 122L28.0001 126.1C26.7001 129.2 26.6001 134.5 27.9001 137.7L29.6001 141.8C31.0001 145.2 31.8001 150.9 31.5001 154.6L31.1001 159C30.8001 162.4 32.4001 167.4 34.5001 170L37.3001 173.4C39.6001 176.2 42.2001 181.4 43.0001 185L44.0001 189.3C44.8001 192.6 47.8001 196.9 50.7001 198.7L54.5001 201.1C57.6001 203 61.6001 207.2 63.5001 210.3L65.8001 214.1C67.5001 217 71.8001 220.2 75.1001 221L79.4001 222.1C82.9001 223 88.1001 225.7 90.8001 228.1L94.1001 231C96.7001 233.3 101.6 234.9 105 234.7L109.4 234.4C113.1 234.2 118.8 235.1 122.1 236.6L126.2 238.3C129.3 239.6 134.6 239.7 137.8 238.4L141.9 236.8C144.8 235.6 149.3 234.9 152.9 234.9C153.5 234.9 154.1 234.9 154.7 234.9L154.6 234.7ZM125.7 239.1L121.6 237.4C118.4 236 112.9 235.1 109.4 235.3L105 235.6C101.3 235.9 96.0001 234.1 93.2001 231.6L89.9001 228.7C87.3001 226.4 82.4001 223.8 79.0001 223L74.7001 221.9C71.1001 221 66.6001 217.7 64.7001 214.5L62.4001 210.7C60.6001 207.7 56.7001 203.7 53.8001 201.9L50.0001 199.5C46.9001 197.5 43.6001 193 42.8001 189.4L41.8001 185.1C41.0001 181.7 38.6001 176.7 36.3001 174L33.5001 170.6C31.1001 167.7 29.5001 162.4 29.8001 158.7L30.2001 154.3C30.5001 150.8 29.7001 145.3 28.4001 142.1L26.7001 138C25.3001 134.6 25.4001 129 26.8001 125.6L28.6001 121.5C30.0001 118.3 30.9001 112.8 30.7001 109.3L30.4001 104.9C30.1001 101.2 31.9001 95.9 34.4001 93.1L37.3001 89.8C39.6001 87.2 42.2001 82.3 43.0001 78.9L44.1001 74.6C45.0001 71 48.3001 66.5 51.5001 64.6L55.3001 62.3C58.3001 60.5 62.3001 56.6 64.1001 53.7L66.5001 49.9C68.5001 46.8 73.0001 43.5 76.6001 42.7L80.9001 41.7C84.3001 40.9 89.3001 38.5 92.0001 36.2L95.4001 33.4C98.2001 31 103.6 29.4 107.3 29.7L111.7 30.1C115.2 30.4 120.7 29.6 123.9 28.3L128 26.6C131.4 25.2 137 25.3 140.4 26.7L144.5 28.4C147.7 29.8 153.2 30.7 156.7 30.5L161.1 30.2C164.8 30 170.1 31.7 172.9 34.2L176.2 37.1C178.8 39.4 183.7 42 187.1 42.8L191.4 43.9C195 44.8 199.5 48.1 201.4 51.3L203.7 55.1C205.5 58.1 209.4 62.1 212.3 63.9L216.1 66.3C219.2 68.3 222.5 72.8 223.3 76.4L224.3 80.7C225.1 84.1 227.5 89.1 229.8 91.8L232.6 95.2C235 98 236.6 103.4 236.3 107.1L235.9 111.5C235.6 115 236.4 120.5 237.7 123.7L239.3 127.8C240.7 131.2 240.6 136.8 239.2 140.2L237.5 144.3C236.1 147.5 235.2 153 235.4 156.5L235.7 160.9C236 164.6 234.2 169.9 231.7 172.7L228.8 176C226.5 178.6 223.9 183.5 223.1 186.9L222 191.2C221.1 194.8 217.8 199.3 214.6 201.2L210.8 203.5C207.8 205.3 203.8 209.2 202 212.1L199.6 215.8C197.6 218.9 193.1 222.2 189.5 223L185.2 224C181.8 224.8 176.8 227.2 174.1 229.5L170.7 232.3C167.8 234.7 162.5 236.3 158.8 236L154.4 235.6C150.9 235.3 145.4 236.1 142.2 237.4L138.1 239C136.4 239.7 134.3 240 132.2 240C129.9 240 127.5 239.6 125.7 238.9V239.1Z" fill="#666666"/>
<path d="M155.8 240.5L160.5 240.9C164.1 241.2 169.4 239.6 172.1 237.3L175.7 234.3C178.7 231.8 184.2 229.1 187.9 228.2L192.5 227.2C196 226.4 200.5 223.2 202.4 220.1L204.9 216.1C207 212.8 211.3 208.5 214.7 206.6L218.7 204.2C221.8 202.4 225.1 197.9 226 194.4L227.1 189.9C228 186.1 230.9 180.7 233.4 177.8L236.5 174.3C238.9 171.6 240.7 166.3 240.4 162.7L240.1 158C239.8 154.1 240.9 148.1 242.4 144.5L244.2 140.2C245.6 136.9 245.7 131.3 244.3 128L242.6 123.7C241.2 120.1 240.3 114.1 240.6 110.2L241 105.5C241.3 101.9 239.7 96.6 237.4 93.9L234.4 90.3C231.9 87.3 229.2 81.8 228.4 78.1L227.4 73.5C226.6 70 223.4 65.5 220.4 63.6L216.4 61.1C213.1 59 208.8 54.7 206.9 51.3L204.5 47.3C202.7 44.2 198.2 40.9 194.7 40L190.2 38.9C186.4 37.9 181 35.1 178.1 32.6L174.6 29.5C171.9 27.1 166.7 25.4 163.1 25.6L158.4 25.9C154.5 26.2 148.5 25.1 144.9 23.6L140.6 21.8C137.3 20.4 131.8 20.3 128.4 21.7L124.1 23.4C120.5 24.8 114.4 25.7 110.6 25.4L105.9 25C102.3 24.7 97 26.3 94.3 28.6L90.7 31.6C87.7 34.1 82.2 36.8 78.5 37.7L73.9 38.7C70.4 39.5 65.9 42.7 64 45.7L61.5 49.7C59.4 53 55.1 57.3 51.7 59.2L47.7 61.6C44.6 63.4 41.3 67.9 40.4 71.4L39.3 75.9C38.4 79.7 35.5 85.1 33 88L29.9 91.5C27.5 94.2 25.7 99.5 26 103.1L26.3 107.8C26.6 111.7 25.5 117.7 24 121.3L22.1 125.6C20.7 128.9 20.6 134.5 22 137.8L23.7 142.1C25.1 145.7 26 151.8 25.7 155.6L25.3 160.3C25 163.9 26.6 169.2 28.9 171.9L31.9 175.5C34.4 178.5 37.1 184 37.9 187.7L38.9 192.3C39.7 195.8 42.9 200.3 45.9 202.3L49.9 204.8C53.2 206.9 57.4 211.2 59.4 214.6L61.8 218.6C63.6 221.7 68.1 225 71.6 225.9L76.1 227C79.9 227.9 85.3 230.8 88.2 233.3L91.7 236.4C94.4 238.8 99.7 240.6 103.2 240.3L107.9 240C111.8 239.7 117.8 240.8 121.4 242.3L125.7 244.1C129 245.5 134.6 245.6 137.9 244.2L142.2 242.5C145.2 241.3 150.1 240.5 153.8 240.4C154.5 240.4 155.1 240.4 155.7 240.4L155.8 240.5ZM125.3 245.3L121 243.5C117.6 242 111.8 241 108.1 241.3L103.4 241.6C99.5 241.9 93.9 240 90.9 237.4L87.4 234.3C84.6 231.9 79.4 229.1 75.8 228.2L71.3 227.1C67.5 226.1 62.7 222.6 60.7 219.2L58.3 215.2C56.4 212 52.3 207.8 49.2 205.9L45.2 203.4C41.9 201.3 38.5 196.5 37.6 192.7L36.6 188.1C35.8 184.5 33.2 179.2 30.8 176.4L27.8 172.8C25.3 169.8 23.5 164.1 23.9 160.2L24.3 155.5C24.6 151.8 23.8 146 22.4 142.6L20.7 138.3C19.2 134.7 19.3 128.7 20.9 125.1L22.8 120.8C24.3 117.4 25.2 111.6 25 107.9L24.7 103.2C24.4 99.3 26.3 93.7 28.9 90.7L32 87.2C34.4 84.4 37.2 79.2 38.1 75.6L39.2 71.1C40.2 67.3 43.7 62.5 47.1 60.5L51.1 58.1C54.3 56.2 58.5 52.1 60.4 49L62.9 45C65 41.7 69.8 38.3 73.7 37.4L78.3 36.4C81.9 35.6 87.2 33 90 30.6L93.6 27.6C96.6 25.1 102.3 23.3 106.2 23.7L110.9 24.1C114.6 24.4 120.4 23.6 123.8 22.2L128.1 20.5C131.8 19 137.7 19.1 141.3 20.7L145.6 22.5C149 24 154.8 24.9 158.5 24.7L163.2 24.4C167.1 24.1 172.7 26 175.7 28.6L179.2 31.7C182 34.1 187.2 36.9 190.8 37.8L195.3 38.9C199.1 39.9 203.9 43.4 205.9 46.8L208.3 50.8C210.2 54 214.3 58.2 217.4 60.1L221.4 62.6C224.7 64.7 228.1 69.5 229 73.3L230 77.9C230.8 81.5 233.4 86.8 235.8 89.6L238.8 93.2C241.3 96.2 243.1 101.9 242.7 105.8L242.3 110.5C242 114.2 242.8 120 244.2 123.4L245.9 127.7C247.4 131.3 247.3 137.3 245.7 140.9L243.9 145.2C242.4 148.6 241.5 154.4 241.7 158.1L242 162.8C242.3 166.7 240.4 172.3 237.8 175.3L234.7 178.8C232.3 181.6 229.5 186.8 228.6 190.4L227.5 194.9C226.5 198.7 223 203.5 219.6 205.5L215.6 207.9C212.4 209.8 208.2 213.9 206.3 217L203.8 221C201.7 224.3 196.9 227.7 193 228.6L188.4 229.6C184.8 230.4 179.5 233 176.7 235.4L173.1 238.4C170.1 240.9 164.4 242.7 160.5 242.3L155.8 241.9C152.1 241.6 146.3 242.4 142.9 243.8L138.6 245.5C136.9 246.2 134.6 246.6 132.3 246.6C129.8 246.6 127.3 246.2 125.4 245.4L125.3 245.3Z" fill="#595959"/>
<path d="M157.1 246.3L162 246.8C165.8 247.2 171.3 245.4 174.2 243L178 239.8C181.1 237.2 186.9 234.3 190.9 233.4L195.7 232.3C199.4 231.5 204.2 228.1 206.2 224.9L208.8 220.7C211 217.2 215.6 212.7 219.1 210.6L223.3 208.1C226.5 206.2 230 201.5 231 197.8L232.2 193C233.2 189 236.2 183.3 238.9 180.2L242.2 176.5C244.7 173.7 246.6 168.1 246.3 164.3L246 159.4C245.7 155.3 246.8 148.9 248.4 145.2L250.3 140.7C251.8 137.2 251.9 131.4 250.5 127.9L248.7 123.3C247.2 119.5 246.2 113.1 246.6 109L247 104.1C247.3 100.3 245.6 94.6999 243.2 91.7999L240 87.9999C237.4 84.8999 234.5 79.0999 233.6 75.0999L232.5 70.2999C231.7 66.5999 228.3 61.7999 225.1 59.7999L220.9 57.1999C217.4 54.9999 212.9 50.3999 210.8 46.8999L208.3 42.6999C206.4 39.4999 201.7 35.9999 198 34.9999L193.2 33.7999C189.2 32.7999 183.5 29.7999 180.4 27.0999L176.7 23.7999C173.9 21.2999 168.3 19.3999 164.6 19.6999L159.7 19.9999C155.6 20.2999 149.2 19.1999 145.5 17.5999L141 15.5999C137.5 14.0999 131.7 13.9999 128.2 15.3999L123.6 17.1999C119.8 18.6999 113.4 19.6999 109.3 19.2999L104.4 18.7999C100.7 18.3999 95.1001 20.1999 92.2001 22.5999L88.4001 25.7999C85.3001 28.3999 79.5001 31.2999 75.5001 32.1999L70.7001 33.2999C67.0001 34.0999 62.2001 37.4999 60.2001 40.6999L57.6001 44.8999C55.4001 48.3999 50.8001 52.8999 47.3001 54.9999L43.0001 57.4999C39.8001 59.3999 36.3001 64.0999 35.3001 67.7999L34.1001 72.5999C33.1001 76.5999 30.1001 82.2999 27.4001 85.3999L24.1001 89.0999C21.6001 91.8999 19.7001 97.4999 20.0001 101.3L20.3001 106.2C20.6001 110.3 19.5001 116.6 17.9001 120.4L15.9001 124.9C14.4001 128.4 14.3001 134.2 15.7001 137.7L17.5001 142.3C19.0001 146.1 19.9001 152.5 19.6001 156.6L19.2001 161.5C18.9001 165.3 20.6001 170.9 23.0001 173.8L26.2001 177.6C28.8001 180.7 31.7001 186.5 32.6001 190.5L33.7001 195.3C34.5001 199 37.9001 203.8 41.1001 205.8L45.3001 208.4C48.8001 210.6 53.3001 215.2 55.4001 218.7L57.9001 222.9C59.8001 226.1 64.5001 229.6 68.2001 230.6L73.0001 231.8C77.0001 232.8 82.7001 235.8 85.8001 238.5L89.5001 241.8C92.3001 244.3 97.9001 246.2 101.6 245.9L106.5 245.6C110.6 245.3 117 246.4 120.7 248L125.2 249.9C128.7 251.4 134.5 251.5 138 250.1L142.6 248.3C145.8 247 150.9 246.1 154.9 246.1C155.6 246.1 156.3 246.1 156.9 246.1L157.1 246.3ZM124.8 251.4L120.3 249.5C116.7 248 110.7 246.9 106.8 247.2L101.9 247.5C97.8001 247.8 91.8001 245.8 88.7001 243L85.0001 239.7C82.1001 237.1 76.6001 234.3 72.8001 233.3L68.0001 232.1C64.0001 231.1 59.0001 227.3 56.8001 223.8L54.3001 219.6C52.3001 216.2 48.0001 211.8 44.7001 209.8L40.5001 207.2C37.0001 205 33.4001 199.9 32.5001 195.8L31.4001 191C30.5001 187.2 27.8001 181.7 25.3001 178.7L22.1001 174.9C19.4001 171.7 17.6001 165.7 18.0001 161.6L18.4001 156.7C18.8001 152.8 17.9001 146.7 16.4001 143.1L14.6001 138.5C13.1001 134.6 13.1001 128.4 14.8001 124.6L16.8001 120.1C18.3001 116.5 19.4001 110.4 19.1001 106.5L18.8001 101.6C18.5001 97.4999 20.5001 91.4999 23.3001 88.3999L26.6001 84.6999C29.2001 81.7999 32.0001 76.2999 33.0001 72.4999L34.2001 67.6999C35.2001 63.6999 38.9001 58.6999 42.5001 56.4999L46.8001 53.9999C50.1001 51.9999 54.6001 47.6999 56.6001 44.3999L59.2001 40.1999C61.4001 36.6999 66.5001 33.0999 70.6001 32.1999L75.4001 31.0999C79.2001 30.1999 84.7001 27.4999 87.7001 24.9999L91.5001 21.7999C94.7001 19.0999 100.7 17.2999 104.8 17.5999L109.7 18.0999C113.6 18.4999 119.7 17.5999 123.3 16.0999L127.9 14.2999C131.8 12.7999 138 12.7999 141.8 14.4999L146.3 16.4999C149.9 17.9999 155.9 19.0999 159.8 18.7999L164.7 18.4999C168.8 18.1999 174.8 20.1999 177.9 22.9999L181.6 26.2999C184.5 28.8999 190 31.6999 193.8 32.6999L198.6 33.8999C202.6 34.8999 207.6 38.5999 209.8 42.1999L212.3 46.3999C214.3 49.6999 218.6 54.1999 221.9 56.1999L226.1 58.7999C229.6 60.9999 233.2 66.0999 234.1 70.1999L235.2 74.9999C236.1 78.7999 238.8 84.2999 241.3 87.2999L244.5 91.0999C247.2 94.2999 249 100.2 248.6 104.4L248.2 109.3C247.8 113.2 248.7 119.3 250.2 122.9L252 127.5C253.5 131.4 253.5 137.6 251.8 141.4L249.9 145.9C248.4 149.5 247.3 155.6 247.6 159.5L247.9 164.4C248.2 168.5 246.2 174.5 243.4 177.6L240.1 181.3C237.5 184.2 234.7 189.7 233.7 193.5L232.5 198.3C231.5 202.3 227.7 207.3 224.2 209.5L220 212C216.6 214 212.2 218.3 210.2 221.6L207.6 225.8C205.4 229.3 200.3 232.9 196.2 233.9L191.4 235C187.6 235.9 182.1 238.6 179.1 241.1L175.3 244.3C172.1 247 166.1 248.8 162 248.5L157.1 248C153.2 247.6 147.1 248.5 143.5 250L138.9 251.8C137.1 252.5 134.7 252.9 132.2 252.9C129.6 252.9 126.9 252.5 124.9 251.6L124.8 251.4Z" fill="#4D4D4D"/>
<path d="M158.3 252.2L163.5 252.7C167.4 253.1 173.3 251.2 176.4 248.7L180.4 245.4C183.7 242.6 189.8 239.6 194 238.7L199.1 237.6C203 236.7 208 233.2 210.1 229.8L212.9 225.4C215.2 221.8 220.1 217 223.8 214.8L228.3 212.1C231.7 210.1 235.4 205.1 236.3 201.3L237.6 196.3C238.7 192.1 241.8 186.1 244.6 182.9L248 179C250.6 176 252.6 170.2 252.3 166.2L252 161C251.7 156.7 252.9 150 254.6 146L256.6 141.2C258.2 137.6 258.2 131.4 256.8 127.7L254.9 122.9C253.3 118.9 252.3 112.2 252.7 107.9L253.2 102.7C253.6 98.7998 251.7 92.8998 249.2 89.7998L245.9 85.7998C243.1 82.4998 240.1 76.3998 239.2 72.1998L238.1 67.0998C237.2 63.1998 233.7 58.1998 230.3 56.0998L225.9 53.2998C222.3 50.9998 217.5 46.0998 215.3 42.3998L212.6 37.8998C210.6 34.4998 205.6 30.7998 201.8 29.8998L196.8 28.5998C192.6 27.4998 186.6 24.3998 183.4 21.5998L179.5 18.1998C176.5 15.5998 170.7 13.5998 166.7 13.8998L161.5 14.2998C157.2 14.5998 150.5 13.3998 146.5 11.6998L141.7 9.59983C138.1 7.99983 131.9 7.99984 128.2 9.39984L123.4 11.2998C119.4 12.8998 112.7 13.8998 108.4 13.4998L103.2 12.9998C99.3 12.5998 93.4 14.4998 90.4 16.9998L86.4 20.2998C83.1 23.0998 77 26.0998 72.8 26.9998L67.7 28.1998C63.8 29.0998 58.8 32.5998 56.7 35.9998L53.9 40.3998C51.6 43.9998 46.7 48.7998 43 50.9998L38.5 53.6998C35.1 55.6998 31.4 60.6998 30.5 64.4998L29.2 69.4998C28.1 73.6998 25 79.6998 22.1 82.8998L18.7 86.7998C16.1 89.7998 14.1 95.5998 14.4 99.5998L14.7 104.8C15 109.1 13.8 115.8 12.2 119.8L10.1 124.6C8.49998 128.2 8.49998 134.4 9.89998 138.1L11.8 142.9C13.4 146.9 14.4 153.6 14 157.9L13.5 163.1C13.1 167 15 172.9 17.5 176L20.8 180C23.6 183.3 26.6 189.4 27.5 193.6L28.6 198.7C29.5 202.6 33 207.6 36.4 209.7L40.8 212.5C44.4 214.8 49.2 219.7 51.4 223.4L54.1 227.9C56.1 231.3 61.1 235 64.9 235.9L69.9 237.2C74.1 238.3 80.1 241.4 83.3 244.3L87.2 247.7C90.2 250.3 96 252.3 99.9 252L105.1 251.6C109.4 251.3 116.1 252.5 120.1 254.2L124.9 256.2C128.5 257.8 134.7 257.8 138.4 256.4L143.2 254.5C146.6 253.1 152 252.2 156.1 252.2C156.8 252.2 157.5 252.2 158.2 252.2H158.3ZM124.4 257.6L119.6 255.6C115.8 254 109.5 252.9 105.4 253.2L100.2 253.6C95.8 253.9 89.6 251.8 86.3 248.9L82.4 245.5C79.3 242.8 73.6 239.8 69.6 238.8L64.6 237.5C60.4 236.4 55.1 232.5 52.8 228.7L50.1 224.2C48 220.7 43.5 216 40 213.9L35.6 211.1C31.9 208.8 28.1 203.4 27.1 199.1L26 194C25.1 190 22.2 184.2 19.6 181.1L16.3 177.1C13.5 173.7 11.5 167.5 11.9 163.1L12.4 157.9C12.8 153.8 11.8 147.4 10.3 143.6L8.39998 138.8C6.79998 134.7 6.79998 128.2 8.59998 124.1L10.7 119.3C12.3 115.5 13.4 109.1 13.1 105.1L12.8 99.8998C12.5 95.4998 14.6 89.2998 17.5 85.9998L20.9 82.0998C23.6 78.9998 26.6 73.2998 27.6 69.2998L28.9 64.2998C30 60.0998 33.9 54.7998 37.7 52.4998L42.2 49.7998C45.7 47.6998 50.4 43.1998 52.5 39.6998L55.3 35.2998C57.6 31.5998 63 27.7998 67.3 26.7998L72.4 25.5998C76.4 24.6998 82.2 21.7998 85.3 19.1998L89.3 15.8998C92.7 13.0998 98.9 11.0998 103.3 11.4998L108.5 11.9998C112.6 12.3998 119 11.3998 122.8 9.89984L127.6 7.99983C131.7 6.39983 138.3 6.39983 142.3 8.19983L147.1 10.2998C150.9 11.8998 157.2 12.9998 161.3 12.6998L166.5 12.2998C170.8 11.9998 177.1 14.0998 180.4 16.9998L184.3 20.3998C187.4 23.0998 193.1 26.0998 197.1 27.0998L202.1 28.3998C206.3 29.4998 211.6 33.3998 213.9 37.1998L216.6 41.6998C218.7 45.1998 223.2 49.8998 226.7 51.9998L231.1 54.7998C234.8 57.0998 238.6 62.4998 239.6 66.7998L240.7 71.8998C241.6 75.8998 244.5 81.6998 247.1 84.7998L250.4 88.7998C253.2 92.1998 255.2 98.3998 254.8 102.8L254.3 108C253.9 112.1 254.9 118.5 256.4 122.3L258.3 127.1C259.9 131.2 259.9 137.7 258.1 141.8L256.1 146.6C254.5 150.4 253.4 156.8 253.7 160.8L254 166C254.3 170.4 252.2 176.6 249.3 179.9L245.9 183.8C243.2 186.9 240.2 192.6 239.2 196.6L237.9 201.6C236.8 205.8 232.9 211.1 229.1 213.4L224.6 216.1C221.1 218.2 216.4 222.7 214.3 226.2L211.5 230.6C209.2 234.3 203.8 238.1 199.5 239.1L194.4 240.2C190.4 241.1 184.6 244 181.5 246.6L177.5 249.9C174.1 252.7 167.8 254.7 163.5 254.3L158.3 253.8C154.2 253.4 147.8 254.4 144 255.9L139.2 257.8C137.3 258.6 134.7 259 132.2 259C129.4 259 126.6 258.6 124.5 257.6H124.4Z" fill="#404040"/>
<path d="M159.5 258L164.9 258.5C169 258.9 175.2 257 178.4 254.3L182.6 250.8C186.1 247.9 192.5 244.7 196.9 243.7L202.2 242.5C206.2 241.6 211.5 237.8 213.7 234.3L216.6 229.7C219 225.9 224.1 220.9 228 218.6L232.7 215.8C236.3 213.7 240.1 208.5 241.1 204.5L242.4 199.2C243.5 194.8 246.8 188.5 249.8 185.1L253.4 181C256.1 177.9 258.2 171.8 257.9 167.6L257.5 162.2C257.2 157.7 258.4 150.6 260.2 146.5L262.3 141.5C263.9 137.7 264 131.2 262.5 127.4L260.5 122.3C258.8 118.1 257.8 111 258.2 106.5L258.7 101.1C259.1 96.9999 257.2 90.7999 254.5 87.5999L251 83.3999C248.1 79.8999 244.9 73.4999 243.9 69.0999L242.7 63.7999C241.8 59.7999 238 54.4999 234.5 52.2999L229.9 49.3999C226.1 46.9999 221.1 41.8999 218.8 37.9999L216 33.2999C213.9 29.6999 208.7 25.8999 204.7 24.8999L199.4 23.5999C195 22.4999 188.7 19.1999 185.3 16.1999L181.2 12.5999C178.1 9.89992 172 7.79992 167.8 8.09992L162.4 8.49992C157.9 8.79992 150.8 7.59992 146.7 5.79992L141.7 3.59992C137.9 1.99992 131.5 1.89992 127.6 3.39992L122.5 5.39992C118.3 7.09992 111.2 8.09992 106.7 7.69992L101.3 7.19992C97.2 6.79992 91 8.69992 87.8 11.3999L83.6 14.8999C80.1 17.7999 73.7 20.9999 69.3 21.9999L64 23.1999C60 24.0999 54.7 27.7999 52.5 31.2999L49.6 35.8999C47.2 39.6999 42.1 44.6999 38.2 46.9999L33.5 49.7999C29.9 51.8999 26.1 57.0999 25.1 61.0999L23.8 66.3999C22.7 70.7999 19.4 77.0999 16.4 80.4999L12.8 84.5999C10.1 87.6999 8.00002 93.7999 8.30002 97.9999L8.70002 103.4C9.00002 107.9 7.80002 114.9 6.00002 119.1L3.80002 124.1C2.20002 127.9 2.10002 134.4 3.60002 138.2L5.60002 143.3C7.30002 147.5 8.30002 154.6 7.90002 159.1L7.40002 164.5C7.00002 168.6 8.90002 174.8 11.6 178L15.1 182.2C18 185.7 21.2 192.1 22.2 196.5L23.4 201.8C24.3 205.8 28 211.1 31.5 213.3L36.1 216.2C39.9 218.6 44.9 223.7 47.2 227.6L50 232.3C52.1 235.9 57.3 239.7 61.3 240.7L66.6 242C71 243.1 77.3 246.4 80.7 249.4L84.8 253C87.9 255.7 94 257.8 98.2 257.5L103.6 257.1C108.1 256.8 115.2 258 119.3 259.8L124.3 261.9C128.1 263.5 134.6 263.6 138.4 262.1L143.5 260.1C147.1 258.7 152.7 257.7 157.1 257.7C161.5 257.7 158.6 257.7 159.3 257.7L159.5 258ZM123.9 263.7L118.9 261.6C115 259.9 108.3 258.8 104 259.1L98.6 259.5C94 259.8 87.5 257.6 84 254.6L79.9 251C76.7 248.2 70.7 245 66.5 244L61.2 242.7C56.7 241.6 51.2 237.4 48.8 233.5L46 228.8C43.8 225.1 39.1 220.2 35.4 218L30.8 215.1C26.9 212.7 22.9 207 21.9 202.5L20.7 197.2C19.7 193 16.7 186.9 14 183.6L10.5 179.4C7.60002 175.9 5.50002 169.3 5.90002 164.7L6.40002 159.3C6.80002 155 5.80002 148.3 4.20002 144.3L2.20002 139.2C0.500018 134.9 0.600016 128 2.40002 123.8L4.60002 118.8C6.30002 114.8 7.40002 108.1 7.10002 103.9L6.70002 98.4999C6.40002 93.8999 8.60002 87.3999 11.6 83.8999L15.2 79.7999C18 76.5999 21.2 70.5999 22.2 66.3999L23.5 61.0999C24.6 56.5999 28.8 51.0999 32.7 48.6999L37.4 45.8999C41.1 43.6999 45.9 38.9999 48.2 35.2999L51.1 30.6999C53.5 26.7999 59.2 22.7999 63.7 21.7999L69 20.5999C73.2 19.5999 79.3 16.5999 82.6 13.8999L86.8 10.3999C90.3 7.39992 96.9 5.39992 101.5 5.79992L106.9 6.29992C111.2 6.69992 117.9 5.69992 121.9 4.09992L127 2.09992C131.3 0.399919 138.2 0.49992 142.4 2.29992L147.4 4.49992C151.3 6.19992 158 7.29992 162.3 6.99992L167.7 6.59992C172.3 6.29992 178.9 8.49992 182.3 11.4999L186.4 15.0999C189.6 17.8999 195.6 21.0999 199.8 22.0999L205.1 23.3999C209.6 24.4999 215.1 28.5999 217.5 32.5999L220.3 37.2999C222.5 40.9999 227.2 45.7999 230.9 48.0999L235.5 50.9999C239.4 53.3999 243.4 59.0999 244.4 63.5999L245.6 68.8999C246.5 73.0999 249.6 79.1999 252.3 82.4999L255.8 86.6999C258.7 90.1999 260.8 96.7999 260.4 101.4L259.9 106.8C259.5 111.1 260.5 117.8 262.1 121.8L264.1 126.9C265.8 131.2 265.7 138.1 263.9 142.3L261.8 147.3C260.1 151.2 259 157.9 259.3 162.2L259.7 167.6C260 172.2 257.8 178.7 254.8 182.2L251.2 186.3C248.4 189.5 245.2 195.5 244.2 199.7L242.9 205C241.8 209.5 237.6 215 233.7 217.4L229 220.2C225.3 222.4 220.5 227.1 218.2 230.8L215.3 235.4C212.9 239.3 207.2 243.3 202.7 244.3L197.4 245.5C193.2 246.5 187.1 249.5 183.8 252.2L179.6 255.7C176.1 258.7 169.5 260.7 164.9 260.3L159.5 259.8C155.2 259.4 148.5 260.4 144.5 262L139.4 264C137.4 264.8 134.7 265.2 132 265.2C129.1 265.2 126.2 264.7 124 263.8L123.9 263.7Z" fill="#333333"/>
</svg>
