<svg width="266" height="266" viewBox="0 0 266 266" fill="none" xmlns="http://www.w3.org/2000/svg">
<g style="mix-blend-mode:darken" opacity="0.2">
<path d="M148.3 205.5L151.4 205.8C153.9 206 157.5 204.9 159.4 203.3L161.8 201.3C163.8 199.6 167.4 197.8 170 197.3L173.1 196.6C175.5 196 178.6 193.9 179.9 191.8L181.6 189.1C183 186.9 185.9 184.1 188.1 182.7L190.8 181.1C192.9 179.8 195.2 176.8 195.8 174.4L196.6 171.3C197.2 168.8 199.1 165.2 200.8 163.3L202.9 160.9C204.6 159 205.8 155.5 205.6 153L205.4 149.9C205.2 147.3 205.9 143.3 206.9 140.9L208.1 138C209.1 135.7 209.1 131.9 208.2 129.6L207 126.7C206 124.3 205.5 120.3 205.7 117.7L206 114.6C206.2 112.1 205.1 108.5 203.5 106.6L201.5 104.2C199.8 102.2 198 98.6 197.5 96.1L196.8 93C196.2 90.6 194.1 87.5 192 86.2L189.3 84.5C187.1 83.1 184.3 80.2 183 78L181.4 75.3C180.1 73.2 177.1 70.9 174.7 70.3L171.6 69.5C169.1 68.9 165.5 67 163.6 65.3L161.2 63.2C159.3 61.6 155.8 60.4 153.3 60.5L150.2 60.7C147.6 60.9 143.6 60.2 141.2 59.2L138.3 58C136 57 132.2 57 129.9 58L127 59.2C124.6 60.2 120.6 60.8 118 60.5L114.9 60.2C112.4 60 108.8 61.1 106.9 62.7L104.5 64.7C102.5 66.3 98.8999 68.2 96.3999 68.7L93.2999 69.4C90.8999 70 87.7999 72.1 86.4999 74.2L84.7999 76.9C83.3999 79.1 80.4999 81.9 78.2999 83.2L75.5999 84.8C73.4999 86.1 71.1999 89.1 70.5999 91.5L69.7999 94.6C69.1999 97.1 67.2999 100.7 65.5999 102.6L63.4999 105C61.8999 106.9 60.5999 110.4 60.7999 112.9L60.9999 116C61.1999 118.6 60.4999 122.6 59.4999 125L58.2999 127.9C57.2999 130.2 57.2999 134 58.1999 136.3L59.3999 139.2C60.3999 141.6 60.8999 145.6 60.6999 148.2L60.3999 151.3C60.1999 153.8 61.2999 157.4 62.8999 159.3L64.8999 161.7C66.4999 163.7 68.3999 167.3 68.8999 169.8L69.5999 172.9C70.1999 175.3 72.2999 178.4 74.3999 179.7L77.0999 181.4C79.2999 182.8 82.0999 185.7 83.3999 187.9L84.9999 190.6C86.2999 192.7 89.2999 195 91.6999 195.6L94.7999 196.4C97.2999 197 100.9 198.9 102.8 200.6L105.2 202.7C107.1 204.3 110.6 205.6 113.1 205.4L116.2 205.2C118.8 205 122.8 205.7 125.2 206.7L128.1 207.9C130.4 208.9 134.2 208.9 136.5 207.9L139.4 206.7C141.4 205.9 144.6 205.3 147.1 205.3C147.5 205.3 148 205.3 148.4 205.3L148.3 205.5ZM127.9 208.3L125 207.1C122.7 206.1 118.8 205.4 116.2 205.6L113.1 205.8C110.5 206 106.8 204.7 104.9 203L102.5 200.9C100.6 199.2 97.0999 197.4 94.5999 196.8L91.4999 196C88.9999 195.4 85.8999 193 84.4999 190.8L82.8999 188.1C81.5999 185.9 78.7999 183.1 76.6999 181.7L73.9999 180C71.7999 178.6 69.4999 175.4 68.9999 172.9L68.2999 169.8C67.6999 167.3 65.9999 163.8 64.3999 161.8L62.3999 159.4C60.6999 157.4 59.5999 153.7 59.7999 151.1L60.0999 148C60.2999 145.5 59.7999 141.6 58.7999 139.2L57.5999 136.3C56.5999 133.9 56.6999 130 57.6999 127.6L58.8999 124.7C59.8999 122.4 60.5999 118.4 60.3999 115.9L60.1999 112.8C59.9999 110.2 61.2999 106.5 62.9999 104.6L65.0999 102.2C66.7999 100.3 68.5999 96.8 69.1999 94.3L69.9999 91.2C70.5999 88.7 72.9999 85.6 75.1999 84.2L77.8999 82.6C80.0999 81.3 82.8999 78.5 84.2999 76.4L85.9999 73.7C87.3999 71.5 90.5999 69.2 93.0999 68.7L96.1999 68C98.6999 67.4 102.2 65.7 104.2 64.1L106.6 62.1C108.6 60.4 112.3 59.3 114.9 59.5L118 59.8C120.5 60 124.5 59.4 126.8 58.5L129.7 57.3C132.1 56.3 136 56.4 138.4 57.4L141.3 58.6C143.6 59.6 147.5 60.3 150.1 60.1L153.2 59.9C155.8 59.7 159.5 61 161.4 62.7L163.8 64.8C165.7 66.5 169.2 68.3 171.7 68.9L174.8 69.7C177.3 70.3 180.4 72.7 181.8 74.9L183.4 77.6C184.7 79.8 187.5 82.6 189.6 84L192.3 85.7C194.5 87.1 196.8 90.3 197.3 92.8L198 95.9C198.6 98.4 200.3 101.9 201.9 103.9L203.9 106.3C205.6 108.3 206.7 112 206.5 114.6L206.2 117.7C206 120.2 206.5 124.2 207.5 126.5L208.7 129.4C209.7 131.8 209.6 135.7 208.6 138.1L207.4 141C206.4 143.3 205.7 147.2 205.9 149.8L206.1 152.9C206.3 155.5 205 159.2 203.3 161.1L201.2 163.5C199.5 165.4 197.7 168.9 197.1 171.4L196.3 174.5C195.7 177 193.3 180.1 191.1 181.5L188.4 183.1C186.2 184.4 183.4 187.2 182 189.3L180.3 192C178.9 194.2 175.7 196.5 173.2 197L170.1 197.7C167.6 198.3 164.1 200 162.1 201.6L159.7 203.6C157.7 205.3 154 206.4 151.4 206.2L148.3 205.9C145.8 205.7 141.8 206.3 139.5 207.2L136.6 208.4C135.4 208.9 133.9 209.1 132.4 209.1C130.8 209.1 129.1 208.8 127.9 208.3Z" fill="#A6A6A6"/>
<path d="M149.5 211.4L152.9 211.7C155.6 211.9 159.4 210.7 161.5 209L164.1 206.8C166.2 205 170.2 203 172.9 202.4L176.2 201.6C178.8 201 182.1 198.7 183.5 196.4L185.3 193.5C186.8 191.1 189.9 188 192.3 186.6L195.2 184.9C197.5 183.5 199.9 180.3 200.6 177.7L201.4 174.4C202.1 171.7 204.1 167.8 206 165.7L208.2 163.1C210 161.1 211.3 157.2 211.1 154.6L210.9 151.2C210.7 148.4 211.5 144.1 212.6 141.5L213.9 138.4C215 135.9 215 131.9 214 129.4L212.7 126.2C211.7 123.6 211 119.2 211.3 116.5L211.6 113.1C211.8 110.4 210.6 106.6 208.9 104.5L206.7 101.9C204.9 99.8 203 95.8 202.3 93.1L201.5 89.8C200.9 87.2 198.6 83.9 196.3 82.4L193.4 80.6C191 79.1 187.9 76 186.5 73.6L184.8 70.7C183.4 68.4 180.2 66 177.6 65.3L174.3 64.5C171.6 63.8 167.7 61.8 165.6 59.9L163 57.7C161 55.9 157.1 54.6 154.5 54.8L151.1 55C148.3 55.2 144 54.4 141.4 53.3L138.3 52C135.8 50.9 131.8 50.9 129.3 51.9L126.1 53.2C123.5 54.2 119.1 54.9 116.4 54.6L113 54.3C110.3 54.1 106.5 55.3 104.4 57L101.8 59.2C99.6999 61 95.6999 62.9 92.9999 63.6L89.6999 64.4C87.0999 65 83.7999 67.3 82.3999 69.6L80.5999 72.5C79.0999 74.9 75.9999 78 73.5999 79.4L70.6999 81.1C68.3999 82.5 65.9999 85.7 65.2999 88.3L64.4999 91.6C63.7999 94.3 61.7999 98.2 59.8999 100.3L57.6999 102.9C55.8999 104.9 54.5999 108.8 54.7999 111.4L54.9999 114.8C55.1999 117.6 54.3999 121.9 53.2999 124.5L51.9999 127.6C50.8999 130.1 50.8999 134.1 51.8999 136.6L53.1999 139.8C54.1999 142.4 54.8999 146.8 54.5999 149.5L54.2999 152.9C54.0999 155.6 55.2999 159.4 56.9999 161.5L59.1999 164.1C60.9999 166.2 62.8999 170.2 63.5999 172.9L64.3999 176.2C64.9999 178.8 67.2999 182.1 69.5999 183.6L72.4999 185.4C74.8999 186.9 77.8999 190 79.3999 192.4L81.0999 195.3C82.4999 197.6 85.6999 200 88.2999 200.7L91.5999 201.5C94.2999 202.2 98.1999 204.2 100.3 206.1L102.9 208.3C104.9 210.1 108.8 211.4 111.4 211.2L114.8 211C117.6 210.8 121.9 211.6 124.5 212.7L127.6 214C130.1 215.1 134.1 215.1 136.6 214.1L139.8 212.8C142 211.9 145.5 211.3 148.2 211.3C148.7 211.3 149.1 211.3 149.6 211.3L149.5 211.4ZM127.4 214.5L124.3 213.2C121.8 212.1 117.6 211.4 114.9 211.6L111.5 211.8C108.7 212 104.7 210.6 102.5 208.8L99.8999 206.6C97.8999 204.8 94.0999 202.8 91.3999 202.1L88.0999 201.3C85.3999 200.6 81.9999 198.1 80.4999 195.7L78.7999 192.8C77.3999 190.5 74.3999 187.4 72.0999 185.9L69.1999 184.1C66.7999 182.6 64.3999 179.1 63.6999 176.4L62.8999 173.1C62.2999 170.5 60.3999 166.6 58.6999 164.5L56.4999 161.9C54.6999 159.7 53.3999 155.7 53.6999 152.9L53.9999 149.5C54.1999 146.8 53.5999 142.5 52.5999 140L51.2999 136.8C50.1999 134.2 50.2999 129.9 51.3999 127.4L52.6999 124.3C53.7999 121.8 54.4999 117.6 54.2999 114.9L54.0999 111.5C53.8999 108.7 55.2999 104.7 57.0999 102.6L59.2999 100C61.0999 98 63.0999 94.1 63.7999 91.5L64.5999 88.2C65.2999 85.5 67.7999 82.1 70.1999 80.6L73.0999 78.9C75.3999 77.5 78.4999 74.5 79.9999 72.2L81.7999 69.3C83.2999 66.9 86.7999 64.5 89.4999 63.8L92.7999 63C95.4999 62.4 99.2999 60.5 101.4 58.8L104 56.6C106.2 54.8 110.2 53.5 113 53.8L116.4 54.1C119.1 54.3 123.4 53.7 125.9 52.7L129.1 51.4C131.7 50.3 136 50.4 138.5 51.5L141.6 52.8C144.1 53.9 148.3 54.6 151 54.4L154.4 54.2C157.2 54 161.2 55.4 163.4 57.2L166 59.4C168 61.2 171.8 63.2 174.5 63.8L177.8 64.6C180.5 65.3 183.9 67.8 185.4 70.2L187.1 73.1C188.5 75.4 191.5 78.5 193.8 80L196.7 81.8C199.1 83.3 201.5 86.8 202.2 89.5L203 92.8C203.6 95.5 205.5 99.3 207.2 101.4L209.4 104C211.2 106.2 212.5 110.2 212.2 113L211.9 116.4C211.7 119.1 212.3 123.4 213.3 125.9L214.6 129.1C215.7 131.7 215.6 136 214.5 138.5L213.2 141.6C212.1 144.1 211.4 148.3 211.6 151.1L211.8 154.5C212 157.3 210.6 161.3 208.8 163.4L206.6 166C204.8 168 202.8 171.9 202.1 174.5L201.3 177.8C200.6 180.5 198.1 183.9 195.7 185.4L192.8 187.1C190.5 188.5 187.4 191.5 185.9 193.8L184.1 196.7C182.6 199.1 179.1 201.5 176.4 202.2L173.1 203C170.4 203.6 166.6 205.5 164.5 207.3L161.9 209.5C159.7 211.3 155.7 212.6 152.9 212.3L149.5 212C146.8 211.8 142.5 212.4 140 213.4L136.8 214.7C135.5 215.2 133.9 215.5 132.3 215.5C130.5 215.5 128.7 215.2 127.4 214.6V214.5Z" fill="#999999"/>
<path d="M150.8 217.2L154.4 217.5C157.3 217.8 161.4 216.5 163.6 214.6L166.4 212.3C168.7 210.4 173 208.3 175.9 207.6L179.5 206.8C182.3 206.2 185.8 203.6 187.4 201.2L189.3 198.1C190.9 195.6 194.3 192.2 196.9 190.7L200 188.8C202.5 187.3 205.1 183.8 205.8 181.1L206.7 177.5C207.4 174.6 209.6 170.4 211.6 168.1L214 165.3C215.9 163.1 217.3 159 217.1 156.2L216.9 152.5C216.7 149.5 217.5 144.8 218.7 142L220.1 138.6C221.2 136 221.3 131.6 220.2 128.9L218.8 125.5C217.7 122.7 217 118 217.3 115L217.6 111.4C217.9 108.5 216.6 104.4 214.7 102.2L212.4 99.4C210.5 97.1 208.4 92.8 207.7 89.9L206.9 86.3C206.3 83.5 203.7 80 201.3 78.4L198.2 76.5C195.7 74.9 192.3 71.5 190.8 68.9L188.9 65.7C187.4 63.2 183.9 60.6 181.2 59.9L177.7 59C174.8 58.3 170.6 56 168.3 54.1L165.5 51.7C163.3 49.8 159.2 48.4 156.4 48.6L152.7 48.8C149.7 49 145 48.2 142.2 47L138.8 45.6C136.2 44.5 131.8 44.4 129.2 45.5L125.8 46.9C123 48 118.3 48.7 115.3 48.4L111.7 48.1C108.8 47.8 104.7 49.1 102.5 51L99.6999 53.3C97.3999 55.2 93.0999 57.3 90.1999 58L86.5999 58.8C83.7999 59.4 80.2999 61.9 78.6999 64.4L76.7999 67.5C75.1999 70 71.7999 73.4 69.1999 74.9L65.9999 76.8C63.4999 78.3 60.8999 81.8 60.1999 84.5L59.2999 88.1C58.5999 91 56.3999 95.2 54.3999 97.5L51.9999 100.3C50.0999 102.5 48.6999 106.6 48.8999 109.4L49.0999 113.1C49.2999 116.1 48.4999 120.8 47.2999 123.6L45.8999 127C44.7999 129.6 44.6999 134 45.7999 136.7L47.1999 140.1C48.2999 142.9 48.9999 147.6 48.6999 150.6L48.3999 154.2C48.0999 157 49.3999 161.2 51.2999 163.4L53.5999 166.2C55.4999 168.5 57.5999 172.8 58.2999 175.7L59.0999 179.3C59.6999 182.1 62.2999 185.7 64.6999 187.2L67.7999 189.1C70.2999 190.7 73.6999 194.1 75.1999 196.7L77.0999 199.8C78.5999 202.3 82.0999 204.9 84.7999 205.6L88.3999 206.5C91.2999 207.2 95.4999 209.4 97.7999 211.4L100.6 213.8C102.8 215.7 106.9 217.1 109.7 216.9L113.4 216.7C116.4 216.5 121.1 217.3 123.9 218.5L127.3 219.9C129.9 221 134.3 221.1 136.9 220L140.3 218.6C142.7 217.6 146.4 217 149.3 217C149.8 217 150.3 217 150.8 217V217.2ZM127 220.6L123.6 219.2C120.9 218 116.4 217.3 113.5 217.5L109.8 217.7C106.8 217.9 102.4 216.4 100.1 214.4L97.2999 212C95.0999 210.1 90.9999 207.9 88.1999 207.2L84.5999 206.3C81.5999 205.6 77.9999 202.8 76.3999 200.2L74.4999 197.1C72.9999 194.6 69.7999 191.3 67.2999 189.7L64.1999 187.8C61.5999 186.2 58.9999 182.5 58.2999 179.5L57.4999 175.9C56.8999 173.1 54.7999 168.9 52.8999 166.7L50.5999 163.9C48.6999 161.6 47.2999 157.2 47.5999 154.2L47.8999 150.6C48.1999 147.7 47.4999 143.1 46.3999 140.4L44.9999 137C43.8999 134.2 43.8999 129.6 45.0999 126.8L46.4999 123.4C47.5999 120.7 48.3999 116.2 48.1999 113.3L47.9999 109.6C47.7999 106.6 49.2999 102.2 51.2999 99.9L53.6999 97.1C55.5999 94.9 57.7999 90.8 58.4999 88L59.3999 84.4C60.0999 81.5 62.8999 77.8 65.4999 76.2L68.6999 74.3C71.1999 72.8 74.4999 69.6 75.9999 67.1L77.8999 64C79.4999 61.4 83.2999 58.8 86.1999 58.1L89.7999 57.3C92.6999 56.7 96.7999 54.6 98.9999 52.7L101.8 50.4C104.1 48.4 108.5 47.1 111.5 47.4L115.1 47.7C118 48 122.6 47.3 125.3 46.2L128.7 44.8C131.5 43.7 136.1 43.7 138.9 44.9L142.3 46.3C145 47.4 149.5 48.2 152.4 48L156.1 47.8C159.1 47.6 163.5 49.1 165.8 51.1L168.6 53.5C170.8 55.4 174.9 57.6 177.7 58.3L181.2 59.2C184.2 59.9 187.8 62.7 189.4 65.3L191.3 68.5C192.8 71 196 74.3 198.5 75.9L201.6 77.8C204.2 79.4 206.8 83.1 207.5 86.1L208.3 89.7C208.9 92.5 211 96.7 212.9 98.9L215.2 101.7C217.2 104 218.5 108.4 218.2 111.4L217.9 115C217.6 117.9 218.3 122.5 219.4 125.2L220.8 128.6C221.9 131.4 221.9 136 220.7 138.8L219.3 142.2C218.1 144.9 217.4 149.4 217.6 152.3L217.8 156C218 159 216.5 163.4 214.5 165.7L212.1 168.5C210.2 170.7 208 174.8 207.3 177.6L206.4 181.2C205.7 184.2 202.9 187.8 200.3 189.4L197.2 191.3C194.7 192.8 191.4 196 189.8 198.5L187.9 201.6C186.3 204.2 182.6 206.8 179.6 207.5L176 208.3C173.2 208.9 169 211 166.8 212.9L164 215.2C161.7 217.2 157.3 218.5 154.3 218.2L150.7 217.9C147.8 217.6 143.2 218.3 140.5 219.4L137.1 220.8C135.7 221.3 134 221.6 132.2 221.6C130.3 221.6 128.3 221.3 126.9 220.7L127 220.6Z" fill="#8C8C8C"/>
<path d="M152 223L155.9 223.4C158.9 223.7 163.4 222.3 165.7 220.3L168.7 217.8C171.2 215.7 175.7 213.5 178.9 212.8L182.7 211.9C185.7 211.2 189.5 208.5 191.1 206L193.2 202.7C194.9 200 198.6 196.4 201.3 194.8L204.7 192.8C207.3 191.2 210.1 187.5 210.8 184.6L211.8 180.8C212.6 177.7 215 173.2 217.1 170.7L219.7 167.8C221.7 165.5 223.2 161.1 223 158.1L222.7 154.2C222.5 151 223.3 146 224.6 143L226.1 139.4C227.3 136.6 227.4 131.9 226.2 129.1L224.7 125.5C223.5 122.5 222.8 117.5 223.1 114.3L223.5 110.4C223.8 107.4 222.4 102.9 220.4 100.6L217.9 97.6C215.8 95.1 213.6 90.6 212.9 87.4L212 83.6C211.3 80.6 208.6 76.8 206.1 75.2L202.8 73.1C200.1 71.4 196.5 67.7 194.9 65L192.9 61.6C191.3 59 187.6 56.2 184.7 55.5L180.9 54.5C177.8 53.7 173.2 51.3 170.8 49.2L167.9 46.6C165.6 44.6 161.2 43.1 158.2 43.3L154.3 43.6C151.1 43.8 146.1 43 143.1 41.7L139.5 40.2C136.7 39 132.1 38.9 129.2 40.1L125.6 41.6C122.6 42.8 117.6 43.5 114.3 43.2L110.4 42.8C107.4 42.5 102.9 43.9 100.6 45.9L97.5999 48.4C95.0999 50.5 90.5999 52.7 87.3999 53.4L83.5999 54.3C80.5999 55 76.7999 57.7 75.1999 60.2L73.0999 63.5C71.3999 66.2 67.6999 69.8 64.9999 71.4L61.5999 73.4C58.9999 75 56.1999 78.7 55.4999 81.6L54.4999 85.4C53.6999 88.5 51.2999 93 49.1999 95.5L46.5999 98.4C44.5999 100.7 43.0999 105.1 43.2999 108.1L43.5999 112C43.7999 115.2 42.9999 120.2 41.6999 123.2L40.1999 126.8C38.9999 129.6 38.8999 134.3 40.0999 137.1L41.5999 140.7C42.7999 143.7 43.4999 148.8 43.1999 152L42.7999 155.9C42.4999 158.9 43.8999 163.4 45.8999 165.7L48.3999 168.7C50.4999 171.2 52.6999 175.7 53.3999 178.9L54.2999 182.7C54.9999 185.7 57.6999 189.5 60.1999 191.1L63.4999 193.2C66.1999 194.9 69.7999 198.6 71.3999 201.3L73.3999 204.7C74.9999 207.3 78.6999 210.1 81.5999 210.8L85.3999 211.8C88.4999 212.6 92.9999 215 95.4999 217.1L98.3999 219.7C100.7 221.7 105.1 223.2 108.1 223L112 222.7C115.2 222.5 120.3 223.3 123.2 224.6L126.8 226.1C129.6 227.3 134.3 227.4 137.1 226.2L140.7 224.7C143.2 223.7 147.3 223 150.4 223C151 223 151.5 223 152 223ZM126.5 226.8L122.9 225.3C120 224.1 115.2 223.2 112.1 223.5L108.2 223.8C104.9 224 100.3 222.5 97.7999 220.3L94.8999 217.7C92.5999 215.7 88.1999 213.4 85.1999 212.6L81.3999 211.6C78.1999 210.8 74.2999 207.9 72.5999 205.1L70.5999 201.7C68.9999 199 65.5999 195.5 62.8999 193.9L59.5999 191.8C56.7999 190.1 53.9999 186.1 53.2999 182.9L52.3999 179.1C51.6999 176.1 49.4999 171.7 47.4999 169.3L44.9999 166.3C42.8999 163.8 41.3999 159.1 41.6999 155.9L42.0999 152C42.3999 148.9 41.6999 144 40.4999 141.1L38.9999 137.5C37.7999 134.5 37.7999 129.6 39.0999 126.6L40.5999 123C41.7999 120.1 42.6999 115.3 42.3999 112.2L42.0999 108.3C41.8999 105 43.3999 100.4 45.5999 97.9L48.1999 95C50.1999 92.7 52.4999 88.3 53.2999 85.3L54.2999 81.5C55.0999 78.3 57.9999 74.4 60.7999 72.7L64.1999 70.7C66.8999 69.1 70.3999 65.7 71.9999 63L74.0999 59.7C75.7999 56.9 79.7999 54.1 82.9999 53.4L86.7999 52.5C89.7999 51.8 94.2999 49.6 96.5999 47.6L99.5999 45.1C102.1 43 106.8 41.5 110 41.8L113.9 42.2C117 42.5 121.9 41.8 124.7 40.6L128.3 39.1C131.3 37.9 136.2 37.9 139.2 39.2L142.8 40.7C145.7 41.9 150.5 42.7 153.6 42.5L157.5 42.2C160.7 42 165.4 43.6 167.9 45.7L170.8 48.3C173.1 50.3 177.5 52.6 180.5 53.4L184.3 54.4C187.5 55.2 191.4 58.1 193.1 60.9L195.1 64.3C196.7 67 200.1 70.5 202.8 72.1L206.1 74.2C208.9 75.9 211.7 79.9 212.4 83.1L213.3 86.9C214 89.9 216.2 94.3 218.2 96.7L220.7 99.7C222.8 102.2 224.3 106.9 224 110.1L223.6 114C223.3 117.1 224 122 225.2 124.9L226.7 128.5C227.9 131.5 227.9 136.4 226.6 139.4L225.1 143C223.9 145.9 223 150.7 223.3 153.8L223.6 157.7C223.8 161 222.3 165.6 220.1 168.1L217.5 171C215.4 173.3 213.2 177.7 212.4 180.7L211.4 184.5C210.6 187.7 207.7 191.6 204.9 193.3L201.5 195.3C198.8 196.9 195.3 200.3 193.7 203L191.6 206.3C189.9 209.1 185.9 211.9 182.7 212.6L178.9 213.5C175.9 214.2 171.4 216.4 169.1 218.4L166.1 220.9C163.6 223 158.9 224.5 155.7 224.2L151.8 223.8C148.7 223.5 143.8 224.2 141 225.4L137.4 226.9C135.9 227.5 134.1 227.8 132.2 227.8C130.1 227.8 128.1 227.5 126.5 226.8Z" fill="#808080"/>
<path d="M153.3 228.9L157.5 229.3C160.7 229.6 165.4 228.1 167.9 226L171.1 223.3C173.7 221.1 178.6 218.7 182 217.9L186.1 217C189.2 216.3 193.3 213.4 195 210.7L197.2 207.2C199 204.3 202.9 200.5 205.9 198.7L209.5 196.6C212.3 194.9 215.2 191 216 187.8L217 183.8C217.8 180.5 220.4 175.6 222.6 173.1L225.3 170C227.4 167.6 229 162.9 228.8 159.6L228.5 155.4C228.3 152 229.2 146.6 230.5 143.4L232.1 139.6C233.4 136.6 233.4 131.7 232.2 128.7L230.6 124.8C229.3 121.6 228.5 116.2 228.8 112.8L229.2 108.6C229.5 105.4 228 100.7 226 98.2L223.3 95C221.1 92.4 218.7 87.5 217.9 84.1L217 80C216.3 76.9 213.4 72.8 210.7 71.1L207.2 68.9C204.3 67.1 200.5 63.2 198.7 60.2L196.6 56.6C194.9 53.8 191 50.9 187.8 50.1L183.8 49.1C180.5 48.3 175.6 45.7 173.1 43.5L170 40.8C167.6 38.7 162.9 37.1 159.7 37.3L155.5 37.6C152.1 37.8 146.7 36.9 143.5 35.6L139.7 34C136.7 32.7 131.8 32.7 128.8 33.9L124.9 35.5C121.7 36.8 116.3 37.6 112.9 37.3L108.7 36.9C105.5 36.6 100.8 38.1 98.2999 40.2L95.0999 42.9C92.4999 45.1 87.5999 47.5 84.1999 48.3L80.0999 49.2C76.9999 49.9 72.8999 52.8 71.1999 55.5L68.9999 59C67.1999 61.9 63.2999 65.7 60.2999 67.5L56.6999 69.6C53.8999 71.3 50.9999 75.2 50.1999 78.4L49.1999 82.4C48.3999 85.7 45.7999 90.6 43.5999 93.1L40.7999 96.2C38.6999 98.6 37.0999 103.3 37.2999 106.6L37.5999 110.8C37.7999 114.2 36.8999 119.6 35.5999 122.8L33.9999 126.6C32.6999 129.6 32.6999 134.5 33.8999 137.5L35.4999 141.4C36.7999 144.6 37.5999 150 37.1999 153.4L36.7999 157.6C36.4999 160.8 37.9999 165.5 39.9999 168L42.6999 171.2C44.8999 173.8 47.2999 178.7 48.0999 182.1L48.9999 186.2C49.6999 189.4 52.5999 193.4 55.2999 195.1L58.7999 197.3C61.6999 199.1 65.4999 203 67.2999 206L69.3999 209.6C70.9999 212.4 74.9999 215.3 78.1999 216.1L82.1999 217.1C85.4999 217.9 90.3999 220.5 92.8999 222.7L95.9999 225.4C98.3999 227.5 103.1 229.1 106.3 228.9L110.5 228.6C113.9 228.4 119.3 229.3 122.5 230.6L126.3 232.2C129.3 233.5 134.2 233.5 137.2 232.3L141.1 230.7C143.8 229.6 148.1 228.9 151.4 228.9C152 228.9 152.6 228.9 153.1 228.9H153.3ZM126.1 232.9L122.3 231.3C119.3 230 114.1 229.1 110.8 229.3L106.6 229.6C103.1 229.8 98.1999 228.2 95.4999 225.9L92.3999 223.2C89.8999 221 85.2999 218.6 82.0999 217.8L78.0999 216.8C74.6999 215.9 70.4999 212.8 68.6999 209.8L66.5999 206.2C64.8999 203.4 61.1999 199.6 58.4999 197.9L54.9999 195.7C52.0999 193.8 48.9999 189.6 48.1999 186.2L47.2999 182.1C46.5999 178.9 44.1999 174.2 42.0999 171.6L39.3999 168.4C37.1999 165.7 35.5999 160.7 35.8999 157.3L36.2999 153.1C36.5999 149.8 35.7999 144.6 34.5999 141.6L32.9999 137.7C31.6999 134.5 31.7999 129.2 33.0999 126L34.6999 122.2C35.9999 119.2 36.8999 114 36.6999 110.7L36.3999 106.5C36.1999 103 37.7999 98.1 40.0999 95.4L42.8999 92.3C45.0999 89.8 47.4999 85.2 48.2999 82L49.2999 78C50.1999 74.6 53.2999 70.4 56.2999 68.6L59.8999 66.5C62.6999 64.8 66.4999 61.2 68.1999 58.3L70.3999 54.8C72.2999 51.8 76.4999 48.8 79.8999 48L83.9999 47.1C87.1999 46.4 91.8999 44 94.4999 41.9L97.6999 39.2C100.4 37 105.4 35.4 108.9 35.7L113.1 36.1C116.4 36.4 121.6 35.6 124.6 34.4L128.5 32.8C131.7 31.5 137 31.6 140.2 32.9L144 34.5C147 35.8 152.2 36.7 155.5 36.5L159.7 36.2C163.2 36 168.2 37.6 170.8 39.9L173.9 42.6C176.4 44.8 181 47.2 184.2 48L188.2 49C191.6 49.9 195.8 53 197.6 56L199.7 59.6C201.4 62.4 205 66.2 207.8 67.9L211.3 70.1C214.3 72 217.3 76.2 218.1 79.6L219 83.7C219.7 86.9 222 91.6 224.2 94.2L226.9 97.4C229.1 100.1 230.7 105.1 230.4 108.5L230 112.7C229.7 116 230.5 121.2 231.7 124.2L233.3 128.1C234.6 131.3 234.5 136.6 233.2 139.8L231.6 143.6C230.3 146.6 229.4 151.8 229.6 155.1L229.9 159.3C230.1 162.8 228.5 167.7 226.2 170.4L223.5 173.5C221.3 176 218.9 180.6 218.1 183.8L217.1 187.8C216.2 191.2 213.1 195.4 210.1 197.2L206.5 199.3C203.7 201 199.9 204.7 198.2 207.5L196 211C194.1 214 189.9 217 186.5 217.8L182.4 218.7C179.2 219.4 174.5 221.8 171.9 223.9L168.7 226.6C166 228.8 161 230.4 157.5 230.1L153.3 229.7C150 229.4 144.8 230.2 141.8 231.4L137.9 233C136.3 233.6 134.3 233.9 132.3 233.9C130.1 233.9 127.9 233.5 126.2 232.8L126.1 232.9Z" fill="#737373"/>
<path d="M154.5 234.7L158.9 235.1C162.3 235.4 167.3 233.8 169.9 231.7L173.3 228.9C176.1 226.6 181.3 224 184.9 223.2L189.2 222.2C192.5 221.4 196.8 218.4 198.6 215.5L201 211.8C202.9 208.7 207.1 204.7 210.2 202.8L214 200.5C216.9 198.8 220.1 194.5 220.9 191.2L222 186.9C222.9 183.4 225.6 178.2 228 175.5L230.9 172.2C233.2 169.6 234.8 164.6 234.6 161.2L234.3 156.8C234.1 153.2 235 147.5 236.5 144.1L238.2 140C239.5 136.9 239.6 131.6 238.3 128.4L236.7 124.3C235.3 120.9 234.5 115.2 234.8 111.5L235.2 107.1C235.5 103.7 233.9 98.7 231.8 96.1L229 92.7C226.7 89.9 224.1 84.7 223.3 81.1L222.3 76.8C221.5 73.5 218.5 69.2 215.6 67.4L211.8 65C208.7 63.1 204.7 58.9 202.8 55.8L200.5 52C198.8 49.1 194.5 45.9 191.2 45.1L186.9 44C183.3 43.1 178.2 40.4 175.5 38L172.2 35.1C169.6 32.9 164.7 31.2 161.3 31.4L156.9 31.7C153.3 31.9 147.5 31 144.2 29.5L140.1 27.8C137 26.5 131.7 26.4 128.6 27.7L124.5 29.4C121.1 30.8 115.4 31.6 111.7 31.3L107.3 30.9C103.9 30.6 98.8999 32.2 96.2999 34.3L92.8999 37.1C90.0999 39.4 84.8999 42 81.2999 42.8L76.9999 43.8C73.6999 44.6 69.3999 47.6 67.5999 50.5L65.1999 54.3C63.2999 57.4 59.0999 61.4 55.9999 63.3L52.1999 65.6C49.2999 67.3 46.0999 71.6 45.2999 74.9L44.1999 79.2C43.2999 82.7 40.5999 87.9 38.1999 90.6L35.2999 93.9C33.0999 96.5 31.3999 101.5 31.5999 104.9L31.8999 109.3C32.0999 112.9 31.1999 118.6 29.6999 122L27.8999 126.1C26.5999 129.2 26.4999 134.5 27.7999 137.7L29.4999 141.8C30.8999 145.2 31.6999 150.9 31.3999 154.6L30.9999 159C30.6999 162.4 32.2999 167.4 34.3999 170L37.1999 173.4C39.4999 176.2 42.0999 181.4 42.8999 185L43.8999 189.3C44.6999 192.6 47.6999 196.9 50.5999 198.7L54.3999 201.1C57.4999 203 61.4999 207.2 63.3999 210.3L65.6999 214.1C67.3999 217 71.6999 220.2 74.9999 221L79.2999 222.1C82.7999 223 87.9999 225.7 90.6999 228.1L93.9999 231C96.5999 233.3 101.5 234.9 104.9 234.7L109.3 234.4C113 234.2 118.7 235.1 122 236.6L126.1 238.3C129.2 239.6 134.5 239.7 137.7 238.4L141.8 236.8C144.7 235.6 149.2 234.9 152.8 234.9C153.4 234.9 154 234.9 154.6 234.9L154.5 234.7ZM125.6 239.1L121.5 237.4C118.3 236 112.8 235.1 109.3 235.3L104.9 235.6C101.2 235.9 95.8999 234.1 93.0999 231.6L89.7999 228.7C87.1999 226.4 82.2999 223.8 78.8999 223L74.5999 221.9C70.9999 221 66.4999 217.7 64.5999 214.5L62.2999 210.7C60.4999 207.7 56.5999 203.7 53.6999 201.9L49.8999 199.5C46.7999 197.5 43.4999 193 42.6999 189.4L41.6999 185.1C40.8999 181.7 38.4999 176.7 36.1999 174L33.3999 170.6C30.9999 167.7 29.3999 162.4 29.6999 158.7L30.0999 154.3C30.3999 150.8 29.5999 145.3 28.2999 142.1L26.5999 138C25.1999 134.6 25.2999 129 26.6999 125.6L28.4999 121.5C29.8999 118.3 30.7999 112.8 30.5999 109.3L30.2999 104.9C29.9999 101.2 31.7999 95.9 34.2999 93.1L37.1999 89.8C39.4999 87.2 42.0999 82.3 42.8999 78.9L43.9999 74.6C44.8999 71 48.1999 66.5 51.3999 64.6L55.1999 62.3C58.1999 60.5 62.1999 56.6 63.9999 53.7L66.3999 49.9C68.3999 46.8 72.8999 43.5 76.4999 42.7L80.7999 41.7C84.1999 40.9 89.1999 38.5 91.8999 36.2L95.2999 33.4C98.0999 31 103.5 29.4 107.2 29.7L111.6 30.1C115.1 30.4 120.6 29.6 123.8 28.3L127.9 26.6C131.3 25.2 136.9 25.3 140.3 26.7L144.4 28.4C147.6 29.8 153.1 30.7 156.6 30.5L161 30.2C164.7 30 170 31.7 172.8 34.2L176.1 37.1C178.7 39.4 183.6 42 187 42.8L191.3 43.9C194.9 44.8 199.4 48.1 201.3 51.3L203.6 55.1C205.4 58.1 209.3 62.1 212.2 63.9L216 66.3C219.1 68.3 222.4 72.8 223.2 76.4L224.2 80.7C225 84.1 227.4 89.1 229.7 91.8L232.5 95.2C234.9 98 236.5 103.4 236.2 107.1L235.8 111.5C235.5 115 236.3 120.5 237.6 123.7L239.2 127.8C240.6 131.2 240.5 136.8 239.1 140.2L237.4 144.3C236 147.5 235.1 153 235.3 156.5L235.6 160.9C235.9 164.6 234.1 169.9 231.6 172.7L228.7 176C226.4 178.6 223.8 183.5 223 186.9L221.9 191.2C221 194.8 217.7 199.3 214.5 201.2L210.7 203.5C207.7 205.3 203.7 209.2 201.9 212.1L199.5 215.8C197.5 218.9 193 222.2 189.4 223L185.1 224C181.7 224.8 176.7 227.2 174 229.5L170.6 232.3C167.7 234.7 162.4 236.3 158.7 236L154.3 235.6C150.8 235.3 145.3 236.1 142.1 237.4L138 239C136.3 239.7 134.2 240 132.1 240C129.8 240 127.4 239.6 125.6 238.9V239.1Z" fill="#666666"/>
<path d="M155.7 240.5L160.4 240.9C164 241.2 169.3 239.6 172 237.3L175.6 234.3C178.6 231.8 184.1 229.1 187.8 228.2L192.4 227.2C195.9 226.4 200.4 223.2 202.3 220.1L204.8 216.1C206.9 212.8 211.2 208.5 214.6 206.6L218.6 204.2C221.7 202.4 225 197.9 225.9 194.4L227 189.9C227.9 186.1 230.8 180.7 233.3 177.8L236.4 174.3C238.8 171.6 240.6 166.3 240.3 162.7L240 158C239.7 154.1 240.8 148.1 242.3 144.5L244.1 140.2C245.5 136.9 245.6 131.3 244.2 128L242.5 123.7C241.1 120.1 240.2 114.1 240.5 110.2L240.9 105.5C241.2 101.9 239.6 96.6 237.3 93.9L234.3 90.3C231.8 87.3 229.1 81.8 228.3 78.1L227.3 73.5C226.5 70 223.3 65.5 220.3 63.6L216.3 61.1C213 59 208.7 54.7 206.8 51.3L204.4 47.3C202.6 44.2 198.1 40.9 194.6 40L190.1 38.9C186.3 37.9 180.9 35.1 178 32.6L174.5 29.5C171.8 27.1 166.6 25.4 163 25.6L158.3 25.9C154.4 26.2 148.4 25.1 144.8 23.6L140.5 21.8C137.2 20.4 131.7 20.3 128.3 21.7L124 23.4C120.4 24.8 114.3 25.7 110.5 25.4L105.8 25C102.2 24.7 96.8999 26.3 94.2 28.6L90.5999 31.6C87.5999 34.1 82.0999 36.8 78.3999 37.7L73.7999 38.7C70.2999 39.5 65.7999 42.7 63.8999 45.7L61.3999 49.7C59.2999 53 55 57.3 51.5999 59.2L47.6 61.6C44.5 63.4 41.1999 67.9 40.2999 71.4L39.1999 75.9C38.2999 79.7 35.3999 85.1 32.8999 88L29.7999 91.5C27.3999 94.2 25.5999 99.5 25.8999 103.1L26.1999 107.8C26.4999 111.7 25.4 117.7 23.9 121.3L21.9999 125.6C20.5999 128.9 20.5 134.5 21.9 137.8L23.6 142.1C25 145.7 25.9 151.8 25.6 155.6L25.1999 160.3C24.8999 163.9 26.4999 169.2 28.7999 171.9L31.7999 175.5C34.2999 178.5 36.9999 184 37.7999 187.7L38.7999 192.3C39.5999 195.8 42.7999 200.3 45.7999 202.3L49.7999 204.8C53.0999 206.9 57.2999 211.2 59.2999 214.6L61.6999 218.6C63.4999 221.7 68 225 71.5 225.9L76 227C79.7999 227.9 85.2 230.8 88.1 233.3L91.5999 236.4C94.2999 238.8 99.5999 240.6 103.1 240.3L107.8 240C111.7 239.7 117.7 240.8 121.3 242.3L125.6 244.1C128.9 245.5 134.5 245.6 137.8 244.2L142.1 242.5C145.1 241.3 150 240.5 153.7 240.4C154.4 240.4 155 240.4 155.6 240.4L155.7 240.5ZM125.2 245.3L120.9 243.5C117.5 242 111.7 241 108 241.3L103.3 241.6C99.4 241.9 93.8 240 90.8 237.4L87.2999 234.3C84.4999 231.9 79.2999 229.1 75.6999 228.2L71.1999 227.1C67.3999 226.1 62.5999 222.6 60.5999 219.2L58.1999 215.2C56.2999 212 52.2 207.8 49.1 205.9L45.1 203.4C41.8 201.3 38.4 196.5 37.5 192.7L36.5 188.1C35.7 184.5 33.0999 179.2 30.6999 176.4L27.6999 172.8C25.1999 169.8 23.3999 164.1 23.7999 160.2L24.1999 155.5C24.4999 151.8 23.6999 146 22.2999 142.6L20.6 138.3C19.1 134.7 19.1999 128.7 20.7999 125.1L22.6999 120.8C24.1999 117.4 25.0999 111.6 24.9 107.9L24.6 103.2C24.3 99.3 26.1999 93.7 28.7999 90.7L31.8999 87.2C34.2999 84.4 37.1 79.2 38 75.6L39.1 71.1C40.1 67.3 43.6 62.5 47 60.5L51 58.1C54.2 56.2 58.3999 52.1 60.2999 49L62.7999 45C64.8999 41.7 69.6999 38.3 73.5999 37.4L78.1999 36.4C81.7999 35.6 87.0999 33 89.8999 30.6L93.5 27.6C96.5 25.1 102.2 23.3 106.1 23.7L110.8 24.1C114.5 24.4 120.3 23.6 123.7 22.2L128 20.5C131.7 19 137.6 19.1 141.2 20.7L145.5 22.5C148.9 24 154.7 24.9 158.4 24.7L163.1 24.4C167 24.1 172.6 26 175.6 28.6L179.1 31.7C181.9 34.1 187.1 36.9 190.7 37.8L195.2 38.9C199 39.9 203.8 43.4 205.8 46.8L208.2 50.8C210.1 54 214.2 58.2 217.3 60.1L221.3 62.6C224.6 64.7 228 69.5 228.9 73.3L229.9 77.9C230.7 81.5 233.3 86.8 235.7 89.6L238.7 93.2C241.2 96.2 243 101.9 242.6 105.8L242.2 110.5C241.9 114.2 242.7 120 244.1 123.4L245.8 127.7C247.3 131.3 247.2 137.3 245.6 140.9L243.8 145.2C242.3 148.6 241.4 154.4 241.6 158.1L241.9 162.8C242.2 166.7 240.3 172.3 237.7 175.3L234.6 178.8C232.2 181.6 229.4 186.8 228.5 190.4L227.4 194.9C226.4 198.7 222.9 203.5 219.5 205.5L215.5 207.9C212.3 209.8 208.1 213.9 206.2 217L203.7 221C201.6 224.3 196.8 227.7 192.9 228.6L188.3 229.6C184.7 230.4 179.4 233 176.6 235.4L173 238.4C170 240.9 164.3 242.7 160.4 242.3L155.7 241.9C152 241.6 146.2 242.4 142.8 243.8L138.5 245.5C136.8 246.2 134.5 246.6 132.2 246.6C129.7 246.6 127.2 246.2 125.3 245.4L125.2 245.3Z" fill="#595959"/>
<path d="M157 246.3L161.9 246.8C165.7 247.2 171.2 245.4 174.1 243L177.9 239.8C181 237.2 186.8 234.3 190.8 233.4L195.6 232.3C199.3 231.5 204.1 228.1 206.1 224.9L208.7 220.7C210.9 217.2 215.5 212.7 219 210.6L223.2 208.1C226.4 206.2 229.9 201.5 230.9 197.8L232.1 193C233.1 189 236.1 183.3 238.8 180.2L242.1 176.5C244.6 173.7 246.5 168.1 246.2 164.3L245.9 159.4C245.6 155.3 246.7 148.9 248.3 145.2L250.2 140.7C251.7 137.2 251.8 131.4 250.4 127.9L248.6 123.3C247.1 119.5 246.1 113.1 246.5 109L246.9 104.1C247.2 100.3 245.5 94.6999 243.1 91.7999L239.9 87.9999C237.3 84.8999 234.4 79.0999 233.5 75.0999L232.4 70.2999C231.6 66.5999 228.2 61.7999 225 59.7999L220.8 57.1999C217.3 54.9999 212.8 50.3999 210.7 46.8999L208.2 42.6999C206.3 39.4999 201.6 35.9999 197.9 34.9999L193.1 33.7999C189.1 32.7999 183.4 29.7999 180.3 27.0999L176.6 23.7999C173.8 21.2999 168.2 19.3999 164.5 19.6999L159.6 19.9999C155.5 20.2999 149.1 19.1999 145.4 17.5999L140.9 15.5999C137.4 14.0999 131.6 13.9999 128.1 15.3999L123.5 17.1999C119.7 18.6999 113.3 19.6999 109.2 19.2999L104.3 18.7999C100.6 18.3999 94.9999 20.1999 92.0999 22.5999L88.2999 25.7999C85.1999 28.3999 79.3999 31.2999 75.3999 32.1999L70.5999 33.2999C66.8999 34.0999 62.0999 37.4999 60.0999 40.6999L57.4999 44.8999C55.2999 48.3999 50.6999 52.8999 47.1999 54.9999L42.8999 57.4999C39.6999 59.3999 36.1999 64.0999 35.1999 67.7999L33.9999 72.5999C32.9999 76.5999 29.9999 82.2999 27.2999 85.3999L23.9999 89.0999C21.4999 91.8999 19.5999 97.4999 19.8999 101.3L20.1999 106.2C20.4999 110.3 19.3999 116.6 17.7999 120.4L15.7999 124.9C14.2999 128.4 14.1999 134.2 15.5999 137.7L17.3999 142.3C18.8999 146.1 19.7999 152.5 19.4999 156.6L19.0999 161.5C18.7999 165.3 20.4999 170.9 22.8999 173.8L26.0999 177.6C28.6999 180.7 31.5999 186.5 32.4999 190.5L33.5999 195.3C34.3999 199 37.7999 203.8 40.9999 205.8L45.1999 208.4C48.6999 210.6 53.1999 215.2 55.2999 218.7L57.7999 222.9C59.6999 226.1 64.3999 229.6 68.0999 230.6L72.8999 231.8C76.8999 232.8 82.5999 235.8 85.6999 238.5L89.3999 241.8C92.1999 244.3 97.7999 246.2 101.5 245.9L106.4 245.6C110.5 245.3 116.9 246.4 120.6 248L125.1 249.9C128.6 251.4 134.4 251.5 137.9 250.1L142.5 248.3C145.7 247 150.8 246.1 154.8 246.1C155.5 246.1 156.2 246.1 156.8 246.1L157 246.3ZM124.7 251.4L120.2 249.5C116.6 248 110.6 246.9 106.7 247.2L101.8 247.5C97.6999 247.8 91.6999 245.8 88.5999 243L84.8999 239.7C81.9999 237.1 76.4999 234.3 72.6999 233.3L67.8999 232.1C63.8999 231.1 58.8999 227.3 56.6999 223.8L54.1999 219.6C52.1999 216.2 47.8999 211.8 44.5999 209.8L40.3999 207.2C36.8999 205 33.2999 199.9 32.3999 195.8L31.2999 191C30.3999 187.2 27.6999 181.7 25.1999 178.7L21.9999 174.9C19.2999 171.7 17.4999 165.7 17.8999 161.6L18.2999 156.7C18.6999 152.8 17.7999 146.7 16.2999 143.1L14.4999 138.5C12.9999 134.6 12.9999 128.4 14.6999 124.6L16.6999 120.1C18.1999 116.5 19.2999 110.4 18.9999 106.5L18.6999 101.6C18.3999 97.4999 20.3999 91.4999 23.1999 88.3999L26.4999 84.6999C29.0999 81.7999 31.8999 76.2999 32.8999 72.4999L34.0999 67.6999C35.0999 63.6999 38.7999 58.6999 42.3999 56.4999L46.6999 53.9999C49.9999 51.9999 54.4999 47.6999 56.4999 44.3999L59.0999 40.1999C61.2999 36.6999 66.3999 33.0999 70.4999 32.1999L75.2999 31.0999C79.0999 30.1999 84.5999 27.4999 87.5999 24.9999L91.3999 21.7999C94.5999 19.0999 100.6 17.2999 104.7 17.5999L109.6 18.0999C113.5 18.4999 119.6 17.5999 123.2 16.0999L127.8 14.2999C131.7 12.7999 137.9 12.7999 141.7 14.4999L146.2 16.4999C149.8 17.9999 155.8 19.0999 159.7 18.7999L164.6 18.4999C168.7 18.1999 174.7 20.1999 177.8 22.9999L181.5 26.2999C184.4 28.8999 189.9 31.6999 193.7 32.6999L198.5 33.8999C202.5 34.8999 207.5 38.5999 209.7 42.1999L212.2 46.3999C214.2 49.6999 218.5 54.1999 221.8 56.1999L226 58.7999C229.5 60.9999 233.1 66.0999 234 70.1999L235.1 74.9999C236 78.7999 238.7 84.2999 241.2 87.2999L244.4 91.0999C247.1 94.2999 248.9 100.2 248.5 104.4L248.1 109.3C247.7 113.2 248.6 119.3 250.1 122.9L251.9 127.5C253.4 131.4 253.4 137.6 251.7 141.4L249.8 145.9C248.3 149.5 247.2 155.6 247.5 159.5L247.8 164.4C248.1 168.5 246.1 174.5 243.3 177.6L240 181.3C237.4 184.2 234.6 189.7 233.6 193.5L232.4 198.3C231.4 202.3 227.6 207.3 224.1 209.5L219.9 212C216.5 214 212.1 218.3 210.1 221.6L207.5 225.8C205.3 229.3 200.2 232.9 196.1 233.9L191.3 235C187.5 235.9 182 238.6 179 241.1L175.2 244.3C172 247 166 248.8 161.9 248.5L157 248C153.1 247.6 147 248.5 143.4 250L138.8 251.8C137 252.5 134.6 252.9 132.1 252.9C129.5 252.9 126.8 252.5 124.8 251.6L124.7 251.4Z" fill="#4D4D4D"/>
<path d="M158.2 252.2L163.4 252.7C167.3 253.1 173.2 251.2 176.3 248.7L180.3 245.4C183.6 242.6 189.7 239.6 193.9 238.7L199 237.6C202.9 236.7 207.9 233.2 210 229.8L212.8 225.4C215.1 221.8 220 217 223.7 214.8L228.2 212.1C231.6 210.1 235.3 205.1 236.2 201.3L237.5 196.3C238.6 192.1 241.7 186.1 244.5 182.9L247.9 179C250.5 176 252.5 170.2 252.2 166.2L251.9 161C251.6 156.7 252.8 150 254.5 146L256.5 141.2C258.1 137.6 258.1 131.4 256.7 127.7L254.8 122.9C253.2 118.9 252.2 112.2 252.6 107.9L253.1 102.7C253.5 98.7998 251.6 92.8998 249.1 89.7998L245.8 85.7998C243 82.4998 240 76.3998 239.1 72.1998L238 67.0998C237.1 63.1998 233.6 58.1998 230.2 56.0998L225.8 53.2998C222.2 50.9998 217.4 46.0998 215.2 42.3998L212.5 37.8998C210.5 34.4998 205.5 30.7998 201.7 29.8998L196.7 28.5998C192.5 27.4998 186.5 24.3998 183.3 21.5998L179.4 18.1998C176.4 15.5998 170.6 13.5998 166.6 13.8998L161.4 14.2998C157.1 14.5998 150.4 13.3998 146.4 11.6998L141.6 9.59983C138 7.99983 131.8 7.99984 128.1 9.39984L123.3 11.2998C119.3 12.8998 112.6 13.8998 108.3 13.4998L103.1 12.9998C99.1999 12.5998 93.2999 14.4998 90.2999 16.9998L86.2999 20.2998C82.9999 23.0998 76.8999 26.0998 72.6999 26.9998L67.5999 28.1998C63.6999 29.0998 58.6999 32.5998 56.5999 35.9998L53.7999 40.3998C51.4999 43.9998 46.5999 48.7998 42.8999 50.9998L38.3999 53.6998C34.9999 55.6998 31.2999 60.6998 30.3999 64.4998L29.0999 69.4998C27.9999 73.6998 24.8999 79.6998 21.9999 82.8998L18.5999 86.7998C15.9999 89.7998 13.9999 95.5998 14.2999 99.5998L14.5999 104.8C14.8999 109.1 13.6999 115.8 12.0999 119.8L9.99994 124.6C8.39994 128.2 8.39994 134.4 9.79994 138.1L11.6999 142.9C13.2999 146.9 14.2999 153.6 13.8999 157.9L13.3999 163.1C12.9999 167 14.8999 172.9 17.3999 176L20.6999 180C23.4999 183.3 26.4999 189.4 27.3999 193.6L28.4999 198.7C29.3999 202.6 32.8999 207.6 36.2999 209.7L40.6999 212.5C44.2999 214.8 49.0999 219.7 51.2999 223.4L53.9999 227.9C55.9999 231.3 60.9999 235 64.7999 235.9L69.7999 237.2C73.9999 238.3 79.9999 241.4 83.1999 244.3L87.0999 247.7C90.0999 250.3 95.8999 252.3 99.7999 252L105 251.6C109.3 251.3 116 252.5 120 254.2L124.8 256.2C128.4 257.8 134.6 257.8 138.3 256.4L143.1 254.5C146.5 253.1 151.9 252.2 156 252.2C156.7 252.2 157.4 252.2 158.1 252.2H158.2ZM124.3 257.6L119.5 255.6C115.7 254 109.4 252.9 105.3 253.2L100.1 253.6C95.6999 253.9 89.4999 251.8 86.1999 248.9L82.2999 245.5C79.1999 242.8 73.4999 239.8 69.4999 238.8L64.4999 237.5C60.2999 236.4 54.9999 232.5 52.6999 228.7L49.9999 224.2C47.8999 220.7 43.3999 216 39.8999 213.9L35.4999 211.1C31.7999 208.8 27.9999 203.4 26.9999 199.1L25.8999 194C24.9999 190 22.0999 184.2 19.4999 181.1L16.1999 177.1C13.3999 173.7 11.3999 167.5 11.7999 163.1L12.2999 157.9C12.6999 153.8 11.6999 147.4 10.1999 143.6L8.29994 138.8C6.69994 134.7 6.69994 128.2 8.49994 124.1L10.5999 119.3C12.1999 115.5 13.2999 109.1 12.9999 105.1L12.6999 99.8998C12.3999 95.4998 14.4999 89.2998 17.3999 85.9998L20.7999 82.0998C23.4999 78.9998 26.4999 73.2998 27.4999 69.2998L28.7999 64.2998C29.8999 60.0998 33.7999 54.7998 37.5999 52.4998L42.0999 49.7998C45.5999 47.6998 50.2999 43.1998 52.3999 39.6998L55.1999 35.2998C57.4999 31.5998 62.8999 27.7998 67.1999 26.7998L72.2999 25.5998C76.2999 24.6998 82.0999 21.7998 85.1999 19.1998L89.1999 15.8998C92.5999 13.0998 98.7999 11.0998 103.2 11.4998L108.4 11.9998C112.5 12.3998 118.9 11.3998 122.7 9.89984L127.5 7.99983C131.6 6.39983 138.2 6.39983 142.2 8.19983L147 10.2998C150.8 11.8998 157.1 12.9998 161.2 12.6998L166.4 12.2998C170.7 11.9998 177 14.0998 180.3 16.9998L184.2 20.3998C187.3 23.0998 193 26.0998 197 27.0998L202 28.3998C206.2 29.4998 211.5 33.3998 213.8 37.1998L216.5 41.6998C218.6 45.1998 223.1 49.8998 226.6 51.9998L231 54.7998C234.7 57.0998 238.5 62.4998 239.5 66.7998L240.6 71.8998C241.5 75.8998 244.4 81.6998 247 84.7998L250.3 88.7998C253.1 92.1998 255.1 98.3998 254.7 102.8L254.2 108C253.8 112.1 254.8 118.5 256.3 122.3L258.2 127.1C259.8 131.2 259.8 137.7 258 141.8L256 146.6C254.4 150.4 253.3 156.8 253.6 160.8L253.9 166C254.2 170.4 252.1 176.6 249.2 179.9L245.8 183.8C243.1 186.9 240.1 192.6 239.1 196.6L237.8 201.6C236.7 205.8 232.8 211.1 229 213.4L224.5 216.1C221 218.2 216.3 222.7 214.2 226.2L211.4 230.6C209.1 234.3 203.7 238.1 199.4 239.1L194.3 240.2C190.3 241.1 184.5 244 181.4 246.6L177.4 249.9C174 252.7 167.7 254.7 163.4 254.3L158.2 253.8C154.1 253.4 147.7 254.4 143.9 255.9L139.1 257.8C137.2 258.6 134.6 259 132.1 259C129.3 259 126.5 258.6 124.4 257.6H124.3Z" fill="#404040"/>
<path d="M159.4 258L164.8 258.5C168.9 258.9 175.1 257 178.3 254.3L182.5 250.8C186 247.9 192.4 244.7 196.8 243.7L202.1 242.5C206.1 241.6 211.4 237.8 213.6 234.3L216.5 229.7C218.9 225.9 224 220.9 227.9 218.6L232.6 215.8C236.2 213.7 240 208.5 241 204.5L242.3 199.2C243.4 194.8 246.7 188.5 249.7 185.1L253.3 181C256 177.9 258.1 171.8 257.8 167.6L257.4 162.2C257.1 157.7 258.3 150.6 260.1 146.5L262.2 141.5C263.8 137.7 263.9 131.2 262.4 127.4L260.4 122.3C258.7 118.1 257.7 111 258.1 106.5L258.6 101.1C259 96.9999 257.1 90.7999 254.4 87.5999L250.9 83.3999C248 79.8999 244.8 73.4999 243.8 69.0999L242.6 63.7999C241.7 59.7999 237.9 54.4999 234.4 52.2999L229.8 49.3999C226 46.9999 221 41.8999 218.7 37.9999L215.9 33.2999C213.8 29.6999 208.6 25.8999 204.6 24.8999L199.3 23.5999C194.9 22.4999 188.6 19.1999 185.2 16.1999L181.1 12.5999C178 9.89992 171.9 7.79992 167.7 8.09992L162.3 8.49992C157.8 8.79992 150.7 7.59992 146.6 5.79992L141.6 3.59992C137.8 1.99992 131.4 1.89992 127.5 3.39992L122.4 5.39992C118.2 7.09992 111.1 8.09992 106.6 7.69992L101.2 7.19992C97.0999 6.79992 90.8999 8.69992 87.6999 11.3999L83.4999 14.8999C79.9999 17.7999 73.5999 20.9999 69.1999 21.9999L63.8999 23.1999C59.8999 24.0999 54.5999 27.7999 52.3999 31.2999L49.4999 35.8999C47.0999 39.6999 41.9999 44.6999 38.0999 46.9999L33.3999 49.7999C29.7999 51.8999 25.9999 57.0999 24.9999 61.0999L23.6999 66.3999C22.5999 70.7999 19.2999 77.0999 16.2999 80.4999L12.6999 84.5999C9.99992 87.6999 7.89992 93.7999 8.19992 97.9999L8.59992 103.4C8.89992 107.9 7.69992 114.9 5.89992 119.1L3.69992 124.1C2.09992 127.9 1.99992 134.4 3.49992 138.2L5.49992 143.3C7.19992 147.5 8.19992 154.6 7.79992 159.1L7.29992 164.5C6.89992 168.6 8.79992 174.8 11.4999 178L14.9999 182.2C17.8999 185.7 21.0999 192.1 22.0999 196.5L23.2999 201.8C24.1999 205.8 27.8999 211.1 31.3999 213.3L35.9999 216.2C39.7999 218.6 44.7999 223.7 47.0999 227.6L49.8999 232.3C51.9999 235.9 57.1999 239.7 61.1999 240.7L66.4999 242C70.8999 243.1 77.1999 246.4 80.5999 249.4L84.6999 253C87.7999 255.7 93.8999 257.8 98.0999 257.5L103.5 257.1C108 256.8 115.1 258 119.2 259.8L124.2 261.9C128 263.5 134.5 263.6 138.3 262.1L143.4 260.1C147 258.7 152.6 257.7 157 257.7C161.4 257.7 158.5 257.7 159.2 257.7L159.4 258ZM123.8 263.7L118.8 261.6C114.9 259.9 108.2 258.8 103.9 259.1L98.4999 259.5C93.8999 259.8 87.3999 257.6 83.8999 254.6L79.7999 251C76.5999 248.2 70.5999 245 66.3999 244L61.0999 242.7C56.5999 241.6 51.0999 237.4 48.6999 233.5L45.8999 228.8C43.6999 225.1 38.9999 220.2 35.2999 218L30.6999 215.1C26.7999 212.7 22.7999 207 21.7999 202.5L20.5999 197.2C19.5999 193 16.5999 186.9 13.8999 183.6L10.3999 179.4C7.49992 175.9 5.39992 169.3 5.79992 164.7L6.29992 159.3C6.69992 155 5.69992 148.3 4.09992 144.3L2.09992 139.2C0.399921 134.9 0.499918 128 2.29992 123.8L4.49992 118.8C6.19992 114.8 7.29992 108.1 6.99992 103.9L6.59992 98.4999C6.29992 93.8999 8.49992 87.3999 11.4999 83.8999L15.0999 79.7999C17.8999 76.5999 21.0999 70.5999 22.0999 66.3999L23.3999 61.0999C24.4999 56.5999 28.6999 51.0999 32.5999 48.6999L37.2999 45.8999C40.9999 43.6999 45.7999 38.9999 48.0999 35.2999L50.9999 30.6999C53.3999 26.7999 59.0999 22.7999 63.5999 21.7999L68.8999 20.5999C73.0999 19.5999 79.1999 16.5999 82.4999 13.8999L86.6999 10.3999C90.1999 7.39992 96.7999 5.39992 101.4 5.79992L106.8 6.29992C111.1 6.69992 117.8 5.69992 121.8 4.09992L126.9 2.09992C131.2 0.399919 138.1 0.49992 142.3 2.29992L147.3 4.49992C151.2 6.19992 157.9 7.29992 162.2 6.99992L167.6 6.59992C172.2 6.29992 178.8 8.49992 182.2 11.4999L186.3 15.0999C189.5 17.8999 195.5 21.0999 199.7 22.0999L205 23.3999C209.5 24.4999 215 28.5999 217.4 32.5999L220.2 37.2999C222.4 40.9999 227.1 45.7999 230.8 48.0999L235.4 50.9999C239.3 53.3999 243.3 59.0999 244.3 63.5999L245.5 68.8999C246.4 73.0999 249.5 79.1999 252.2 82.4999L255.7 86.6999C258.6 90.1999 260.7 96.7999 260.3 101.4L259.8 106.8C259.4 111.1 260.4 117.8 262 121.8L264 126.9C265.7 131.2 265.6 138.1 263.8 142.3L261.7 147.3C260 151.2 258.9 157.9 259.2 162.2L259.6 167.6C259.9 172.2 257.7 178.7 254.7 182.2L251.1 186.3C248.3 189.5 245.1 195.5 244.1 199.7L242.8 205C241.7 209.5 237.5 215 233.6 217.4L228.9 220.2C225.2 222.4 220.4 227.1 218.1 230.8L215.2 235.4C212.8 239.3 207.1 243.3 202.6 244.3L197.3 245.5C193.1 246.5 187 249.5 183.7 252.2L179.5 255.7C176 258.7 169.4 260.7 164.8 260.3L159.4 259.8C155.1 259.4 148.4 260.4 144.4 262L139.3 264C137.3 264.8 134.6 265.2 131.9 265.2C129 265.2 126.1 264.7 123.9 263.8L123.8 263.7Z" fill="#333333"/>
</g>
</svg>
