<svg width="1244" height="917" viewBox="0 0 1244 917" fill="none" xmlns="http://www.w3.org/2000/svg">
<g filter="url(#filter0_d_299_6059)">
<mask id="path-1-inside-1_299_6059" fill="white">
<path d="M100.6 104.71C100.6 100.292 104.182 96.7104 108.6 96.7104H1135.6C1140.02 96.7104 1143.6 100.292 1143.6 104.71V166.71H100.6V104.71Z"/>
</mask>
<path d="M100.6 104.71C100.6 100.292 104.182 96.7104 108.6 96.7104H1135.6C1140.02 96.7104 1143.6 100.292 1143.6 104.71V166.71H100.6V104.71Z" fill="white"/>
<path d="M100.6 96.7104H1143.6H100.6ZM1143.6 167.71H100.6V165.71H1143.6V167.71ZM100.6 166.71V96.7104V166.71ZM1143.6 96.7104V166.71V96.7104Z" fill="#D9D9D9" mask="url(#path-1-inside-1_299_6059)"/>
<path d="M126.9 131.79L127.3 134.17H127.4L127.84 131.77L130.76 123.71H133.88L128.22 137.81H126.1L120.4 123.71H123.84L126.9 131.79ZM135.466 127.21H138.266V137.71H135.466V127.21ZM135.046 124.95C135.046 124.524 135.199 124.17 135.506 123.89C135.813 123.597 136.246 123.45 136.806 123.45C137.379 123.45 137.833 123.597 138.166 123.89C138.499 124.184 138.666 124.537 138.666 124.95C138.666 125.337 138.499 125.67 138.166 125.95C137.833 126.23 137.379 126.37 136.806 126.37C136.246 126.37 135.813 126.23 135.506 125.95C135.199 125.67 135.046 125.337 135.046 124.95ZM151.034 134.03C151.034 134.59 151.04 135.17 151.054 135.77C151.067 136.37 151.127 137.024 151.234 137.73H149.294L148.894 136.27H148.634C148.327 136.804 147.887 137.23 147.314 137.55C146.754 137.857 146.08 138.01 145.294 138.01C143.894 138.01 142.807 137.577 142.034 136.71C141.26 135.83 140.874 134.477 140.874 132.65C140.874 131.77 140.98 130.977 141.194 130.27C141.42 129.564 141.747 128.964 142.174 128.47C142.614 127.977 143.154 127.597 143.794 127.33C144.434 127.064 145.174 126.93 146.014 126.93C146.48 126.93 146.88 126.97 147.214 127.05C147.56 127.117 147.9 127.204 148.234 127.31V123.71H151.034V134.03ZM146.014 135.67C146.64 135.67 147.127 135.53 147.474 135.25C147.82 134.957 148.074 134.544 148.234 134.01V129.81C147.994 129.624 147.734 129.49 147.454 129.41C147.187 129.317 146.834 129.27 146.394 129.27C145.5 129.27 144.834 129.53 144.394 130.05C143.967 130.57 143.754 131.464 143.754 132.73C143.754 133.61 143.934 134.324 144.294 134.87C144.667 135.404 145.24 135.67 146.014 135.67ZM163.012 136.75C162.559 137.097 161.939 137.397 161.152 137.65C160.379 137.89 159.546 138.01 158.652 138.01C156.852 138.01 155.532 137.517 154.692 136.53C153.852 135.544 153.432 134.19 153.432 132.47C153.432 130.644 153.906 129.264 154.852 128.33C155.799 127.384 157.132 126.91 158.852 126.91C159.412 126.91 159.966 126.984 160.512 127.13C161.059 127.264 161.546 127.497 161.972 127.83C162.399 128.15 162.739 128.59 162.992 129.15C163.259 129.697 163.392 130.377 163.392 131.19C163.392 131.47 163.372 131.777 163.332 132.11C163.306 132.444 163.252 132.79 163.172 133.15H156.172C156.239 134.057 156.499 134.73 156.952 135.17C157.419 135.597 158.172 135.81 159.212 135.81C159.839 135.81 160.399 135.724 160.892 135.55C161.399 135.364 161.786 135.177 162.052 134.99L163.012 136.75ZM158.812 129.11C157.986 129.11 157.372 129.337 156.972 129.79C156.572 130.23 156.339 130.797 156.272 131.49H160.792C160.846 130.757 160.712 130.177 160.392 129.75C160.072 129.324 159.546 129.11 158.812 129.11ZM165.19 132.47C165.19 130.737 165.65 129.377 166.57 128.39C167.49 127.404 168.803 126.91 170.51 126.91C171.403 126.91 172.183 127.05 172.85 127.33C173.517 127.61 174.07 128.004 174.51 128.51C174.95 129.004 175.277 129.59 175.49 130.27C175.717 130.937 175.83 131.67 175.83 132.47C175.83 133.324 175.71 134.097 175.47 134.79C175.23 135.47 174.883 136.05 174.43 136.53C173.977 137.01 173.417 137.377 172.75 137.63C172.097 137.884 171.35 138.01 170.51 138.01C169.603 138.01 168.817 137.87 168.15 137.59C167.483 137.31 166.93 136.924 166.49 136.43C166.05 135.924 165.723 135.337 165.51 134.67C165.297 133.99 165.19 133.257 165.19 132.47ZM168.07 132.47C168.07 132.91 168.117 133.324 168.21 133.71C168.303 134.097 168.443 134.437 168.63 134.73C168.83 135.01 169.083 135.237 169.39 135.41C169.697 135.584 170.07 135.67 170.51 135.67C172.137 135.67 172.95 134.604 172.95 132.47C172.95 132.004 172.903 131.577 172.81 131.19C172.73 130.79 172.59 130.45 172.39 130.17C172.203 129.877 171.95 129.65 171.63 129.49C171.323 129.33 170.95 129.25 170.51 129.25C169.75 129.25 169.15 129.504 168.71 130.01C168.283 130.517 168.07 131.337 168.07 132.47ZM193.5 126.31H189.06V137.71H186.1V126.31H181.66V123.71H193.5V126.31ZM195.525 127.21H198.325V137.71H195.525V127.21ZM195.105 124.95C195.105 124.524 195.258 124.17 195.565 123.89C195.871 123.597 196.305 123.45 196.865 123.45C197.438 123.45 197.891 123.597 198.225 123.89C198.558 124.184 198.725 124.537 198.725 124.95C198.725 125.337 198.558 125.67 198.225 125.95C197.891 126.23 197.438 126.37 196.865 126.37C196.305 126.37 195.871 126.23 195.565 125.95C195.258 125.67 195.105 125.337 195.105 124.95ZM200.252 127.21H201.852V125.77L204.652 125.03V127.21H207.472V129.55H204.652V133.19C204.652 134.03 204.732 134.637 204.892 135.01C205.066 135.37 205.399 135.55 205.892 135.55C206.199 135.55 206.459 135.53 206.672 135.49C206.886 135.437 207.112 135.357 207.352 135.25L207.932 137.35C207.506 137.537 207.012 137.697 206.452 137.83C205.906 137.964 205.372 138.03 204.852 138.03C203.812 138.03 203.052 137.777 202.572 137.27C202.092 136.75 201.852 135.924 201.852 134.79V129.55H200.252V127.21ZM212.478 134.03C212.478 135.044 212.805 135.55 213.458 135.55C213.645 135.55 213.818 135.537 213.978 135.51C214.152 135.47 214.352 135.41 214.578 135.33L214.918 137.51C214.652 137.63 214.272 137.744 213.778 137.85C213.298 137.97 212.798 138.03 212.278 138.03C211.438 138.03 210.792 137.844 210.338 137.47C209.898 137.097 209.678 136.484 209.678 135.63V123.71H212.478V134.03ZM225.337 136.75C224.883 137.097 224.263 137.397 223.477 137.65C222.703 137.89 221.87 138.01 220.977 138.01C219.177 138.01 217.857 137.517 217.017 136.53C216.177 135.544 215.757 134.19 215.757 132.47C215.757 130.644 216.23 129.264 217.177 128.33C218.123 127.384 219.457 126.91 221.177 126.91C221.737 126.91 222.29 126.984 222.837 127.13C223.383 127.264 223.87 127.497 224.297 127.83C224.723 128.15 225.063 128.59 225.317 129.15C225.583 129.697 225.717 130.377 225.717 131.19C225.717 131.47 225.697 131.777 225.657 132.11C225.63 132.444 225.577 132.79 225.497 133.15H218.497C218.563 134.057 218.823 134.73 219.277 135.17C219.743 135.597 220.497 135.81 221.537 135.81C222.163 135.81 222.723 135.724 223.217 135.55C223.723 135.364 224.11 135.177 224.377 134.99L225.337 136.75ZM221.137 129.11C220.31 129.11 219.697 129.337 219.297 129.79C218.897 130.23 218.663 130.797 218.597 131.49H223.117C223.17 130.757 223.037 130.177 222.717 129.75C222.397 129.324 221.87 129.11 221.137 129.11Z" fill="black"/>
<g clip-path="url(#clip0_299_6059)">
<path d="M1072.6 126.71L1062.6 136.71" stroke="black" stroke-width="1.5" stroke-linecap="round" stroke-linejoin="round"/>
<path d="M1062.6 126.71L1072.6 136.71" stroke="black" stroke-width="1.5" stroke-linecap="round" stroke-linejoin="round"/>
</g>
<path d="M1089.78 135.29C1089.47 135.514 1089.08 135.668 1088.6 135.752C1088.12 135.846 1087.62 135.892 1087.09 135.892C1086.46 135.892 1085.87 135.794 1085.3 135.598C1084.74 135.393 1084.24 135.085 1083.81 134.674C1083.38 134.254 1083.04 133.727 1082.79 133.092C1082.54 132.448 1082.41 131.688 1082.41 130.81C1082.41 129.896 1082.55 129.116 1082.83 128.472C1083.11 127.828 1083.48 127.306 1083.92 126.904C1084.37 126.494 1084.88 126.195 1085.44 126.008C1086 125.822 1086.55 125.728 1087.1 125.728C1087.72 125.728 1088.22 125.761 1088.61 125.826C1089.01 125.892 1089.34 125.976 1089.61 126.078L1089.3 127.282C1088.84 127.068 1088.15 126.96 1087.21 126.96C1086.79 126.96 1086.38 127.03 1085.98 127.17C1085.59 127.301 1085.24 127.52 1084.92 127.828C1084.61 128.127 1084.36 128.524 1084.18 129.018C1083.99 129.504 1083.9 130.101 1083.9 130.81C1083.9 131.445 1083.98 132.005 1084.16 132.49C1084.34 132.966 1084.58 133.368 1084.89 133.694C1085.21 134.012 1085.58 134.254 1086 134.422C1086.43 134.581 1086.89 134.66 1087.4 134.66C1087.85 134.66 1088.25 134.618 1088.59 134.534C1088.92 134.45 1089.21 134.343 1089.44 134.212L1089.78 135.29ZM1097.85 135.71H1091.44V125.91H1092.84V134.478H1097.85V135.71ZM1097.87 130.81C1097.87 130.008 1097.97 129.294 1098.16 128.668C1098.37 128.034 1098.66 127.502 1099.03 127.072C1099.41 126.634 1099.88 126.302 1100.42 126.078C1100.97 125.845 1101.59 125.728 1102.28 125.728C1103.02 125.728 1103.66 125.854 1104.21 126.106C1104.77 126.349 1105.23 126.694 1105.6 127.142C1105.97 127.581 1106.25 128.113 1106.42 128.738C1106.61 129.364 1106.7 130.054 1106.7 130.81C1106.7 131.613 1106.6 132.332 1106.39 132.966C1106.2 133.592 1105.91 134.124 1105.53 134.562C1105.14 134.992 1104.68 135.323 1104.13 135.556C1103.59 135.78 1102.97 135.892 1102.28 135.892C1101.53 135.892 1100.88 135.771 1100.33 135.528C1099.78 135.276 1099.32 134.931 1098.96 134.492C1098.6 134.044 1098.32 133.508 1098.13 132.882C1097.96 132.257 1097.87 131.566 1097.87 130.81ZM1099.35 130.81C1099.35 131.342 1099.41 131.842 1099.52 132.308C1099.64 132.775 1099.82 133.186 1100.05 133.54C1100.3 133.895 1100.6 134.175 1100.96 134.38C1101.34 134.586 1101.77 134.688 1102.28 134.688C1103.18 134.688 1103.9 134.376 1104.42 133.75C1104.95 133.125 1105.22 132.145 1105.22 130.81C1105.22 130.288 1105.16 129.793 1105.04 129.326C1104.92 128.86 1104.75 128.449 1104.5 128.094C1104.27 127.74 1103.97 127.46 1103.59 127.254C1103.23 127.04 1102.79 126.932 1102.28 126.932C1101.38 126.932 1100.67 127.25 1100.14 127.884C1099.61 128.519 1099.35 129.494 1099.35 130.81ZM1113.44 133.134C1113.44 132.752 1113.31 132.448 1113.06 132.224C1112.81 132 1112.49 131.809 1112.11 131.65C1111.72 131.482 1111.31 131.328 1110.88 131.188C1110.44 131.039 1110.03 130.852 1109.64 130.628C1109.26 130.404 1108.94 130.115 1108.69 129.76C1108.44 129.406 1108.31 128.944 1108.31 128.374C1108.31 127.581 1108.6 126.942 1109.18 126.456C1109.77 125.971 1110.6 125.728 1111.69 125.728C1112.31 125.728 1112.89 125.775 1113.41 125.868C1113.93 125.962 1114.34 126.083 1114.64 126.232L1114.21 127.408C1113.97 127.287 1113.62 127.18 1113.16 127.086C1112.69 126.984 1112.18 126.932 1111.62 126.932C1110.98 126.932 1110.51 127.068 1110.19 127.338C1109.87 127.609 1109.71 127.922 1109.71 128.276C1109.71 128.64 1109.84 128.934 1110.09 129.158C1110.34 129.382 1110.66 129.583 1111.04 129.76C1111.43 129.928 1111.84 130.092 1112.28 130.25C1112.71 130.409 1113.12 130.605 1113.51 130.838C1113.89 131.072 1114.21 131.361 1114.46 131.706C1114.71 132.042 1114.84 132.476 1114.84 133.008C1114.84 133.447 1114.75 133.844 1114.59 134.198C1114.42 134.553 1114.17 134.856 1113.86 135.108C1113.54 135.36 1113.16 135.556 1112.71 135.696C1112.26 135.827 1111.75 135.892 1111.18 135.892C1110.42 135.892 1109.77 135.832 1109.24 135.71C1108.71 135.598 1108.32 135.477 1108.05 135.346L1108.51 134.128C1108.74 134.25 1109.09 134.376 1109.56 134.506C1110.04 134.628 1110.56 134.688 1111.13 134.688C1111.45 134.688 1111.76 134.66 1112.04 134.604C1112.32 134.539 1112.56 134.446 1112.77 134.324C1112.98 134.194 1113.14 134.03 1113.26 133.834C1113.38 133.638 1113.44 133.405 1113.44 133.134ZM1116.62 125.91H1122.54V127.114H1118.02V130.096H1122.15V131.3H1118.02V134.506H1122.61V135.71H1116.62V125.91Z" fill="black"/>
<path d="M100.6 166.71H1143.6V804.71C1143.6 809.129 1140.02 812.71 1135.6 812.71H108.6C104.182 812.71 100.6 809.129 100.6 804.71V166.71Z" fill="white"/>
<path d="M1107.9 206.71H140.6V752.71H1107.9V206.71Z" fill="#262938"/>
<g opacity="0.2">
<path d="M624.119 563.71C670.511 563.71 708.119 526.102 708.119 479.71C708.119 433.319 670.511 395.71 624.119 395.71C577.727 395.71 540.119 433.319 540.119 479.71C540.119 526.102 577.727 563.71 624.119 563.71Z" fill="#4B516F"/>
</g>
<path d="M671.304 479.713L595.6 517.565V441.861L671.304 479.713Z" fill="#4B516F"/>
<path d="M1079.38 698.525H168.859V703.451H1079.38V698.525Z" fill="#4B516F"/>
<path d="M631.119 698.525H168.859V703.451H631.119V698.525Z" fill="#D41E46"/>
<path d="M637.859 701.12C637.859 705.008 634.748 708.12 630.859 708.12C626.971 708.12 623.859 705.008 623.859 701.12C623.859 697.231 626.971 694.12 630.859 694.12C634.748 694.12 637.859 697.231 637.859 701.12Z" fill="#EE1D53"/>
<path d="M696.711 698.525H688.674V703.451H696.711V698.525Z" fill="#FEBF10"/>
<path d="M1068.49 698.525H1060.45V703.451H1068.49V698.525Z" fill="#FEBF10"/>
<path d="M908.785 698.525H869.637V703.451H908.785V698.525Z" fill="#FEBF10"/>
<path d="M201.267 728.343L185.971 735.862V720.565L201.267 728.343Z" fill="white"/>
<path d="M232.119 728.347L220.971 733.792V722.644L232.119 728.347Z" fill="white"/>
<path d="M234.193 722.644H232.637V733.792H234.193V722.644Z" fill="white"/>
<path d="M253.637 728.34L265.304 719.525V736.895L253.637 728.34Z" fill="white"/>
<path d="M259.6 723.93H253.637V732.486H259.6V723.93Z" fill="white"/>
<path d="M266.859 720.042V721.857C269.711 722.635 271.785 725.228 271.785 728.339C271.785 731.45 269.711 734.043 266.859 734.82V736.635C270.748 735.857 273.6 732.487 273.6 728.339C273.6 724.191 270.748 720.82 266.859 720.042Z" fill="white"/>
<path d="M266.859 724.194V732.49C268.674 731.972 270.23 730.416 270.23 728.342C270.23 726.268 268.933 724.712 266.859 724.194Z" fill="white"/>
<path d="M325.97 726.271H277.748V730.16H325.97V726.271Z" fill="white"/>
<path d="M331.155 728.343C331.155 731.454 328.822 733.787 325.711 733.787C322.6 733.787 320.267 731.454 320.267 728.343C320.267 725.232 322.6 722.898 325.711 722.898C328.822 722.898 331.155 725.232 331.155 728.343Z" fill="white"/>
<path d="M354.609 714.278C353.967 714.278 353.42 714.104 352.969 713.754C352.517 713.402 352.172 712.892 351.933 712.225C351.695 711.554 351.575 710.744 351.575 709.796C351.575 708.852 351.695 708.047 351.933 707.379C352.175 706.709 352.521 706.198 352.973 705.845C353.428 705.49 353.973 705.313 354.609 705.313C355.246 705.313 355.79 705.49 356.241 705.845C356.696 706.198 357.043 706.709 357.281 707.379C357.523 708.047 357.643 708.852 357.643 709.796C357.643 710.744 357.524 711.554 357.286 712.225C357.047 712.892 356.702 713.402 356.25 713.754C355.798 714.104 355.251 714.278 354.609 714.278ZM354.609 713.341C355.246 713.341 355.74 713.034 356.092 712.421C356.445 711.807 356.621 710.932 356.621 709.796C356.621 709.04 356.54 708.396 356.378 707.865C356.219 707.334 355.989 706.929 355.688 706.651C355.389 706.372 355.03 706.233 354.609 706.233C353.979 706.233 353.486 706.544 353.131 707.166C352.776 707.786 352.598 708.662 352.598 709.796C352.598 710.551 352.678 711.193 352.837 711.722C352.996 712.25 353.224 712.652 353.523 712.928C353.824 713.203 354.186 713.341 354.609 713.341ZM360.013 713.043C359.803 713.043 359.622 712.967 359.472 712.817C359.321 712.666 359.246 712.486 359.246 712.276C359.246 712.065 359.321 711.885 359.472 711.734C359.622 711.584 359.803 711.509 360.013 711.509C360.223 711.509 360.403 711.584 360.554 711.734C360.705 711.885 360.78 712.065 360.78 712.276C360.78 712.415 360.744 712.543 360.673 712.659C360.605 712.776 360.513 712.869 360.396 712.94C360.283 713.009 360.155 713.043 360.013 713.043ZM360.013 708.628C359.803 708.628 359.622 708.553 359.472 708.402C359.321 708.252 359.246 708.071 359.246 707.861C359.246 707.651 359.321 707.47 359.472 707.32C359.622 707.169 359.803 707.094 360.013 707.094C360.223 707.094 360.403 707.169 360.554 707.32C360.705 707.47 360.78 707.651 360.78 707.861C360.78 708 360.744 708.128 360.673 708.244C360.605 708.361 360.513 708.455 360.396 708.526C360.283 708.594 360.155 708.628 360.013 708.628ZM365.295 714.278C364.795 714.278 364.344 714.179 363.944 713.98C363.543 713.781 363.222 713.509 362.981 713.162C362.739 712.815 362.607 712.421 362.585 711.977H363.607C363.647 712.372 363.826 712.699 364.144 712.957C364.465 713.213 364.849 713.341 365.295 713.341C365.653 713.341 365.971 713.257 366.249 713.09C366.531 712.922 366.751 712.692 366.91 712.399C367.072 712.104 367.153 711.77 367.153 711.398C367.153 711.017 367.069 710.678 366.901 710.379C366.737 710.078 366.509 709.841 366.219 709.668C365.93 709.494 365.599 709.406 365.227 709.403C364.96 709.401 364.685 709.442 364.404 709.527C364.123 709.609 363.891 709.716 363.71 709.847L362.721 709.727L363.249 705.432H367.783V706.369H364.136L363.829 708.943H363.88C364.059 708.801 364.283 708.683 364.553 708.59C364.823 708.496 365.104 708.449 365.397 708.449C365.931 708.449 366.407 708.577 366.825 708.832C367.245 709.085 367.575 709.432 367.813 709.872C368.055 710.313 368.175 710.815 368.175 711.381C368.175 711.938 368.05 712.435 367.8 712.872C367.553 713.307 367.212 713.651 366.778 713.903C366.343 714.153 365.849 714.278 365.295 714.278ZM372.715 714.278C372.073 714.278 371.526 714.104 371.074 713.754C370.623 713.402 370.277 712.892 370.039 712.225C369.8 711.554 369.681 710.744 369.681 709.796C369.681 708.852 369.8 708.047 370.039 707.379C370.28 706.709 370.627 706.198 371.078 705.845C371.533 705.49 372.078 705.313 372.715 705.313C373.351 705.313 373.895 705.49 374.347 705.845C374.801 706.198 375.148 706.709 375.387 707.379C375.628 708.047 375.749 708.852 375.749 709.796C375.749 710.744 375.63 711.554 375.391 712.225C375.152 712.892 374.807 713.402 374.355 713.754C373.904 714.104 373.357 714.278 372.715 714.278ZM372.715 713.341C373.351 713.341 373.846 713.034 374.198 712.421C374.55 711.807 374.726 710.932 374.726 709.796C374.726 709.04 374.645 708.396 374.483 707.865C374.324 707.334 374.094 706.929 373.793 706.651C373.495 706.372 373.135 706.233 372.715 706.233C372.084 706.233 371.591 706.544 371.236 707.166C370.881 707.786 370.703 708.662 370.703 709.796C370.703 710.551 370.783 711.193 370.942 711.722C371.101 712.25 371.33 712.652 371.628 712.928C371.929 713.203 372.292 713.341 372.715 713.341ZM383.846 705.023L381.033 715.472H380.113L382.925 705.023H383.846ZM388.396 714.159V713.392L391.276 710.239C391.614 709.869 391.893 709.548 392.112 709.276C392.33 709 392.492 708.742 392.597 708.5C392.705 708.256 392.759 708 392.759 707.733C392.759 707.426 392.685 707.161 392.538 706.936C392.393 706.712 392.194 706.538 391.941 706.416C391.688 706.294 391.404 706.233 391.089 706.233C390.754 706.233 390.461 706.303 390.211 706.442C389.964 706.578 389.772 706.77 389.636 707.017C389.502 707.264 389.435 707.554 389.435 707.886H388.43C388.43 707.375 388.548 706.926 388.783 706.54C389.019 706.153 389.34 705.852 389.746 705.636C390.156 705.421 390.614 705.313 391.123 705.313C391.634 705.313 392.087 705.421 392.482 705.636C392.877 705.852 393.187 706.144 393.411 706.51C393.636 706.877 393.748 707.284 393.748 707.733C393.748 708.054 393.69 708.368 393.573 708.675C393.46 708.979 393.261 709.318 392.977 709.693C392.695 710.065 392.305 710.52 391.805 711.057L389.844 713.153V713.222H393.901V714.159H388.396ZM396.411 713.043C396.201 713.043 396.021 712.967 395.87 712.817C395.719 712.666 395.644 712.486 395.644 712.276C395.644 712.065 395.719 711.885 395.87 711.734C396.021 711.584 396.201 711.509 396.411 711.509C396.621 711.509 396.802 711.584 396.952 711.734C397.103 711.885 397.178 712.065 397.178 712.276C397.178 712.415 397.143 712.543 397.072 712.659C397.004 712.776 396.911 712.869 396.795 712.94C396.681 713.009 396.553 713.043 396.411 713.043ZM396.411 708.628C396.201 708.628 396.021 708.553 395.87 708.402C395.719 708.252 395.644 708.071 395.644 707.861C395.644 707.651 395.719 707.47 395.87 707.32C396.021 707.169 396.201 707.094 396.411 707.094C396.621 707.094 396.802 707.169 396.952 707.32C397.103 707.47 397.178 707.651 397.178 707.861C397.178 708 397.143 708.128 397.072 708.244C397.004 708.361 396.911 708.455 396.795 708.526C396.681 708.594 396.553 708.628 396.411 708.628ZM401.693 714.278C401.193 714.278 400.743 714.179 400.342 713.98C399.942 713.781 399.621 713.509 399.379 713.162C399.138 712.815 399.006 712.421 398.983 711.977H400.006C400.045 712.372 400.224 712.699 400.543 712.957C400.864 713.213 401.247 713.341 401.693 713.341C402.051 713.341 402.369 713.257 402.648 713.09C402.929 712.922 403.149 712.692 403.308 712.399C403.47 712.104 403.551 711.77 403.551 711.398C403.551 711.017 403.467 710.678 403.3 710.379C403.135 710.078 402.908 709.841 402.618 709.668C402.328 709.494 401.997 709.406 401.625 709.403C401.358 709.401 401.084 709.442 400.803 709.527C400.521 709.609 400.29 709.716 400.108 709.847L399.119 709.727L399.648 705.432H404.182V706.369H400.534L400.227 708.943H400.278C400.457 708.801 400.682 708.683 400.952 708.59C401.222 708.496 401.503 708.449 401.795 708.449C402.33 708.449 402.805 708.577 403.223 708.832C403.643 709.085 403.973 709.432 404.212 709.872C404.453 710.313 404.574 710.815 404.574 711.381C404.574 711.938 404.449 712.435 404.199 712.872C403.952 713.307 403.611 713.651 403.176 713.903C402.741 714.153 402.247 714.278 401.693 714.278ZM409.113 714.278C408.471 714.278 407.924 714.104 407.473 713.754C407.021 713.402 406.676 712.892 406.437 712.225C406.199 711.554 406.079 710.744 406.079 709.796C406.079 708.852 406.199 708.047 406.437 707.379C406.679 706.709 407.025 706.198 407.477 705.845C407.931 705.49 408.477 705.313 409.113 705.313C409.75 705.313 410.294 705.49 410.745 705.845C411.2 706.198 411.547 706.709 411.785 707.379C412.027 708.047 412.147 708.852 412.147 709.796C412.147 710.744 412.028 711.554 411.789 712.225C411.551 712.892 411.206 713.402 410.754 713.754C410.302 714.104 409.755 714.278 409.113 714.278ZM409.113 713.341C409.75 713.341 410.244 713.034 410.596 712.421C410.949 711.807 411.125 710.932 411.125 709.796C411.125 709.04 411.044 708.396 410.882 707.865C410.723 707.334 410.493 706.929 410.191 706.651C409.893 706.372 409.534 706.233 409.113 706.233C408.483 706.233 407.99 706.544 407.635 707.166C407.279 707.786 407.102 708.662 407.102 709.796C407.102 710.551 407.181 711.193 407.341 711.722C407.5 712.25 407.728 712.652 408.027 712.928C408.328 713.203 408.69 713.341 409.113 713.341Z" fill="white"/>
<path d="M877.934 719.786H860.823C859.526 719.786 858.489 720.823 858.489 722.12V734.305C858.489 735.601 859.526 736.638 860.823 736.638H877.934C879.23 736.638 880.267 735.601 880.267 734.305V722.12C880.267 720.823 879.23 719.786 877.934 719.786ZM866.526 727.305H877.674V729.119H866.526V727.305ZM860.563 729.119V727.305H863.934V729.119H860.563ZM871.971 733.268H860.823V731.453H871.971V733.268ZM877.934 733.268H874.563V731.453H877.934V733.268Z" fill="white"/>
<path d="M990.193 735.86H968.415C967.896 735.86 967.378 735.341 967.378 734.823V721.86C967.378 721.341 967.896 720.823 968.415 720.823H990.193C990.711 720.823 991.23 721.341 991.23 721.86V734.823C991.23 735.341 990.711 735.86 990.193 735.86ZM969.452 733.786H989.156V722.897H969.452V733.786Z" fill="white"/>
<path d="M910.86 725.487L908.267 721.857L905.415 723.412V720.042H900.749V723.412C900.489 723.412 897.638 721.857 897.638 721.857L895.045 725.487L898.415 728.338L895.045 731.19L897.638 734.82L900.489 733.264V736.635H905.156V733.264C905.415 733.264 908.267 734.82 908.267 734.82L910.86 731.19L907.489 728.338L910.86 725.487ZM903.082 731.449C901.267 731.449 899.971 730.153 899.971 728.338C899.971 726.524 901.267 725.227 903.082 725.227C904.897 725.227 906.193 726.524 906.193 728.338C906.193 730.153 904.897 731.449 903.082 731.449Z" fill="white"/>
<path d="M914.23 720.306H904.119V727.306H914.23V720.306Z" fill="#EE1D53"/>
<path d="M906.731 706.897V698.17H907.788V702.056H912.441V698.17H913.498V706.897H912.441V702.994H907.788V706.897H906.731ZM918.307 706.897H915.614V698.17H918.426C919.273 698.17 919.997 698.344 920.6 698.694C921.202 699.04 921.664 699.539 921.985 700.19C922.306 700.837 922.466 701.613 922.466 702.516C922.466 703.425 922.304 704.208 921.98 704.864C921.657 705.518 921.185 706.021 920.566 706.373C919.946 706.722 919.193 706.897 918.307 706.897ZM916.671 705.959H918.239C918.961 705.959 919.559 705.82 920.033 705.542C920.507 705.263 920.861 704.867 921.094 704.353C921.327 703.839 921.443 703.227 921.443 702.516C921.443 701.812 921.328 701.205 921.098 700.697C920.868 700.185 920.524 699.793 920.067 699.521C919.61 699.245 919.04 699.107 918.358 699.107H916.671V705.959Z" fill="white"/>
<path d="M949.23 737.414H932.119C930.563 737.414 929.267 736.118 929.267 734.562V722.377C929.267 720.822 930.563 719.525 932.119 719.525H949.23C950.786 719.525 952.082 720.822 952.082 722.377V734.562C952.082 736.118 950.786 737.414 949.23 737.414ZM932.119 720.562C931.341 720.562 930.563 721.34 930.563 722.118V734.303C930.563 735.081 931.341 735.859 932.119 735.859H949.23C950.008 735.859 950.786 735.081 950.786 734.303V722.118C950.786 721.34 950.008 720.562 949.23 720.562H932.119Z" fill="white"/>
<path d="M948.193 728.342H942.489C941.971 728.342 941.711 728.601 941.711 729.12V733.268C941.711 733.786 941.971 734.046 942.489 734.046H948.193C948.711 734.046 948.971 733.786 948.971 733.268V729.12C948.971 728.601 948.711 728.342 948.193 728.342Z" fill="white"/>
<path d="M1026.49 737.414H1022.34V736.118H1026.49C1027.27 736.118 1028.04 735.34 1028.04 734.562V722.377C1028.04 721.599 1027.27 720.822 1026.49 720.822H1009.38C1008.6 720.822 1007.82 721.599 1007.82 722.377H1006.53C1006.53 720.822 1007.82 719.525 1009.38 719.525H1026.49C1028.04 719.525 1029.34 720.822 1029.34 722.377V734.562C1029.34 736.118 1028.04 737.414 1026.49 737.414Z" fill="white"/>
<path d="M1017.67 737.154H1019.75C1019.75 729.636 1013.79 723.673 1006.27 723.673V725.747C1012.49 725.747 1017.67 730.932 1017.67 737.154Z" fill="white"/>
<path d="M1006.27 728.078V730.152C1010.16 730.152 1013.27 733.263 1013.27 737.152H1015.34C1015.34 732.226 1011.45 728.337 1006.53 728.337L1006.27 728.078Z" fill="white"/>
<path d="M1009.9 737.152C1009.9 735.078 1008.08 733.263 1006.01 733.263V737.152H1009.9Z" fill="white"/>
<path d="M1045.42 727.044C1044.9 727.044 1044.38 726.525 1044.38 726.007V719.785C1044.38 719.266 1044.9 718.748 1045.42 718.748H1051.64C1052.16 718.748 1052.67 719.266 1052.67 719.785C1052.67 720.303 1052.16 720.822 1051.64 720.822H1046.45V726.007C1046.45 726.525 1045.93 727.044 1045.42 727.044Z" fill="white"/>
<path d="M1061.49 727.044C1060.97 727.044 1060.45 726.525 1060.45 726.007V720.822H1055.27C1054.75 720.822 1054.23 720.303 1054.23 719.785C1054.23 719.266 1054.75 718.748 1055.27 718.748H1061.49C1062.01 718.748 1062.53 719.266 1062.53 719.785V726.007C1062.53 726.525 1062.01 727.044 1061.49 727.044Z" fill="white"/>
<path d="M1061.49 737.674H1055.27C1054.75 737.674 1054.23 737.156 1054.23 736.637C1054.23 736.119 1054.75 735.6 1055.27 735.6H1060.45V730.415C1060.45 729.896 1060.97 729.378 1061.49 729.378C1062.01 729.378 1062.53 729.896 1062.53 730.415V736.637C1062.53 737.156 1062.01 737.674 1061.49 737.674Z" fill="white"/>
<path d="M1051.64 737.674H1045.42C1044.9 737.674 1044.38 737.156 1044.38 736.637V730.415C1044.38 729.896 1044.9 729.378 1045.42 729.378C1045.93 729.378 1046.45 729.896 1046.45 730.415V735.6H1051.64C1052.16 735.6 1052.67 736.119 1052.67 736.637C1052.67 737.156 1052.16 737.674 1051.64 737.674Z" fill="white"/>
</g>
<defs>
<filter id="filter0_d_299_6059" x="0.600098" y="0.710449" width="1243" height="916" filterUnits="userSpaceOnUse" color-interpolation-filters="sRGB">
<feFlood flood-opacity="0" result="BackgroundImageFix"/>
<feColorMatrix in="SourceAlpha" type="matrix" values="0 0 0 0 0 0 0 0 0 0 0 0 0 0 0 0 0 0 127 0" result="hardAlpha"/>
<feOffset dy="4"/>
<feGaussianBlur stdDeviation="50"/>
<feComposite in2="hardAlpha" operator="out"/>
<feColorMatrix type="matrix" values="0 0 0 0 0 0 0 0 0 0 0 0 0 0 0 0 0 0 0.7 0"/>
<feBlend mode="normal" in2="BackgroundImageFix" result="effect1_dropShadow_299_6059"/>
<feBlend mode="normal" in="SourceGraphic" in2="effect1_dropShadow_299_6059" result="shape"/>
</filter>
<clipPath id="clip0_299_6059">
<rect width="20" height="20" fill="white" transform="translate(1057.6 121.71)"/>
</clipPath>
</defs>
</svg>
