<svg width="270" height="47" viewBox="0 0 270 47" fill="none" xmlns="http://www.w3.org/2000/svg">
<rect x="0.75" y="0.75" width="268.5" height="45.5" rx="22.75" stroke="white" stroke-width="1.5"/>
<g clip-path="url(#clip0_41_1541)">
<path d="M54.1667 13.8333L51.75 16.2499" stroke="white" stroke-width="2" stroke-linecap="round" stroke-linejoin="round"/>
<path d="M56.5833 21.6874L53.5625 21.0833" stroke="white" stroke-width="2" stroke-linecap="round" stroke-linejoin="round"/>
<path d="M46.3125 11.4167L46.9167 14.4376" stroke="white" stroke-width="2" stroke-linecap="round" stroke-linejoin="round"/>
<path d="M36.0417 13.8333H40.875L43.2917 19.8749L40.2708 21.6874C41.5649 24.3114 43.6886 26.435 46.3125 27.7291L48.125 24.7083L54.1667 27.1249V31.9583C54.1667 32.5992 53.9121 33.2139 53.4588 33.6671C53.0056 34.1203 52.3909 34.3749 51.75 34.3749C41.9963 33.7828 34.2171 26.0036 33.625 16.2499C33.625 15.609 33.8796 14.9943 34.3328 14.5411C34.786 14.0879 35.4007 13.8333 36.0417 13.8333Z" stroke="white" stroke-width="2" stroke-linecap="round" stroke-linejoin="round"/>
</g>
<path d="M74.074 26.044C74.074 25.672 73.918 25.378 73.606 25.162C73.294 24.946 72.904 24.748 72.436 24.568C71.98 24.388 71.482 24.208 70.942 24.028C70.402 23.848 69.898 23.608 69.43 23.308C68.974 23.008 68.59 22.63 68.278 22.174C67.966 21.718 67.81 21.124 67.81 20.392C67.81 19.768 67.918 19.222 68.134 18.754C68.362 18.274 68.674 17.884 69.07 17.584C69.478 17.272 69.964 17.038 70.528 16.882C71.104 16.726 71.734 16.648 72.418 16.648C73.21 16.648 73.96 16.72 74.668 16.864C75.388 16.996 75.976 17.188 76.432 17.44L75.586 19.672C75.442 19.588 75.256 19.504 75.028 19.42C74.812 19.324 74.56 19.246 74.272 19.186C73.984 19.114 73.678 19.06 73.354 19.024C73.03 18.976 72.7 18.952 72.364 18.952C71.764 18.952 71.296 19.06 70.96 19.276C70.636 19.48 70.474 19.768 70.474 20.14C70.474 20.512 70.63 20.812 70.942 21.04C71.254 21.256 71.638 21.46 72.094 21.652C72.562 21.832 73.066 22.018 73.606 22.21C74.146 22.39 74.644 22.63 75.1 22.93C75.568 23.218 75.958 23.584 76.27 24.028C76.582 24.472 76.738 25.042 76.738 25.738C76.738 26.434 76.618 27.034 76.378 27.538C76.138 28.042 75.796 28.462 75.352 28.798C74.92 29.122 74.398 29.362 73.786 29.518C73.174 29.674 72.502 29.752 71.77 29.752C71.278 29.752 70.81 29.722 70.366 29.662C69.934 29.614 69.532 29.554 69.16 29.482C68.788 29.398 68.458 29.314 68.17 29.23C67.894 29.134 67.672 29.044 67.504 28.96L68.386 26.71C68.518 26.782 68.698 26.86 68.926 26.944C69.166 27.028 69.43 27.112 69.718 27.196C70.006 27.268 70.312 27.328 70.636 27.376C70.972 27.424 71.308 27.448 71.644 27.448C72.436 27.448 73.036 27.334 73.444 27.106C73.864 26.878 74.074 26.524 74.074 26.044ZM81.1695 20.05V25.288C81.1695 26.068 81.2775 26.638 81.4935 26.998C81.7095 27.358 82.1235 27.538 82.7355 27.538C83.2635 27.538 83.7075 27.4 84.0675 27.124C84.4275 26.848 84.6915 26.5 84.8595 26.08V20.05H87.3795V26.62C87.3795 27.124 87.4035 27.628 87.4515 28.132C87.5115 28.636 87.5895 29.092 87.6855 29.5H85.8315L85.3455 28.024H85.1475C84.8355 28.528 84.3915 28.948 83.8155 29.284C83.2395 29.608 82.5795 29.77 81.8355 29.77C81.3195 29.77 80.8635 29.704 80.4675 29.572C80.0715 29.44 79.7355 29.224 79.4595 28.924C79.1955 28.612 78.9915 28.204 78.8475 27.7C78.7155 27.196 78.6495 26.572 78.6495 25.828V20.05H81.1695ZM90.1983 20.05H91.9983L92.3043 21.22H92.5203C92.8923 20.74 93.3243 20.38 93.8163 20.14C94.3083 19.9 94.8843 19.78 95.5443 19.78C96.8163 19.78 97.7703 20.164 98.4063 20.932C99.0423 21.688 99.3603 22.894 99.3603 24.55C99.3603 25.342 99.2583 26.062 99.0543 26.71C98.8503 27.346 98.5503 27.898 98.1543 28.366C97.7583 28.822 97.2663 29.176 96.6783 29.428C96.1023 29.668 95.4363 29.788 94.6803 29.788C94.2723 29.788 93.9183 29.746 93.6183 29.662C93.3183 29.59 93.0183 29.488 92.7183 29.356V33.082H90.1983V20.05ZM94.7703 21.886C94.1943 21.886 93.7503 22.018 93.4383 22.282C93.1263 22.534 92.8863 22.93 92.7183 23.47V27.142C92.9223 27.31 93.1503 27.442 93.4023 27.538C93.6543 27.634 93.9723 27.682 94.3563 27.682C95.1723 27.682 95.7783 27.43 96.1743 26.926C96.5703 26.41 96.7683 25.594 96.7683 24.478C96.7683 23.674 96.6123 23.044 96.3003 22.588C96.0003 22.12 95.4903 21.886 94.7703 21.886ZM101.413 20.05H103.213L103.519 21.22H103.735C104.107 20.74 104.539 20.38 105.031 20.14C105.523 19.9 106.099 19.78 106.759 19.78C108.031 19.78 108.985 20.164 109.621 20.932C110.257 21.688 110.575 22.894 110.575 24.55C110.575 25.342 110.473 26.062 110.269 26.71C110.065 27.346 109.765 27.898 109.369 28.366C108.973 28.822 108.481 29.176 107.893 29.428C107.317 29.668 106.651 29.788 105.895 29.788C105.487 29.788 105.133 29.746 104.833 29.662C104.533 29.59 104.233 29.488 103.933 29.356V33.082H101.413V20.05ZM105.985 21.886C105.409 21.886 104.965 22.018 104.653 22.282C104.341 22.534 104.101 22.93 103.933 23.47V27.142C104.137 27.31 104.365 27.442 104.617 27.538C104.869 27.634 105.187 27.682 105.571 27.682C106.387 27.682 106.993 27.43 107.389 26.926C107.785 26.41 107.983 25.594 107.983 24.478C107.983 23.674 107.827 23.044 107.515 22.588C107.215 22.12 106.705 21.886 105.985 21.886ZM112.088 24.784C112.088 23.224 112.502 22 113.33 21.112C114.158 20.224 115.34 19.78 116.876 19.78C117.68 19.78 118.382 19.906 118.982 20.158C119.582 20.41 120.08 20.764 120.476 21.22C120.872 21.664 121.166 22.192 121.358 22.804C121.562 23.404 121.664 24.064 121.664 24.784C121.664 25.552 121.556 26.248 121.34 26.872C121.124 27.484 120.812 28.006 120.404 28.438C119.996 28.87 119.492 29.2 118.892 29.428C118.304 29.656 117.632 29.77 116.876 29.77C116.06 29.77 115.352 29.644 114.752 29.392C114.152 29.14 113.654 28.792 113.258 28.348C112.862 27.892 112.568 27.364 112.376 26.764C112.184 26.152 112.088 25.492 112.088 24.784ZM114.68 24.784C114.68 25.18 114.722 25.552 114.806 25.9C114.89 26.248 115.016 26.554 115.184 26.818C115.364 27.07 115.592 27.274 115.868 27.43C116.144 27.586 116.48 27.664 116.876 27.664C118.34 27.664 119.072 26.704 119.072 24.784C119.072 24.364 119.03 23.98 118.946 23.632C118.874 23.272 118.748 22.966 118.568 22.714C118.4 22.45 118.172 22.246 117.884 22.102C117.608 21.958 117.272 21.886 116.876 21.886C116.192 21.886 115.652 22.114 115.256 22.57C114.872 23.026 114.68 23.764 114.68 24.784ZM129.3 22.354C128.94 22.234 128.58 22.174 128.22 22.174C127.692 22.174 127.254 22.3 126.906 22.552C126.57 22.804 126.348 23.122 126.24 23.506V29.5H123.72V20.05H125.7L125.97 21.364H126.204C126.444 20.872 126.762 20.494 127.158 20.23C127.566 19.966 128.028 19.834 128.544 19.834C128.868 19.834 129.24 19.9 129.66 20.032L129.3 22.354ZM130.513 20.05H131.953V18.754L134.473 18.088V20.05H137.011V22.156H134.473V25.432C134.473 26.188 134.545 26.734 134.689 27.07C134.845 27.394 135.145 27.556 135.589 27.556C135.865 27.556 136.099 27.538 136.291 27.502C136.483 27.454 136.687 27.382 136.903 27.286L137.425 29.176C137.041 29.344 136.597 29.488 136.093 29.608C135.601 29.728 135.121 29.788 134.653 29.788C133.717 29.788 133.033 29.56 132.601 29.104C132.169 28.636 131.953 27.892 131.953 26.872V22.156H130.513V20.05ZM139.482 21.832C139.482 21.388 139.626 21.04 139.914 20.788C140.202 20.536 140.58 20.41 141.048 20.41C141.528 20.41 141.912 20.536 142.2 20.788C142.488 21.04 142.632 21.388 142.632 21.832C142.632 22.252 142.488 22.594 142.2 22.858C141.912 23.122 141.528 23.254 141.048 23.254C140.58 23.254 140.202 23.122 139.914 22.858C139.626 22.594 139.482 22.252 139.482 21.832ZM139.482 28.276C139.482 27.832 139.626 27.484 139.914 27.232C140.202 26.98 140.58 26.854 141.048 26.854C141.528 26.854 141.912 26.98 142.2 27.232C142.488 27.484 142.632 27.832 142.632 28.276C142.632 28.696 142.488 29.038 142.2 29.302C141.912 29.566 141.528 29.698 141.048 29.698C140.58 29.698 140.202 29.566 139.914 29.302C139.626 29.038 139.482 28.696 139.482 28.276Z" fill="white"/>
<path d="M165.846 22.354H169.014V19.114H171.246V22.354H174.414V24.514H171.246V27.772H169.014V24.514H165.846V22.354ZM184.338 20.014C184.338 20.614 184.218 21.22 183.978 21.832C183.738 22.444 183.432 23.044 183.06 23.632C182.7 24.208 182.292 24.772 181.836 25.324C181.392 25.876 180.954 26.386 180.522 26.854L179.496 27.592V27.682L180.882 27.394H184.608V29.5H176.382V28.24C176.694 27.928 177.042 27.58 177.426 27.196C177.822 26.8 178.218 26.38 178.614 25.936C179.01 25.492 179.394 25.036 179.766 24.568C180.15 24.088 180.486 23.614 180.774 23.146C181.062 22.678 181.296 22.222 181.476 21.778C181.656 21.322 181.746 20.902 181.746 20.518C181.746 20.062 181.608 19.678 181.332 19.366C181.056 19.042 180.582 18.88 179.91 18.88C179.49 18.88 179.064 18.97 178.632 19.15C178.2 19.318 177.828 19.54 177.516 19.816L176.472 18.016C176.988 17.632 177.564 17.308 178.2 17.044C178.836 16.78 179.598 16.648 180.486 16.648C181.038 16.648 181.548 16.72 182.016 16.864C182.496 17.008 182.904 17.218 183.24 17.494C183.588 17.77 183.858 18.124 184.05 18.556C184.242 18.976 184.338 19.462 184.338 20.014ZM189.986 27.52C190.85 27.52 191.51 27.352 191.966 27.016C192.434 26.668 192.668 26.17 192.668 25.522C192.668 24.826 192.398 24.316 191.858 23.992C191.318 23.668 190.55 23.506 189.554 23.506L187.988 23.578V16.9H194.72V19.24H190.184V21.472L190.994 21.4C191.63 21.424 192.206 21.538 192.722 21.742C193.238 21.934 193.676 22.204 194.036 22.552C194.408 22.9 194.69 23.32 194.882 23.812C195.086 24.304 195.188 24.85 195.188 25.45C195.188 26.158 195.056 26.782 194.792 27.322C194.528 27.862 194.162 28.312 193.694 28.672C193.238 29.032 192.692 29.302 192.056 29.482C191.432 29.662 190.754 29.752 190.022 29.752C189.434 29.752 188.87 29.704 188.33 29.608C187.802 29.512 187.358 29.386 186.998 29.23L187.682 27.142C187.982 27.25 188.306 27.34 188.654 27.412C189.014 27.484 189.458 27.52 189.986 27.52ZM198.263 27.394H200.963V20.464L201.269 19.222L200.333 20.302L198.569 21.454L197.561 19.978L201.971 16.684H203.393V27.394H206.039V29.5H198.263V27.394ZM207.782 20.86C207.782 20.248 207.884 19.69 208.088 19.186C208.292 18.67 208.586 18.226 208.97 17.854C209.354 17.47 209.822 17.176 210.374 16.972C210.926 16.756 211.556 16.648 212.264 16.648C213.752 16.648 214.916 17.062 215.756 17.89C216.596 18.706 217.016 19.882 217.016 21.418C217.016 22.81 216.824 24.016 216.44 25.036C216.056 26.056 215.54 26.908 214.892 27.592C214.244 28.264 213.494 28.78 212.642 29.14C211.802 29.488 210.914 29.692 209.978 29.752L209.438 27.826C210.158 27.742 210.794 27.586 211.346 27.358C211.91 27.13 212.39 26.842 212.786 26.494C213.194 26.146 213.524 25.756 213.776 25.324C214.04 24.88 214.226 24.412 214.334 23.92C214.022 24.232 213.68 24.448 213.308 24.568C212.948 24.688 212.468 24.748 211.868 24.748C211.364 24.748 210.866 24.67 210.374 24.514C209.894 24.358 209.462 24.118 209.078 23.794C208.694 23.47 208.382 23.068 208.142 22.588C207.902 22.096 207.782 21.52 207.782 20.86ZM210.23 20.734C210.23 21.394 210.44 21.892 210.86 22.228C211.292 22.564 211.82 22.732 212.444 22.732C212.984 22.732 213.422 22.654 213.758 22.498C214.094 22.33 214.358 22.138 214.55 21.922C214.562 21.79 214.574 21.67 214.586 21.562C214.598 21.454 214.604 21.352 214.604 21.256C214.604 20.944 214.556 20.632 214.46 20.32C214.376 20.008 214.238 19.732 214.046 19.492C213.854 19.24 213.608 19.042 213.308 18.898C213.008 18.742 212.654 18.664 212.246 18.664C211.61 18.664 211.112 18.85 210.752 19.222C210.404 19.582 210.23 20.086 210.23 20.734ZM221.891 27.52C222.755 27.52 223.415 27.352 223.871 27.016C224.339 26.668 224.573 26.17 224.573 25.522C224.573 24.826 224.303 24.316 223.763 23.992C223.223 23.668 222.455 23.506 221.459 23.506L219.893 23.578V16.9H226.625V19.24H222.089V21.472L222.899 21.4C223.535 21.424 224.111 21.538 224.627 21.742C225.143 21.934 225.581 22.204 225.941 22.552C226.313 22.9 226.595 23.32 226.787 23.812C226.991 24.304 227.093 24.85 227.093 25.45C227.093 26.158 226.961 26.782 226.697 27.322C226.433 27.862 226.067 28.312 225.599 28.672C225.143 29.032 224.597 29.302 223.961 29.482C223.337 29.662 222.659 29.752 221.927 29.752C221.339 29.752 220.775 29.704 220.235 29.608C219.707 29.512 219.263 29.386 218.903 29.23L219.587 27.142C219.887 27.25 220.211 27.34 220.559 27.412C220.919 27.484 221.363 27.52 221.891 27.52ZM230.167 27.394H232.867V20.464L233.173 19.222L232.237 20.302L230.473 21.454L229.465 19.978L233.875 16.684H235.297V27.394H237.943V29.5H230.167V27.394Z" fill="white"/>
<defs>
<clipPath id="clip0_41_1541">
<rect width="29" height="29" fill="white" transform="translate(30 9)"/>
</clipPath>
</defs>
</svg>
