<svg width="120" height="41" viewBox="0 0 120 41" fill="none" xmlns="http://www.w3.org/2000/svg">
<rect x="0.5" y="0.640625" width="119" height="39" rx="5.5" fill="white"/>
<rect x="0.5" y="0.640625" width="119" height="39" rx="5.5" stroke="black"/>
<path d="M24.7045 20.9036C24.7166 19.9837 24.9669 19.0817 25.4321 18.2816C25.8972 17.4816 26.5621 16.8093 27.3648 16.3275C26.8548 15.6164 26.1821 15.0313 25.4 14.6185C24.6178 14.2057 23.7479 13.9766 22.8592 13.9495C20.9635 13.7552 19.1258 15.0569 18.1598 15.0569C17.1751 15.0569 15.6878 13.9687 14.0862 14.0009C13.0502 14.0336 12.0406 14.3277 11.1557 14.8546C10.2708 15.3815 9.54075 16.1231 9.03674 17.0074C6.85352 20.6978 8.48201 26.1214 10.5734 29.1045C11.6197 30.5652 12.8426 32.1968 14.4428 32.139C16.0086 32.0756 16.5934 31.1642 18.4835 31.1642C20.3561 31.1642 20.9048 32.139 22.5374 32.1022C24.2176 32.0756 25.2762 30.635 26.2859 29.1604C27.0377 28.1196 27.6162 26.9693 28 25.7521C27.0238 25.349 26.1908 24.6743 25.6048 23.8121C25.0187 22.9499 24.7056 21.9384 24.7045 20.9036Z" fill="black"/>
<path d="M21.6208 11.9878C22.5369 10.9141 22.9883 9.53398 22.879 8.14062C21.4793 8.28414 20.1865 8.93722 19.258 9.96973C18.804 10.4741 18.4563 11.061 18.2348 11.6966C18.0132 12.3323 17.9222 13.0044 17.9669 13.6744C18.6669 13.6815 19.3595 13.5333 19.9924 13.2412C20.6253 12.949 21.1821 12.5204 21.6208 11.9878Z" fill="black"/>
<path d="M36.791 8.64209H38.8608C40.6494 8.64209 41.5195 9.70557 41.5195 11.6348C41.5195 13.564 40.6406 14.6406 38.8608 14.6406H36.791V8.64209ZM37.7886 9.48145V13.8013H38.751C39.9375 13.8013 40.4956 13.085 40.4956 11.6479C40.4956 10.2021 39.9331 9.48145 38.751 9.48145H37.7886ZM44.6748 9.9165C45.8877 9.9165 46.7358 10.7031 46.7358 12.0083V12.6104C46.7358 13.9595 45.8877 14.7197 44.6748 14.7197C43.4443 14.7197 42.605 13.9683 42.605 12.6147V12.0127C42.605 10.7427 43.4575 9.9165 44.6748 9.9165ZM44.6792 10.7031C43.9849 10.7031 43.5894 11.2832 43.5894 12.061V12.5796C43.5894 13.3574 43.9585 13.9331 44.6792 13.9331C45.3911 13.9331 45.7559 13.3618 45.7559 12.5796V12.061C45.7559 11.2832 45.3735 10.7031 44.6792 10.7031ZM53.8989 9.99561L52.6772 14.6406H51.6841L50.7129 11.2129H50.6865L49.7329 14.6406H48.7354L47.4609 9.99561H48.5112L49.2583 13.5376H49.3022L50.2383 9.99561H51.1567L52.1191 13.5376H52.1631L52.9233 9.99561H53.8989ZM54.8657 14.6406V9.99561H55.8237V10.8306H55.8721C55.9907 10.4658 56.3291 9.92529 57.2695 9.92529C58.2056 9.92529 58.834 10.4438 58.834 11.5029V14.6406H57.8584V11.7886C57.8584 11.0811 57.4893 10.7559 56.9399 10.7559C56.2192 10.7559 55.8413 11.3096 55.8413 12.061V14.6406H54.8657ZM60.3105 14.6406V8.32568H61.2861V14.6406H60.3105ZM64.6348 9.9165C65.8477 9.9165 66.6958 10.7031 66.6958 12.0083V12.6104C66.6958 13.9595 65.8477 14.7197 64.6348 14.7197C63.4043 14.7197 62.5649 13.9683 62.5649 12.6147V12.0127C62.5649 10.7427 63.4175 9.9165 64.6348 9.9165ZM64.6392 10.7031C63.9448 10.7031 63.5493 11.2832 63.5493 12.061V12.5796C63.5493 13.3574 63.9185 13.9331 64.6392 13.9331C65.3511 13.9331 65.7158 13.3618 65.7158 12.5796V12.061C65.7158 11.2832 65.3335 10.7031 64.6392 10.7031ZM69.2227 14.7109C68.3218 14.7109 67.7021 14.1572 67.7021 13.2915C67.7021 12.4697 68.2734 11.916 69.3457 11.916H70.519V11.481C70.519 10.9492 70.1807 10.6987 69.6445 10.6987C69.1172 10.6987 68.8799 10.9185 68.8052 11.2261H67.8779C67.9351 10.4482 68.5195 9.92529 69.6753 9.92529C70.6685 9.92529 71.4902 10.3384 71.4902 11.4941V14.6406H70.563V14.0386H70.519C70.3125 14.3945 69.9082 14.7109 69.2227 14.7109ZM69.5259 13.9551C70.0796 13.9551 70.519 13.5771 70.519 13.0718V12.5708H69.4995C68.9326 12.5708 68.6821 12.8564 68.6821 13.2432C68.6821 13.7266 69.0864 13.9551 69.5259 13.9551ZM74.4961 9.93408C75.1509 9.93408 75.6519 10.2241 75.832 10.6943H75.8804V8.32568H76.856V14.6406H75.9067V13.8979H75.8584C75.7178 14.3682 75.1597 14.7021 74.4829 14.7021C73.415 14.7021 72.7207 13.9419 72.7207 12.7158V11.9204C72.7207 10.6943 73.4282 9.93408 74.4961 9.93408ZM74.7686 10.7339C74.1182 10.7339 73.7139 11.2173 73.7139 12.061V12.5708C73.7139 13.4189 74.1226 13.9023 74.7905 13.9023C75.4497 13.9023 75.8804 13.4233 75.8804 12.6323V11.9292C75.8804 11.2129 75.4102 10.7339 74.7686 10.7339ZM82.2129 9.9165C83.4258 9.9165 84.2739 10.7031 84.2739 12.0083V12.6104C84.2739 13.9595 83.4258 14.7197 82.2129 14.7197C80.9824 14.7197 80.1431 13.9683 80.1431 12.6147V12.0127C80.1431 10.7427 80.9956 9.9165 82.2129 9.9165ZM82.2173 10.7031C81.5229 10.7031 81.1274 11.2832 81.1274 12.061V12.5796C81.1274 13.3574 81.4966 13.9331 82.2173 13.9331C82.9292 13.9331 83.2939 13.3618 83.2939 12.5796V12.061C83.2939 11.2832 82.9116 10.7031 82.2173 10.7031ZM85.5308 14.6406V9.99561H86.4888V10.8306H86.5371C86.6558 10.4658 86.9941 9.92529 87.9346 9.92529C88.8706 9.92529 89.499 10.4438 89.499 11.5029V14.6406H88.5234V11.7886C88.5234 11.0811 88.1543 10.7559 87.605 10.7559C86.8843 10.7559 86.5063 11.3096 86.5063 12.061V14.6406H85.5308ZM93.2739 10.0264V8.86621H94.2275V10.0264H95.269V10.791H94.2275V13.2563C94.2275 13.7617 94.4165 13.9023 94.9395 13.9023C95.0713 13.9023 95.2471 13.8936 95.3218 13.8848V14.6318C95.2427 14.645 94.9175 14.6714 94.6978 14.6714C93.5684 14.6714 93.2607 14.2671 93.2607 13.3354V10.791H92.5532V10.0264H93.2739ZM96.4995 14.6406V8.32568H97.4707V10.8306H97.519C97.6201 10.501 97.998 9.92529 98.9297 9.92529C99.835 9.92529 100.481 10.4482 100.481 11.5073V14.6406H99.5098V11.793C99.5098 11.0854 99.1187 10.7559 98.5649 10.7559C97.8662 10.7559 97.4707 11.3052 97.4707 12.061V14.6406H96.4995ZM103.755 14.7197C102.489 14.7197 101.703 13.9419 101.703 12.6323V12.0039C101.703 10.6855 102.564 9.9165 103.698 9.9165C104.862 9.9165 105.684 10.7251 105.684 12.0039V12.5488H102.669V12.7773C102.669 13.4453 103.065 13.9375 103.75 13.9375C104.26 13.9375 104.612 13.6958 104.678 13.4058H105.631C105.574 13.9419 105.007 14.7197 103.755 14.7197ZM102.669 11.9116H104.73V11.8501C104.73 11.1514 104.322 10.6855 103.702 10.6855C103.083 10.6855 102.669 11.1514 102.669 11.8501V11.9116Z" fill="black"/>
<path d="M38.2061 30.6406H36.1758L40.3066 18.6436H42.5391L46.6611 30.6406H44.5518L43.4883 27.3184H39.2783L38.2061 30.6406ZM41.4316 20.7178H41.3525L39.7266 25.7891H43.04L41.4316 20.7178ZM52.2644 30.7725C51.0603 30.7725 50.1462 30.2012 49.654 29.3486H49.5837V33.7256H47.6325V21.3506H49.531V22.7129H49.6013C50.1111 21.8252 51.0603 21.2275 52.3083 21.2275C54.3913 21.2275 55.8767 22.8008 55.8767 25.5781V26.4043C55.8767 29.1641 54.4089 30.7725 52.2644 30.7725ZM51.8161 29.1641C53.0554 29.1641 53.8991 28.1709 53.8991 26.2988V25.6484C53.8991 23.8467 53.1081 22.8184 51.781 22.8184C50.4187 22.8184 49.5661 23.9258 49.5661 25.6396V26.2988C49.5661 28.0566 50.4275 29.1641 51.8161 29.1641ZM62.183 30.7725C60.9789 30.7725 60.0649 30.2012 59.5727 29.3486H59.5024V33.7256H57.5512V21.3506H59.4496V22.7129H59.52C60.0297 21.8252 60.9789 21.2275 62.227 21.2275C64.31 21.2275 65.7954 22.8008 65.7954 25.5781V26.4043C65.7954 29.1641 64.3276 30.7725 62.183 30.7725ZM61.7348 29.1641C62.9741 29.1641 63.8178 28.1709 63.8178 26.2988V25.6484C63.8178 23.8467 63.0268 22.8184 61.6996 22.8184C60.3373 22.8184 59.4848 23.9258 59.4848 25.6396V26.2988C59.4848 28.0566 60.3461 29.1641 61.7348 29.1641ZM69.8387 27.3096H71.7899C71.8778 28.3467 72.7919 29.2344 74.4882 29.2344C76.0438 29.2344 76.9667 28.5049 76.9667 27.3711C76.9667 26.457 76.3514 25.9648 75.0682 25.6572L73.0995 25.165C71.5526 24.8047 70.1639 23.8818 70.1639 21.9307C70.1639 19.6367 72.1679 18.3799 74.497 18.3799C76.8261 18.3799 78.7684 19.6367 78.8124 21.8779H76.8964C76.8085 20.8584 76.0262 20.0146 74.4706 20.0146C73.0995 20.0146 72.1679 20.665 72.1679 21.7812C72.1679 22.5635 72.7128 23.126 73.829 23.3809L75.7889 23.8643C77.5907 24.3037 78.9618 25.1562 78.9618 27.1953C78.9618 29.5508 77.0546 30.8779 74.3387 30.8779C70.9989 30.8779 69.8827 28.9268 69.8387 27.3096ZM81.3395 21.3506V19.0918H83.2555V21.3506H85.066V22.915H83.2555V27.8721C83.2555 28.8828 83.6334 29.1641 84.6793 29.1641C84.8463 29.1641 85.0045 29.1641 85.1188 29.1465V30.6406C84.9605 30.667 84.5914 30.7021 84.1959 30.7021C81.9371 30.7021 81.3131 29.8936 81.3131 28.0303V22.915H80.0299V21.3506H81.3395ZM90.3353 21.1924C93.0071 21.1924 94.4573 23.0732 94.4573 25.6045V26.3516C94.4573 28.9707 93.0159 30.7988 90.3353 30.7988C87.6546 30.7988 86.1956 28.9707 86.1956 26.3516V25.6045C86.1956 23.082 87.6634 21.1924 90.3353 21.1924ZM90.3353 22.7568C88.8851 22.7568 88.1644 23.9434 88.1644 25.6309V26.3428C88.1644 28.0039 88.8763 29.2256 90.3353 29.2256C91.7943 29.2256 92.4974 28.0127 92.4974 26.3428V25.6309C92.4974 23.9346 91.7855 22.7568 90.3353 22.7568ZM96.1055 30.6406V21.3506H98.0567V22.5723H98.127C98.3643 21.9922 99.0586 21.2188 100.351 21.2188C100.606 21.2188 100.825 21.2363 101.01 21.2715V22.9941C100.843 22.9502 100.5 22.9238 100.175 22.9238C98.6104 22.9238 98.083 23.8906 98.083 25.1387V30.6406H96.1055ZM105.743 30.7988C103.256 30.7988 101.674 29.1553 101.674 26.4043V25.4639C101.674 22.8711 103.22 21.1924 105.664 21.1924C108.142 21.1924 109.636 22.9326 109.636 25.5518V26.4395H103.598V26.6592C103.598 28.2236 104.442 29.2607 105.769 29.2607C106.762 29.2607 107.439 28.7686 107.677 27.9688H109.531C109.25 29.4717 108.037 30.7988 105.743 30.7988ZM103.598 25.0771H107.729V25.0596C107.729 23.7412 106.912 22.7041 105.673 22.7041C104.416 22.7041 103.598 23.7412 103.598 25.0596V25.0771Z" fill="black"/>
</svg>
