<svg width="120" height="41" viewBox="0 0 120 41" fill="none" xmlns="http://www.w3.org/2000/svg">
<rect x="0.5" y="0.640625" width="119" height="39" rx="5.5" fill="white"/>
<rect x="0.5" y="0.640625" width="119" height="39" rx="5.5" stroke="black"/>
<path d="M17.8048 19.6023L8.0896 30.1465C8.09051 30.1484 8.09051 30.1512 8.09142 30.1531C8.38981 31.298 9.41179 32.1406 10.6254 32.1406C11.1108 32.1406 11.5662 32.0063 11.9567 31.7711L11.9877 31.7524L22.9229 25.2999L17.8048 19.6023Z" fill="#EA4335"/>
<path d="M27.6332 17.8068L27.624 17.8003L22.9029 15.0019L17.584 19.8419L22.922 25.2988L27.6177 22.5284C28.4407 22.073 29.0001 21.1856 29.0001 20.1629C29.0001 19.1458 28.4489 18.2631 27.6332 17.8068Z" fill="#FBBC04"/>
<path d="M8.08942 10.1339C8.03102 10.3541 8 10.5855 8 10.8244V29.4569C8 29.6958 8.03102 29.9272 8.09034 30.1465L18.1386 19.8719L8.08942 10.1339Z" fill="#4285F4"/>
<path d="M17.8767 20.1406L22.9044 15.0001L11.982 8.52422C11.5851 8.28068 11.1215 8.14071 10.6261 8.14071C9.41246 8.14071 8.38865 8.98518 8.09027 10.1311C8.09027 10.132 8.08936 10.1329 8.08936 10.1339L17.8767 20.1406Z" fill="#34A853"/>
<path d="M43.61 11.8506C43.61 12.8506 43.3133 13.6473 42.72 14.2406C42.0533 14.9473 41.1767 15.3006 40.09 15.3006C39.05 15.3006 38.17 14.9406 37.45 14.2206C36.73 13.5006 36.37 12.614 36.37 11.5606C36.37 10.5073 36.73 9.62062 37.45 8.90062C38.17 8.18062 39.05 7.82062 40.09 7.82062C40.6167 7.82062 41.1133 7.91396 41.58 8.10062C42.0467 8.28729 42.43 8.55062 42.73 8.89062L42.07 9.55062C41.85 9.28396 41.5633 9.07729 41.21 8.93062C40.8633 8.77729 40.49 8.70062 40.09 8.70062C39.31 8.70062 38.65 8.97062 38.11 9.51062C37.5767 10.0573 37.31 10.7406 37.31 11.5606C37.31 12.3806 37.5767 13.064 38.11 13.6106C38.65 14.1506 39.31 14.4206 40.09 14.4206C40.8033 14.4206 41.3967 14.2206 41.87 13.8206C42.3433 13.4206 42.6167 12.8706 42.69 12.1706H40.09V11.3106H43.56C43.5933 11.4973 43.61 11.6773 43.61 11.8506ZM48.9078 7.98062V8.86062H45.6478V11.1306H48.5878V11.9906H45.6478V14.2606H48.9078V15.1406H44.7278V7.98062H48.9078ZM52.5877 8.86062V15.1406H51.6677V8.86062H49.6677V7.98062H54.5877V8.86062H52.5877ZM58.6654 15.1406H57.7454V7.98062H58.6654V15.1406ZM62.5487 8.86062V15.1406H61.6287V8.86062H59.6287V7.98062H64.5487V8.86062H62.5487ZM74.521 11.5606C74.521 12.6206 74.1677 13.5073 73.461 14.2206C72.7477 14.9406 71.8743 15.3006 70.841 15.3006C69.801 15.3006 68.9277 14.9406 68.221 14.2206C67.5143 13.5073 67.161 12.6206 67.161 11.5606C67.161 10.5006 67.5143 9.61396 68.221 8.90062C68.9277 8.18062 69.801 7.82062 70.841 7.82062C71.881 7.82062 72.7543 8.18396 73.461 8.91062C74.1677 9.62396 74.521 10.5073 74.521 11.5606ZM68.101 11.5606C68.101 12.3873 68.361 13.0706 68.881 13.6106C69.4077 14.1506 70.061 14.4206 70.841 14.4206C71.621 14.4206 72.271 14.1506 72.791 13.6106C73.3177 13.0773 73.581 12.394 73.581 11.5606C73.581 10.7273 73.3177 10.044 72.791 9.51062C72.271 8.97062 71.621 8.70062 70.841 8.70062C70.061 8.70062 69.4077 8.97062 68.881 9.51062C68.361 10.0506 68.101 10.734 68.101 11.5606ZM76.5267 15.1406H75.6067V7.98062H76.7267L80.2067 13.5506H80.2467L80.2067 12.1706V7.98062H81.1267V15.1406H80.1667L76.5267 9.30062H76.4867L76.5267 10.6806V15.1406Z" fill="black"/>
<path d="M93.5181 31.5503H95.1469V20.5388H93.5181V31.5503ZM108.189 24.5052L106.322 29.2794H106.266L104.328 24.5052H102.573L105.479 31.1777L103.823 34.8896H105.521L110 24.5052H108.189ZM98.9519 30.2995C98.4176 30.2995 97.6739 30.0308 97.6739 29.364C97.6739 28.5149 98.6001 28.189 99.4005 28.189C100.116 28.189 100.454 28.3449 100.889 28.5571C100.762 29.5772 99.892 30.2995 98.9519 30.2995ZM99.1483 24.2648C97.969 24.2648 96.7469 24.7889 96.2424 25.9507L97.6879 26.5594C97.9969 25.9507 98.5721 25.7516 99.1762 25.7516C100.019 25.7516 100.875 26.2617 100.889 27.1689V27.2817C100.594 27.1117 99.9627 26.8571 99.1902 26.8571C97.632 26.8571 96.0451 27.7212 96.0451 29.3358C96.0451 30.8095 97.323 31.759 98.7546 31.759C99.8501 31.759 100.454 31.2631 100.833 30.6818H100.889V31.5318H102.461V27.3099C102.461 25.3553 101.015 24.2648 99.1483 24.2648ZM89.0821 25.8459H86.7655V22.0714H89.0821C90.2998 22.0714 90.9911 23.0888 90.9911 23.9582C90.9911 24.8118 90.2998 25.8459 89.0821 25.8459ZM89.0402 20.5388H85.1375V31.5503H86.7655V27.3786H89.0402C90.8453 27.3786 92.6199 26.0591 92.6199 23.9582C92.6199 21.8574 90.8453 20.5388 89.0402 20.5388ZM67.7583 30.3012C66.6332 30.3012 65.6913 29.3508 65.6913 28.0454C65.6913 26.7259 66.6332 25.7604 67.7583 25.7604C68.8695 25.7604 69.7406 26.7259 69.7406 28.0454C69.7406 29.3508 68.8695 30.3012 67.7583 30.3012ZM69.6289 25.1218H69.5722C69.2064 24.6823 68.5038 24.285 67.6178 24.285C65.7611 24.285 64.0599 25.9305 64.0599 28.0454C64.0599 30.1453 65.7611 31.7775 67.6178 31.7775C68.5038 31.7775 69.2064 31.3803 69.5722 30.9258H69.6289V31.4657C69.6289 32.8989 68.8695 33.6652 67.6457 33.6652C66.6471 33.6652 66.0282 32.9411 65.7751 32.3307L64.3549 32.927C64.7626 33.9206 65.8458 35.1406 67.6457 35.1406C69.5582 35.1406 71.1757 34.0052 71.1757 31.2385V24.5114H69.6289V25.1218ZM72.3008 31.5503H73.9323V20.5379H72.3008V31.5503ZM76.3362 27.9177C76.2943 26.4704 77.4474 25.7323 78.2766 25.7323C78.9243 25.7323 79.4725 26.0582 79.6549 26.5268L76.3362 27.9177ZM81.3989 26.6686C81.0899 25.8318 80.1472 24.285 78.2208 24.285C76.3083 24.285 74.7196 25.8027 74.7196 28.0313C74.7196 30.1312 76.2943 31.7775 78.4032 31.7775C80.1053 31.7775 81.0899 30.7276 81.4976 30.1171L80.2319 29.2654C79.8103 29.8899 79.2333 30.3012 78.4032 30.3012C77.5739 30.3012 76.983 29.9181 76.6033 29.1667L81.5674 27.0941L81.3989 26.6686ZM41.8501 25.4345V27.0236H45.6184C45.5058 27.9177 45.2107 28.5704 44.7612 29.024C44.2121 29.5781 43.3541 30.1885 41.8501 30.1885C39.5291 30.1885 37.7152 28.3008 37.7152 25.9595C37.7152 23.6173 39.5291 21.7306 41.8501 21.7306C43.1018 21.7306 44.0157 22.2274 44.6905 22.866L45.8017 21.7447C44.8589 20.8365 43.6081 20.1406 41.8501 20.1406C38.6719 20.1406 36 22.7523 36 25.9595C36 29.1667 38.6719 31.7775 41.8501 31.7775C43.5653 31.7775 44.8589 31.2094 45.8715 30.1453C46.9129 29.0953 47.2358 27.6199 47.2358 26.4273C47.2358 26.0582 47.2079 25.7182 47.1512 25.4345H41.8501ZM51.5208 30.3012C50.3957 30.3012 49.425 29.3649 49.425 28.0313C49.425 26.6827 50.3957 25.7604 51.5208 25.7604C52.6451 25.7604 53.6158 26.6827 53.6158 28.0313C53.6158 29.3649 52.6451 30.3012 51.5208 30.3012ZM51.5208 24.285C49.4669 24.285 47.7936 25.86 47.7936 28.0313C47.7936 30.1885 49.4669 31.7775 51.5208 31.7775C53.5739 31.7775 55.2472 30.1885 55.2472 28.0313C55.2472 25.86 53.5739 24.285 51.5208 24.285ZM59.65 30.3012C58.5249 30.3012 57.5542 29.3649 57.5542 28.0313C57.5542 26.6827 58.5249 25.7604 59.65 25.7604C60.7752 25.7604 61.745 26.6827 61.745 28.0313C61.745 29.3649 60.7752 30.3012 59.65 30.3012ZM59.65 24.285C57.597 24.285 55.9237 25.86 55.9237 28.0313C55.9237 30.1885 57.597 31.7775 59.65 31.7775C61.7031 31.7775 63.3764 30.1885 63.3764 28.0313C63.3764 25.86 61.7031 24.285 59.65 24.285Z" fill="black"/>
</svg>
