<svg width="24" height="25" viewBox="0 0 24 25" fill="none" xmlns="http://www.w3.org/2000/svg">
<g clip-path="url(#clip0_554_11325)">
<path d="M4 8.14062C4 7.07976 4.42143 6.06234 5.17157 5.3122C5.92172 4.56205 6.93913 4.14063 8 4.14062H16C17.0609 4.14063 18.0783 4.56205 18.8284 5.3122C19.5786 6.06234 20 7.07976 20 8.14062V16.1406C20 17.2015 19.5786 18.2189 18.8284 18.9691C18.0783 19.7192 17.0609 20.1406 16 20.1406H8C6.93913 20.1406 5.92172 19.7192 5.17157 18.9691C4.42143 18.2189 4 17.2015 4 16.1406V8.14062Z" stroke="white" stroke-width="1.5" stroke-linecap="round" stroke-linejoin="round"/>
<path d="M9 12.1406C9 12.9363 9.31607 13.6993 9.87868 14.2619C10.4413 14.8246 11.2044 15.1406 12 15.1406C12.7956 15.1406 13.5587 14.8246 14.1213 14.2619C14.6839 13.6993 15 12.9363 15 12.1406C15 11.345 14.6839 10.5819 14.1213 10.0193C13.5587 9.4567 12.7956 9.14062 12 9.14062C11.2044 9.14062 10.4413 9.4567 9.87868 10.0193C9.31607 10.5819 9 11.345 9 12.1406Z" stroke="white" stroke-width="1.5" stroke-linecap="round" stroke-linejoin="round"/>
<path d="M16.5 7.64062V7.65063" stroke="white" stroke-width="1.5" stroke-linecap="round" stroke-linejoin="round"/>
</g>
<defs>
<clipPath id="clip0_554_11325">
<rect width="24" height="24" fill="white" transform="translate(0 0.140625)"/>
</clipPath>
</defs>
</svg>
