<svg width="24" height="25" viewBox="0 0 24 25" fill="none" xmlns="http://www.w3.org/2000/svg">
<g clip-path="url(#clip0_554_11330)">
<path d="M2 8.14062C2 7.07976 2.42143 6.06234 3.17157 5.3122C3.92172 4.56205 4.93913 4.14063 6 4.14062H18C19.0609 4.14063 20.0783 4.56205 20.8284 5.3122C21.5786 6.06234 22 7.07976 22 8.14062V16.1406C22 17.2015 21.5786 18.2189 20.8284 18.9691C20.0783 19.7192 19.0609 20.1406 18 20.1406H6C4.93913 20.1406 3.92172 19.7192 3.17157 18.9691C2.42143 18.2189 2 17.2015 2 16.1406V8.14062Z" stroke="white" stroke-width="1.5" stroke-linecap="round" stroke-linejoin="round"/>
<path d="M10 9.14062L15 12.1406L10 15.1406V9.14062Z" stroke="white" stroke-width="1.5" stroke-linecap="round" stroke-linejoin="round"/>
</g>
<defs>
<clipPath id="clip0_554_11330">
<rect width="24" height="24" fill="white" transform="translate(0 0.140625)"/>
</clipPath>
</defs>
</svg>
