<svg width="18" height="12" viewBox="0 0 18 12" fill="none" xmlns="http://www.w3.org/2000/svg">
<g clip-path="url(#clip0_127_3760)">
<path d="M16.52 6.40062H0.51C0.36 6.40062 0.25 6.28062 0.25 6.14062C0.25 6.00062 0.37 5.88062 0.51 5.88062H16.52C16.67 5.88062 16.78 6.00062 16.78 6.14062C16.78 6.28062 16.66 6.40062 16.52 6.40062Z" fill="#892890" stroke="#892890" stroke-width="0.5" stroke-miterlimit="10"/>
<path d="M11.73 11.1905C11.66 11.1905 11.59 11.1605 11.54 11.1105C11.44 11.0105 11.44 10.8405 11.54 10.7405L16.14 6.14046L11.54 1.54046C11.44 1.44046 11.44 1.27046 11.54 1.17046C11.64 1.07046 11.81 1.07046 11.91 1.17046L16.69 5.95046C16.79 6.05046 16.79 6.22046 16.69 6.32046L11.91 11.1005C11.86 11.1505 11.79 11.1805 11.72 11.1805L11.73 11.1905Z" fill="#892890" stroke="#892890" stroke-width="0.5" stroke-miterlimit="10"/>
</g>
<defs>
<clipPath id="clip0_127_3760">
<rect width="17.04" height="10.6" fill="white" transform="translate(0 0.840576)"/>
</clipPath>
</defs>
</svg>
