<svg width="12" height="13" viewBox="0 0 12 13" fill="none" xmlns="http://www.w3.org/2000/svg">
<path d="M11.7839 6.14068C11.784 5.86745 11.7053 5.59883 11.5554 5.36074C11.4056 5.12266 11.1896 4.92315 10.9284 4.78147L2.67393 0.358052C2.40536 0.217548 2.10026 0.142585 1.78913 0.140663C1.47801 0.13874 1.17177 0.209924 0.901055 0.347096C0.630342 0.484267 0.404639 0.682616 0.246526 0.922302C0.0884122 1.16199 0.00343031 1.43461 8.09936e-05 1.71289L8.06068e-05 10.5625C0.00227405 10.8405 0.0859733 11.1132 0.242822 11.3532C0.39967 11.5933 0.62418 11.7923 0.893932 11.9305C1.16368 12.0687 1.46924 12.1411 1.78009 12.1406C2.09093 12.1401 2.3962 12.0667 2.6654 11.9277L10.9254 7.50097C11.1872 7.35942 11.4037 7.15985 11.5541 6.92156C11.7045 6.68328 11.7837 6.41432 11.7839 6.14068Z" fill="#892890"/>
</svg>
