<svg width="67" height="59" viewBox="0 0 67 59" fill="none" xmlns="http://www.w3.org/2000/svg">
<path d="M65.6 58.1406H1.7C1.3 58.1406 1 57.8404 1 57.4404C1 57.0404 1.3 56.7405 1.7 56.7405H65.6C66 56.7405 66.3 57.0404 66.3 57.4404C66.3 57.8404 66 58.1406 65.6 58.1406Z" fill="#EAAB32" stroke="#EAAB32" stroke-width="0.2" stroke-miterlimit="10"/>
<path d="M10.9002 58.1406H5.40019C5.00019 58.1406 4.7002 57.8404 4.7002 57.4404V37.1406C4.7002 36.7406 5.00019 36.4404 5.40019 36.4404H10.9002C11.3002 36.4404 11.6002 36.7406 11.6002 37.1406V57.4404C11.6002 57.8404 11.3002 58.1406 10.9002 58.1406ZM6.1002 56.8406H10.3002V37.8406H6.1002V56.8406Z" fill="#EAAB32" stroke="#EAAB32" stroke-width="0.2" stroke-miterlimit="10"/>
<path d="M23.7 58.1406H18.2C17.8 58.1406 17.5 57.8404 17.5 57.4404V22.5405C17.5 22.1405 17.8 21.8406 18.2 21.8406H23.7C24.1 21.8406 24.4 22.1405 24.4 22.5405V57.4404C24.4 57.8404 24.1 58.1406 23.7 58.1406ZM18.8 56.8406H23V23.3406H18.8V56.8406Z" fill="#EAAB32" stroke="#EAAB32" stroke-width="0.2" stroke-miterlimit="10"/>
<path d="M36.4002 58.1406H30.9002C30.5002 58.1406 30.2002 57.8404 30.2002 57.4404V10.0405C30.2002 9.64053 30.5002 9.34058 30.9002 9.34058H36.4002C36.8002 9.34058 37.1002 9.64053 37.1002 10.0405V57.4404C37.1002 57.8404 36.8002 58.1406 36.4002 58.1406ZM31.6002 56.8406H35.8002V10.7405H31.6002V56.8406Z" fill="#EAAB32" stroke="#EAAB32" stroke-width="0.2" stroke-miterlimit="10"/>
<path d="M49.2 58.1406H43.7C43.3 58.1406 43 57.8404 43 57.4404V33.1406C43 32.7406 43.3 32.4404 43.7 32.4404H49.2C49.6 32.4404 49.9 32.7406 49.9 33.1406V57.4404C49.9 57.8404 49.6 58.1406 49.2 58.1406ZM44.3 56.8406H48.5V33.9404H44.3V56.8406Z" fill="#EAAB32" stroke="#EAAB32" stroke-width="0.2" stroke-miterlimit="10"/>
<path d="M61.9002 58.1406H56.4002C56.0002 58.1406 55.7002 57.8404 55.7002 57.4404V0.840576C55.7002 0.440576 56.0002 0.140625 56.4002 0.140625H61.9002C62.3002 0.140625 62.6002 0.440576 62.6002 0.840576V57.4404C62.6002 57.8404 62.3002 58.1406 61.9002 58.1406ZM57.1002 56.8406H61.3002V1.64062H57.1002V56.8406Z" fill="#EAAB32" stroke="#EAAB32" stroke-width="0.2" stroke-miterlimit="10"/>
</svg>
