<svg width="50" height="47" viewBox="0 0 50 47" fill="none" xmlns="http://www.w3.org/2000/svg">
<g clip-path="url(#clip0_445_20424)">
<path d="M0.695738 46.1406C0.183148 45.8591 -0.153361 45.3781 0.0882602 44.7669L4.50103 38.1438L0.401292 35.2942C0.0344579 34.9916 -0.0809726 34.6068 0.0579353 34.1379L11.6812 16.8547C12.5577 15.8768 13.7492 15.2455 14.833 14.5351C14.9358 14.3557 13.9262 12.971 13.7834 12.5842C13.3735 11.473 13.5486 10.1745 14.3566 9.29874C14.9661 8.63743 17.2072 7.25971 18.0719 6.70762C19.4747 5.81285 20.6134 4.93812 22.3262 5.93008C23.2693 6.47616 23.4747 7.48415 24.2416 8.13644L30.4289 4.0724L43.7738 0.140625C44.4175 0.174692 44.5867 0.452241 44.799 0.99732C45.4877 2.76482 45.7782 4.91808 46.4346 6.72365C46.5657 7.68154 45.9719 7.81781 45.2617 8.07432C41.4662 9.44403 37.2921 10.2576 33.4594 11.5772L30.7732 13.3738C30.1804 15.8437 30.2381 18.3757 30.6783 20.8666C30.9072 22.1632 31.3641 23.2083 31.2232 24.583C31.0745 26.0288 30.063 27.3404 29.3049 28.5168C26.7067 32.5497 23.8581 36.4264 21.2345 40.4434C19.1186 42.7389 16.8228 42.5175 14.3625 40.9834C12.3288 39.7149 10.4711 38.1418 8.47262 36.8202C8.36208 36.747 8.02166 36.4765 7.92188 36.5476L1.37854 46.1406H0.695738ZM28.0156 7.95007L30.2098 11.3418L32.7688 9.66847L44.1739 6.25171L43.1438 2.49027L31.0422 5.99821L28.0166 7.94907L28.0156 7.95007ZM16.5038 13.3468L22.4123 9.34784C22.5004 9.23462 22.4016 9.1765 22.3644 9.09233C22.0572 8.39696 21.2179 7.13546 20.3336 7.62543L15.8171 10.6955C14.9954 11.7025 16.1703 12.4369 16.5038 13.3457V13.3468ZM13.4136 17.8807L2.36459 34.194L5.52719 36.4444C6.58172 35.71 6.79399 33.3694 8.45599 34.3393C10.0828 35.2892 11.8455 36.8242 13.4469 37.9244C15.3104 39.2049 17.5515 41.3491 19.6684 39.237C22.3703 34.8914 25.662 30.7612 28.3316 26.4176C29.9349 23.8084 29.0555 23.3535 28.6299 20.6672C28.2132 18.03 28.2738 15.52 28.7962 12.9059L26.5395 9.31177L26.3252 9.15947L13.4136 17.8827V17.8807Z" fill="white"/>
<path d="M49.9688 18.2464C50.0079 18.5981 50.0118 19.3997 49.9688 19.7464C49.4601 23.8485 44.029 25.4406 41.3849 22.094C39.2308 19.3686 40.6042 15.9709 42.6008 13.6463C43.9126 12.1193 45.0239 11.2095 46.8003 12.7455C48.1131 13.8797 49.7751 16.4869 49.9688 18.2474V18.2464ZM45.0659 14.0611C43.7199 15.0972 42.1234 17.4027 42.2574 19.2003C42.4413 21.6651 45.4406 22.8475 47.1779 21.0349C48.5768 19.575 47.9977 17.7785 47.083 16.2554C46.8248 15.8256 45.5267 13.9479 45.0669 14.0611H45.0659Z" fill="white"/>
<path d="M9.60809 32.6088C9.28528 32.243 9.16594 31.716 9.49658 31.3132C11.9549 28.175 13.9759 23.8905 16.5046 20.8976C18.7692 18.2163 22.8386 19.3776 23.136 22.9968C23.3727 25.8785 23.2387 29.6429 21.8858 32.211C21.381 33.1699 19.3541 36.3211 18.6528 36.9964C18.0091 37.6167 17.1355 37.7199 16.3393 37.3602L9.60907 32.6088H9.60809ZM19.2094 21.4687C18.7154 21.5489 18.2801 21.9196 17.969 22.2984L11.7338 31.5116C11.6937 31.7681 13.1786 32.6348 13.431 32.8372L20.6542 22.1401C20.8313 21.618 19.6016 21.4046 19.2103 21.4677L19.2094 21.4687ZM21.0876 25.145L15.0402 33.9935L17.2852 35.4995C18.2135 33.9845 19.5283 32.4915 20.3236 30.9104C20.6249 30.3122 21.0876 29.0447 21.0876 28.3944V25.145Z" fill="white"/>
</g>
<defs>
<clipPath id="clip0_445_20424">
<rect width="50" height="46" fill="white" transform="translate(0 0.140625)"/>
</clipPath>
</defs>
</svg>
