<svg width="65" height="65" viewBox="0 0 65 65" fill="none" xmlns="http://www.w3.org/2000/svg">
<g clip-path="url(#clip0_445_20388)">
<path d="M64.5 44.6529C64.2647 45.0226 64.0604 45.5398 63.5394 45.563C55.6055 45.894 47.2877 45.1002 39.4003 45.5501C38.9026 45.5786 38.4268 45.7414 37.9213 45.6846C37.8347 49.2708 38.0377 52.8777 37.9278 56.4639C37.8877 57.7877 37.9058 59.9661 37.4288 61.1258C36.7527 62.7728 35.0164 64.0527 33.2181 64.1406L4.82958 64.1341C2.24916 63.6868 0.536198 61.533 0.5 58.9164V5.23159C0.696505 2.5736 2.18452 0.658965 4.82958 0.141846H33.5982C35.4961 0.189679 37.9213 2.60721 37.9213 4.46238V20.6547H63.7903C64.0785 20.6547 64.31 21.2481 64.5 21.4291V44.6529ZM35.858 6.7209V4.46367C35.858 4.4042 35.5633 3.7953 35.4948 3.66602C34.9234 2.57619 34.0042 2.21549 32.8238 2.07975C24.0173 2.53482 14.5889 1.46826 5.85477 2.07199C4.66023 2.15473 3.54971 2.57877 2.95373 3.6867C2.86841 3.84571 2.57106 4.61364 2.57106 4.72352V6.72348H35.858V6.7209ZM35.858 8.7855H2.57106V55.4904H35.7288V45.6846H17.2146C16.9703 45.6846 16.426 45.0369 16.5023 44.7201L16.4997 21.7458C16.3588 21.2313 17.0608 20.6547 17.4732 20.6547H35.858V8.78421V8.7855ZM62.4354 22.5835H18.5682V43.6264H62.4354V22.5835ZM35.7288 57.555H2.57106V59.555C2.57106 60.8956 4.53612 62.3591 5.85606 62.2052L32.6946 62.1975C33.7262 62.3164 35.7288 60.9823 35.7288 59.9415V57.555Z" fill="white"/>
<path d="M52.7587 13.4292H44.8235C44.3982 13.4292 44.1409 12.7079 44.1073 12.3381C44.031 11.4965 43.9974 9.25868 44.1215 8.46878C44.1667 8.17919 44.5546 7.62199 44.8235 7.62199H52.7587V5.49275C52.7587 5.14111 53.9519 4.60202 54.301 5.11138C55.6041 6.69635 57.8252 8.22185 59.0184 9.812C59.3817 10.2968 59.5071 10.6536 59.0805 11.1694C57.5239 12.3704 55.939 14.9793 54.3721 16.0084C54.12 16.1739 53.8071 16.3018 53.4982 16.2463C53.3249 16.2152 52.7587 15.7808 52.7587 15.6865V13.4292ZM53.727 9.68789H46.1796V11.3646H53.8563C54.4471 11.3646 54.7535 12.1739 54.7586 12.6549L56.8853 10.5269L54.7586 8.39897C54.738 9.07639 54.4277 9.57283 53.727 9.68918V9.68789Z" fill="white"/>
<path d="M50.6356 57.5743L50.6356 59.7035C50.6356 59.984 49.8018 60.337 49.4398 60.262C48.6253 60.0913 45.2925 56.0022 44.3138 55.317C43.8342 54.6241 44.0294 54.2983 44.5065 53.7036C45.7708 52.1251 47.7488 50.6901 49.0933 49.131C49.4437 48.6203 50.6356 49.1607 50.6356 49.5124L50.6356 51.577L50.8295 51.7709L58.7001 51.7709C58.7725 51.7709 59.2418 52.2958 59.278 52.4832C59.406 53.1555 59.3568 55.7204 59.287 56.4857C59.2534 56.8542 58.9962 57.5769 58.5708 57.5769L50.6356 57.5769L50.6356 57.5743ZM49.41 55.5097L57.216 55.5097L57.216 53.7036L49.2808 53.7036C49.2446 53.7036 48.7973 53.2511 48.7662 53.1852C48.6395 52.9086 48.8386 52.4781 48.5077 52.5427L46.5077 54.6706L48.5077 56.6693C48.8425 56.7146 48.6227 56.275 48.8192 55.9518C48.8748 55.86 49.3183 55.5291 49.4088 55.5097L49.41 55.5097Z" fill="white"/>
<path d="M6.27342 37.1961L12.6948 37.1729C13.6475 37.5361 13.6372 38.7449 12.6948 39.1017H6.37943C5.468 38.7436 5.4331 37.6667 6.27342 37.1961Z" fill="white"/>
<path d="M13.1102 28.8704C12.9369 29.0281 12.553 29.147 12.3151 29.1729C11.4515 29.2698 8.75602 29.2905 7.9338 29.1612C6.79096 28.9828 6.79484 27.2893 7.9338 27.1122C8.69655 26.9932 11.8006 26.9932 12.5633 27.1122C13.3894 27.2414 13.7242 28.308 13.1115 28.8691L13.1102 28.8704Z" fill="white"/>
<path d="M8.67435 32.1787C8.84759 32.021 9.23155 31.902 9.46942 31.8762C10.0331 31.8128 12.0408 31.7947 12.5411 31.9072C13.6064 32.1464 13.7357 33.7533 12.5605 33.9369C12.0266 34.0197 9.60517 34.0274 9.11261 33.9175C8.35503 33.7482 8.11328 32.6932 8.67435 32.18V32.1787Z" fill="white"/>
<path d="M9.88679 41.9704C10.2927 41.8799 12.3935 41.8838 12.7684 42.0002C13.7639 42.3117 13.4885 43.7674 12.5409 43.9795C12.1427 44.0687 10.2914 44.0635 9.91652 43.9484C8.98312 43.6627 8.85513 42.1993 9.88679 41.9691V41.9704Z" fill="white"/>
<path d="M5.57575 24.1001C5.19825 23.7795 5.19179 23.1215 5.4775 22.722C5.99462 22.0006 9.5524 21.9579 8.66942 23.8506C8.32036 24.5991 6.11097 24.5526 5.57704 24.1001H5.57575Z" fill="white"/>
<path d="M10.478 24.0999C9.95313 23.6552 10.1367 22.6041 10.8206 22.3895C11.7475 22.0987 13.935 22.2525 13.3092 23.7172C12.9421 24.577 11.0611 24.5938 10.4767 24.0986L10.478 24.0999Z" fill="white"/>
<path d="M5.88815 41.9702C6.19713 41.9017 6.956 41.8978 7.27144 41.9508C8.43884 42.1435 8.39876 43.797 7.0103 43.9948C4.9276 44.2921 4.64706 42.2469 5.88815 41.9702Z" fill="white"/>
<path d="M6.37717 34.0107C6.97406 34.0107 7.45795 33.5268 7.45795 32.9299C7.45795 32.333 6.97406 31.8491 6.37717 31.8491C5.78027 31.8491 5.29639 32.333 5.29639 32.9299C5.29639 33.5268 5.78027 34.0107 6.37717 34.0107Z" fill="white"/>
<path d="M25.8882 24.2977L55.1546 24.3882C56.362 25.2686 55.479 26.3209 56.8197 27.4961C57.9082 28.4514 58.9321 27.8516 59.6987 28.8742L59.6677 37.1765C59.3368 38.0401 58.4318 37.7699 57.6975 38.044C56.8895 38.3452 56.2224 39.1132 55.9768 39.9367C55.7156 40.8132 55.9962 41.6264 54.746 41.8035L25.7899 41.7543C24.7867 41.4803 25.075 40.4641 24.788 39.66C24.5204 38.9102 23.843 38.2573 23.0828 38.0104C21.8921 37.6239 21.1643 38.1785 21.0143 36.4655C20.8644 34.7525 20.8605 31.3615 21.0143 29.6163C21.2031 27.4728 23.0492 28.7617 24.3123 27.2375C25.2301 26.1309 24.5605 24.7256 25.8869 24.2964L25.8882 24.2977ZM53.9083 26.3442L27.0375 26.3494C26.8629 26.4088 26.5126 27.5167 26.3316 27.8374C25.6619 29.0267 24.523 29.7908 23.2121 30.136L23.1022 30.2846V35.7971C23.1617 35.9717 24.2683 36.322 24.5902 36.503C25.6257 37.086 26.2424 37.9496 26.7233 39.0149C26.8526 39.3006 26.7595 39.7259 27.1474 39.7518L53.8346 39.7557C54.4422 37.8747 55.7066 36.4345 57.669 35.929L57.6548 30.0778C55.7751 29.8567 54.2677 28.1515 53.9057 26.3442H53.9083Z" fill="white"/>
<path d="M17.5004 59.0018C17.8792 58.9178 20.7311 58.9048 21.0582 59.0018C21.7292 59.197 21.9192 60.3528 21.3271 60.7652C20.7983 61.1336 18.1947 61.1491 17.5573 60.9539C16.5373 60.6398 16.4959 59.2267 17.4991 59.0031L17.5004 59.0018Z" fill="white"/>
<path d="M42.3376 37.8436C42.1165 38.0634 42.2704 38.83 41.3357 38.8572C40.401 38.8843 40.5768 38.2651 40.2381 37.8837C39.9317 37.5398 39.2801 37.3317 38.8975 36.7732C38.211 35.77 38.03 33.7093 39.7636 34.0997C40.5186 34.2691 40.3066 35.1107 40.5755 35.611C41.0254 36.4474 42.4695 35.9587 42.282 34.9439C42.1036 33.9808 41.1327 34.2574 40.326 33.9265C38.2472 33.0732 37.8477 30.2821 39.6111 28.8587C39.8348 28.6777 40.3726 28.4631 40.4656 28.3584C40.7294 28.061 40.7345 27.4431 41.4895 27.4017C42.2445 27.3603 42.2937 28.0403 42.6272 28.3997C42.8935 28.6867 43.399 28.8199 43.7274 29.2349C44.2691 29.9175 44.8754 31.7442 43.823 32.1683C42.2471 32.8043 42.5651 30.56 41.9653 30.3519C41.2129 30.0907 40.3726 30.5005 40.5523 31.368C40.7449 32.2988 41.496 32.0312 42.1553 32.2251C44.7422 32.9814 45.068 36.1604 42.869 37.6678C42.7061 37.779 42.4113 37.77 42.3376 37.8436Z" fill="white"/>
</g>
<defs>
<clipPath id="clip0_445_20388">
<rect width="64" height="63.9987" fill="white" transform="translate(0.5 0.141846)"/>
</clipPath>
</defs>
</svg>
