<svg width="36" height="25" viewBox="0 0 36 25" fill="none" xmlns="http://www.w3.org/2000/svg">
<path d="M18.4 24.1907C14.7 24.1907 11.1001 23.3905 8.1001 21.9905L2.1001 23.4905C1.9001 23.4905 1.70012 23.4908 1.50012 23.2908C1.40012 23.1908 1.30005 22.8907 1.30005 22.6907L2.6001 17.6907C1.3001 15.9907 0.600098 14.0906 0.600098 12.0906C0.600098 5.49058 8.60005 0.0905762 18.3 0.0905762C28 0.0905762 36.0001 5.49058 36.0001 12.0906C36.0001 18.6906 28 24.0906 18.3 24.0906L18.4 24.1907ZM8.1001 20.6907C8.1001 20.6907 8.30002 20.6907 8.40002 20.6907C11.3 22.0907 14.7 22.8909 18.4 22.8909C27.5 22.8909 35.0001 17.9905 35.0001 11.9905C35.0001 5.99048 27.6 1.09058 18.4 1.09058C9.20002 1.09058 1.80005 5.99048 1.80005 11.9905C1.80005 17.9905 2.40007 15.4906 3.70007 17.0906C3.80007 17.1906 3.90005 17.3906 3.80005 17.5906L2.70007 21.9905L7.90002 20.6907C7.90002 20.6907 7.90012 20.6907 8.00012 20.6907H8.1001Z" fill="#892890"/>
<path d="M18.4001 14.7908C16.9001 14.7908 15.7002 13.5906 15.7002 12.0906C15.7002 10.5906 16.9001 9.39087 18.4001 9.39087C19.9001 9.39087 21.1002 10.5906 21.1002 12.0906C21.1002 13.5906 19.9001 14.7908 18.4001 14.7908ZM18.4001 10.5906C17.6001 10.5906 16.9001 11.2906 16.9001 12.0906C16.9001 12.8906 17.6001 13.5906 18.4001 13.5906C19.2001 13.5906 19.9001 12.8906 19.9001 12.0906C19.9001 11.2906 19.2001 10.5906 18.4001 10.5906Z" fill="#892890"/>
<path d="M10.4001 14.7908C8.90015 14.7908 7.7002 13.5906 7.7002 12.0906C7.7002 10.5906 8.90015 9.39087 10.4001 9.39087C11.9001 9.39087 13.1002 10.5906 13.1002 12.0906C13.1002 13.5906 11.9001 14.7908 10.4001 14.7908ZM10.4001 10.5906C9.60015 10.5906 8.90015 11.2906 8.90015 12.0906C8.90015 12.8906 9.60015 13.5906 10.4001 13.5906C11.2001 13.5906 11.9001 12.8906 11.9001 12.0906C11.9001 11.2906 11.2001 10.5906 10.4001 10.5906Z" fill="#892890"/>
<path d="M26.4001 14.7908C24.9001 14.7908 23.7002 13.5906 23.7002 12.0906C23.7002 10.5906 24.9001 9.39087 26.4001 9.39087C27.9001 9.39087 29.1002 10.5906 29.1002 12.0906C29.1002 13.5906 27.9001 14.7908 26.4001 14.7908ZM26.4001 10.5906C25.6001 10.5906 24.9001 11.2906 24.9001 12.0906C24.9001 12.8906 25.6001 13.5906 26.4001 13.5906C27.2001 13.5906 27.9001 12.8906 27.9001 12.0906C27.9001 11.2906 27.2001 10.5906 26.4001 10.5906Z" fill="#892890"/>
</svg>
