<svg width="74" height="55" viewBox="0 0 74 55" fill="none" xmlns="http://www.w3.org/2000/svg">
<path d="M12.0002 14.3701C11.3002 14.3701 10.6001 14.2702 9.90015 13.9702C8.40015 13.2702 7.20015 11.9701 6.70015 10.1701C6.20015 8.47012 6.30015 6.57022 7.10015 4.77022C7.90015 2.97022 9.20015 1.57022 10.7002 0.770217C12.3002 -0.0297834 14.1001 -0.129832 15.6001 0.470168C18.7001 1.77017 20.0001 5.87012 18.4001 9.67012C17.6001 11.4701 16.3001 12.8701 14.8001 13.6701C13.9001 14.1701 12.9002 14.3701 12.0002 14.3701ZM13.6001 1.47017C12.9001 1.47017 12.2002 1.67027 11.5002 2.07027C10.2002 2.77027 9.20016 3.87007 8.50016 5.37007C7.90016 6.87007 7.70015 8.37022 8.20015 9.77022C8.60015 11.0702 9.40015 12.0703 10.6001 12.5703C11.7001 13.0703 13.0001 12.9701 14.3001 12.3701C15.6001 11.6701 16.6001 10.5703 17.3001 9.07027C18.6001 6.07027 17.7001 2.87022 15.3001 1.77022C14.8001 1.57022 14.3001 1.47017 13.8001 1.47017H13.6001Z" fill="#EAAB32"/>
<path d="M27.1998 30.5703C26.7998 30.5703 26.4998 30.2701 26.4998 29.8701C26.4998 29.4701 26.7998 29.1702 27.1998 29.1702C28.3998 29.1702 29.3998 28.1702 29.3998 26.9702C29.3998 25.7702 28.3998 24.7703 27.1998 24.7703C25.9998 24.7703 26.4998 24.4703 26.4998 24.0703C26.4998 23.6703 26.7998 23.3701 27.1998 23.3701C29.1998 23.3701 30.7998 24.9702 30.7998 26.9702C30.7998 28.9702 29.1998 30.5703 27.1998 30.5703Z" fill="#EAAB32"/>
<path d="M17.3 54.1701C16.9 54.1701 16.6 53.8702 16.6 53.4702V43.1701H6.09999C2.69999 43.1701 0 40.3703 0 37.0703V25.9702C0 22.9702 1.09999 20.4701 3.39999 18.6701C6.89999 15.8701 12 15.7703 15.8 18.5703C18.3 20.3703 20.4 22.5701 21 23.3701H27.3C27.7 23.3701 28 23.6703 28 24.0703C28 24.4703 27.7 24.7702 27.3 24.7702H20.6C20.4 24.7702 20.2 24.7703 20.1 24.5703C20.1 24.5703 17.7 21.7702 14.9 19.7702C11.7 17.3702 7.29999 17.4702 4.29999 19.7702C2.39999 21.2702 1.39999 23.3701 1.39999 25.8701V36.9702C1.39999 39.5702 3.49999 41.6701 6.09999 41.6701H17.3C17.7 41.6701 18 41.9701 18 42.3701V53.3701C18 53.7701 17.7 54.0703 17.3 54.0703V54.1701Z" fill="#EAAB32"/>
<path d="M27.2002 30.5702H20.6002C19.2002 30.5702 17.9002 30.0702 17.0002 29.0702L12.3002 24.37C12.0002 24.07 12.0002 23.67 12.3002 23.37C12.6002 23.07 13.0002 23.07 13.3002 23.37L18.0002 28.0702C18.7002 28.7702 19.6002 29.1701 20.6002 29.1701H27.2002C27.6002 29.1701 27.9002 29.47 27.9002 29.87C27.9002 30.27 27.6002 30.5702 27.2002 30.5702Z" fill="#EAAB32"/>
<path d="M16.4002 37.2703C16.0002 37.2703 15.7002 36.9703 15.7002 36.5703V27.4702C15.7002 27.0702 16.0002 26.7703 16.4002 26.7703C16.8002 26.7703 17.1002 27.0702 17.1002 27.4702V36.5703C17.1002 36.9703 16.8002 37.2703 16.4002 37.2703Z" fill="#EAAB32"/>
<path d="M36.7001 35.2703H19.3001C18.9001 35.2703 18.6001 34.9703 18.6001 34.5703C18.6001 34.1703 18.9001 33.8701 19.3001 33.8701H36.7001C37.1001 33.8701 37.4001 34.1703 37.4001 34.5703C37.4001 34.9703 37.1001 35.2703 36.7001 35.2703Z" fill="#EAAB32"/>
<path d="M26.5 53.8701C26.2 53.8701 25.9 53.6703 25.8 53.2703L22 34.6702C22 34.2702 22.2 33.8703 22.6 33.7703C23 33.7703 23.4 33.9701 23.5 34.3701L27.3 52.9702C27.3 53.3702 27.1 53.7701 26.7 53.8701C26.7 53.8701 26.7 53.8701 26.6 53.8701H26.5Z" fill="#EAAB32"/>
<path d="M61.0998 14.37C60.1998 14.37 59.1998 14.17 58.2998 13.67C56.6998 12.87 55.3998 11.47 54.6998 9.67005C53.8998 7.87005 53.7998 5.97015 54.2998 4.27015C54.7998 2.47015 55.8998 1.1701 57.4998 0.470097C58.9998 -0.229903 60.7998 -0.129854 62.3998 0.770146C63.9998 1.57015 65.2998 2.97015 65.9998 4.77015C67.5998 8.47015 66.3998 12.5701 63.1998 13.9701C62.4998 14.2701 61.7998 14.37 61.0998 14.37ZM59.5998 1.4701C59.0998 1.4701 58.5998 1.57015 58.0998 1.77015C56.9998 2.27015 56.0998 3.2702 55.6998 4.5702C55.2998 5.9702 55.3998 7.5701 55.9998 8.9701C56.5998 10.4701 57.6998 11.5701 58.9998 12.2701C60.1998 12.8701 61.4998 12.9701 62.6998 12.4701C65.0998 11.4701 65.9998 8.17005 64.6998 5.17005C64.0998 3.67005 62.9998 2.57 61.6998 1.87C60.9998 1.47 60.2998 1.27015 59.5998 1.27015V1.4701Z" fill="#EAAB32"/>
<path d="M45.8998 30.5703C43.8998 30.5703 42.2998 28.9702 42.2998 26.9702C42.2998 24.9702 43.8998 23.3701 45.8998 23.3701C47.8998 23.3701 46.5998 23.6703 46.5998 24.0703C46.5998 24.4703 46.2998 24.7703 45.8998 24.7703C44.6998 24.7703 43.6998 25.7702 43.6998 26.9702C43.6998 28.1702 44.6998 29.1702 45.8998 29.1702C47.0998 29.1702 46.5998 29.4701 46.5998 29.8701C46.5998 30.2701 46.2998 30.5703 45.8998 30.5703Z" fill="#EAAB32"/>
<path d="M55.8997 54.1702C55.4997 54.1702 55.1997 53.8703 55.1997 53.4703V42.4703C55.1997 42.0703 55.4997 41.7703 55.8997 41.7703H67.0997C69.6997 41.7703 71.7997 39.6704 71.7997 37.0704V25.9703C71.7997 23.3703 70.7997 21.3702 68.8997 19.8702C65.8997 17.4702 61.4997 17.4702 58.2997 19.8702C55.4997 21.9702 53.0997 24.6703 53.0997 24.6703C52.9997 24.8703 52.7997 24.8702 52.5997 24.8702H45.8997C45.4997 24.8702 45.1997 24.5703 45.1997 24.1703C45.1997 23.7703 45.4997 23.4703 45.8997 23.4703H52.1997C52.8997 22.7703 54.9997 20.4703 57.3997 18.6703C61.1997 15.8703 66.2997 15.9703 69.7997 18.7703C72.0997 20.5703 73.1997 22.9704 73.1997 26.0704V37.1702C73.1997 40.5702 70.3997 43.2703 67.0997 43.2703H56.5997V53.5704C56.5997 53.9704 56.2997 54.2703 55.8997 54.2703V54.1702Z" fill="#EAAB32"/>
<path d="M52.4997 30.5702H45.8997C45.4997 30.5702 45.1997 30.27 45.1997 29.87C45.1997 29.47 45.4997 29.1701 45.8997 29.1701H52.4997C53.4997 29.1701 54.3997 28.7702 55.0997 28.0702L59.7997 23.37C60.0997 23.07 60.4997 23.07 60.7997 23.37C61.0997 23.67 61.0997 24.07 60.7997 24.37L56.0997 29.0702C55.0997 30.0702 53.7997 30.5702 52.4997 30.5702Z" fill="#EAAB32"/>
<path d="M56.7996 37.2703C56.3996 37.2703 56.0996 36.9703 56.0996 36.5703V27.4702C56.0996 27.0702 56.3996 26.7703 56.7996 26.7703C57.1996 26.7703 57.4996 27.0702 57.4996 27.4702V36.5703C57.4996 36.9703 57.1996 37.2703 56.7996 37.2703Z" fill="#EAAB32"/>
<path d="M53.8998 35.2703H36.4998C36.0998 35.2703 35.7998 34.9703 35.7998 34.5703C35.7998 34.1703 36.0998 33.8701 36.4998 33.8701H53.8998C54.2998 33.8701 54.5998 34.1703 54.5998 34.5703C54.5998 34.9703 54.2998 35.2703 53.8998 35.2703Z" fill="#EAAB32"/>
<path d="M46.5999 53.8701C46.5999 53.8701 46.5999 53.8701 46.4999 53.8701C46.0999 53.8701 45.8999 53.3702 45.8999 52.9702L49.6999 34.3701C49.6999 33.9701 50.1999 33.7703 50.5999 33.7703C50.9999 33.7703 51.1999 34.2702 51.1999 34.6702L47.3999 53.2703C47.3999 53.5703 46.9999 53.8701 46.6999 53.8701H46.5999Z" fill="#EAAB32"/>
</svg>
