<svg width="80" height="66" viewBox="0 0 80 66" fill="none" xmlns="http://www.w3.org/2000/svg">
<path d="M68.2297 65.6009H7.21262C3.23324 65.6009 0 62.3677 0 58.3885V10.8859C0 10.3885 0.414518 10.0569 0.829036 10.0569C1.24355 10.0569 1.65807 10.4714 1.65807 10.8859V58.3885C1.65807 61.4558 4.14518 63.9429 7.12971 63.9429H68.1468C71.2142 63.9429 73.7013 61.4558 73.7013 58.3885V45.2072C73.7013 44.7098 74.1159 44.3781 74.5304 44.3781C74.9449 44.3781 75.3594 44.7927 75.3594 45.2072V58.3885C75.3594 62.3677 72.1262 65.6009 68.1468 65.6009H68.2297Z" fill="#852B90"/>
<path d="M74.6122 31.6937C74.1147 31.6937 73.7831 31.2792 73.7831 30.8647V22.0772C73.7831 19.0098 71.296 16.5228 68.2286 16.5228C65.1611 16.5228 67.3995 16.1083 67.3995 15.6938C67.3995 15.2793 67.8141 14.8647 68.2286 14.8647C72.208 14.8647 75.4412 18.0979 75.4412 22.0772V30.8647C75.4412 31.3621 75.0267 31.6937 74.6122 31.6937Z" fill="#852B90"/>
<path d="M68.2297 16.5233H5.63745C2.48711 16.5233 0 13.9533 0 10.886C0 7.81861 2.3213 5.41448 5.30583 5.24867L63.5042 0.689088C64.9136 0.606187 66.4058 1.10361 67.4836 2.09842C68.5613 3.09324 69.1416 4.50255 69.1416 5.91188V15.6942C69.1416 16.1917 68.7271 16.5233 68.3126 16.5233H68.2297ZM63.8358 2.34712C63.7529 2.34712 63.67 2.34712 63.5871 2.34712L5.38874 6.9067C3.31615 7.07251 1.74098 8.81343 1.74098 10.886C1.74098 12.9585 3.48195 14.8652 5.72035 14.8652H67.4007V5.91188C67.4007 4.91706 66.9861 4.00516 66.24 3.34195C65.5768 2.76164 64.7477 2.43 63.8358 2.43V2.34712Z" fill="#852B90"/>
<path d="M79.1713 46.0365H59.1916C54.7977 46.0365 51.1499 42.3889 51.1499 37.9951C51.1499 33.6013 54.7977 29.9536 59.1916 29.9536H79.1713C79.6688 29.9536 80.0004 30.3681 80.0004 30.7826V45.1246C80.0004 45.622 79.5859 45.9536 79.1713 45.9536V46.0365ZM59.1087 31.6116C55.6267 31.6116 52.808 34.4303 52.808 37.9121C52.808 41.394 55.6267 44.2127 59.1087 44.2127H78.2594V31.5288H59.1087V31.6116Z" fill="#852B90"/>
<path d="M59.608 41.3929C57.7012 41.3929 56.209 39.8178 56.209 37.994C56.209 36.1701 57.7842 34.595 59.608 34.595C61.4319 34.595 63.0071 36.1701 63.0071 37.994C63.0071 39.8178 61.4319 41.3929 59.608 41.3929ZM59.608 36.253C58.6961 36.253 57.8671 36.9991 57.8671 37.994C57.8671 38.9888 58.6132 39.7349 59.608 39.7349C60.6029 39.7349 61.349 38.9888 61.349 37.994C61.349 36.9991 60.6029 36.253 59.608 36.253Z" fill="#852B90"/>
</svg>
