<svg width="63" height="70" viewBox="0 0 63 70" fill="none" xmlns="http://www.w3.org/2000/svg">
<g clip-path="url(#clip0_445_20408)">
<path d="M45.0022 0.140625C46.6043 0.578038 47.8298 1.58364 48.2468 3.25062L48.2812 13.49C54.1173 13.8011 59.4915 17.8731 61.5136 23.3521C65.0646 32.9736 58.6187 43.2416 48.5263 44.1074L48.3036 44.3329L48.2887 65.6158C48.0675 67.5278 46.5117 68.9557 44.6286 69.1331L13.3155 69.1391C11.6013 69.1617 9.5194 67.167 9.5194 65.4594V56.2347H0.795914C0.770507 56.2347 0.532879 56.0032 0.5 55.9326V32.3889C0.532879 32.3183 0.770507 32.0868 0.795914 32.0868H9.51791V3.81579C9.51791 3.71659 9.78244 2.82222 9.84969 2.64936C10.3339 1.38372 11.5609 0.547975 12.7984 0.140625L45.0022 0.140625ZM46.6432 7.19034V3.36636C46.6432 2.98456 45.6673 2.03307 45.2339 1.93387C34.4614 1.64827 23.5858 1.79107 12.7939 1.86172C12.2125 2.01654 11.1589 3.0973 11.1589 3.66548V7.19034H46.6432ZM46.6432 8.83928H11.1574V32.0868H32.3287C31.5067 28.9783 31.964 25.5151 33.2449 22.584C35.5315 17.35 40.9013 13.5666 46.6417 13.4885V8.83928H46.6432ZM50.3705 19.9384C50.0208 18.8592 49.68 17.6281 49.0912 16.6511C46.6387 12.5821 44.6749 17.565 44.1085 19.9384H50.3705ZM36.8018 19.9384H42.4675C42.8068 18.4022 43.3269 16.7939 44.2564 15.5132C43.696 15.3839 42.8875 15.7477 42.321 15.9657C40.1988 16.7819 38.238 18.1783 36.8018 19.9384ZM57.6757 19.9384C55.7851 17.7168 53.1727 16.0333 50.2973 15.4365L51.3793 17.798L52.01 19.9384H57.6757ZM42.0206 21.5889H35.6839C34.2776 23.4107 33.8187 25.7871 33.5213 28.0388H41.4228L42.0192 21.5889H42.0206ZM43.0638 28.0388H51.4137L50.8159 21.5904L43.7468 21.5799C43.2447 23.6813 43.0294 25.8698 43.0638 28.0388ZM60.8067 28.0388C60.7903 25.8082 60.0864 23.4092 58.7936 21.5889H52.4569L53.0532 28.0388H60.8067ZM41.4243 29.6878H33.5228C33.7948 31.959 34.3642 34.2528 35.6854 36.1377H42.0221L41.4258 29.6878H41.4243ZM51.4137 29.6878H43.0638C43.0294 31.8568 43.2447 34.0439 43.7468 36.1468L50.6784 36.0731C50.9444 35.8792 51.6409 29.9163 51.4137 29.6878ZM60.8067 29.6878H53.0532L52.4569 36.1377H58.8683C59.8995 34.1521 60.856 31.9831 60.8067 29.6878ZM32.7771 33.7372H1.91381V54.5106L39.4859 54.7361V41.9865L37.5476 40.7869V51.9613C37.5476 52.1432 37.029 52.7489 36.7345 52.6437L4.24974 52.4979C4.01809 52.3506 4.0166 51.9192 3.99567 51.6682C3.59514 46.8145 4.31401 41.4183 3.99418 36.5045C3.90002 36.2851 4.43207 35.6868 4.52324 35.6868H33.5228L32.7771 33.7372ZM35.9081 50.9857V39.0613L34.4913 37.3357H5.64114V50.9842H35.9081V50.9857ZM42.2448 37.6379H36.8033C38.0706 39.3845 41.7412 42.021 43.8843 42.1413C44.4462 42.1728 43.7035 41.3431 43.5899 41.0861C43.0847 39.9527 42.7933 38.7487 42.2463 37.6379H42.2448ZM50.3705 37.6379H44.1085C44.2774 38.8735 45.7226 42.5997 47.1648 42.5952C48.8835 42.5907 50.0103 38.9907 50.3705 37.6379ZM57.5263 37.6379H52.01C51.8202 38.4811 51.5512 39.4281 51.2299 40.2278C50.9429 40.9403 50.505 41.5776 50.2226 42.2886C52.6855 41.5956 55.7149 40.1782 57.3036 38.0903C57.4186 37.9385 57.5905 37.9009 57.5263 37.6394V37.6379ZM46.6432 44.2366C44.7496 44.0322 42.8516 43.7316 41.1269 42.8868V55.7101C41.1269 55.8664 40.7608 56.2347 40.6053 56.2347H11.1574V60.4345H46.6417V44.2351L46.6432 44.2366ZM46.6432 62.0849H11.1574V65.6097C11.1574 66.1629 12.2125 67.3083 12.8253 67.382C23.5992 67.5263 34.4733 67.6059 45.2339 67.3414C45.6673 67.2437 46.6432 66.2907 46.6432 65.9089V62.0849Z" fill="white"/>
<path d="M20.5505 23.388H14.2138C13.8417 23.388 13.7236 22.8664 13.6922 22.5658C13.5652 21.3844 13.5308 17.9963 13.6847 16.8569C13.7281 16.5322 14.0613 16.0392 14.3632 16.0392H20.5505C20.6148 15.1839 20.1664 13.5951 21.4816 13.6627L31.1183 19.28L31.2886 19.8587C31.2483 20.26 30.6804 20.5396 30.3785 20.7515C27.7392 22.5914 24.3885 24.0314 21.6341 25.757C20.0454 26.0771 20.6566 24.4117 20.5505 23.3895V23.388ZM21.5205 17.6896H15.3332V21.7391H21.2231C21.5758 21.7391 22.0719 22.2291 22.1601 22.5959C22.2289 22.886 22.0406 23.6526 22.4127 23.5368L28.7509 19.9368L28.5043 19.5114L22.2647 15.8904C22.1437 16.4526 22.3156 17.5168 21.5205 17.6896Z" fill="white"/>
<path d="M21.616 40.0174C21.6474 40.0534 22.2183 40.2022 22.4799 40.4217C23.1987 41.0245 23.9834 43.0687 22.6428 43.2777C21.5563 43.4475 21.8671 42.2149 21.6056 41.7866C21.2484 41.2003 19.5163 41.531 19.8241 42.6313C20.2411 43.2656 21.1214 43.3573 21.7326 43.7211C23.3751 44.7011 23.9953 46.774 22.2647 47.987C21.9792 48.1869 21.486 48.2681 21.4591 48.3011C21.353 48.4259 21.6803 49.8419 20.6371 49.7878C19.6687 49.7381 19.9661 48.7055 19.6567 48.3583C19.4221 48.0952 18.8377 48.0441 18.4835 47.4383C17.962 46.544 17.9605 44.5373 19.3563 45.2122C19.9108 45.4798 19.6881 46.308 19.8764 46.6372C20.1978 47.2024 21.5294 46.8611 21.6684 46.2028C21.8821 45.2257 19.9243 44.7823 19.3055 44.3614C17.6197 43.213 17.9186 41.4724 19.3638 40.2669C19.5207 40.1361 19.8794 40.0805 19.9257 40.0098C20.1454 39.6716 19.8017 38.4541 20.9166 38.5338C21.8208 38.627 21.501 39.8821 21.6146 40.0174H21.616Z" fill="white"/>
<path d="M25.2763 45.0153L31.9538 44.9897C32.8864 45.3249 32.8042 46.4673 31.7984 46.6267C30.7925 46.786 26.6737 46.78 25.7037 46.6267C24.7936 46.4839 24.4379 45.5294 25.2763 45.0138V45.0153Z" fill="white"/>
<path d="M7.80356 47.8367H14.6619C15.0176 47.8367 15.6079 49.3398 13.9236 49.4931C12.0495 49.663 9.88842 49.3789 7.9844 49.454C7.12207 49.1579 7.05332 48.3372 7.80356 47.8367Z" fill="white"/>
<path d="M16.4897 43.1513C16.3253 43.3167 15.9427 43.3227 15.7126 43.3437C14.2988 43.464 10.954 43.5121 9.60149 43.3242C8.59419 43.1844 8.67489 41.8751 9.75094 41.6978C10.7463 41.5339 14.6589 41.558 15.6931 41.7023C16.4867 41.8135 17.1174 42.5215 16.4912 43.1528L16.4897 43.1513Z" fill="white"/>
<path d="M25.5777 41.719C26.3609 41.5416 30.7592 41.5732 31.644 41.7009C32.5287 41.8287 33.0189 42.6554 32.2657 43.1981C31.6275 43.658 26.5507 43.1409 25.3999 43.3333C24.4897 43.0282 24.678 41.9219 25.5777 41.719Z" fill="white"/>
<path d="M9.10701 45.173C9.55985 44.7176 14.982 45.1309 15.9997 44.9911C16.9951 45.3369 16.9039 46.4537 15.8458 46.6281C14.9401 46.7769 10.6538 46.7784 9.74966 46.6281C9.02332 46.5078 8.57646 45.7051 9.10552 45.173H9.10701Z" fill="white"/>
<path d="M26.8873 47.8367H33.7457C34.1014 47.8367 34.6917 49.3398 33.0074 49.4931C31.9239 49.5923 28.0277 49.6464 27.1011 49.421C26.6542 49.3128 26.433 49.1219 26.3643 48.6469L26.8873 47.8367Z" fill="white"/>
<path d="M7.80354 40.4879C7.7318 40.4683 7.33426 40.0414 7.30288 39.9302C7.0503 39.0088 8.04565 38.8765 8.69128 38.8329C9.84505 38.7532 13.3078 38.6676 14.2987 38.9051C15.4988 39.1922 14.9892 40.4894 14.6619 40.4894H7.80354V40.4879Z" fill="white"/>
<path d="M26.887 40.4879C26.8153 40.4683 26.4178 40.0414 26.3864 39.9302C26.1338 39.0088 27.1291 38.8765 27.7748 38.8329C28.9285 38.7532 32.3913 38.6676 33.3822 38.9051C34.5823 39.1922 34.0727 40.4894 33.7454 40.4894H26.887V40.4879Z" fill="white"/>
</g>
<defs>
<clipPath id="clip0_445_20408">
<rect width="62" height="69" fill="white" transform="translate(0.5 0.140625)"/>
</clipPath>
</defs>
</svg>
