<svg width="63" height="65" viewBox="0 0 63 65" fill="none" xmlns="http://www.w3.org/2000/svg">
<g clip-path="url(#clip0_445_20366)">
<path d="M63 4.64496V46.8928C62.5891 48.5995 61.465 50.292 59.799 50.953C59.5451 51.0533 58.4553 51.393 58.2619 51.393H40.236C40.3589 52.6045 40.4233 53.8611 40.6228 55.0624C40.7034 55.5453 40.7517 56.1368 40.9934 56.5604C41.5897 57.6082 43.6949 57.9213 44.7243 58.7686C46.3742 60.1275 47.0551 63.1706 44.6659 64.1406H18.3382C15.8785 63.1644 16.6822 59.9392 18.4006 58.6417C19.3998 57.8886 21.4083 57.6185 22.0127 56.5604C22.2544 56.1347 22.3027 55.5453 22.3833 55.0624C22.5828 53.8611 22.6472 52.6045 22.7701 51.393H4.7422C2.57458 51.393 -0.0100432 48.6978 2.93483e-05 46.4589V5.07881C0.20551 2.44088 2.27039 0.349367 4.86106 0.140625L58.2619 0.146764C60.0246 0.349367 61.6261 1.42787 62.4319 3.03641L63.002 4.64496H63ZM4.89732 2.30172C3.22527 2.57391 2.23614 3.75678 2.09311 5.45128V46.0824C2.23413 47.6275 3.27362 49.0007 4.86106 49.146H58.1471C59.7365 49.0027 60.774 47.6275 60.915 46.0824V5.45332C60.7599 3.61762 59.5794 2.42247 57.7784 2.26693L4.89933 2.30377L4.89732 2.30172ZM18.9526 62.0164H44.0535C44.0877 59.9064 41.7791 59.9208 40.4213 59.0203C37.9576 57.3872 38.6304 53.9614 38.012 51.4073L25.0002 51.4114C24.3193 54.035 25.0888 57.4895 22.4377 59.1206C21.1243 59.9289 18.87 59.9658 18.9526 62.0184V62.0164Z" fill="white"/>
<path d="M5.87829 4.42395L56.7912 4.38916C57.8549 4.42804 58.7835 5.37557 58.8218 6.45203L58.7332 41.2445C58.5217 42.0917 57.7924 42.7486 56.9161 42.7732L5.56403 42.6852C4.69174 42.3598 4.26466 41.6333 4.18408 40.7124L4.27272 5.91994C4.44194 5.26097 5.21551 4.5406 5.87829 4.426V4.42395ZM6.27918 6.51956V40.6428H56.7247V6.51956H6.27918Z" fill="white"/>
<path d="M43.0745 18.2645C44.122 18.2645 45.0507 19.1567 45.1615 20.2066C45.3086 21.6105 45.3549 23.5853 44.1663 24.4531L44.1784 31.2044C45.3247 32.3361 45.3227 34.0327 45.1595 35.5819C45.0588 36.5356 44.404 37.1556 43.5358 37.434L19.9921 37.524C18.9063 37.4319 17.9695 36.7197 17.8426 35.5819C17.6734 34.0572 17.6674 32.3136 18.8237 31.2044L18.8358 24.4531C17.6372 23.6058 17.6654 21.4918 17.8527 20.094C17.9816 19.126 18.9546 18.246 19.9277 18.2645C20.1009 16.7419 19.4039 14.3823 20.802 13.3406L31.3157 8.64185L31.8999 8.67459C34.8492 10.015 37.9052 11.1877 40.8101 12.6223C41.485 12.9559 42.3271 13.2567 42.7219 13.93C43.4008 15.0883 42.9173 16.9465 43.0704 18.2624L43.0745 18.2645ZM40.9773 18.2686V15.207L31.5655 10.8868L22.0308 15.207V18.2686H40.9794H40.9773ZM43.0684 20.3949H19.9377V22.5191H43.0684V20.3949ZM23.1368 31.0182V24.8317L22.9514 24.6434H21.0437V31.0182H23.1348H23.1368ZM28.304 24.6434H25.2279V31.0182H28.304V24.6434ZM30.518 24.6434V31.0182H32.4862V24.6434H30.518ZM34.7021 24.6434V31.0182H37.7783V24.6434H34.7021ZM41.9604 24.6434H40.0527L39.8673 24.8317V31.0182H41.9584V24.6434H41.9604ZM19.9377 33.2673V35.2667H43.0684V33.2673H19.9377Z" fill="white"/>
</g>
<defs>
<clipPath id="clip0_445_20366">
<rect width="63" height="64" fill="white" transform="translate(0 0.140625)"/>
</clipPath>
</defs>
</svg>
