<svg width="80" height="81" viewBox="0 0 80 81" fill="none" xmlns="http://www.w3.org/2000/svg">
<path d="M60.2387 62.2892C56.5657 62.2892 53.5537 59.2773 53.5537 55.6042C53.5537 51.9311 56.5657 48.9192 60.2387 48.9192C63.9118 48.9192 66.9238 51.9311 66.9238 55.6042C66.9238 59.2773 63.9118 62.2892 60.2387 62.2892ZM60.2387 50.6088C57.5207 50.6088 55.2433 52.8861 55.2433 55.6042C55.2433 58.3223 57.5207 60.5996 60.2387 60.5996C62.9568 60.5996 65.2341 58.3223 65.2341 55.6042C65.2341 52.8861 62.9568 50.6088 60.2387 50.6088Z" fill="#852B90"/>
<path d="M69.7888 71.8395H50.6887C50.2479 71.8395 49.8071 71.4722 49.8071 70.958C49.8071 65.2279 54.5087 60.5264 60.2387 60.5264C65.9688 60.5264 70.6703 65.2279 70.6703 70.958C70.6703 76.688 70.303 71.8395 69.7888 71.8395ZM51.5702 70.1499H68.9072C68.4664 65.7421 64.7199 62.2894 60.2387 62.2894C55.7576 62.2894 52.011 65.7421 51.5702 70.1499Z" fill="#852B90"/>
<path d="M60.2388 80.1407C49.293 80.1407 40.4775 71.2518 40.4775 60.3794C40.4775 49.5071 49.3664 40.6182 60.2388 40.6182C71.1112 40.6182 80.0001 49.5071 80.0001 60.3794C80.0001 71.2518 71.1112 80.1407 60.2388 80.1407ZM60.2388 42.3078C50.248 42.3078 42.1672 50.3886 42.1672 60.3794C42.1672 70.3703 50.248 78.451 60.2388 78.451C70.2296 78.451 78.3104 70.3703 78.3104 60.3794C78.3104 50.3886 70.2296 42.3078 60.2388 42.3078Z" fill="#852B90"/>
<path d="M19.7612 39.6631C8.81542 39.6631 0 30.7743 0 19.9019C0 9.02953 8.88888 0.140625 19.7612 0.140625C30.6336 0.140625 39.5225 9.02953 39.5225 19.9019C39.5225 30.7743 30.6336 39.6631 19.7612 39.6631ZM19.7612 1.83024C9.77043 1.83024 1.68961 9.91107 1.68961 19.9019C1.68961 29.8927 9.77043 37.9735 19.7612 37.9735C29.7521 37.9735 37.8329 29.8927 37.8329 19.9019C37.8329 9.91107 29.7521 1.83024 19.7612 1.83024Z" fill="#852B90"/>
<path d="M61.6348 35.3289C61.1941 35.3289 60.7533 34.9616 60.7533 34.4473V18.0653H44.3713C43.9305 18.0653 43.4897 17.698 43.4897 17.1838C43.4897 16.6696 43.8571 16.3022 44.3713 16.3022H61.5614C62.0021 16.3022 62.4429 16.6696 62.4429 17.1838V34.3739C62.4429 34.8146 62.0756 35.2554 61.5614 35.2554L61.6348 35.3289Z" fill="#852B90"/>
<path d="M35.7762 61.1875H18.5861C18.1454 61.1875 17.7046 60.8203 17.7046 60.306V43.1159C17.7046 42.6752 18.0719 42.2344 18.5861 42.2344C19.1004 42.2344 19.4677 42.6017 19.4677 43.1159V59.4979H35.8497C36.2905 59.4979 36.7312 59.8652 36.7312 60.3795C36.7312 60.8937 36.3639 61.261 35.8497 61.261L35.7762 61.1875Z" fill="#852B90"/>
<path d="M32.3232 64.7137C32.1028 64.7137 31.8824 64.6402 31.7354 64.4933C31.3681 64.1259 31.3681 63.6117 31.7354 63.3179L34.6005 60.4528L31.7354 57.5879C31.3681 57.2206 31.3681 56.7063 31.7354 56.4124C32.1028 56.0451 32.617 56.0451 32.9843 56.4124L36.437 59.8652C36.8043 60.2325 36.8043 60.7467 36.437 61.0406L32.9108 64.5667C32.7639 64.7137 32.5435 64.7871 32.3232 64.7871V64.7137Z" fill="#852B90"/>
<path d="M47.897 21.5916C47.6766 21.5916 47.4562 21.5181 47.3093 21.3712L43.8566 17.9185C43.7097 17.7715 43.6362 17.5512 43.6362 17.3308C43.6362 17.1104 43.7097 16.89 43.8566 16.7431L47.3828 13.2169C47.7501 12.8496 48.2643 12.8496 48.6316 13.2169C48.9989 13.5842 48.9989 14.0985 48.6316 14.3923L45.7666 17.2573L48.6316 20.1223C48.9989 20.4896 48.9989 21.0038 48.6316 21.2977C48.4847 21.4446 48.2643 21.5181 48.0439 21.5181L47.897 21.5916Z" fill="#852B90"/>
<path d="M19.6879 30.9945V28.5703C16.7494 28.4968 14.766 26.8072 14.3252 24.236H14.8394C15.3536 26.7337 17.3371 27.9826 19.6879 28.1295V19.461C16.6025 18.5795 14.9863 17.6979 14.9863 15.0533C14.9863 12.4087 16.7494 10.866 19.6879 10.866V8.7356H20.2021V10.866C23.4345 11.0129 24.5364 12.8495 24.8302 14.6125H24.316C24.0221 12.8495 22.6998 11.4537 20.2756 11.3068V19.0937C22.5529 19.7549 25.1975 20.7099 25.1975 23.9422C25.1975 27.1745 23.4345 28.4968 20.2756 28.5703V30.9945H19.7614H19.6879ZM19.6879 18.9468V11.3802C17.4106 11.3802 15.5006 12.7025 15.5006 15.1268C15.5006 17.551 16.4556 18.0652 19.6879 18.9468ZM20.2021 19.6079V28.1295C22.7733 28.1295 24.6099 26.7338 24.6099 24.0157C24.6099 21.2976 22.1856 20.1956 20.2021 19.6079Z" fill="#852B90"/>
<path d="M20.2017 31.5089H19.6875C19.3937 31.5089 19.1733 31.2885 19.1733 30.9947V29.0847C16.2348 28.7908 14.2513 27.1012 13.8105 24.3831C13.8105 24.2362 13.8106 24.0893 13.9575 23.9423C14.0309 23.7954 14.1779 23.7954 14.3248 23.7954H14.839C15.0594 23.7954 15.2798 23.9423 15.3533 24.2362C15.8675 26.7339 17.7775 27.4685 19.1733 27.6889V19.9754C16.6021 19.1673 14.4717 18.2123 14.4717 15.2004C14.4717 12.1884 16.3817 10.7192 19.1733 10.4988V8.88265C19.1733 8.5888 19.3937 8.36841 19.6875 8.36841H20.2017C20.4956 8.36841 20.716 8.5888 20.716 8.88265V10.5723C23.2871 10.8661 24.9033 12.2619 25.2706 14.6861C25.2706 14.833 25.2706 14.98 25.1237 15.1269C24.9768 15.2738 24.9033 15.2738 24.7564 15.2738H24.2421C24.0218 15.2738 23.8014 15.0534 23.7279 14.833C23.5075 13.2169 22.4056 12.2619 20.716 12.0415V18.8735C22.626 19.3877 25.6379 20.4896 25.6379 24.0892C25.6379 27.6889 23.7279 28.9377 20.716 29.2316V31.1416C20.716 31.4354 20.4956 31.6558 20.2017 31.6558V31.5089ZM20.716 20.3427V27.6154C22.8464 27.395 24.0952 26.1462 24.0952 24.0158C24.0952 21.8854 22.479 20.8569 20.716 20.3427ZM19.1733 11.8946C17.5571 12.0415 16.0144 12.9965 16.0144 15.1269C16.0144 17.2573 16.5286 17.4042 19.1733 18.2858V11.8946Z" fill="#852B90"/>
</svg>
