<svg width="75" height="75" viewBox="0 0 75 75" fill="none" xmlns="http://www.w3.org/2000/svg">
<g clip-path="url(#clip0_445_20374)">
<g clip-path="url(#clip1_445_20374)">
<path d="M44.6907 22.4895H70.4012C70.4843 22.4895 71.5097 22.9318 71.6799 23.0288C72.9545 23.7518 73.7063 25.0423 73.8197 26.4904C74.3891 33.7731 73.3901 41.801 73.7995 49.1604C73.763 50.5115 71.6981 52.725 70.3992 52.725H44.6886V71.0933C44.6886 72.4263 42.3826 74.5266 40.9743 74.4964L4.86639 74.5024C2.79544 74.3146 1.09531 72.5757 0.998047 70.4955V3.35986C1.18245 1.37257 2.76099 -0.198685 4.72252 -0.489508L40.8304 -0.495567C42.2955 -0.610684 44.6927 1.54221 44.6927 2.9115V22.4895H44.6907ZM14.6517 1.93604H5.0366C4.21795 2.12184 3.62828 2.70752 3.44388 3.52546L3.50467 70.7177C3.77823 71.4548 4.37398 71.9799 5.1744 72.0769L40.9034 72.0021C41.5356 71.7679 41.9591 71.3438 42.1921 70.7177V3.28513C41.9328 2.58231 41.3998 2.10568 40.6602 1.93806L31.1261 1.91988C30.8688 1.96431 30.4432 6.54679 29.3774 6.69826L16.7004 6.76895C15.0894 6.58315 15.0793 3.21243 14.6497 1.93402L14.6517 1.93604ZM28.4614 1.92998H17.2374L17.6994 4.34138L27.9184 4.35754L28.4614 1.92998ZM71.3861 27.3265C71.7103 26.555 70.691 24.907 69.9453 24.907H44.6907V27.3265H71.3861ZM44.6907 29.746V32.1655H71.3861V29.746H44.6907ZM71.3861 34.5829H44.6907V38.2101H49.9227C50.1639 38.2101 50.788 38.8786 50.7475 39.2018C50.5975 41.5869 50.9765 44.2609 50.7637 46.6077C50.7252 47.0398 50.4232 47.8861 49.9227 47.8861H44.6907V50.3055H69.9453C70.306 50.3055 71.3861 49.2271 71.3861 48.8696V34.5829ZM48.332 40.6316H44.6927V45.4686H48.332V40.6316Z" fill="white"/>
<path d="M37.4185 37.0024C37.4185 45.0222 30.8956 51.5233 22.8489 51.5233C14.8022 51.5233 8.2793 45.0222 8.2793 37.0024C8.2793 28.9826 14.8022 22.4814 22.8489 22.4814C30.8956 22.4814 37.4185 28.9826 37.4185 37.0024ZM34.9565 37.0004C34.9565 30.3357 29.5339 24.9312 22.8469 24.9312C16.1599 24.9312 10.7373 30.3357 10.7373 37.0004C10.7373 43.6651 16.1599 49.0695 22.8469 49.0695C29.5339 49.0695 34.9565 43.6651 34.9565 37.0004Z" fill="white"/>
<path d="M17.6493 68.48L27.923 68.4558C29.2665 68.6658 29.2624 70.6491 27.923 70.8571C24.9564 71.3176 20.8651 70.538 17.779 70.8571C16.4983 70.6572 16.4173 68.8395 17.6513 68.48H17.6493Z" fill="white"/>
<path d="M56.4785 38.2444L67.9639 38.2202C69.3074 38.4303 69.3642 40.4559 67.8241 40.6336C64.3671 41.0335 60.1462 40.3368 56.6061 40.6215C55.3255 40.4216 55.2444 38.6039 56.4785 38.2444Z" fill="white"/>
<path d="M56.4785 41.8719L67.9639 41.8477C69.3074 42.0577 69.3642 44.0834 67.8241 44.2611C64.3671 44.661 60.1462 43.9642 56.6061 44.249C55.3255 44.049 55.2444 42.2314 56.4785 41.8719Z" fill="white"/>
<path d="M62.5456 45.5011C63.1474 45.3678 67.492 45.3678 68.0938 45.5011C69.2853 45.7677 69.2772 47.6742 67.9662 47.8782C67.2083 47.9953 63.2346 48.0074 62.5476 47.8539C61.3865 47.5954 61.3825 45.7596 62.5476 45.4991L62.5456 45.5011Z" fill="white"/>
<path d="M29.7849 32.1937C30.95 31.9372 31.72 33.0016 31.1729 34.0356L22.2042 42.934C21.6996 43.142 21.4504 43.0794 20.9762 42.8734C20.4271 42.6331 16.6013 39.7652 16.1008 39.2664C15.0288 38.2 15.7158 36.7156 17.1261 37.0307C17.9326 37.2104 21.2032 40.2216 21.5375 40.1651L29.7828 32.1937H29.7849Z" fill="white"/>
</g>
</g>
<defs>
<clipPath id="clip0_445_20374">
<rect width="74" height="74" fill="white" transform="translate(0.5 0.140625)"/>
</clipPath>
<clipPath id="clip1_445_20374">
<rect width="73" height="75" fill="white" transform="translate(1.00049 -0.499512)"/>
</clipPath>
</defs>
</svg>
