<svg width="80" height="52" viewBox="0 0 80 52" fill="none" xmlns="http://www.w3.org/2000/svg">
<path d="M20.0002 39.699C19.1002 39.699 18.2002 39.299 17.5002 38.699L17.3002 38.4993C15.9002 37.0993 15.8002 34.8993 17.3002 33.4993L19.6002 31.0989C20.3002 30.3989 21.1002 29.9993 22.1002 29.9993C23.1002 29.9993 23.9002 30.2993 24.6002 30.9993L24.8002 31.199C26.2002 32.599 26.3002 34.799 24.8002 36.199L22.5002 38.5989C21.8002 39.2989 21.0002 39.699 20.0002 39.699ZM20.6002 32.0989L18.3002 34.4993C17.5002 35.2993 17.5002 36.5992 18.3002 37.3992L18.5002 37.5989C18.9002 37.9989 19.4002 38.199 20.0002 38.199C20.5002 38.199 21.1002 37.9989 21.4002 37.5989L23.7002 35.199C24.5002 34.399 24.5002 33.0991 23.7002 32.2991L23.5002 32.0989C23.1002 31.6989 22.6002 31.4993 22.0002 31.4993C21.5002 31.4993 20.9002 31.6989 20.6002 32.0989Z" fill="#EAAB32"/>
<path d="M23.9001 44.199C23.0001 44.199 22.1001 43.799 21.4001 43.199L21.2001 42.9993C20.5001 42.2993 20.1001 41.4993 20.1001 40.4993C20.1001 39.5993 20.4001 38.6993 21.1001 37.9993L26.5001 32.3992C27.2001 31.6992 28.0001 31.2991 29.0001 31.2991C29.9001 31.2991 30.8001 31.5991 31.5001 32.2991L31.7001 32.4993C33.1001 33.8993 33.2001 36.0993 31.7001 37.4993L26.3001 43.0989C25.6001 43.7989 24.8001 44.199 23.8001 44.199H23.9001ZM27.6001 33.3992L22.2001 38.9993C21.8001 39.3993 21.6001 39.8993 21.6001 40.4993C21.6001 40.9993 21.8001 41.5992 22.2001 41.8992L22.4001 42.0989C22.8001 42.4989 23.3001 42.699 23.8001 42.699C24.3001 42.699 24.9001 42.4989 25.2001 42.0989L30.6001 36.4993C31.4001 35.6993 31.4001 34.3989 30.6001 33.5989L30.4001 33.3992C30.0001 32.9992 29.5001 32.7991 28.9001 32.7991C28.4001 32.7991 27.8001 32.9992 27.5001 33.3992H27.6001Z" fill="#EAAB32"/>
<path d="M28.3 47.9993C27.4 47.9993 26.5 47.5993 25.8 46.9993L25.6 46.7991C24.9 46.0991 24.5 45.2991 24.5 44.2991C24.5 43.3991 24.8 42.4991 25.5 41.7991L30.1 36.9993C30.8 36.2993 31.6 35.8992 32.6 35.8992C33.5 35.8992 34.4 36.1992 35.1 36.8992L35.3 37.0989C36 37.7989 36.4 38.5989 36.4 39.5989C36.4 40.4989 36.1 41.3989 35.4 42.0989L30.8 46.8992C30.1 47.5992 29.3 47.9993 28.3 47.9993ZM32.7 37.4993C32.2 37.4993 31.6 37.6989 31.3 38.0989L26.7 42.8992C25.9 43.6992 25.9 44.9991 26.7 45.7991L26.9 45.9993C27.3 46.3993 27.8 46.5989 28.4 46.5989C28.9 46.5989 29.5 46.3993 29.8 45.9993L34.4 41.199C34.8 40.799 35 40.299 35 39.699C35 39.199 34.8 38.5991 34.4 38.2991L34.2 38.0989C33.8 37.6989 33.3 37.4993 32.8 37.4993H32.7Z" fill="#EAAB32"/>
<path d="M32.9001 51.699C32.0001 51.699 31.1001 51.399 30.4001 50.699L30.2001 50.4993C28.8001 49.0993 28.7001 46.8993 30.2001 45.4993L33.1001 42.4993C33.8001 41.7993 34.6001 41.3992 35.6001 41.3992C36.6001 41.3992 37.4001 41.6992 38.1001 42.3992L38.3001 42.5989C39.7001 43.9989 39.8001 46.1989 38.3001 47.5989L35.4001 50.5989C34.7001 51.2989 33.8001 51.699 32.8001 51.699H32.9001ZM34.2001 43.4993L31.3001 46.4993C30.5001 47.2993 30.5001 48.5992 31.3001 49.3992L31.5001 49.5989C31.9001 49.9989 32.4001 50.199 33.0001 50.199C33.5001 50.199 34.1001 49.9989 34.4001 49.5989L37.3001 46.5989C38.1001 45.7989 38.1001 44.499 37.3001 43.699L37.1001 43.4993C36.7001 43.0993 36.2001 42.8992 35.6001 42.8992C35.1001 42.8992 34.5001 43.0993 34.2001 43.4993Z" fill="#EAAB32"/>
<path d="M10 28.0987C9.7 28.0987 9.3 27.9989 9 27.7989L0.800003 22.399C0.400003 22.099 0.1 21.6989 0 21.2989C0 20.7989 3.03984e-06 20.299 0.300003 19.899L12.4 1.39903C12.9 0.599032 14.1 0.299032 14.9 0.899032L23.1 6.29893C23.5 6.59894 23.8 6.99903 23.9 7.39903C23.9 7.89903 23.9 8.39893 23.6 8.79893L11.5 27.2989C11.2 27.6989 10.8 27.9987 10.4 28.0987C10.3 28.0987 10.2 28.0987 10 28.0987ZM13.6 2.19884L1.5 20.6988V20.899C1.5 20.899 1.50001 20.9987 1.60001 21.0987L9.8 26.4991H10C10 26.4991 10.1 26.499 10.2 26.399L22.3 7.89903V7.69884C22.3 7.69884 22.3 7.59913 22.2 7.49913L14 2.09874C13.9 2.09874 13.7 2.09874 13.6 2.09874V2.19884Z" fill="#EAAB32"/>
<path d="M69.5 28.099C69.4 28.099 69.3 28.099 69.1 28.099C68.6 28.099 68.2 27.6992 68 27.2992L55.9 8.79921C55.6 8.39921 55.5 7.89931 55.6 7.39931C55.6 6.89931 56 6.49921 56.4 6.29921L64.6 0.899305C65.4 0.399305 66.6 0.599305 67.1 1.39931L79.2 19.8993C79.5 20.2993 79.6 20.7992 79.5 21.2992C79.5 21.7992 79.1 22.1993 78.7 22.3993L70.5 27.7992C70.2 27.9992 69.9 28.099 69.5 28.099ZM65.7 2.09901C65.7 2.09901 65.6 2.09901 65.5 2.09901L57.3 7.4994C57.3 7.4994 57.2 7.59911 57.2 7.69911C57.2 7.79911 57.2 7.79931 57.2 7.89931L69.3 26.3993C69.3 26.3993 69.4 26.4994 69.5 26.4994C69.5 26.4994 69.6 26.4994 69.7 26.4994L77.9 21.099C77.9 21.099 78 20.9993 78 20.8993C78 20.8993 78 20.7991 78 20.6991L65.9 2.19911L65.7 2.09901Z" fill="#EAAB32"/>
<path d="M19.3 33.0988C19.1 33.0988 18.9 33.0991 18.8 32.8991L11.6 25.4992C11.3 25.1992 11.3 24.6991 11.6 24.3991C11.9 24.0991 12.4 24.0991 12.7 24.3991L19.9 31.799C20.2 32.099 20.2 32.5991 19.9 32.8991C19.8 32.9991 19.6 33.0988 19.4 33.0988H19.3Z" fill="#EAAB32"/>
<path d="M42.5998 50.7992C41.7998 50.7992 40.9998 50.5993 40.2998 49.9994L37.2998 47.6991C36.9998 47.4991 36.8998 46.999 37.0998 46.599C37.2998 46.299 37.7998 46.1993 38.1998 46.3993L41.1998 48.6991C42.1998 49.4991 43.6998 49.2991 44.4998 48.1991C44.8998 47.6991 45.0998 46.9992 44.9998 46.2992C44.8998 45.5992 44.4998 45.0991 43.8998 44.6991L41.2998 43.099C40.8998 42.899 40.7998 42.399 40.9998 42.099C41.1998 41.699 41.6998 41.5992 41.9998 41.7992L47.3998 45.099C48.2998 45.599 49.3998 45.399 49.9998 44.599C50.2998 44.199 50.4998 43.599 50.3998 43.099C50.3998 42.499 49.9998 42.0991 49.5998 41.6991L44.6998 38.2992C44.3998 38.0992 44.2998 37.5991 44.4998 37.1991C44.6998 36.8991 45.1998 36.7994 45.5998 36.9994L50.3998 40.3993L52.1998 41.599C53.2998 42.399 54.7998 42.199 55.6998 41.099C56.1998 40.499 56.3998 39.799 56.2998 39.099C56.1998 38.399 55.7998 37.6992 55.1998 37.2992L48.6998 33.099C48.3998 32.899 48.2998 32.399 48.4998 32.099C48.6998 31.799 49.1998 31.6993 49.4998 31.8993L55.9998 36.099L57.4998 37.099C58.2998 37.599 59.2998 37.6992 60.0998 37.2992C60.8998 36.8992 61.3998 36.1992 61.5998 35.2992C61.7998 34.3992 61.5998 33.4993 60.9998 32.8993C54.7998 25.3993 48.9998 21.5991 45.2998 19.6991C42.1998 18.0991 39.9998 17.5993 39.0998 17.3993C33.8998 24.2993 29.7998 23.299 27.7998 22.099C26.4998 21.299 25.9998 19.5991 26.6998 18.1991C29.1998 12.6991 32.7998 9.19906 37.4998 7.69906C45.0998 5.29906 52.8998 9.19906 54.7998 10.1991L57.0998 8.79916C57.4998 8.59916 57.8998 8.79896 58.0998 9.09896C58.2998 9.49896 58.0998 9.89896 57.7998 10.099L55.1998 11.6991C54.9998 11.7991 54.6998 11.7991 54.3998 11.6991C54.3998 11.6991 45.7998 6.59896 37.8998 9.09896C33.6998 10.399 30.3998 13.6992 28.0998 18.7992C27.7998 19.4992 28.0998 20.3992 28.5998 20.7992C31.3998 22.4992 34.6998 20.8991 38.1998 16.1991C38.3998 15.9991 38.5998 15.8993 38.8998 15.8993C39.2998 15.8993 49.8998 17.0994 62.1998 31.9994C63.0998 32.9994 63.3998 34.3991 63.0998 35.6991C62.7998 36.9991 61.9998 38.0991 60.7998 38.6991C59.8998 39.1991 58.7998 39.2994 57.7998 38.9994C57.9998 40.1994 57.5998 41.2991 56.8998 42.1991C55.6998 43.5991 53.5998 44.0992 51.9998 43.2992C51.9998 44.0992 51.7998 44.8994 51.1998 45.4994C50.0998 46.8994 48.0998 47.2992 46.5998 46.2992H46.3998C46.4998 47.0992 46.1998 48.0993 45.5998 48.8993C44.7998 49.8993 43.6998 50.3993 42.4998 50.3993L42.5998 50.7992Z" fill="#EAAB32"/>
<path d="M60.9002 32.4992C60.7002 32.4992 60.5002 32.4989 60.3002 32.1989C60.0002 31.8989 60.1002 31.3988 60.3002 31.0988L67.3002 25.0988C67.6002 24.7988 68.1002 24.8988 68.4002 25.0988C68.7002 25.3988 68.6002 25.8989 68.4002 26.1989L61.4002 32.1989C61.3002 32.2989 61.1002 32.3991 60.9002 32.3991V32.4992Z" fill="#EAAB32"/>
<path d="M24.5999 12.5988C24.3999 12.5988 24.3 12.5992 24.2 12.4992L21.5999 10.5988C21.2999 10.3988 21.2 9.89915 21.4 9.49915C21.6 9.19915 22.0999 9.09896 22.4999 9.29896L24.7999 10.8991C26.3999 10.1991 32 7.99876 35.4 9.09876C35.8 9.19876 36 9.69876 35.9 10.0988C35.8 10.4988 35.3 10.6988 34.9 10.5988C31.6 9.49876 24.9999 12.4992 24.9999 12.4992C24.8999 12.4992 24.8 12.4992 24.7 12.4992L24.5999 12.5988Z" fill="#EAAB32"/>
</svg>
