<svg width="66" height="62" viewBox="0 0 66 62" fill="none" xmlns="http://www.w3.org/2000/svg">
<path d="M62.5392 61.7112H2.43925C2.03925 61.7112 1.73926 61.4115 1.73926 61.0115C1.73926 60.6115 2.03925 60.3113 2.43925 60.3113H62.5392C62.9392 60.3113 63.2393 60.6115 63.2393 61.0115C63.2393 61.4115 62.9392 61.7112 62.5392 61.7112Z" fill="#EAAB32"/>
<path d="M9.43925 61.7112C9.03925 61.7112 8.73926 61.4115 8.73926 61.0115V57.2112C8.73926 56.8112 9.03925 56.5115 9.43925 56.5115C9.83925 56.5115 10.1393 56.8112 10.1393 57.2112V61.0115C10.1393 61.4115 9.83925 61.7112 9.43925 61.7112Z" fill="#EAAB32"/>
<path d="M19.2396 61.7112C18.8396 61.7112 18.5396 61.4115 18.5396 61.0115V52.1116C18.5396 51.7116 18.8396 51.4114 19.2396 51.4114C19.6396 51.4114 19.9396 51.7116 19.9396 52.1116V61.0115C19.9396 61.4115 19.6396 61.7112 19.2396 61.7112Z" fill="#EAAB32"/>
<path d="M29.0394 61.7112C28.6394 61.7112 28.3394 61.4115 28.3394 61.0115V46.1116C28.3394 45.7116 28.6394 45.4114 29.0394 45.4114C29.4394 45.4114 29.7394 45.7116 29.7394 46.1116V61.0115C29.7394 61.4115 29.4394 61.7112 29.0394 61.7112Z" fill="#EAAB32"/>
<path d="M38.9393 61.7112C38.5393 61.7112 38.2393 61.4115 38.2393 61.0115V49.1116C38.2393 48.7116 38.5393 48.4114 38.9393 48.4114C39.3393 48.4114 39.6393 48.7116 39.6393 49.1116V61.0115C39.6393 61.4115 39.3393 61.7112 38.9393 61.7112Z" fill="#EAAB32"/>
<path d="M48.7396 61.7112C48.3396 61.7112 48.0396 61.4115 48.0396 61.0115V39.7112C48.0396 39.3112 48.3396 39.0115 48.7396 39.0115C49.1396 39.0115 49.4396 39.3112 49.4396 39.7112V61.0115C49.4396 61.4115 49.1396 61.7112 48.7396 61.7112Z" fill="#EAAB32"/>
<path d="M58.5394 61.7112C58.1394 61.7112 57.8394 61.4115 57.8394 61.0115V24.9114C57.8394 24.5114 58.1394 24.2112 58.5394 24.2112C58.9394 24.2112 59.2394 24.5114 59.2394 24.9114V61.0115C59.2394 61.4115 58.9394 61.7112 58.5394 61.7112Z" fill="#EAAB32"/>
<path d="M0.739391 55.2112C0.539391 55.2112 0.339385 55.2114 0.139385 54.9114C-0.0606149 54.6114 -0.0606088 54.2114 0.239391 53.9114L25.5394 33.9114C25.7394 33.7114 26.1394 33.7114 26.3394 33.9114L35.4394 40.4114C36.7394 39.5114 40.8394 36.2113 45.3394 30.8113C50.2394 25.0113 56.5394 15.4115 59.7394 2.51147L49.8394 6.81128C49.4394 7.01128 49.0394 6.81138 48.9394 6.41138C48.7394 6.01138 48.9394 5.61147 49.3394 5.51147L60.5394 0.611571C60.7394 0.511571 61.0394 0.61118 61.2394 0.71118C61.4394 0.91118 61.5394 1.11138 61.4394 1.41138C58.3394 15.3114 51.6394 25.6112 46.4394 31.7112C40.8394 38.4112 36.0394 41.7113 35.8394 41.8113C35.6394 42.0113 35.2394 42.0113 35.0394 41.8113L25.9394 35.3113L1.13939 55.0115C1.03939 55.1115 0.839391 55.2112 0.739391 55.2112Z" fill="#EAAB32"/>
<path d="M64.8395 11.711C64.5395 11.711 64.3395 11.5111 64.2395 11.3111L60.1395 1.71105C59.9395 1.31105 60.1395 0.911144 60.5395 0.811144C60.9395 0.611144 61.3395 0.811047 61.4395 1.21105L65.5395 10.8111C65.7395 11.2111 65.5395 11.611 65.1395 11.711C65.1395 11.711 64.9395 11.711 64.8395 11.711Z" fill="#EAAB32"/>
</svg>
