<svg width="38" height="21" viewBox="0 0 38 21" fill="none" xmlns="http://www.w3.org/2000/svg">
<path d="M19.4611 0.169005C25.3611 -0.0309951 31.161 2.46891 35.261 6.56891C36.361 7.66891 37.8611 9.0691 37.5611 10.7691C37.2611 12.4691 34.161 14.7689 33.161 15.5689C24.061 22.5689 11.5611 21.3692 3.9611 12.8692C-3.6389 4.3692 2.26107 9.1692 4.56107 6.8692C8.46107 2.9692 13.8611 0.369005 19.4611 0.169005ZM6.06107 13.0689C14.7611 21.1689 28.161 20.469 35.661 11.169C36.661 9.96901 36.161 9.56891 35.261 8.56891C28.761 1.06891 18.0611 -0.73119 9.56108 4.46881C7.86108 5.46881 5.16107 7.6692 4.06107 9.3692C3.46107 10.2692 3.66103 10.5691 4.26103 11.2691C4.76103 11.8691 5.46107 12.569 6.06107 13.169V13.0689Z" fill="#892890"/>
<path d="M26.5609 10.1691C26.5609 13.7691 23.5609 16.7692 19.9609 16.7692C16.3609 16.7692 13.3608 13.7691 13.3608 10.1691C13.3608 6.56907 16.3609 3.56897 19.9609 3.56897C23.5609 3.56897 26.5609 6.56907 26.5609 10.1691ZM25.2609 10.1691C25.2609 7.26907 22.9609 4.96887 20.0609 4.96887C17.1609 4.96887 14.8608 7.26907 14.8608 10.1691C14.8608 13.0691 17.1609 15.3693 20.0609 15.3693C22.9609 15.3693 25.2609 13.0691 25.2609 10.1691Z" fill="#892890"/>
</svg>
