<svg width="12" height="12" viewBox="0 0 12 12" fill="none" xmlns="http://www.w3.org/2000/svg">
<g clip-path="url(#clip0_554_900)">
<path d="M2 7V5.5C2 4.43913 2.42143 3.42172 3.17157 2.67157C3.92172 1.92143 4.93913 1.5 6 1.5C7.06087 1.5 8.07828 1.92143 8.82843 2.67157C9.57857 3.42172 10 4.43913 10 5.5V7" stroke="white" stroke-linecap="round" stroke-linejoin="round"/>
<path d="M9 9.5C9 10.3285 7.657 11 6 11" stroke="white" stroke-linecap="round" stroke-linejoin="round"/>
<path d="M2 7C2 6.73478 2.10536 6.48043 2.29289 6.29289C2.48043 6.10536 2.73478 6 3 6H3.5C3.76522 6 4.01957 6.10536 4.20711 6.29289C4.39464 6.48043 4.5 6.73478 4.5 7V8.5C4.5 8.76522 4.39464 9.01957 4.20711 9.20711C4.01957 9.39464 3.76522 9.5 3.5 9.5H3C2.73478 9.5 2.48043 9.39464 2.29289 9.20711C2.10536 9.01957 2 8.76522 2 8.5V7Z" stroke="white" stroke-linecap="round" stroke-linejoin="round"/>
<path d="M7.5 7C7.5 6.73478 7.60536 6.48043 7.79289 6.29289C7.98043 6.10536 8.23478 6 8.5 6H9C9.26522 6 9.51957 6.10536 9.70711 6.29289C9.89464 6.48043 10 6.73478 10 7V8.5C10 8.76522 9.89464 9.01957 9.70711 9.20711C9.51957 9.39464 9.26522 9.5 9 9.5H8.5C8.23478 9.5 7.98043 9.39464 7.79289 9.20711C7.60536 9.01957 7.5 8.76522 7.5 8.5V7Z" stroke="white" stroke-linecap="round" stroke-linejoin="round"/>
</g>
<defs>
<clipPath id="clip0_554_900">
<rect width="12" height="12" fill="white"/>
</clipPath>
</defs>
</svg>
