<svg width="12" height="12" viewBox="0 0 12 12" fill="none" xmlns="http://www.w3.org/2000/svg">
<g clip-path="url(#clip0_554_908)">
<path d="M4.5 5.5C4.5 5.89782 4.65804 6.27936 4.93934 6.56066C5.22064 6.84196 5.60218 7 6 7C6.39782 7 6.77936 6.84196 7.06066 6.56066C7.34196 6.27936 7.5 5.89782 7.5 5.5C7.5 5.10218 7.34196 4.72064 7.06066 4.43934C6.77936 4.15804 6.39782 4 6 4C5.60218 4 5.22064 4.15804 4.93934 4.43934C4.65804 4.72064 4.5 5.10218 4.5 5.5Z" stroke="white" stroke-linecap="round" stroke-linejoin="round"/>
<path d="M8.8285 8.32835L6.707 10.4499C6.51949 10.6372 6.26529 10.7424 6.00025 10.7424C5.73521 10.7424 5.48101 10.6372 5.2935 10.4499L3.1715 8.32835C2.61211 7.76894 2.23117 7.0562 2.07685 6.28029C1.92252 5.50437 2.00175 4.70011 2.3045 3.96922C2.60726 3.23833 3.11995 2.61362 3.77774 2.17411C4.43553 1.73459 5.20889 1.5 6 1.5C6.79112 1.5 7.56447 1.73459 8.22226 2.17411C8.88005 2.61362 9.39274 3.23833 9.6955 3.96922C9.99826 4.70011 10.0775 5.50437 9.92316 6.28029C9.76883 7.0562 9.38789 7.76894 8.8285 8.32835Z" stroke="white" stroke-linecap="round" stroke-linejoin="round"/>
</g>
<defs>
<clipPath id="clip0_554_908">
<rect width="12" height="12" fill="white"/>
</clipPath>
</defs>
</svg>
