<svg width="29" height="30" viewBox="0 0 29 30" fill="none" xmlns="http://www.w3.org/2000/svg">
<g clip-path="url(#clip0_554_11344)">
<path d="M24.1667 4.97266L21.75 7.38932" stroke="white" stroke-width="2" stroke-linecap="round" stroke-linejoin="round"/>
<path d="M26.5833 12.8268L23.5625 12.2227" stroke="white" stroke-width="2" stroke-linecap="round" stroke-linejoin="round"/>
<path d="M16.3125 2.55859L16.9167 5.57943" stroke="white" stroke-width="2" stroke-linecap="round" stroke-linejoin="round"/>
<path d="M6.04167 4.97266H10.875L13.2917 11.0143L10.2708 12.8268C11.5649 15.4508 13.6886 17.5744 16.3125 18.8685L18.125 15.8477L24.1667 18.2643V23.0977C24.1667 23.7386 23.9121 24.3533 23.4588 24.8065C23.0056 25.2597 22.3909 25.5143 21.75 25.5143C11.9963 24.9222 4.21708 17.143 3.625 7.38932C3.625 6.74838 3.87961 6.13369 4.33283 5.68048C4.78604 5.22727 5.40073 4.97266 6.04167 4.97266Z" stroke="white" stroke-width="2" stroke-linecap="round" stroke-linejoin="round"/>
</g>
<defs>
<clipPath id="clip0_554_11344">
<rect width="29" height="29" fill="white" transform="translate(0 0.140625)"/>
</clipPath>
</defs>
</svg>
