<svg width="18" height="12" viewBox="0 0 18 12" fill="none" xmlns="http://www.w3.org/2000/svg">
<g clip-path="url(#clip0_113_9477)">
<path d="M16.52 6.40062H0.51C0.36 6.40062 0.25 6.28062 0.25 6.14062C0.25 6.00062 0.37 5.88062 0.51 5.88062H16.52C16.67 5.88062 16.78 6.00062 16.78 6.14062C16.78 6.28062 16.66 6.40062 16.52 6.40062Z" fill="#892890" stroke="#892890" stroke-width="0.5" stroke-miterlimit="10"/>
<path d="M11.7298 11.1906C11.6598 11.1906 11.5898 11.1606 11.5398 11.1106C11.4398 11.0106 11.4398 10.8406 11.5398 10.7406L16.1398 6.14058L11.5398 1.54058C11.4398 1.44058 11.4398 1.27058 11.5398 1.17058C11.6398 1.07058 11.8098 1.07058 11.9098 1.17058L16.6898 5.95058C16.7898 6.05058 16.7898 6.22058 16.6898 6.32058L11.9098 11.1006C11.8598 11.1506 11.7898 11.1806 11.7198 11.1806L11.7298 11.1906Z" fill="#892890" stroke="#892890" stroke-width="0.5" stroke-miterlimit="10"/>
</g>
<defs>
<clipPath id="clip0_113_9477">
<rect width="17.04" height="10.6" fill="white" transform="translate(0 0.840576)"/>
</clipPath>
</defs>
</svg>