<svg width="16" height="17" viewBox="0 0 16 17" fill="none" xmlns="http://www.w3.org/2000/svg">
<path fill-rule="evenodd" clip-rule="evenodd" d="M2.66496 7.4749C2.66496 4.89665 4.75504 2.80656 7.33329 2.80656C9.91154 2.80656 12.0016 4.89665 12.0016 7.4749C12.0016 8.73302 11.5039 9.87491 10.6947 10.7144C10.6722 10.7318 10.6505 10.7508 10.6298 10.7714C10.6092 10.7921 10.5902 10.8138 10.5728 10.8363C9.7333 11.6455 8.59142 12.1432 7.33329 12.1432C4.75504 12.1432 2.66496 10.0531 2.66496 7.4749ZM11.0785 12.1606C10.0522 12.982 8.75011 13.4732 7.33329 13.4732C4.02051 13.4732 1.33496 10.7877 1.33496 7.4749C1.33496 4.16211 4.02051 1.47656 7.33329 1.47656C10.6461 1.47656 13.3316 4.16211 13.3316 7.4749C13.3316 8.89171 12.8404 10.1938 12.019 11.2201L14.4703 13.6714C14.73 13.9311 14.73 14.3522 14.4703 14.6119C14.2106 14.8716 13.7895 14.8716 13.5298 14.6119L11.0785 12.1606Z" fill="#D3D6DD"/>
</svg>
